v 2.12498 0.124983 2.00205
v 2.125 0.125 2
l 1 2
v 2.125 -0.125 2
v 2.12498 -0.12498 2.00223
l 3 4
v 2.12493 0.124932 2.00411
v 2.12498 0.124983 2.00205
l 5 6
v 2.12485 0.124848 2.00617
v 2.12493 0.124932 2.00411
l 7 8
v 2.12498 -0.12498 2.00223
v 2.12492 -0.12492 2.00446
l 9 10
v 2.12473 0.124729 2.00823
v 2.12485 0.124848 2.00617
l 11 12
v 2.12458 0.124576 2.01029
v 2.12473 0.124729 2.00823
l 13 14
v 2.12492 -0.12492 2.00446
v 2.12482 -0.124821 2.00669
l 15 16
v 2.12482 -0.124821 2.00669
v 2.12468 -0.124682 2.00891
l 17 18
v 2.12439 0.124389 2.01234
v 2.12458 0.124576 2.01029
l 19 20
v 2.12468 -0.124682 2.00891
v 2.1245 -0.124503 2.01113
l 21 22
v 2.12417 0.124169 2.01439
v 2.12439 0.124389 2.01234
l 23 24
v 2.12391 0.123914 2.01644
v 2.12417 0.124169 2.01439
l 25 26
v 2.1245 -0.124503 2.01113
v 2.12428 -0.124285 2.01335
l 27 28
v 2.12428 -0.124285 2.01335
v 2.12403 -0.124027 2.01557
l 29 30
v 2.12363 0.123626 2.01848
v 2.12391 0.123914 2.01644
l 31 32
v 2.1233 0.123304 2.02052
v 2.12363 0.123626 2.01848
l 33 34
v 2.12403 -0.124027 2.01557
v 2.12373 -0.123729 2.01778
l 35 36
v 2.12295 0.122949 2.02255
v 2.1233 0.123304 2.02052
l 37 38
v 2.12373 -0.123729 2.01778
v 2.12339 -0.123393 2.01998
l 39 40
v 2.12339 -0.123393 2.01998
v 2.12302 -0.123017 2.02218
l 41 42
v 2.12256 0.12256 2.02458
v 2.12295 0.122949 2.02255
l 43 44
v 2.12209 0.122088 2.02682
v 2.12256 0.12256 2.02458
l 45 46
v 2.12302 -0.123017 2.02218
v 2.1226 -0.122601 2.02437
l 47 48
v 2.1226 -0.122601 2.02437
v 2.12215 -0.122147 2.02655
l 49 50
v 2.12152 0.121517 2.0293
v 2.12209 0.122088 2.02682
l 51 52
v 2.12215 -0.122147 2.02655
v 2.12165 -0.121654 2.02873
l 53 54
v 2.12089 0.120894 2.03177
v 2.12152 0.121517 2.0293
l 55 56
v 2.12022 0.120222 2.03423
v 2.12089 0.120894 2.03177
l 57 58
v 2.12165 -0.121654 2.02873
v 2.12112 -0.121122 2.03089
l 59 60
v 2.12112 -0.121122 2.03089
v 2.12055 -0.120552 2.03305
l 61 62
v 2.1195 0.119499 2.03667
v 2.12022 0.120222 2.03423
l 63 64
v 2.12055 -0.120552 2.03305
v 2.11994 -0.119943 2.03519
l 65 66
v 2.11873 0.118727 2.0391
v 2.1195 0.119499 2.03667
l 67 68
v 2.11994 -0.119943 2.03519
v 2.1193 -0.119296 2.03733
l 69 70
v 2.1193 -0.119296 2.03733
v 2.11861 -0.118612 2.03945
l 71 72
v 2.11791 0.117906 2.04151
v 2.11873 0.118727 2.0391
l 73 74
v 2.11704 0.117036 2.0439
v 2.11791 0.117906 2.04151
l 75 76
v 2.11861 -0.118612 2.03945
v 2.11789 -0.117889 2.04156
l 77 78
v 2.11612 0.116117 2.04628
v 2.11704 0.117036 2.0439
l 79 80
v 2.11789 -0.117889 2.04156
v 2.11713 -0.117129 2.04366
l 81 82
v 2.11713 -0.117129 2.04366
v 2.11633 -0.116332 2.04574
l 83 84
v 2.11515 0.11515 2.04864
v 2.11612 0.116117 2.04628
l 85 86
v 2.11633 -0.116332 2.04574
v 2.1155 -0.115497 2.04781
l 87 88
v 2.11414 0.114135 2.05097
v 2.11515 0.11515 2.04864
l 89 90
v 2.11307 0.113073 2.05329
v 2.11414 0.114135 2.05097
l 91 92
v 2.1155 -0.115497 2.04781
v 2.11463 -0.114626 2.04986
l 93 94
v 2.11463 -0.114626 2.04986
v 2.11372 -0.113719 2.05189
l 95 96
v 2.11196 0.111964 2.05558
v 2.11307 0.113073 2.05329
l 97 98
v 2.11372 -0.113719 2.05189
v 2.11278 -0.112775 2.05391
l 99 100
v 2.11081 0.110808 2.05785
v 2.11196 0.111964 2.05558
l 101 102
v 2.11278 -0.112775 2.05391
v 2.1118 -0.111795 2.05592
l 103 104
v 2.1118 -0.111795 2.05592
v 2.11078 -0.11078 2.0579
l 105 106
v 2.10961 0.109606 2.0601
v 2.11081 0.110808 2.05785
l 107 108
v 2.10836 0.108359 2.06232
v 2.10961 0.109606 2.0601
l 109 110
v 2.11078 -0.11078 2.0579
v 2.10973 -0.10973 2.05987
l 111 112
v 2.10707 0.107067 2.06451
v 2.10836 0.108359 2.06232
l 113 114
v 2.10973 -0.10973 2.05987
v 2.10864 -0.108644 2.06182
l 115 116
v 2.10864 -0.108644 2.06182
v 2.10752 -0.107524 2.06375
l 117 118
v 2.10558 0.105579 2.06692
v 2.10707 0.107067 2.06451
l 119 120
v 2.10752 -0.107524 2.06375
v 2.10637 -0.10637 2.06565
l 121 122
v 2.10386 0.103863 2.06955
v 2.10558 0.105579 2.06692
l 123 124
v 2.10637 -0.10637 2.06565
v 2.10518 -0.105182 2.06754
l 125 126
v 2.10518 -0.105182 2.06754
v 2.10396 -0.103961 2.06941
l 127 128
v 2.10208 0.10208 2.07214
v 2.10386 0.103863 2.06955
l 129 130
v 2.10396 -0.103961 2.06941
v 2.10271 -0.102706 2.07125
l 131 132
v 2.10271 -0.102706 2.07125
v 2.10142 -0.101419 2.07307
l 133 134
v 2.10023 0.100233 2.07469
v 2.10208 0.10208 2.07214
l 135 136
v 2.10142 -0.101419 2.07307
v 2.1001 -0.1001 2.07487
l 137 138
v 2.09832 0.0983229 2.07719
v 2.10023 0.100233 2.07469
l 139 140
v 2.1001 -0.1001 2.07487
v 2.09875 -0.0987483 2.07664
l 141 142
v 2.09875 -0.0987483 2.07664
v 2.09737 -0.0973655 2.07839
l 143 144
v 2.09737 -0.0973655 2.07839
v 2.09595 -0.0959518 2.08011
l 145 146
v 2.09432 0.0943168 2.08203
v 2.09635 0.0963503 2.07963
l 147 148
v 2.09595 -0.0959518 2.08011
v 2.09451 -0.0945075 2.08181
l 149 150
v 2.09451 -0.0945075 2.08181
v 2.09303 -0.0930331 2.08349
l 151 152
v 2.09007 0.090072 2.08667
v 2.09222 0.0922236 2.08438
l 153 154
v 2.09303 -0.0930331 2.08349
v 2.09153 -0.0915292 2.08513
l 155 156
v 2.08786 0.0878635 2.08891
v 2.09007 0.090072 2.08667
l 157 158
v 2.09153 -0.0915292 2.08513
v 2.09 -0.0899961 2.08675
l 159 160
v 2.09 -0.0899961 2.08675
v 2.08843 -0.0884344 2.08834
l 161 162
v 2.08843 -0.0884344 2.08834
v 2.08684 -0.0868446 2.08991
l 163 164
v 2.08328 0.083281 2.09322
v 2.0856 0.0855993 2.09109
l 165 166
v 2.08684 -0.0868446 2.08991
v 2.08523 -0.0852271 2.09144
l 167 168
v 2.08523 -0.0852271 2.09144
v 2.08358 -0.0835825 2.09295
l 169 170
v 2.08358 -0.0835825 2.09295
v 2.08191 -0.0819113 2.09442
l 171 172
v 2.08191 -0.0819113 2.09442
v 2.08021 -0.0802141 2.09587
l 173 174
v 2.08021 -0.0802141 2.09587
v 2.07849 -0.0784913 2.09728
l 175 176
v 2.07849 -0.0784913 2.09728
v 2.07674 -0.0767435 2.09867
l 177 178
v 2.07674 -0.0767435 2.09867
v 2.07497 -0.0749714 2.10002
l 179 180
v 2.07497 -0.0749714 2.10002
v 2.07318 -0.0731753 2.10134
l 181 182
v 2.07318 -0.0731753 2.10134
v 2.07136 -0.071356 2.10263
l 183 184
v 2.07136 -0.071356 2.10263
v 2.0689 -0.0688951 2.1043
l 185 186
v 2.05736 -0.0573591 2.11106
v 2.05437 -0.0543672 2.11256
l 187 188
v 2.05437 -0.0543672 2.11256
v 2.05134 -0.0513363 2.11397
l 189 190
v 2.05134 -0.0513363 2.11397
v 2.04827 -0.0482688 2.1153
l 191 192
v 1.88603 0.0513363 1.94866
v 1.8847 0.0482688 1.95173
l 193 194
v 1.88744 0.0543672 1.94563
v 1.88603 0.0513363 1.94866
l 195 196
v 1.89389 0.06608 1.93392
v 1.89216 0.0632176 1.93678
l 197 198
v 1.8957 0.0688951 1.9311
v 1.89389 0.06608 1.93392
l 199 200
v 1.89737 0.071356 1.92864
v 1.8957 0.0688951 1.9311
l 201 202
v 1.89866 0.0731753 1.92682
v 1.89737 0.071356 1.92864
l 203 204
v 1.89998 0.0749714 1.92503
v 1.89866 0.0731753 1.92682
l 205 206
v 1.90133 0.0767435 1.92326
v 1.89998 0.0749714 1.92503
l 207 208
v 1.90272 0.0784913 1.92151
v 1.90133 0.0767435 1.92326
l 209 210
v 1.90413 0.0802141 1.91979
v 1.90272 0.0784913 1.92151
l 211 212
v 1.90558 0.0819113 1.91809
v 1.90413 0.0802141 1.91979
l 213 214
v 1.90705 0.0835825 1.91642
v 1.90558 0.0819113 1.91809
l 215 216
v 1.90856 0.0852271 1.91477
v 1.90705 0.0835825 1.91642
l 217 218
v 1.91009 0.0868446 1.91316
v 1.90856 0.0852271 1.91477
l 219 220
v 1.9064 -0.0828479 1.91715
v 1.90863 -0.0852996 1.9147
l 221 222
v 1.91166 0.0884344 1.91157
v 1.91009 0.0868446 1.91316
l 223 224
v 1.91325 0.0899961 1.91
v 1.91166 0.0884344 1.91157
l 225 226
v 1.91487 0.0915292 1.90847
v 1.91325 0.0899961 1.91
l 227 228
v 1.91092 -0.0876914 1.91231
v 1.91328 -0.0900216 1.90998
l 229 230
v 1.91328 -0.0900216 1.90998
v 1.91569 -0.0922885 1.90771
l 231 232
v 1.91651 0.0930331 1.90697
v 1.91487 0.0915292 1.90847
l 233 234
v 1.91819 0.0945075 1.90549
v 1.91651 0.0930331 1.90697
l 235 236
v 1.91569 -0.0922885 1.90771
v 1.91817 -0.0944906 1.90551
l 237 238
v 1.91989 0.0959518 1.90405
v 1.91819 0.0945075 1.90549
l 239 240
v 1.91817 -0.0944906 1.90551
v 1.9207 -0.0966263 1.90337
l 241 242
v 1.92161 0.0973655 1.90263
v 1.91989 0.0959518 1.90405
l 243 244
v 1.92336 0.0987483 1.90125
v 1.92161 0.0973655 1.90263
l 245 246
v 1.9207 -0.0966263 1.90337
v 1.92329 -0.0986941 1.90131
l 247 248
v 1.92513 0.1001 1.8999
v 1.92336 0.0987483 1.90125
l 249 250
v 1.92329 -0.0986941 1.90131
v 1.92593 -0.100693 1.89931
l 251 252
v 1.92693 0.101419 1.89858
v 1.92513 0.1001 1.8999
l 253 254
v 1.92875 0.102706 1.89729
v 1.92693 0.101419 1.89858
l 255 256
v 1.92593 -0.100693 1.89931
v 1.92836 -0.102431 1.89757
l 257 258
v 1.93059 0.103961 1.89604
v 1.92875 0.102706 1.89729
l 259 260
v 1.92836 -0.102431 1.89757
v 1.93057 -0.103945 1.89605
l 261 262
v 1.93246 0.105182 1.89482
v 1.93059 0.103961 1.89604
l 263 264
v 1.93435 0.10637 1.89363
v 1.93246 0.105182 1.89482
l 265 266
v 1.93057 -0.103945 1.89605
v 1.93282 -0.105412 1.89459
l 267 268
v 1.93625 0.107524 1.89248
v 1.93435 0.10637 1.89363
l 269 270
v 1.93818 0.108644 1.89136
v 1.93625 0.107524 1.89248
l 271 272
v 1.93282 -0.105412 1.89459
v 1.9351 -0.10683 1.89317
l 273 274
v 1.9351 -0.10683 1.89317
v 1.93741 -0.108199 1.8918
l 275 276
v 1.94013 0.10973 1.89027
v 1.93818 0.108644 1.89136
l 277 278
v 1.93741 -0.108199 1.8918
v 1.93974 -0.109518 1.89048
l 279 280
v 1.9421 0.11078 1.88922
v 1.94013 0.10973 1.89027
l 281 282
v 1.94408 0.111795 1.8882
v 1.9421 0.11078 1.88922
l 283 284
v 1.93974 -0.109518 1.89048
v 1.94211 -0.110786 1.88921
l 285 286
v 1.94609 0.112775 1.88723
v 1.94408 0.111795 1.8882
l 287 288
v 1.94211 -0.110786 1.88921
v 1.9445 -0.112003 1.888
l 289 290
v 1.94811 0.113719 1.88628
v 1.94609 0.112775 1.88723
l 291 292
v 1.95014 0.114626 1.88537
v 1.94811 0.113719 1.88628
l 293 294
v 1.9445 -0.112003 1.888
v 1.94692 -0.113169 1.88683
l 295 296
v 1.94692 -0.113169 1.88683
v 1.94936 -0.114283 1.88572
l 297 298
v 1.95219 0.115497 1.8845
v 1.95014 0.114626 1.88537
l 299 300
v 1.94936 -0.114283 1.88572
v 1.95182 -0.115344 1.88466
l 301 302
v 1.95426 0.116332 1.88367
v 1.95219 0.115497 1.8845
l 303 304
v 1.95634 0.117129 1.88287
v 1.95426 0.116332 1.88367
l 305 306
v 1.95182 -0.115344 1.88466
v 1.95431 -0.116351 1.88365
l 307 308
v 1.95844 0.117889 1.88211
v 1.95634 0.117129 1.88287
l 309 310
v 1.95431 -0.116351 1.88365
v 1.95682 -0.117305 1.88269
l 311 312
v 1.96055 0.118612 1.88139
v 1.95844 0.117889 1.88211
l 313 314
v 1.96267 0.119296 1.8807
v 1.96055 0.118612 1.88139
l 315 316
v 1.95682 -0.117305 1.88269
v 1.95935 -0.118205 1.88179
l 317 318
v 1.95935 -0.118205 1.88179
v 1.96164 -0.118969 1.88103
l 319 320
v 1.96481 0.119943 1.88006
v 1.96267 0.119296 1.8807
l 321 322
v 1.96164 -0.118969 1.88103
v 1.96372 -0.119618 1.88038
l 323 324
v 1.96695 0.120552 1.87945
v 1.96481 0.119943 1.88006
l 325 326
v 1.96911 0.121122 1.87888
v 1.96695 0.120552 1.87945
l 327 328
v 1.96372 -0.119618 1.88038
v 1.9658 -0.120231 1.87977
l 329 330
v 1.9658 -0.120231 1.87977
v 1.9679 -0.120807 1.87919
l 331 332
v 1.97127 0.121654 1.87835
v 1.96911 0.121122 1.87888
l 333 334
v 1.9679 -0.120807 1.87919
v 1.97 -0.121347 1.87865
l 335 336
v 1.97 -0.121347 1.87865
v 1.97212 -0.121851 1.87815
l 337 338
v 1.97345 0.122147 1.87785
v 1.97127 0.121654 1.87835
l 339 340
v 1.97563 0.122601 1.8774
v 1.97345 0.122147 1.87785
l 341 342
v 1.97212 -0.121851 1.87815
v 1.97424 -0.122317 1.87768
l 343 344
v 1.97782 0.123017 1.87698
v 1.97563 0.122601 1.8774
l 345 346
v 1.98002 0.123393 1.87661
v 1.97782 0.123017 1.87698
l 347 348
v 1.97424 -0.122317 1.87768
v 1.97637 -0.122747 1.87725
l 349 350
v 1.97637 -0.122747 1.87725
v 1.97851 -0.123139 1.87686
l 351 352
v 1.98222 0.123729 1.87627
v 1.98002 0.123393 1.87661
l 353 354
v 1.97851 -0.123139 1.87686
v 1.98065 -0.123494 1.87651
l 355 356
v 1.98443 0.124027 1.87597
v 1.98222 0.123729 1.87627
l 357 358
v 1.98665 0.124285 1.87572
v 1.98443 0.124027 1.87597
l 359 360
v 1.98065 -0.123494 1.87651
v 1.98281 -0.123812 1.87619
l 361 362
v 1.98281 -0.123812 1.87619
v 1.98496 -0.124092 1.87591
l 363 364
v 1.98887 0.124503 1.8755
v 1.98665 0.124285 1.87572
l 365 366
v 1.98496 -0.124092 1.87591
v 1.98712 -0.124335 1.87567
l 367 368
v 1.99109 0.124682 1.87532
v 1.98887 0.124503 1.8755
l 369 370
v 1.99331 0.124821 1.87518
v 1.99109 0.124682 1.87532
l 371 372
v 1.98712 -0.124335 1.87567
v 1.98929 -0.12454 1.87546
l 373 374
v 1.98929 -0.12454 1.87546
v 1.99145 -0.124707 1.87529
l 375 376
v 1.99554 0.12492 1.87508
v 1.99331 0.124821 1.87518
l 377 378
v 1.99145 -0.124707 1.87529
v 1.99362 -0.124837 1.87516
l 379 380
v 1.99362 -0.124837 1.87516
v 1.9958 -0.124929 1.87507
l 381 382
v 1.99777 0.12498 1.87502
v 1.99554 0.12492 1.87508
l 383 384
v 2 0.125 1.875
v 1.99777 0.12498 1.87502
l 385 386
v 1.9958 -0.124929 1.87507
v 1.9979 -0.124982 1.87502
l 387 388
v 2.00193 0.124985 1.87501
v 2 0.125 1.875
l 389 390
v 2.00385 0.124941 1.87506
v 2.00193 0.124985 1.87501
l 391 392
v 1.9979 -0.124982 1.87502
v 2 -0.125 1.875
l 393 394
v 2 -0.125 1.875
v 2.00205 -0.124983 1.87502
l 395 396
v 2.00603 0.124855 1.87515
v 2.00385 0.124941 1.87506
l 397 398
v 2.00205 -0.124983 1.87502
v 2.00409 -0.124933 1.87507
l 399 400
v 2.0082 0.124731 1.87527
v 2.00603 0.124855 1.87515
l 401 402
v 2.01036 0.12457 1.87543
v 2.0082 0.124731 1.87527
l 403 404
v 2.00409 -0.124933 1.87507
v 2.00613 -0.124849 1.87515
l 405 406
v 2.00613 -0.124849 1.87515
v 2.00818 -0.124732 1.87527
l 407 408
v 2.01253 0.124371 1.87563
v 2.01036 0.12457 1.87543
l 409 410
v 2.00818 -0.124732 1.87527
v 2.01022 -0.124582 1.87542
l 411 412
v 2.01022 -0.124582 1.87542
v 2.01225 -0.124398 1.8756
l 413 414
v 2.01469 0.124134 1.87587
v 2.01253 0.124371 1.87563
l 415 416
v 2.01685 0.12386 1.87614
v 2.01469 0.124134 1.87587
l 417 418
v 2.01225 -0.124398 1.8756
v 2.01429 -0.124181 1.87582
l 419 420
v 2.019 0.123548 1.87645
v 2.01685 0.12386 1.87614
l 421 422
v 2.01429 -0.124181 1.87582
v 2.01632 -0.123931 1.87607
l 423 424
v 2.01632 -0.123931 1.87607
v 2.01834 -0.123647 1.87635
l 425 426
v 2.02114 0.123199 1.8768
v 2.019 0.123548 1.87645
l 427 428
v 2.02328 0.122813 1.87719
v 2.02114 0.123199 1.8768
l 429 430
v 2.01834 -0.123647 1.87635
v 2.02036 -0.12333 1.87667
l 431 432
v 2.02036 -0.12333 1.87667
v 2.02238 -0.122981 1.87702
l 433 434
v 2.02541 0.122389 1.87761
v 2.02328 0.122813 1.87719
l 435 436
v 2.02238 -0.122981 1.87702
v 2.02439 -0.122598 1.8774
l 437 438
v 2.02754 0.121929 1.87807
v 2.02541 0.122389 1.87761
l 439 440
v 2.02966 0.121431 1.87857
v 2.02754 0.121929 1.87807
l 441 442
v 2.02439 -0.122598 1.8774
v 2.02639 -0.122183 1.87782
l 443 444
v 2.02639 -0.122183 1.87782
v 2.02838 -0.121735 1.87827
l 445 446
v 2.03176 0.120897 1.8791
v 2.02966 0.121431 1.87857
l 447 448
v 2.03386 0.120327 1.87967
v 2.03176 0.120897 1.8791
l 449 450
v 2.02838 -0.121735 1.87827
v 2.03037 -0.121254 1.87875
l 451 452
v 2.03037 -0.121254 1.87875
v 2.03235 -0.120741 1.87926
l 453 454
v 2.03595 0.11972 1.88028
v 2.03386 0.120327 1.87967
l 455 456
v 2.03235 -0.120741 1.87926
v 2.03432 -0.120195 1.8798
l 457 458
v 2.03802 0.119076 1.88092
v 2.03595 0.11972 1.88028
l 459 460
v 2.04032 0.118319 1.88168
v 2.03802 0.119076 1.88092
l 461 462
v 2.03432 -0.120195 1.8798
v 2.03629 -0.119618 1.88038
l 463 464
v 2.03629 -0.119618 1.88038
v 2.03824 -0.119008 1.88099
l 465 466
v 2.04285 0.117427 1.88257
v 2.04032 0.118319 1.88168
l 467 468
v 2.03824 -0.119008 1.88099
v 2.04018 -0.118366 1.88163
l 469 470
v 2.04018 -0.118366 1.88163
v 2.04211 -0.117693 1.88231
l 471 472
v 2.04536 0.11648 1.88352
v 2.04285 0.117427 1.88257
l 473 474
v 2.04211 -0.117693 1.88231
v 2.04403 -0.116988 1.88301
l 475 476
v 2.04785 0.115479 1.88452
v 2.04536 0.11648 1.88352
l 477 478
v 2.04403 -0.116988 1.88301
v 2.04594 -0.116252 1.88375
l 479 480
v 2.04594 -0.116252 1.88375
v 2.04784 -0.115485 1.88452
l 481 482
v 2.05032 0.114425 1.88558
v 2.04785 0.115479 1.88452
l 483 484
v 2.05276 0.113318 1.88668
v 2.05032 0.114425 1.88558
l 485 486
v 2.04784 -0.115485 1.88452
v 2.04972 -0.114687 1.88531
l 487 488
v 2.04972 -0.114687 1.88531
v 2.05159 -0.113858 1.88614
l 489 490
v 2.05518 0.112159 1.88784
v 2.05276 0.113318 1.88668
l 491 492
v 2.05159 -0.113858 1.88614
v 2.05344 -0.112999 1.887
l 493 494
v 2.05758 0.110949 1.88905
v 2.05518 0.112159 1.88784
l 495 496
v 2.05344 -0.112999 1.887
v 2.05529 -0.112109 1.88789
l 497 498
v 2.05529 -0.112109 1.88789
v 2.05711 -0.11119 1.88881
l 499 500
v 2.05995 0.109687 1.89031
v 2.05758 0.110949 1.88905
l 501 502
v 2.05711 -0.11119 1.88881
v 2.05892 -0.11024 1.88976
l 503 504
v 2.05892 -0.11024 1.88976
v 2.06072 -0.109261 1.89074
l 505 506
v 2.06229 0.108375 1.89163
v 2.05995 0.109687 1.89031
l 507 508
v 2.0646 0.107012 1.89299
v 2.06229 0.108375 1.89163
l 509 510
v 2.06072 -0.109261 1.89074
v 2.0625 -0.108253 1.89175
l 511 512
v 2.06688 0.105601 1.8944
v 2.0646 0.107012 1.89299
l 513 514
v 2.0625 -0.108253 1.89175
v 2.06426 -0.107216 1.89278
l 515 516
v 2.06426 -0.107216 1.89278
v 2.06601 -0.10615 1.89385
l 517 518
v 2.06914 0.104141 1.89586
v 2.06688 0.105601 1.8944
l 519 520
v 2.06601 -0.10615 1.89385
v 2.06774 -0.105056 1.89494
l 521 522
v 2.06774 -0.105056 1.89494
v 2.06945 -0.103934 1.89607
l 523 524
v 2.07136 0.102632 1.89737
v 2.06914 0.104141 1.89586
l 525 526
v 2.06945 -0.103934 1.89607
v 2.07114 -0.102784 1.89722
l 527 528
v 2.07354 0.101077 1.89892
v 2.07136 0.102632 1.89737
l 529 530
v 2.07593 0.0992935 1.90071
v 2.07354 0.101077 1.89892
l 531 532
v 2.07114 -0.102784 1.89722
v 2.07281 -0.101606 1.89839
l 533 534
v 2.07281 -0.101606 1.89839
v 2.07446 -0.100401 1.8996
l 535 536
v 2.07446 -0.100401 1.8996
v 2.0761 -0.0991692 1.90083
l 537 538
v 2.0761 -0.0991692 1.90083
v 2.07771 -0.0979108 1.90209
l 539 540
v 2.07771 -0.0979108 1.90209
v 2.0793 -0.0966263 1.90337
l 541 542
v 2.0793 -0.0966263 1.90337
v 2.08087 -0.0953159 1.90468
l 543 544
v 2.08087 -0.0953159 1.90468
v 2.08242 -0.09398 1.90602
l 545 546
v 2.08601 0.0906999 1.9093
v 2.08358 0.0929478 1.90705
l 547 548
v 2.08242 -0.09398 1.90602
v 2.08394 -0.0926189 1.90738
l 549 550
v 2.08394 -0.0926189 1.90738
v 2.08545 -0.091233 1.90877
l 551 552
v 2.08545 -0.091233 1.90877
v 2.08693 -0.0898227 1.91018
l 553 554
v 2.08982 0.0898227 1.91307
v 2.08839 0.0883883 1.91161
l 555 556
v 2.08693 -0.0898227 1.91018
v 2.08839 -0.0883883 1.91161
l 557 558
v 2.08839 -0.0883883 1.91161
v 2.0907 -0.0906999 1.91399
l 559 560
v 2.09123 0.091233 1.91455
v 2.08982 0.0898227 1.91307
l 561 562
v 2.09262 0.0926189 1.91606
v 2.09123 0.091233 1.91455
l 563 564
v 2.0907 -0.0906999 1.91399
v 2.09295 -0.0929478 1.91642
l 565 566
v 2.09398 0.09398 1.91758
v 2.09262 0.0926189 1.91606
l 567 568
v 2.09532 0.0953159 1.91913
v 2.09398 0.09398 1.91758
l 569 570
v 2.09663 0.0966263 1.9207
v 2.09532 0.0953159 1.91913
l 571 572
v 2.09513 -0.0951304 1.91891
v 2.09725 -0.0972461 1.92146
l 573 574
v 2.09791 0.0979108 1.92229
v 2.09663 0.0966263 1.9207
l 575 576
v 2.09917 0.0991692 1.9239
v 2.09791 0.0979108 1.92229
l 577 578
v 2.09725 -0.0972461 1.92146
v 2.09929 -0.0992935 1.92407
l 579 580
v 2.1004 0.100401 1.92554
v 2.09917 0.0991692 1.9239
l 581 582
v 2.10161 0.101606 1.92719
v 2.1004 0.100401 1.92554
l 583 584
v 2.09929 -0.0992935 1.92407
v 2.10108 -0.101077 1.92646
l 585 586
v 2.10278 0.102784 1.92886
v 2.10161 0.101606 1.92719
l 587 588
v 2.10108 -0.101077 1.92646
v 2.10263 -0.102632 1.92864
l 589 590
v 2.10393 0.103934 1.93055
v 2.10278 0.102784 1.92886
l 591 592
v 2.10506 0.105056 1.93226
v 2.10393 0.103934 1.93055
l 593 594
v 2.10263 -0.102632 1.92864
v 2.10414 -0.104141 1.93086
l 595 596
v 2.10615 0.10615 1.93399
v 2.10506 0.105056 1.93226
l 597 598
v 2.10722 0.107216 1.93574
v 2.10615 0.10615 1.93399
l 599 600
v 2.10414 -0.104141 1.93086
v 2.1056 -0.105601 1.93312
l 601 602
v 2.10825 0.108253 1.9375
v 2.10722 0.107216 1.93574
l 603 604
v 2.1056 -0.105601 1.93312
v 2.10701 -0.107012 1.9354
l 605 606
v 2.10701 -0.107012 1.9354
v 2.10837 -0.108375 1.93771
l 607 608
v 2.10926 0.109261 1.93928
v 2.10825 0.108253 1.9375
l 609 610
v 2.11024 0.11024 1.94108
v 2.10926 0.109261 1.93928
l 611 612
v 2.10837 -0.108375 1.93771
v 2.10969 -0.109687 1.94005
l 613 614
v 2.11119 0.11119 1.94289
v 2.11024 0.11024 1.94108
l 615 616
v 2.11211 0.112109 1.94471
v 2.11119 0.11119 1.94289
l 617 618
v 2.10969 -0.109687 1.94005
v 2.11095 -0.110949 1.94242
l 619 620
v 2.113 0.112999 1.94656
v 2.11211 0.112109 1.94471
l 621 622
v 2.11095 -0.110949 1.94242
v 2.11216 -0.112159 1.94482
l 623 624
v 2.11386 0.113858 1.94841
v 2.113 0.112999 1.94656
l 625 626
v 2.11469 0.114687 1.95028
v 2.11386 0.113858 1.94841
l 627 628
v 2.11216 -0.112159 1.94482
v 2.11332 -0.113318 1.94724
l 629 630
v 2.11332 -0.113318 1.94724
v 2.11442 -0.114425 1.94968
l 631 632
v 2.11548 0.115485 1.95216
v 2.11469 0.114687 1.95028
l 633 634
v 2.11625 0.116252 1.95406
v 2.11548 0.115485 1.95216
l 635 636
v 2.11442 -0.114425 1.94968
v 2.11548 -0.115479 1.95215
l 637 638
v 2.11699 0.116988 1.95597
v 2.11625 0.116252 1.95406
l 639 640
v 2.11548 -0.115479 1.95215
v 2.11648 -0.11648 1.95464
l 641 642
v 2.11769 0.117693 1.95789
v 2.11699 0.116988 1.95597
l 643 644
v 2.11837 0.118366 1.95982
v 2.11769 0.117693 1.95789
l 645 646
v 2.11648 -0.11648 1.95464
v 2.11743 -0.117427 1.95715
l 647 648
v 2.11743 -0.117427 1.95715
v 2.11832 -0.118319 1.95968
l 649 650
v 2.11901 0.119008 1.96176
v 2.11837 0.118366 1.95982
l 651 652
v 2.11962 0.119618 1.96371
v 2.11901 0.119008 1.96176
l 653 654
v 2.11832 -0.118319 1.95968
v 2.11908 -0.119076 1.96198
l 655 656
v 2.1202 0.120195 1.96568
v 2.11962 0.119618 1.96371
l 657 658
v 2.11908 -0.119076 1.96198
v 2.11972 -0.11972 1.96405
l 659 660
v 2.12074 0.120741 1.96765
v 2.1202 0.120195 1.96568
l 661 662
v 2.12125 0.121254 1.96963
v 2.12074 0.120741 1.96765
l 663 664
v 2.11972 -0.11972 1.96405
v 2.12033 -0.120327 1.96614
l 665 666
v 2.12033 -0.120327 1.96614
v 2.1209 -0.120897 1.96824
l 667 668
v 2.12173 0.121735 1.97162
v 2.12125 0.121254 1.96963
l 669 670
v 2.12218 0.122183 1.97361
v 2.12173 0.121735 1.97162
l 671 672
v 2.1209 -0.120897 1.96824
v 2.12143 -0.121431 1.97034
l 673 674
v 2.12143 -0.121431 1.97034
v 2.12193 -0.121929 1.97246
l 675 676
v 2.1226 0.122598 1.97561
v 2.12218 0.122183 1.97361
l 677 678
v 2.12193 -0.121929 1.97246
v 2.12239 -0.122389 1.97459
l 679 680
v 2.12298 0.122981 1.97762
v 2.1226 0.122598 1.97561
l 681 682
v 2.12333 0.12333 1.97964
v 2.12298 0.122981 1.97762
l 683 684
v 2.12239 -0.122389 1.97459
v 2.12281 -0.122813 1.97672
l 685 686
v 2.12281 -0.122813 1.97672
v 2.1232 -0.123199 1.97886
l 687 688
v 2.12365 0.123647 1.98166
v 2.12333 0.12333 1.97964
l 689 690
v 2.1232 -0.123199 1.97886
v 2.12355 -0.123548 1.981
l 691 692
v 2.12393 0.123931 1.98368
v 2.12365 0.123647 1.98166
l 693 694
v 2.12418 0.124181 1.98571
v 2.12393 0.123931 1.98368
l 695 696
v 2.12355 -0.123548 1.981
v 2.12386 -0.12386 1.98315
l 697 698
v 2.12386 -0.12386 1.98315
v 2.12413 -0.124134 1.98531
l 699 700
v 2.1244 0.124398 1.98775
v 2.12418 0.124181 1.98571
l 701 702
v 2.12458 0.124582 1.98978
v 2.1244 0.124398 1.98775
l 703 704
v 2.12413 -0.124134 1.98531
v 2.12437 -0.124371 1.98747
l 705 706
v 2.12473 0.124732 1.99182
v 2.12458 0.124582 1.98978
l 707 708
v 2.12437 -0.124371 1.98747
v 2.12457 -0.12457 1.98964
l 709 710
v 2.12457 -0.12457 1.98964
v 2.12473 -0.124731 1.9918
l 711 712
v 2.12485 0.124849 1.99387
v 2.12473 0.124732 1.99182
l 713 714
v 2.12493 0.124933 1.99591
v 2.12485 0.124849 1.99387
l 715 716
v 2.12473 -0.124731 1.9918
v 2.12485 -0.124855 1.99397
l 717 718
v 2.12498 0.124983 1.99795
v 2.12493 0.124933 1.99591
l 719 720
v 2.125 0.125 2
v 2.12498 0.124983 1.99795
l 721 722
v 2.12485 -0.124855 1.99397
v 2.12494 -0.124941 1.99615
l 723 724
v 2.12494 -0.124941 1.99615
v 2.12499 -0.124985 1.99807
l 725 726
v 2.12499 -0.124985 1.99807
v 2.125 -0.125 2
l 727 728
v 2.04399 0.0439868 2.117
v 2.0476 0.0475987 2.11558
l 729 730
v 2.0476 0.0475987 2.11558
v 2.05116 0.0511648 2.11405
l 731 732
v 2.05116 0.0511648 2.11405
v 2.05468 0.0546815 2.11241
l 733 734
v 2.05468 0.0546815 2.11241
v 2.05815 0.0581455 2.11065
l 735 736
v 2.05815 0.0581455 2.11065
v 2.06155 0.0615534 2.10879
l 737 738
v 2.06155 0.0615534 2.10879
v 2.0649 0.0649019 2.10683
l 739 740
v 2.0649 0.0649019 2.10683
v 2.06819 0.0681879 2.10476
l 741 742
v 2.06819 0.0681879 2.10476
v 2.07141 0.0714081 2.1026
l 743 744
v 2.07141 0.0714081 2.1026
v 2.07456 0.0745594 2.10033
l 745 746
v 2.07456 0.0745594 2.10033
v 2.07764 0.0776388 2.09797
l 747 748
v 2.07764 0.0776388 2.09797
v 2.08064 0.0806433 2.09551
l 749 750
v 2.08064 0.0806433 2.09551
v 2.08328 0.083281 2.09322
l 751 752
v 2.0856 0.0855993 2.09109
v 2.08786 0.0878635 2.08891
l 753 754
v 2.09222 0.0922236 2.08438
v 2.09432 0.0943168 2.08203
l 755 756
v 2.09635 0.0963503 2.07963
v 2.09832 0.0983229 2.07719
l 757 758
v 2.08839 0.0883883 1.91161
v 2.08601 0.0906999 1.9093
l 759 760
v 2.08358 0.0929478 1.90705
v 2.08109 0.0951304 1.90487
l 761 762
v 2.08109 0.0951304 1.90487
v 2.07854 0.0972461 1.90275
l 763 764
v 2.07854 0.0972461 1.90275
v 2.07593 0.0992935 1.90071
l 765 766
v 1.89216 0.0632176 1.93678
v 1.89051 0.0603099 1.93969
l 767 768
v 1.89051 0.0603099 1.93969
v 1.88894 0.0573591 1.94264
l 769 770
v 1.88894 0.0573591 1.94264
v 1.88744 0.0543672 1.94563
l 771 772
v 1.8847 0.0482688 1.95173
v 1.88345 0.0451666 1.95483
l 773 774
v 1.88301 -0.0440313 1.95597
v 1.88452 -0.0478354 1.95216
l 775 776
v 1.88452 -0.0478354 1.95216
v 1.88614 -0.0515884 1.94841
l 777 778
v 1.88614 -0.0515884 1.94841
v 1.88789 -0.0552861 1.94471
l 779 780
v 1.88789 -0.0552861 1.94471
v 1.88976 -0.0589246 1.94108
l 781 782
v 1.88976 -0.0589246 1.94108
v 1.89175 -0.0625 1.9375
l 783 784
v 1.89175 -0.0625 1.9375
v 1.89385 -0.0660085 1.93399
l 785 786
v 1.89385 -0.0660085 1.93399
v 1.89607 -0.0694463 1.93055
l 787 788
v 1.89607 -0.0694463 1.93055
v 1.89816 -0.0724768 1.92752
l 789 790
v 1.89816 -0.0724768 1.92752
v 1.90011 -0.0751506 1.92485
l 791 792
v 1.90011 -0.0751506 1.92485
v 1.90214 -0.0777716 1.92223
l 793 794
v 1.90214 -0.0777716 1.92223
v 1.90424 -0.080338 1.91966
l 795 796
v 1.90424 -0.080338 1.91966
v 1.9064 -0.0828479 1.91715
l 797 798
v 1.90863 -0.0852996 1.9147
v 1.91092 -0.0876914 1.91231
l 799 800
v 2.09295 -0.0929478 1.91642
v 2.09513 -0.0951304 1.91891
l 801 802
v 2.0689 -0.0688951 2.1043
v 2.06608 -0.06608 2.10611
l 803 804
v 2.06608 -0.06608 2.10611
v 2.06322 -0.0632176 2.10784
l 805 806
v 2.06322 -0.0632176 2.10784
v 2.06031 -0.0603099 2.10949
l 807 808
v 2.06031 -0.0603099 2.10949
v 2.05736 -0.0573591 2.11106
l 809 810
v 2.04827 -0.0482688 2.1153
v 2.04517 -0.0451666 2.11655
l 811 812
v 2.12498 0.00204522 1.87502
v 2.125 -3.06162e-17 1.875
l 813 814
v 2.12493 0.00408989 1.87507
v 2.12498 0.00204522 1.87502
l 815 816
v 2.12485 0.00613346 1.87515
v 2.12493 0.00408989 1.87507
l 817 818
v 2.12473 0.00817539 1.87527
v 2.12485 0.00613346 1.87515
l 819 820
v 2.12458 0.0102151 1.87542
v 2.12473 0.00817539 1.87527
l 821 822
v 2.1244 0.0122521 1.8756
v 2.12458 0.0102151 1.87542
l 823 824
v 2.12418 0.0142859 1.87582
v 2.1244 0.0122521 1.8756
l 825 826
v 2.12393 0.0163158 1.87607
v 2.12418 0.0142859 1.87582
l 827 828
v 2.12365 0.0183413 1.87635
v 2.12393 0.0163158 1.87607
l 829 830
v 2.12333 0.0203619 1.87667
v 2.12365 0.0183413 1.87635
l 831 832
v 2.12298 0.0223771 1.87702
v 2.12333 0.0203619 1.87667
l 833 834
v 2.1226 0.0243863 1.8774
v 2.12298 0.0223771 1.87702
l 835 836
v 2.12218 0.0263889 1.87782
v 2.1226 0.0243863 1.8774
l 837 838
v 2.12173 0.0283845 1.87827
v 2.12218 0.0263889 1.87782
l 839 840
v 2.12125 0.0303725 1.87875
v 2.12173 0.0283845 1.87827
l 841 842
v 2.12074 0.0323524 1.87926
v 2.12125 0.0303725 1.87875
l 843 844
v 2.1202 0.0343236 1.8798
v 2.12074 0.0323524 1.87926
l 845 846
v 2.11962 0.0362856 1.88038
v 2.1202 0.0343236 1.8798
l 847 848
v 2.11901 0.0382379 1.88099
v 2.11962 0.0362856 1.88038
l 849 850
v 2.11837 0.0401799 1.88163
v 2.11901 0.0382379 1.88099
l 851 852
v 2.11769 0.0421112 1.88231
v 2.11837 0.0401799 1.88163
l 853 854
v 2.11699 0.0440313 1.88301
v 2.11769 0.0421112 1.88231
l 855 856
v 2.11625 0.0459395 1.88375
v 2.11699 0.0440313 1.88301
l 857 858
v 2.11548 0.0478354 1.88452
v 2.11625 0.0459395 1.88375
l 859 860
v 2.11469 0.0497186 1.88531
v 2.11548 0.0478354 1.88452
l 861 862
v 2.11386 0.0515884 1.88614
v 2.11469 0.0497186 1.88531
l 863 864
v 2.113 0.0534444 1.887
v 2.11386 0.0515884 1.88614
l 865 866
v 2.11211 0.0552861 1.88789
v 2.113 0.0534444 1.887
l 867 868
v 2.11119 0.057113 1.88881
v 2.11211 0.0552861 1.88789
l 869 870
v 2.11024 0.0589246 1.88976
v 2.11119 0.057113 1.88881
l 871 872
v 2.10926 0.0607204 1.89074
v 2.11024 0.0589246 1.88976
l 873 874
v 2.10825 0.0625 1.89175
v 2.10926 0.0607204 1.89074
l 875 876
v 2.10722 0.0642628 1.89278
v 2.10825 0.0625 1.89175
l 877 878
v 2.10615 0.0660085 1.89385
v 2.10722 0.0642628 1.89278
l 879 880
v 2.10506 0.0677364 1.89494
v 2.10615 0.0660085 1.89385
l 881 882
v 2.10393 0.0694463 1.89607
v 2.10506 0.0677364 1.89494
l 883 884
v 2.10278 0.0711375 1.89722
v 2.10393 0.0694463 1.89607
l 885 886
v 2.10161 0.0728097 1.89839
v 2.10278 0.0711375 1.89722
l 887 888
v 2.1004 0.0744624 1.8996
v 2.10161 0.0728097 1.89839
l 889 890
v 2.09917 0.0760952 1.90083
v 2.1004 0.0744624 1.8996
l 891 892
v 2.09791 0.0777076 1.90209
v 2.09917 0.0760952 1.90083
l 893 894
v 2.09663 0.0792992 1.90337
v 2.09791 0.0777076 1.90209
l 895 896
v 2.09532 0.0808695 1.90468
v 2.09663 0.0792992 1.90337
l 897 898
v 2.09398 0.0824182 1.90602
v 2.09532 0.0808695 1.90468
l 899 900
v 2.09262 0.0839449 1.90738
v 2.09398 0.0824182 1.90602
l 901 902
v 2.09123 0.085449 1.90877
v 2.09262 0.0839449 1.90738
l 903 904
v 2.08982 0.0869303 1.91018
v 2.09123 0.085449 1.90877
l 905 906
v 2.08839 0.0883883 1.91161
v 2.08982 0.0869303 1.91018
l 907 908
v 2.0907 -0.0860146 1.9093
v 2.08839 -0.0883883 1.91161
l 909 910
v 2.09295 -0.0835805 1.90705
v 2.0907 -0.0860146 1.9093
l 911 912
v 2.09513 -0.0810876 1.90487
v 2.09295 -0.0835805 1.90705
l 913 914
v 2.09725 -0.0785378 1.90275
v 2.09513 -0.0810876 1.90487
l 915 916
v 2.09929 -0.0759328 1.90071
v 2.09725 -0.0785378 1.90275
l 917 918
v 2.10108 -0.0735426 1.89892
v 2.09929 -0.0759328 1.90071
l 919 920
v 2.10263 -0.0713557 1.89737
v 2.10108 -0.0735426 1.89892
l 921 922
v 2.10414 -0.0691358 1.89586
v 2.10263 -0.0713557 1.89737
l 923 924
v 2.1056 -0.066884 1.8944
v 2.10414 -0.0691358 1.89586
l 925 926
v 2.10701 -0.0646015 1.89299
v 2.1056 -0.066884 1.8944
l 927 928
v 2.10837 -0.0622891 1.89163
v 2.10701 -0.0646015 1.89299
l 929 930
v 2.10969 -0.059948 1.89031
v 2.10837 -0.0622891 1.89163
l 931 932
v 2.11095 -0.0575793 1.88905
v 2.10969 -0.059948 1.89031
l 933 934
v 2.11216 -0.0551841 1.88784
v 2.11095 -0.0575793 1.88905
l 935 936
v 2.11332 -0.0527634 1.88668
v 2.11216 -0.0551841 1.88784
l 937 938
v 2.11442 -0.0503184 1.88558
v 2.11332 -0.0527634 1.88668
l 939 940
v 2.11548 -0.0478502 1.88452
v 2.11442 -0.0503184 1.88558
l 941 942
v 2.11648 -0.0453599 1.88352
v 2.11548 -0.0478502 1.88452
l 943 944
v 2.11743 -0.0428487 1.88257
v 2.11648 -0.0453599 1.88352
l 945 946
v 2.11832 -0.0403178 1.88168
v 2.11743 -0.0428487 1.88257
l 947 948
v 2.11908 -0.038024 1.88092
v 2.11832 -0.0403178 1.88168
l 949 950
v 2.11972 -0.0359475 1.88028
v 2.11908 -0.038024 1.88092
l 951 952
v 2.12033 -0.0338601 1.87967
v 2.11972 -0.0359475 1.88028
l 953 954
v 2.1209 -0.0317624 1.8791
v 2.12033 -0.0338601 1.87967
l 955 956
v 2.12143 -0.0296552 1.87857
v 2.1209 -0.0317624 1.8791
l 957 958
v 2.12193 -0.0275389 1.87807
v 2.12143 -0.0296552 1.87857
l 959 960
v 2.12239 -0.0254144 1.87761
v 2.12193 -0.0275389 1.87807
l 961 962
v 2.12281 -0.0232821 1.87719
v 2.12239 -0.0254144 1.87761
l 963 964
v 2.1232 -0.0211428 1.8768
v 2.12281 -0.0232821 1.87719
l 965 966
v 2.12355 -0.0189971 1.87645
v 2.1232 -0.0211428 1.8768
l 967 968
v 2.12386 -0.0168457 1.87614
v 2.12355 -0.0189971 1.87645
l 969 970
v 2.12413 -0.0146892 1.87587
v 2.12386 -0.0168457 1.87614
l 971 972
v 2.12437 -0.0125282 1.87563
v 2.12413 -0.0146892 1.87587
l 973 974
v 2.12457 -0.0103634 1.87543
v 2.12437 -0.0125282 1.87563
l 975 976
v 2.12473 -0.00819554 1.87527
v 2.12457 -0.0103634 1.87543
l 977 978
v 2.12485 -0.00602517 1.87515
v 2.12473 -0.00819554 1.87527
l 979 980
v 2.12494 -0.00385297 1.87506
v 2.12485 -0.00602517 1.87515
l 981 982
v 2.12499 -0.00192671 1.87501
v 2.12494 -0.00385297 1.87506
l 983 984
v 2.125 -3.06162e-17 1.875
v 2.12499 -0.00192671 1.87501
l 985 986
