v 0 0.120996 0.0313851
v 0 0.121811 0.0280539
l 1 2
v 0 0.120089 0.0346927
v 0 0.120996 0.0313851
l 3 4
v 0 0.114216 0.0507899
v 0 0.115567 0.0476373
l 5 6
v 0 0.11278 0.0539042
v 0 0.114216 0.0507899
l 7 8
v 0 0.111259 0.0569779
v 0 0.11278 0.0539042
l 9 10
v 0 0.109654 0.0600087
v 0 0.111259 0.0569779
l 11 12
v 0 0.107966 0.0629944
v 0 0.109654 0.0600087
l 13 14
v 0 0.106197 0.0659326
v 0 0.107966 0.0629944
l 15 16
v 0 0.104349 0.0688212
v 0 0.106197 0.0659326
l 17 18
v 0 0.102421 0.071658
v 0 0.104349 0.0688212
l 19 20
v 0 -0.0723589 -0.101927
v 0 -0.0751279 -0.0999039
l 21 22
v 0 -0.0695354 -0.103874
v 0 -0.0723589 -0.101927
l 23 24
v 0 0.0983369 0.0771677
v 0 0.100417 0.0744409
l 25 26
v 0 0.0961829 0.0798365
v 0 0.0983369 0.0771677
l 27 28
v 0 0.0892931 0.0874742
v 0 0.0916592 0.0849917
l 29 30
v 0 0.0868597 0.089891
v 0 0.0892931 0.0874742
l 31 32
v 0 0.0843609 0.0922401
v 0 0.0868597 0.089891
l 33 34
v 0 0.0916592 0.0849917
v 0 0.0939564 0.0824451
l 35 36
v 0 -0.0904847 -0.0862411
v 0 -0.0928166 -0.0837262
l 37 38
v 0 -0.0880847 -0.088691
v 0 -0.0904847 -0.0862411
l 39 40
v 0 -0.0856184 -0.0910741
v 0 -0.0880847 -0.088691
l 41 42
v 0 0.0791748 0.0967282
v 0 0.0817987 0.0945197
l 43 44
v 0 0.0764914 0.0988639
v 0 0.0791748 0.0967282
l 45 46
v 0 -0.097269 -0.0785095
v 0 -0.0993862 -0.0758114
l 47 48
v 0 -0.0950786 -0.0811484
v 0 -0.097269 -0.0785095
l 49 50
v 0 0.0737503 0.100925
v 0 0.0764914 0.0988639
l 51 52
v 0 0.0709538 0.10291
v 0 0.0737503 0.100925
l 53 54
v 0 0.0817987 0.0945197
v 0 0.0843609 0.0922401
l 55 56
v 0 0.0681038 0.104818
v 0 0.0709538 0.10291
l 57 58
v 0 0.0622523 0.108396
v 0 0.0652026 0.106647
l 59 60
v 0 0.0592552 0.110063
v 0 0.0622523 0.108396
l 61 62
v 0 -0.10882 -0.0615073
v 0 -0.110467 -0.0584988
l 63 64
v 0 -0.107092 -0.0644696
v 0 -0.10882 -0.0615073
l 65 66
v 0 -0.105283 -0.0673833
v 0 -0.107092 -0.0644696
l 67 68
v 0 -0.103395 -0.0702462
v 0 -0.105283 -0.0673833
l 69 70
v 0 -0.101429 -0.0730563
v 0 -0.103395 -0.0702462
l 71 72
v 0 -0.117429 -0.042842
v 0 -0.11856 -0.0396044
l 73 74
v 0 -0.116209 -0.0460475
v 0 -0.117429 -0.042842
l 75 76
v 0 0.0371564 0.11935
v 0 0.0404167 0.118286
l 77 78
v 0 0.0338682 0.120324
v 0 0.0371564 0.11935
l 79 80
v 0 0.0305544 0.121208
v 0 0.0338682 0.120324
l 81 82
v 0 0.0272177 0.122001
v 0 0.0305544 0.121208
l 83 84
v 0 0.0204853 0.12331
v 0 0.0238605 0.122702
l 85 86
v 0 0.0170947 0.123826
v 0 0.0204853 0.12331
l 87 88
v 0 0.0136912 0.124248
v 0 0.0170947 0.123826
l 89 90
v 0 0.0102774 0.124577
v 0 0.0136912 0.124248
l 91 92
v 0 0.00685593 0.124812
v 0 0.0102774 0.124577
l 93 94
v 0 -0.00342926 0.124953
v 0 3.06162e-17 0.125
l 95 96
v 0 -0.00685593 0.124812
v 0 -0.00342926 0.124953
l 97 98
v 0 3.06162e-17 0.125
v 0 0.00342926 0.124953
l 99 100
v 0 -0.0136912 0.124248
v 0 -0.0102774 0.124577
l 101 102
v 0 -0.0170947 0.123826
v 0 -0.0136912 0.124248
l 103 104
v 0 -0.0204853 0.12331
v 0 -0.0170947 0.123826
l 105 106
v 0 -0.0238605 0.122702
v 0 -0.0204853 0.12331
l 107 108
v 0 -0.122535 0.0247016
v 0 -0.121811 0.0280539
l 109 110
v 0 -0.123167 0.0213306
v 0 -0.122535 0.0247016
l 111 112
v 0 -0.0272177 0.122001
v 0 -0.0238605 0.122702
l 113 114
v 0 -0.0305544 0.121208
v 0 -0.0272177 0.122001
l 115 116
v 0 -0.0371564 0.11935
v 0 -0.0338682 0.120324
l 117 118
v 0 -0.0404167 0.118286
v 0 -0.0371564 0.11935
l 119 120
v 0 -0.118006 0.0412271
v 0 -0.11683 0.0444489
l 121 122
v 0 -0.119092 0.0379742
v 0 -0.118006 0.0412271
l 123 124
v 0 -0.0436465 0.117132
v 0 -0.0404167 0.118286
l 125 126
v 0 -0.0468435 0.115891
v 0 -0.0436465 0.117132
l 127 128
v 0 -0.0500052 0.114562
v 0 -0.0468435 0.115891
l 129 130
v 0 -0.115567 0.0476373
v 0 -0.114216 0.0507899
l 131 132
v 0 -0.11683 0.0444489
v 0 -0.115567 0.0476373
l 133 134
v 0 -0.0531293 0.113147
v 0 -0.0500052 0.114562
l 135 136
v 0 -0.0562134 0.111647
v 0 -0.0531293 0.113147
l 137 138
v 0 -0.0592552 0.110063
v 0 -0.0562134 0.111647
l 139 140
v 0 -0.0622523 0.108396
v 0 -0.0592552 0.110063
l 141 142
v 0 -0.109654 0.0600087
v 0 -0.107966 0.0629944
l 143 144
v 0 -0.111259 0.0569779
v 0 -0.109654 0.0600087
l 145 146
v 0 -0.11278 0.0539042
v 0 -0.111259 0.0569779
l 147 148
v 0 -0.0652026 0.106647
v 0 -0.0622523 0.108396
l 149 150
v 0 -0.0681038 0.104818
v 0 -0.0652026 0.106647
l 151 152
v 0 -0.0709538 0.10291
v 0 -0.0681038 0.104818
l 153 154
v 0 -0.0737503 0.100925
v 0 -0.0709538 0.10291
l 155 156
v 0 -0.0961829 0.0798365
v 0 -0.0939564 0.0824451
l 157 158
v 0 -0.0983369 0.0771677
v 0 -0.0961829 0.0798365
l 159 160
v 0 -0.100417 0.0744409
v 0 -0.0983369 0.0771677
l 161 162
v 0 -0.102421 0.071658
v 0 -0.100417 0.0744409
l 163 164
v 0 -0.104349 0.0688212
v 0 -0.102421 0.071658
l 165 166
v 0 -0.106197 0.0659326
v 0 -0.104349 0.0688212
l 167 168
v 0 -0.107966 0.0629944
v 0 -0.106197 0.0659326
l 169 170
v 0 -0.0791748 0.0967282
v 0 -0.0764914 0.0988639
l 171 172
v 0 -0.0817987 0.0945197
v 0 -0.0791748 0.0967282
l 173 174
v 0 -0.0843609 0.0922401
v 0 -0.0817987 0.0945197
l 175 176
v 0 -0.0102774 0.124577
v 0 -0.00685593 0.124812
l 177 178
v 0 -0.0338682 0.120324
v 0 -0.0305544 0.121208
l 179 180
v 0 -0.0764914 0.0988639
v 0 -0.0737503 0.100925
l 181 182
v 0 -0.0868597 0.089891
v 0 -0.0843609 0.0922401
l 183 184
v 0 -0.0892931 0.0874742
v 0 -0.0868597 0.089891
l 185 186
v 0 -0.0916592 0.0849917
v 0 -0.0892931 0.0874742
l 187 188
v 0 -0.0939564 0.0824451
v 0 -0.0916592 0.0849917
l 189 190
v 0 -0.114216 0.0507899
v 0 -0.11278 0.0539042
l 191 192
v 0 -0.120089 0.0346927
v 0 -0.119092 0.0379742
l 193 194
v 0 -0.120996 0.0313851
v 0 -0.120089 0.0346927
l 195 196
v 0 -0.121811 0.0280539
v 0 -0.120996 0.0313851
l 197 198
v 0 -0.123705 0.0179436
v 0 -0.123167 0.0213306
l 199 200
v 0 -0.124151 0.0145432
v 0 -0.123705 0.0179436
l 201 202
v 0 -0.124503 0.0111317
v 0 -0.124151 0.0145432
l 203 204
v 0 -0.124762 0.00771189
v 0 -0.124503 0.0111317
l 205 206
v 0 -0.124926 0.00428627
v 0 -0.124762 0.00771189
l 207 208
v 0 -0.124997 0.000857415
v 0 -0.124926 0.00428627
l 209 210
v 0 -0.124974 -0.00257208
v 0 -0.124997 0.000857415
l 211 212
v 0 -0.124856 -0.00599965
v 0 -0.124974 -0.00257208
l 213 214
v 0 -0.124644 -0.00942269
v 0 -0.124856 -0.00599965
l 215 216
v 0 -0.124339 -0.0128386
v 0 -0.124644 -0.00942269
l 217 218
v 0 -0.12394 -0.0162449
v 0 -0.124339 -0.0128386
l 219 220
v 0 -0.123448 -0.019639
v 0 -0.12394 -0.0162449
l 221 222
v 0 -0.122862 -0.0230183
v 0 -0.123448 -0.019639
l 223 224
v 0 -0.122185 -0.0263802
v 0 -0.122862 -0.0230183
l 225 226
v 0 -0.121415 -0.0297223
v 0 -0.122185 -0.0263802
l 227 228
v 0 -0.120554 -0.033042
v 0 -0.121415 -0.0297223
l 229 230
v 0 -0.119602 -0.0363369
v 0 -0.120554 -0.033042
l 231 232
v 0 -0.11856 -0.0396044
v 0 -0.119602 -0.0363369
l 233 234
v 0 -0.114902 -0.0492182
v 0 -0.116209 -0.0460475
l 235 236
v 0 -0.113509 -0.0523519
v 0 -0.114902 -0.0492182
l 237 238
v 0 -0.11203 -0.0554462
v 0 -0.113509 -0.0523519
l 239 240
v 0 -0.110467 -0.0584988
v 0 -0.11203 -0.0554462
l 241 242
v 0 -0.0993862 -0.0758114
v 0 -0.101429 -0.0730563
l 243 244
v 0 -0.0928166 -0.0837262
v 0 -0.0950786 -0.0811484
l 245 246
v 0 -0.0830876 -0.0933887
v 0 -0.0856184 -0.0910741
l 247 248
v 0 -0.0804943 -0.095633
v 0 -0.0830876 -0.0933887
l 249 250
v 0 -0.0778404 -0.0978053
v 0 -0.0804943 -0.095633
l 251 252
v 0 -0.0751279 -0.0999039
v 0 -0.0778404 -0.0978053
l 253 254
v 0 -0.0666595 -0.105743
v 0 -0.0695354 -0.103874
l 255 256
v 0 -0.0637335 -0.107532
v 0 -0.0666595 -0.105743
l 257 258
v 0 -0.0607595 -0.10924
v 0 -0.0637335 -0.107532
l 259 260
v 0 -0.0577397 -0.110865
v 0 -0.0607595 -0.10924
l 261 262
v 0 -0.0546765 -0.112408
v 0 -0.0577397 -0.110865
l 263 264
v 0 -0.0515721 -0.113865
v 0 -0.0546765 -0.112408
l 265 266
v 0 -0.0484289 -0.115237
v 0 -0.0515721 -0.113865
l 267 268
v 0 -0.0452493 -0.116523
v 0 -0.0484289 -0.115237
l 269 270
v 0 -0.0420355 -0.11772
v 0 -0.0452493 -0.116523
l 271 272
v 0 -0.0387902 -0.118829
v 0 -0.0420355 -0.11772
l 273 274
v 0 -0.0355156 -0.119848
v 0 -0.0387902 -0.118829
l 275 276
v 0 -0.0322143 -0.120778
v 0 -0.0355156 -0.119848
l 277 278
v 0 -0.0288888 -0.121616
v 0 -0.0322143 -0.120778
l 279 280
v 0 -0.0255415 -0.122363
v 0 -0.0288888 -0.121616
l 281 282
v 0 -0.022175 -0.123017
v 0 -0.0255415 -0.122363
l 283 284
v 0 -0.0187918 -0.123579
v 0 -0.022175 -0.123017
l 285 286
v 0 -0.0153944 -0.124048
v 0 -0.0187918 -0.123579
l 287 288
v 0 -0.0119855 -0.124424
v 0 -0.0153944 -0.124048
l 289 290
v 0 -0.00856749 -0.124706
v 0 -0.0119855 -0.124424
l 291 292
v 0 -0.00514308 -0.124894
v 0 -0.00856749 -0.124706
l 293 294
v 0 -0.00171479 -0.124988
v 0 -0.00514308 -0.124894
l 295 296
v 0 0.00171479 -0.124988
v 0 -0.00171479 -0.124988
l 297 298
v 0 0.00514308 -0.124894
v 0 0.00171479 -0.124988
l 299 300
v 0 0.00856749 -0.124706
v 0 0.00514308 -0.124894
l 301 302
v 0 0.0119855 -0.124424
v 0 0.00856749 -0.124706
l 303 304
v 0 0.0153944 -0.124048
v 0 0.0119855 -0.124424
l 305 306
v 0 0.0187918 -0.123579
v 0 0.0153944 -0.124048
l 307 308
v 0 0.022175 -0.123017
v 0 0.0187918 -0.123579
l 309 310
v 0 0.0255415 -0.122363
v 0 0.022175 -0.123017
l 311 312
v 0 0.0288888 -0.121616
v 0 0.0255415 -0.122363
l 313 314
v 0 0.0322143 -0.120778
v 0 0.0288888 -0.121616
l 315 316
v 0 0.0355156 -0.119848
v 0 0.0322143 -0.120778
l 317 318
v 0 0.0387902 -0.118829
v 0 0.0355156 -0.119848
l 319 320
v 0 0.0420355 -0.11772
v 0 0.0387902 -0.118829
l 321 322
v 0 0.0452493 -0.116523
v 0 0.0420355 -0.11772
l 323 324
v 0 0.0484289 -0.115237
v 0 0.0452493 -0.116523
l 325 326
v 0 0.0515721 -0.113865
v 0 0.0484289 -0.115237
l 327 328
v 0 0.0546765 -0.112408
v 0 0.0515721 -0.113865
l 329 330
v 0 0.0577397 -0.110865
v 0 0.0546765 -0.112408
l 331 332
v 0 0.0607595 -0.10924
v 0 0.0577397 -0.110865
l 333 334
v 0 0.0637335 -0.107532
v 0 0.0607595 -0.10924
l 335 336
v 0 0.0666595 -0.105743
v 0 0.0637335 -0.107532
l 337 338
v 0 0.0695354 -0.103874
v 0 0.0666595 -0.105743
l 339 340
v 0 0.0723589 -0.101927
v 0 0.0695354 -0.103874
l 341 342
v 0 0.0751279 -0.0999039
v 0 0.0723589 -0.101927
l 343 344
v 0 0.0778404 -0.0978053
v 0 0.0751279 -0.0999039
l 345 346
v 0 0.0804943 -0.095633
v 0 0.0778404 -0.0978053
l 347 348
v 0 0.0830876 -0.0933887
v 0 0.0804943 -0.095633
l 349 350
v 0 0.0856184 -0.0910741
v 0 0.0830876 -0.0933887
l 351 352
v 0 0.0880847 -0.088691
v 0 0.0856184 -0.0910741
l 353 354
v 0 0.0904847 -0.0862411
v 0 0.0880847 -0.088691
l 355 356
v 0 0.0928166 -0.0837262
v 0 0.0904847 -0.0862411
l 357 358
v 0 0.0950786 -0.0811484
v 0 0.0928166 -0.0837262
l 359 360
v 0 0.097269 -0.0785095
v 0 0.0950786 -0.0811484
l 361 362
v 0 0.0993862 -0.0758114
v 0 0.097269 -0.0785095
l 363 364
v 0 0.101429 -0.0730563
v 0 0.0993862 -0.0758114
l 365 366
v 0 0.103395 -0.0702462
v 0 0.101429 -0.0730563
l 367 368
v 0 0.105283 -0.0673833
v 0 0.103395 -0.0702462
l 369 370
v 0 0.107092 -0.0644696
v 0 0.105283 -0.0673833
l 371 372
v 0 0.10882 -0.0615073
v 0 0.107092 -0.0644696
l 373 374
v 0 0.110467 -0.0584988
v 0 0.10882 -0.0615073
l 375 376
v 0 0.11203 -0.0554462
v 0 0.110467 -0.0584988
l 377 378
v 0 0.113509 -0.0523519
v 0 0.11203 -0.0554462
l 379 380
v 0 0.114902 -0.0492182
v 0 0.113509 -0.0523519
l 381 382
v 0 0.116209 -0.0460475
v 0 0.114902 -0.0492182
l 383 384
v 0 0.117429 -0.042842
v 0 0.116209 -0.0460475
l 385 386
v 0 0.11856 -0.0396044
v 0 0.117429 -0.042842
l 387 388
v 0 0.119602 -0.0363369
v 0 0.11856 -0.0396044
l 389 390
v 0 0.120554 -0.033042
v 0 0.119602 -0.0363369
l 391 392
v 0 0.121415 -0.0297223
v 0 0.120554 -0.033042
l 393 394
v 0 0.122185 -0.0263802
v 0 0.121415 -0.0297223
l 395 396
v 0 0.122862 -0.0230183
v 0 0.122185 -0.0263802
l 397 398
v 0 0.123448 -0.019639
v 0 0.122862 -0.0230183
l 399 400
v 0 0.12394 -0.0162449
v 0 0.123448 -0.019639
l 401 402
v 0 0.124339 -0.0128386
v 0 0.12394 -0.0162449
l 403 404
v 0 0.124644 -0.00942269
v 0 0.124339 -0.0128386
l 405 406
v 0 0.124856 -0.00599965
v 0 0.124644 -0.00942269
l 407 408
v 0 0.124974 -0.00257208
v 0 0.124856 -0.00599965
l 409 410
v 0 0.124997 0.000857415
v 0 0.124974 -0.00257208
l 411 412
v 0 0.124926 0.00428627
v 0 0.124997 0.000857415
l 413 414
v 0 0.124762 0.00771189
v 0 0.124926 0.00428627
l 415 416
v 0 0.124503 0.0111317
v 0 0.124762 0.00771189
l 417 418
v 0 0.124151 0.0145432
v 0 0.124503 0.0111317
l 419 420
v 0 0.123705 0.0179436
v 0 0.124151 0.0145432
l 421 422
v 0 0.123167 0.0213306
v 0 0.123705 0.0179436
l 423 424
v 0 0.122535 0.0247016
v 0 0.123167 0.0213306
l 425 426
v 0 0.121811 0.0280539
v 0 0.122535 0.0247016
l 427 428
v 0 0.119092 0.0379742
v 0 0.120089 0.0346927
l 429 430
v 0 0.118006 0.0412271
v 0 0.119092 0.0379742
l 431 432
v 0 0.11683 0.0444489
v 0 0.118006 0.0412271
l 433 434
v 0 0.115567 0.0476373
v 0 0.11683 0.0444489
l 435 436
v 0 0.100417 0.0744409
v 0 0.102421 0.071658
l 437 438
v 0 0.0939564 0.0824451
v 0 0.0961829 0.0798365
l 439 440
v 0 0.0652026 0.106647
v 0 0.0681038 0.104818
l 441 442
v 0 0.0562134 0.111647
v 0 0.0592552 0.110063
l 443 444
v 0 0.0531293 0.113147
v 0 0.0562134 0.111647
l 445 446
v 0 0.0500052 0.114562
v 0 0.0531293 0.113147
l 447 448
v 0 0.0468435 0.115891
v 0 0.0500052 0.114562
l 449 450
v 0 0.0436465 0.117132
v 0 0.0468435 0.115891
l 451 452
v 0 0.0404167 0.118286
v 0 0.0436465 0.117132
l 453 454
v 0 0.0238605 0.122702
v 0 0.0272177 0.122001
l 455 456
v 0 0.00342926 0.124953
v 0 0.00685593 0.124812
l 457 458
v 4 0.996586 2.12439
v 4 1 2.12444
l 459 460
v 4 0.993175 2.12425
v 4 0.996586 2.12439
l 461 462
v 4 0.989768 2.12402
v 4 0.993175 2.12425
l 463 464
v 4 0.98637 2.12369
v 4 0.989768 2.12402
l 465 466
v 4 0.982982 2.12327
v 4 0.98637 2.12369
l 467 468
v 4 0.979606 2.12276
v 4 0.982982 2.12327
l 469 470
v 4 0.976246 2.12215
v 4 0.979606 2.12276
l 471 472
v 4 0.972904 2.12146
v 4 0.976246 2.12215
l 473 474
v 4 0.969582 2.12067
v 4 0.972904 2.12146
l 475 476
v 4 0.966283 2.11979
v 4 0.969582 2.12067
l 477 478
v 4 0.96301 2.11882
v 4 0.966283 2.11979
l 479 480
v 4 0.959764 2.11776
v 4 0.96301 2.11882
l 481 482
v 4 0.956548 2.11661
v 4 0.959764 2.11776
l 483 484
v 4 0.953366 2.11537
v 4 0.956548 2.11661
l 485 486
v 4 0.950218 2.11405
v 4 0.953366 2.11537
l 487 488
v 4 0.947108 2.11264
v 4 0.950218 2.11405
l 489 490
v 4 0.944038 2.11115
v 4 0.947108 2.11264
l 491 492
v 4 0.94101 2.10957
v 4 0.944038 2.11115
l 493 494
v 4 0.938026 2.10791
v 4 0.94101 2.10957
l 495 496
v 4 0.935089 2.10617
v 4 0.938026 2.10791
l 497 498
v 4 0.9322 2.10435
v 4 0.935089 2.10617
l 499 500
v 4 0.929363 2.10245
v 4 0.9322 2.10435
l 501 502
v 4 0.926579 2.10047
v 4 0.929363 2.10245
l 503 504
v 4 0.92385 2.09842
v 4 0.926579 2.10047
l 505 506
v 4 0.921179 2.0963
v 4 0.92385 2.09842
l 507 508
v 4 0.918567 2.0941
v 4 0.921179 2.0963
l 509 510
v 4 0.916016 2.09183
v 4 0.918567 2.0941
l 511 512
v 4 0.913528 2.08949
v 4 0.916016 2.09183
l 513 514
v 4 0.911106 2.08708
v 4 0.913528 2.08949
l 515 516
v 4 0.90875 2.08461
v 4 0.911106 2.08708
l 517 518
v 4 0.906463 2.08208
v 4 0.90875 2.08461
l 519 520
v 4 0.904247 2.07948
v 4 0.906463 2.08208
l 521 522
v 4 0.902102 2.07682
v 4 0.904247 2.07948
l 523 524
v 4 0.900032 2.07411
v 4 0.902102 2.07682
l 525 526
v 4 0.898036 2.07134
v 4 0.900032 2.07411
l 527 528
v 4 0.896117 2.06851
v 4 0.898036 2.07134
l 529 530
v 4 0.894277 2.06564
v 4 0.896117 2.06851
l 531 532
v 4 0.892516 2.06271
v 4 0.894277 2.06564
l 533 534
v 4 0.890836 2.05974
v 4 0.892516 2.06271
l 535 536
v 4 0.889238 2.05672
v 4 0.890836 2.05974
l 537 538
v 4 0.887724 2.05366
v 4 0.889238 2.05672
l 539 540
v 4 0.886294 2.05056
v 4 0.887724 2.05366
l 541 542
v 4 0.884949 2.04742
v 4 0.886294 2.05056
l 543 544
v 4 0.883692 2.04425
v 4 0.884949 2.04742
l 545 546
v 4 0.882521 2.04104
v 4 0.883692 2.04425
l 547 548
v 4 0.88144 2.0378
v 4 0.882521 2.04104
l 549 550
v 4 0.880447 2.03454
v 4 0.88144 2.0378
l 551 552
v 4 0.879545 2.03124
v 4 0.880447 2.03454
l 553 554
v 4 0.878733 2.02793
v 4 0.879545 2.03124
l 555 556
v 4 0.878012 2.02459
v 4 0.878733 2.02793
l 557 558
v 4 0.877384 2.02124
v 4 0.878012 2.02459
l 559 560
v 4 0.876847 2.01786
v 4 0.877384 2.02124
l 561 562
v 4 0.876403 2.01448
v 4 0.876847 2.01786
l 563 564
v 4 0.876053 2.01108
v 4 0.876403 2.01448
l 565 566
v 4 0.875795 2.00768
v 4 0.876053 2.01108
l 567 568
v 4 0.875632 2.00427
v 4 0.875795 2.00768
l 569 570
v 4 0.875561 2.00085
v 4 0.875632 2.00427
l 571 572
v 4 0.875585 1.99744
v 4 0.875561 2.00085
l 573 574
v 4 0.875702 1.99403
v 4 0.875585 1.99744
l 575 576
v 4 0.875912 1.99062
v 4 0.875702 1.99403
l 577 578
v 4 0.876216 1.98722
v 4 0.875912 1.99062
l 579 580
v 4 0.876614 1.98383
v 4 0.876216 1.98722
l 581 582
v 4 0.877104 1.98045
v 4 0.876614 1.98383
l 583 584
v 4 0.877686 1.97708
v 4 0.877104 1.98045
l 585 586
v 4 0.878361 1.97374
v 4 0.877686 1.97708
l 587 588
v 4 0.879127 1.97041
v 4 0.878361 1.97374
l 589 590
v 4 0.879985 1.96711
v 4 0.879127 1.97041
l 591 592
v 4 0.880932 1.96383
v 4 0.879985 1.96711
l 593 594
v 4 0.88197 1.96057
v 4 0.880932 1.96383
l 595 596
v 4 0.883096 1.95735
v 4 0.88197 1.96057
l 597 598
v 4 0.88431 1.95416
v 4 0.883096 1.95735
l 599 600
v 4 0.885611 1.951
v 4 0.88431 1.95416
l 601 602
v 4 0.886998 1.94788
v 4 0.885611 1.951
l 603 604
v 4 0.88847 1.9448
v 4 0.886998 1.94788
l 605 606
v 4 0.890027 1.94176
v 4 0.88847 1.9448
l 607 608
v 4 0.891666 1.93877
v 4 0.890027 1.94176
l 609 610
v 4 0.893386 1.93582
v 4 0.891666 1.93877
l 611 612
v 4 0.895187 1.93292
v 4 0.893386 1.93582
l 613 614
v 4 0.897067 1.93007
v 4 0.895187 1.93292
l 615 616
v 4 0.899024 1.92727
v 4 0.897067 1.93007
l 617 618
v 4 0.901058 1.92453
v 4 0.899024 1.92727
l 619 620
v 4 0.903165 1.92184
v 4 0.901058 1.92453
l 621 622
v 4 0.905346 1.91921
v 4 0.903165 1.92184
l 623 624
v 4 0.907598 1.91665
v 4 0.905346 1.91921
l 625 626
v 4 0.90992 1.91414
v 4 0.907598 1.91665
l 627 628
v 4 0.912309 1.91171
v 4 0.90992 1.91414
l 629 630
v 4 0.914764 1.90933
v 4 0.912309 1.91171
l 631 632
v 4 0.917284 1.90703
v 4 0.914764 1.90933
l 633 634
v 4 0.919865 1.90479
v 4 0.917284 1.90703
l 635 636
v 4 0.922507 1.90263
v 4 0.919865 1.90479
l 637 638
v 4 0.925208 1.90054
v 4 0.922507 1.90263
l 639 640
v 4 0.927964 1.89853
v 4 0.925208 1.90054
l 641 642
v 4 0.930775 1.89659
v 4 0.927964 1.89853
l 643 644
v 4 0.933638 1.89473
v 4 0.930775 1.89659
l 645 646
v 4 0.936551 1.89295
v 4 0.933638 1.89473
l 647 648
v 4 0.939512 1.89125
v 4 0.936551 1.89295
l 649 650
v 4 0.942518 1.88963
v 4 0.939512 1.89125
l 651 652
v 4 0.945568 1.88809
v 4 0.942518 1.88963
l 653 654
v 4 0.948658 1.88664
v 4 0.945568 1.88809
l 655 656
v 4 0.951787 1.88528
v 4 0.948658 1.88664
l 657 658
v 4 0.954953 1.884
v 4 0.951787 1.88528
l 659 660
v 4 0.958152 1.88281
v 4 0.954953 1.884
l 661 662
v 4 0.961383 1.8817
v 4 0.958152 1.88281
l 663 664
v 4 0.964643 1.88069
v 4 0.961383 1.8817
l 665 666
v 4 0.96793 1.87976
v 4 0.964643 1.88069
l 667 668
v 4 0.97124 1.87893
v 4 0.96793 1.87976
l 669 670
v 4 0.974573 1.87818
v 4 0.97124 1.87893
l 671 672
v 4 0.977924 1.87753
v 4 0.974573 1.87818
l 673 674
v 4 0.981292 1.87697
v 4 0.977924 1.87753
l 675 676
v 4 0.984674 1.87651
v 4 0.981292 1.87697
l 677 678
v 4 0.988068 1.87613
v 4 0.984674 1.87651
l 679 680
v 4 0.991471 1.87585
v 4 0.988068 1.87613
l 681 682
v 4 0.99488 1.87566
v 4 0.991471 1.87585
l 683 684
v 4 0.998293 1.87557
v 4 0.99488 1.87566
l 685 686
v 4 1.00171 1.87557
v 4 0.998293 1.87557
l 687 688
v 4 1.00512 1.87566
v 4 1.00171 1.87557
l 689 690
v 4 1.00853 1.87585
v 4 1.00512 1.87566
l 691 692
v 4 1.01193 1.87613
v 4 1.00853 1.87585
l 693 694
v 4 1.01533 1.87651
v 4 1.01193 1.87613
l 695 696
v 4 1.01871 1.87697
v 4 1.01533 1.87651
l 697 698
v 4 1.02208 1.87753
v 4 1.01871 1.87697
l 699 700
v 4 1.02543 1.87818
v 4 1.02208 1.87753
l 701 702
v 4 1.02876 1.87893
v 4 1.02543 1.87818
l 703 704
v 4 1.03207 1.87976
v 4 1.02876 1.87893
l 705 706
v 4 1.03536 1.88069
v 4 1.03207 1.87976
l 707 708
v 4 1.03862 1.8817
v 4 1.03536 1.88069
l 709 710
v 4 1.04185 1.88281
v 4 1.03862 1.8817
l 711 712
v 4 1.04505 1.884
v 4 1.04185 1.88281
l 713 714
v 4 1.04821 1.88528
v 4 1.04505 1.884
l 715 716
v 4 1.05134 1.88664
v 4 1.04821 1.88528
l 717 718
v 4 1.05443 1.88809
v 4 1.05134 1.88664
l 719 720
v 4 1.05748 1.88963
v 4 1.05443 1.88809
l 721 722
v 4 1.06049 1.89125
v 4 1.05748 1.88963
l 723 724
v 4 1.06345 1.89295
v 4 1.06049 1.89125
l 725 726
v 4 1.06636 1.89473
v 4 1.06345 1.89295
l 727 728
v 4 1.06922 1.89659
v 4 1.06636 1.89473
l 729 730
v 4 1.07204 1.89853
v 4 1.06922 1.89659
l 731 732
v 4 1.07479 1.90054
v 4 1.07204 1.89853
l 733 734
v 4 1.07749 1.90263
v 4 1.07479 1.90054
l 735 736
v 4 1.08013 1.90479
v 4 1.07749 1.90263
l 737 738
v 4 1.08272 1.90703
v 4 1.08013 1.90479
l 739 740
v 4 1.08524 1.90933
v 4 1.08272 1.90703
l 741 742
v 4 1.08769 1.91171
v 4 1.08524 1.90933
l 743 744
v 4 1.09008 1.91414
v 4 1.08769 1.91171
l 745 746
v 4 1.0924 1.91665
v 4 1.09008 1.91414
l 747 748
v 4 1.09465 1.91921
v 4 1.0924 1.91665
l 749 750
v 4 1.09683 1.92184
v 4 1.09465 1.91921
l 751 752
v 4 1.09894 1.92453
v 4 1.09683 1.92184
l 753 754
v 4 1.10098 1.92727
v 4 1.09894 1.92453
l 755 756
v 4 1.10293 1.93007
v 4 1.10098 1.92727
l 757 758
v 4 1.10481 1.93292
v 4 1.10293 1.93007
l 759 760
v 4 1.10661 1.93582
v 4 1.10481 1.93292
l 761 762
v 4 1.10833 1.93877
v 4 1.10661 1.93582
l 763 764
v 4 1.10997 1.94176
v 4 1.10833 1.93877
l 765 766
v 4 1.11153 1.9448
v 4 1.10997 1.94176
l 767 768
v 4 1.113 1.94788
v 4 1.11153 1.9448
l 769 770
v 4 1.11439 1.951
v 4 1.113 1.94788
l 771 772
v 4 1.11569 1.95416
v 4 1.11439 1.951
l 773 774
v 4 1.1169 1.95735
v 4 1.11569 1.95416
l 775 776
v 4 1.11803 1.96057
v 4 1.1169 1.95735
l 777 778
v 4 1.11907 1.96383
v 4 1.11803 1.96057
l 779 780
v 4 1.12002 1.96711
v 4 1.11907 1.96383
l 781 782
v 4 1.12087 1.97041
v 4 1.12002 1.96711
l 783 784
v 4 1.12164 1.97374
v 4 1.12087 1.97041
l 785 786
v 4 1.12231 1.97708
v 4 1.12164 1.97374
l 787 788
v 4 1.1229 1.98045
v 4 1.12231 1.97708
l 789 790
v 4 1.12339 1.98383
v 4 1.1229 1.98045
l 791 792
v 4 1.12378 1.98722
v 4 1.12339 1.98383
l 793 794
v 4 1.12409 1.99062
v 4 1.12378 1.98722
l 795 796
v 4 1.1243 1.99403
v 4 1.12409 1.99062
l 797 798
v 4 1.12442 1.99744
v 4 1.1243 1.99403
l 799 800
v 4 1.12444 2.00085
v 4 1.12442 1.99744
l 801 802
v 4 1.12437 2.00427
v 4 1.12444 2.00085
l 803 804
v 4 1.1242 2.00768
v 4 1.12437 2.00427
l 805 806
v 4 1.12395 2.01108
v 4 1.1242 2.00768
l 807 808
v 4 1.1236 2.01448
v 4 1.12395 2.01108
l 809 810
v 4 1.12315 2.01786
v 4 1.1236 2.01448
l 811 812
v 4 1.12262 2.02124
v 4 1.12315 2.01786
l 813 814
v 4 1.12199 2.02459
v 4 1.12262 2.02124
l 815 816
v 4 1.12127 2.02793
v 4 1.12199 2.02459
l 817 818
v 4 1.12046 2.03124
v 4 1.12127 2.02793
l 819 820
v 4 1.11955 2.03454
v 4 1.12046 2.03124
l 821 822
v 4 1.11856 2.0378
v 4 1.11955 2.03454
l 823 824
v 4 1.11748 2.04104
v 4 1.11856 2.0378
l 825 826
v 4 1.11631 2.04425
v 4 1.11748 2.04104
l 827 828
v 4 1.11505 2.04742
v 4 1.11631 2.04425
l 829 830
v 4 1.11371 2.05056
v 4 1.11505 2.04742
l 831 832
v 4 1.11228 2.05366
v 4 1.11371 2.05056
l 833 834
v 4 1.11076 2.05672
v 4 1.11228 2.05366
l 835 836
v 4 1.10916 2.05974
v 4 1.11076 2.05672
l 837 838
v 4 1.10748 2.06271
v 4 1.10916 2.05974
l 839 840
v 4 1.10572 2.06564
v 4 1.10748 2.06271
l 841 842
v 4 1.10388 2.06851
v 4 1.10572 2.06564
l 843 844
v 4 1.10196 2.07134
v 4 1.10388 2.06851
l 845 846
v 4 1.09997 2.07411
v 4 1.10196 2.07134
l 847 848
v 4 1.0979 2.07682
v 4 1.09997 2.07411
l 849 850
v 4 1.09575 2.07948
v 4 1.0979 2.07682
l 851 852
v 4 1.09354 2.08208
v 4 1.09575 2.07948
l 853 854
v 4 1.09125 2.08461
v 4 1.09354 2.08208
l 855 856
v 4 1.08889 2.08708
v 4 1.09125 2.08461
l 857 858
v 4 1.08647 2.08949
v 4 1.08889 2.08708
l 859 860
v 4 1.08398 2.09183
v 4 1.08647 2.08949
l 861 862
v 4 1.08143 2.0941
v 4 1.08398 2.09183
l 863 864
v 4 1.07882 2.0963
v 4 1.08143 2.0941
l 865 866
v 4 1.07615 2.09842
v 4 1.07882 2.0963
l 867 868
v 4 1.07342 2.10047
v 4 1.07615 2.09842
l 869 870
v 4 1.07064 2.10245
v 4 1.07342 2.10047
l 871 872
v 4 1.0678 2.10435
v 4 1.07064 2.10245
l 873 874
v 4 1.06491 2.10617
v 4 1.0678 2.10435
l 875 876
v 4 1.06197 2.10791
v 4 1.06491 2.10617
l 877 878
v 4 1.05899 2.10957
v 4 1.06197 2.10791
l 879 880
v 4 1.05596 2.11115
v 4 1.05899 2.10957
l 881 882
v 4 1.05289 2.11264
v 4 1.05596 2.11115
l 883 884
v 4 1.04978 2.11405
v 4 1.05289 2.11264
l 885 886
v 4 1.04663 2.11537
v 4 1.04978 2.11405
l 887 888
v 4 1.04345 2.11661
v 4 1.04663 2.11537
l 889 890
v 4 1.04024 2.11776
v 4 1.04345 2.11661
l 891 892
v 4 1.03699 2.11882
v 4 1.04024 2.11776
l 893 894
v 4 1.03372 2.11979
v 4 1.03699 2.11882
l 895 896
v 4 1.03042 2.12067
v 4 1.03372 2.11979
l 897 898
v 4 1.0271 2.12146
v 4 1.03042 2.12067
l 899 900
v 4 1.02375 2.12215
v 4 1.0271 2.12146
l 901 902
v 4 1.02039 2.12276
v 4 1.02375 2.12215
l 903 904
v 4 1.01702 2.12327
v 4 1.02039 2.12276
l 905 906
v 4 1.01363 2.12369
v 4 1.01702 2.12327
l 907 908
v 4 1.01023 2.12402
v 4 1.01363 2.12369
l 909 910
v 4 1.00683 2.12425
v 4 1.01023 2.12402
l 911 912
v 4 1.00341 2.12439
v 4 1.00683 2.12425
l 913 914
v 4 1 2.12444
v 4 1.00341 2.12439
l 915 916
v 4 -1.00341 2.12439
v 4 -1 2.12444
l 917 918
v 4 -1.00683 2.12425
v 4 -1.00341 2.12439
l 919 920
v 4 -1.01023 2.12402
v 4 -1.00683 2.12425
l 921 922
v 4 -1.01363 2.12369
v 4 -1.01023 2.12402
l 923 924
v 4 -1.01702 2.12327
v 4 -1.01363 2.12369
l 925 926
v 4 -1.02039 2.12276
v 4 -1.01702 2.12327
l 927 928
v 4 -1.02375 2.12215
v 4 -1.02039 2.12276
l 929 930
v 4 -1.0271 2.12146
v 4 -1.02375 2.12215
l 931 932
v 4 -1.03042 2.12067
v 4 -1.0271 2.12146
l 933 934
v 4 -1.03372 2.11979
v 4 -1.03042 2.12067
l 935 936
v 4 -1.03699 2.11882
v 4 -1.03372 2.11979
l 937 938
v 4 -1.04024 2.11776
v 4 -1.03699 2.11882
l 939 940
v 4 -1.04345 2.11661
v 4 -1.04024 2.11776
l 941 942
v 4 -1.04663 2.11537
v 4 -1.04345 2.11661
l 943 944
v 4 -1.04978 2.11405
v 4 -1.04663 2.11537
l 945 946
v 4 -1.05289 2.11264
v 4 -1.04978 2.11405
l 947 948
v 4 -1.05596 2.11115
v 4 -1.05289 2.11264
l 949 950
v 4 -1.05899 2.10957
v 4 -1.05596 2.11115
l 951 952
v 4 -1.06197 2.10791
v 4 -1.05899 2.10957
l 953 954
v 4 -1.06491 2.10617
v 4 -1.06197 2.10791
l 955 956
v 4 -1.0678 2.10435
v 4 -1.06491 2.10617
l 957 958
v 4 -1.07064 2.10245
v 4 -1.0678 2.10435
l 959 960
v 4 -1.07342 2.10047
v 4 -1.07064 2.10245
l 961 962
v 4 -1.07615 2.09842
v 4 -1.07342 2.10047
l 963 964
v 4 -1.07882 2.0963
v 4 -1.07615 2.09842
l 965 966
v 4 -1.08143 2.0941
v 4 -1.07882 2.0963
l 967 968
v 4 -1.08398 2.09183
v 4 -1.08143 2.0941
l 969 970
v 4 -1.08647 2.08949
v 4 -1.08398 2.09183
l 971 972
v 4 -1.08889 2.08708
v 4 -1.08647 2.08949
l 973 974
v 4 -1.09125 2.08461
v 4 -1.08889 2.08708
l 975 976
v 4 -1.09354 2.08208
v 4 -1.09125 2.08461
l 977 978
v 4 -1.09575 2.07948
v 4 -1.09354 2.08208
l 979 980
v 4 -1.0979 2.07682
v 4 -1.09575 2.07948
l 981 982
v 4 -1.09997 2.07411
v 4 -1.0979 2.07682
l 983 984
v 4 -1.10196 2.07134
v 4 -1.09997 2.07411
l 985 986
v 4 -1.10388 2.06851
v 4 -1.10196 2.07134
l 987 988
v 4 -1.10572 2.06564
v 4 -1.10388 2.06851
l 989 990
v 4 -1.10748 2.06271
v 4 -1.10572 2.06564
l 991 992
v 4 -1.10916 2.05974
v 4 -1.10748 2.06271
l 993 994
v 4 -1.11076 2.05672
v 4 -1.10916 2.05974
l 995 996
v 4 -1.11228 2.05366
v 4 -1.11076 2.05672
l 997 998
v 4 -1.11371 2.05056
v 4 -1.11228 2.05366
l 999 1000
v 4 -1.11505 2.04742
v 4 -1.11371 2.05056
l 1001 1002
v 4 -1.11631 2.04425
v 4 -1.11505 2.04742
l 1003 1004
v 4 -1.11748 2.04104
v 4 -1.11631 2.04425
l 1005 1006
v 4 -1.11856 2.0378
v 4 -1.11748 2.04104
l 1007 1008
v 4 -1.11955 2.03454
v 4 -1.11856 2.0378
l 1009 1010
v 4 -1.12046 2.03124
v 4 -1.11955 2.03454
l 1011 1012
v 4 -1.12127 2.02793
v 4 -1.12046 2.03124
l 1013 1014
v 4 -1.12199 2.02459
v 4 -1.12127 2.02793
l 1015 1016
v 4 -1.12262 2.02124
v 4 -1.12199 2.02459
l 1017 1018
v 4 -1.12315 2.01786
v 4 -1.12262 2.02124
l 1019 1020
v 4 -1.1236 2.01448
v 4 -1.12315 2.01786
l 1021 1022
v 4 -1.12395 2.01108
v 4 -1.1236 2.01448
l 1023 1024
v 4 -1.1242 2.00768
v 4 -1.12395 2.01108
l 1025 1026
v 4 -1.12437 2.00427
v 4 -1.1242 2.00768
l 1027 1028
v 4 -1.12444 2.00085
v 4 -1.12437 2.00427
l 1029 1030
v 4 -1.12442 1.99744
v 4 -1.12444 2.00085
l 1031 1032
v 4 -1.1243 1.99403
v 4 -1.12442 1.99744
l 1033 1034
v 4 -1.12409 1.99062
v 4 -1.1243 1.99403
l 1035 1036
v 4 -1.12378 1.98722
v 4 -1.12409 1.99062
l 1037 1038
v 4 -1.12339 1.98383
v 4 -1.12378 1.98722
l 1039 1040
v 4 -1.1229 1.98045
v 4 -1.12339 1.98383
l 1041 1042
v 4 -1.12231 1.97708
v 4 -1.1229 1.98045
l 1043 1044
v 4 -1.12164 1.97374
v 4 -1.12231 1.97708
l 1045 1046
v 4 -1.12087 1.97041
v 4 -1.12164 1.97374
l 1047 1048
v 4 -1.12002 1.96711
v 4 -1.12087 1.97041
l 1049 1050
v 4 -1.11907 1.96383
v 4 -1.12002 1.96711
l 1051 1052
v 4 -1.11803 1.96057
v 4 -1.11907 1.96383
l 1053 1054
v 4 -1.1169 1.95735
v 4 -1.11803 1.96057
l 1055 1056
v 4 -1.11569 1.95416
v 4 -1.1169 1.95735
l 1057 1058
v 4 -1.11439 1.951
v 4 -1.11569 1.95416
l 1059 1060
v 4 -1.113 1.94788
v 4 -1.11439 1.951
l 1061 1062
v 4 -1.11153 1.9448
v 4 -1.113 1.94788
l 1063 1064
v 4 -1.10997 1.94176
v 4 -1.11153 1.9448
l 1065 1066
v 4 -1.10833 1.93877
v 4 -1.10997 1.94176
l 1067 1068
v 4 -1.10661 1.93582
v 4 -1.10833 1.93877
l 1069 1070
v 4 -1.10481 1.93292
v 4 -1.10661 1.93582
l 1071 1072
v 4 -1.10293 1.93007
v 4 -1.10481 1.93292
l 1073 1074
v 4 -1.10098 1.92727
v 4 -1.10293 1.93007
l 1075 1076
v 4 -1.09894 1.92453
v 4 -1.10098 1.92727
l 1077 1078
v 4 -1.09683 1.92184
v 4 -1.09894 1.92453
l 1079 1080
v 4 -1.09465 1.91921
v 4 -1.09683 1.92184
l 1081 1082
v 4 -1.0924 1.91665
v 4 -1.09465 1.91921
l 1083 1084
v 4 -1.09008 1.91414
v 4 -1.0924 1.91665
l 1085 1086
v 4 -1.08769 1.91171
v 4 -1.09008 1.91414
l 1087 1088
v 4 -1.08524 1.90933
v 4 -1.08769 1.91171
l 1089 1090
v 4 -1.08272 1.90703
v 4 -1.08524 1.90933
l 1091 1092
v 4 -1.08013 1.90479
v 4 -1.08272 1.90703
l 1093 1094
v 4 -1.07749 1.90263
v 4 -1.08013 1.90479
l 1095 1096
v 4 -1.07479 1.90054
v 4 -1.07749 1.90263
l 1097 1098
v 4 -1.07204 1.89853
v 4 -1.07479 1.90054
l 1099 1100
v 4 -1.06922 1.89659
v 4 -1.07204 1.89853
l 1101 1102
v 4 -1.06636 1.89473
v 4 -1.06922 1.89659
l 1103 1104
v 4 -1.06345 1.89295
v 4 -1.06636 1.89473
l 1105 1106
v 4 -1.06049 1.89125
v 4 -1.06345 1.89295
l 1107 1108
v 4 -1.05748 1.88963
v 4 -1.06049 1.89125
l 1109 1110
v 4 -1.05443 1.88809
v 4 -1.05748 1.88963
l 1111 1112
v 4 -1.05134 1.88664
v 4 -1.05443 1.88809
l 1113 1114
v 4 -1.04821 1.88528
v 4 -1.05134 1.88664
l 1115 1116
v 4 -1.04505 1.884
v 4 -1.04821 1.88528
l 1117 1118
v 4 -1.04185 1.88281
v 4 -1.04505 1.884
l 1119 1120
v 4 -1.03862 1.8817
v 4 -1.04185 1.88281
l 1121 1122
v 4 -1.03536 1.88069
v 4 -1.03862 1.8817
l 1123 1124
v 4 -1.03207 1.87976
v 4 -1.03536 1.88069
l 1125 1126
v 4 -1.02876 1.87893
v 4 -1.03207 1.87976
l 1127 1128
v 4 -1.02543 1.87818
v 4 -1.02876 1.87893
l 1129 1130
v 4 -1.02208 1.87753
v 4 -1.02543 1.87818
l 1131 1132
v 4 -1.01871 1.87697
v 4 -1.02208 1.87753
l 1133 1134
v 4 -1.01533 1.87651
v 4 -1.01871 1.87697
l 1135 1136
v 4 -1.01193 1.87613
v 4 -1.01533 1.87651
l 1137 1138
v 4 -1.00853 1.87585
v 4 -1.01193 1.87613
l 1139 1140
v 4 -1.00512 1.87566
v 4 -1.00853 1.87585
l 1141 1142
v 4 -1.00171 1.87557
v 4 -1.00512 1.87566
l 1143 1144
v 4 -0.998293 1.87557
v 4 -1.00171 1.87557
l 1145 1146
v 4 -0.99488 1.87566
v 4 -0.998293 1.87557
l 1147 1148
v 4 -0.991471 1.87585
v 4 -0.99488 1.87566
l 1149 1150
v 4 -0.988068 1.87613
v 4 -0.991471 1.87585
l 1151 1152
v 4 -0.984674 1.87651
v 4 -0.988068 1.87613
l 1153 1154
v 4 -0.981292 1.87697
v 4 -0.984674 1.87651
l 1155 1156
v 4 -0.977924 1.87753
v 4 -0.981292 1.87697
l 1157 1158
v 4 -0.974573 1.87818
v 4 -0.977924 1.87753
l 1159 1160
v 4 -0.97124 1.87893
v 4 -0.974573 1.87818
l 1161 1162
v 4 -0.96793 1.87976
v 4 -0.97124 1.87893
l 1163 1164
v 4 -0.964643 1.88069
v 4 -0.96793 1.87976
l 1165 1166
v 4 -0.961383 1.8817
v 4 -0.964643 1.88069
l 1167 1168
v 4 -0.958152 1.88281
v 4 -0.961383 1.8817
l 1169 1170
v 4 -0.954953 1.884
v 4 -0.958152 1.88281
l 1171 1172
v 4 -0.951787 1.88528
v 4 -0.954953 1.884
l 1173 1174
v 4 -0.948658 1.88664
v 4 -0.951787 1.88528
l 1175 1176
v 4 -0.945568 1.88809
v 4 -0.948658 1.88664
l 1177 1178
v 4 -0.942518 1.88963
v 4 -0.945568 1.88809
l 1179 1180
v 4 -0.939512 1.89125
v 4 -0.942518 1.88963
l 1181 1182
v 4 -0.936551 1.89295
v 4 -0.939512 1.89125
l 1183 1184
v 4 -0.933638 1.89473
v 4 -0.936551 1.89295
l 1185 1186
v 4 -0.930775 1.89659
v 4 -0.933638 1.89473
l 1187 1188
v 4 -0.927964 1.89853
v 4 -0.930775 1.89659
l 1189 1190
v 4 -0.925208 1.90054
v 4 -0.927964 1.89853
l 1191 1192
v 4 -0.922507 1.90263
v 4 -0.925208 1.90054
l 1193 1194
v 4 -0.919865 1.90479
v 4 -0.922507 1.90263
l 1195 1196
v 4 -0.917284 1.90703
v 4 -0.919865 1.90479
l 1197 1198
v 4 -0.914764 1.90933
v 4 -0.917284 1.90703
l 1199 1200
v 4 -0.912309 1.91171
v 4 -0.914764 1.90933
l 1201 1202
v 4 -0.90992 1.91414
v 4 -0.912309 1.91171
l 1203 1204
v 4 -0.907598 1.91665
v 4 -0.90992 1.91414
l 1205 1206
v 4 -0.905346 1.91921
v 4 -0.907598 1.91665
l 1207 1208
v 4 -0.903165 1.92184
v 4 -0.905346 1.91921
l 1209 1210
v 4 -0.901058 1.92453
v 4 -0.903165 1.92184
l 1211 1212
v 4 -0.899024 1.92727
v 4 -0.901058 1.92453
l 1213 1214
v 4 -0.897067 1.93007
v 4 -0.899024 1.92727
l 1215 1216
v 4 -0.895187 1.93292
v 4 -0.897067 1.93007
l 1217 1218
v 4 -0.893386 1.93582
v 4 -0.895187 1.93292
l 1219 1220
v 4 -0.891666 1.93877
v 4 -0.893386 1.93582
l 1221 1222
v 4 -0.890027 1.94176
v 4 -0.891666 1.93877
l 1223 1224
v 4 -0.88847 1.9448
v 4 -0.890027 1.94176
l 1225 1226
v 4 -0.886998 1.94788
v 4 -0.88847 1.9448
l 1227 1228
v 4 -0.885611 1.951
v 4 -0.886998 1.94788
l 1229 1230
v 4 -0.88431 1.95416
v 4 -0.885611 1.951
l 1231 1232
v 4 -0.883096 1.95735
v 4 -0.88431 1.95416
l 1233 1234
v 4 -0.88197 1.96057
v 4 -0.883096 1.95735
l 1235 1236
v 4 -0.880932 1.96383
v 4 -0.88197 1.96057
l 1237 1238
v 4 -0.879985 1.96711
v 4 -0.880932 1.96383
l 1239 1240
v 4 -0.879127 1.97041
v 4 -0.879985 1.96711
l 1241 1242
v 4 -0.878361 1.97374
v 4 -0.879127 1.97041
l 1243 1244
v 4 -0.877686 1.97708
v 4 -0.878361 1.97374
l 1245 1246
v 4 -0.877104 1.98045
v 4 -0.877686 1.97708
l 1247 1248
v 4 -0.876614 1.98383
v 4 -0.877104 1.98045
l 1249 1250
v 4 -0.876216 1.98722
v 4 -0.876614 1.98383
l 1251 1252
v 4 -0.875912 1.99062
v 4 -0.876216 1.98722
l 1253 1254
v 4 -0.875702 1.99403
v 4 -0.875912 1.99062
l 1255 1256
v 4 -0.875585 1.99744
v 4 -0.875702 1.99403
l 1257 1258
v 4 -0.875561 2.00085
v 4 -0.875585 1.99744
l 1259 1260
v 4 -0.875632 2.00427
v 4 -0.875561 2.00085
l 1261 1262
v 4 -0.875795 2.00768
v 4 -0.875632 2.00427
l 1263 1264
v 4 -0.876053 2.01108
v 4 -0.875795 2.00768
l 1265 1266
v 4 -0.876403 2.01448
v 4 -0.876053 2.01108
l 1267 1268
v 4 -0.876847 2.01786
v 4 -0.876403 2.01448
l 1269 1270
v 4 -0.877384 2.02124
v 4 -0.876847 2.01786
l 1271 1272
v 4 -0.878012 2.02459
v 4 -0.877384 2.02124
l 1273 1274
v 4 -0.878733 2.02793
v 4 -0.878012 2.02459
l 1275 1276
v 4 -0.879545 2.03124
v 4 -0.878733 2.02793
l 1277 1278
v 4 -0.880447 2.03454
v 4 -0.879545 2.03124
l 1279 1280
v 4 -0.88144 2.0378
v 4 -0.880447 2.03454
l 1281 1282
v 4 -0.882521 2.04104
v 4 -0.88144 2.0378
l 1283 1284
v 4 -0.883692 2.04425
v 4 -0.882521 2.04104
l 1285 1286
v 4 -0.884949 2.04742
v 4 -0.883692 2.04425
l 1287 1288
v 4 -0.886294 2.05056
v 4 -0.884949 2.04742
l 1289 1290
v 4 -0.887724 2.05366
v 4 -0.886294 2.05056
l 1291 1292
v 4 -0.889238 2.05672
v 4 -0.887724 2.05366
l 1293 1294
v 4 -0.890836 2.05974
v 4 -0.889238 2.05672
l 1295 1296
v 4 -0.892516 2.06271
v 4 -0.890836 2.05974
l 1297 1298
v 4 -0.894277 2.06564
v 4 -0.892516 2.06271
l 1299 1300
v 4 -0.896117 2.06851
v 4 -0.894277 2.06564
l 1301 1302
v 4 -0.898036 2.07134
v 4 -0.896117 2.06851
l 1303 1304
v 4 -0.900032 2.07411
v 4 -0.898036 2.07134
l 1305 1306
v 4 -0.902102 2.07682
v 4 -0.900032 2.07411
l 1307 1308
v 4 -0.904247 2.07948
v 4 -0.902102 2.07682
l 1309 1310
v 4 -0.906463 2.08208
v 4 -0.904247 2.07948
l 1311 1312
v 4 -0.90875 2.08461
v 4 -0.906463 2.08208
l 1313 1314
v 4 -0.911106 2.08708
v 4 -0.90875 2.08461
l 1315 1316
v 4 -0.913528 2.08949
v 4 -0.911106 2.08708
l 1317 1318
v 4 -0.916016 2.09183
v 4 -0.913528 2.08949
l 1319 1320
v 4 -0.918567 2.0941
v 4 -0.916016 2.09183
l 1321 1322
v 4 -0.921179 2.0963
v 4 -0.918567 2.0941
l 1323 1324
v 4 -0.92385 2.09842
v 4 -0.921179 2.0963
l 1325 1326
v 4 -0.926579 2.10047
v 4 -0.92385 2.09842
l 1327 1328
v 4 -0.929363 2.10245
v 4 -0.926579 2.10047
l 1329 1330
v 4 -0.9322 2.10435
v 4 -0.929363 2.10245
l 1331 1332
v 4 -0.935089 2.10617
v 4 -0.9322 2.10435
l 1333 1334
v 4 -0.938026 2.10791
v 4 -0.935089 2.10617
l 1335 1336
v 4 -0.94101 2.10957
v 4 -0.938026 2.10791
l 1337 1338
v 4 -0.944038 2.11115
v 4 -0.94101 2.10957
l 1339 1340
v 4 -0.947108 2.11264
v 4 -0.944038 2.11115
l 1341 1342
v 4 -0.950218 2.11405
v 4 -0.947108 2.11264
l 1343 1344
v 4 -0.953366 2.11537
v 4 -0.950218 2.11405
l 1345 1346
v 4 -0.956548 2.11661
v 4 -0.953366 2.11537
l 1347 1348
v 4 -0.959764 2.11776
v 4 -0.956548 2.11661
l 1349 1350
v 4 -0.96301 2.11882
v 4 -0.959764 2.11776
l 1351 1352
v 4 -0.966283 2.11979
v 4 -0.96301 2.11882
l 1353 1354
v 4 -0.969582 2.12067
v 4 -0.966283 2.11979
l 1355 1356
v 4 -0.972904 2.12146
v 4 -0.969582 2.12067
l 1357 1358
v 4 -0.976246 2.12215
v 4 -0.972904 2.12146
l 1359 1360
v 4 -0.979606 2.12276
v 4 -0.976246 2.12215
l 1361 1362
v 4 -0.982982 2.12327
v 4 -0.979606 2.12276
l 1363 1364
v 4 -0.98637 2.12369
v 4 -0.982982 2.12327
l 1365 1366
v 4 -0.989768 2.12402
v 4 -0.98637 2.12369
l 1367 1368
v 4 -0.993175 2.12425
v 4 -0.989768 2.12402
l 1369 1370
v 4 -0.996586 2.12439
v 4 -0.993175 2.12425
l 1371 1372
v 4 -1 2.12444
v 4 -0.996586 2.12439
l 1373 1374
v 4 -0.00196304 2.07153
v 4 1.75259e-17 2.07156
l 1375 1376
v 4 1.75259e-17 2.07156
v 4 0.00196304 2.07153
l 1377 1378
v 4 -0.00392461 2.07145
v 4 -0.00196304 2.07153
l 1379 1380
v 4 -0.00588322 2.07131
v 4 -0.00392461 2.07145
l 1381 1382
v 4 -0.00783741 2.07112
v 4 -0.00588322 2.07131
l 1383 1384
v 4 -0.00978569 2.07088
v 4 -0.00783741 2.07112
l 1385 1386
v 4 -0.0117266 2.07059
v 4 -0.00978569 2.07088
l 1387 1388
v 4 -0.0136587 2.07024
v 4 -0.0117266 2.07059
l 1389 1390
v 4 -0.0155805 2.06984
v 4 -0.0136587 2.07024
l 1391 1392
v 4 -0.0174906 2.06938
v 4 -0.0155805 2.06984
l 1393 1394
v 4 -0.0193875 2.06888
v 4 -0.0174906 2.06938
l 1395 1396
v 4 -0.0212698 2.06832
v 4 -0.0193875 2.06888
l 1397 1398
v 4 -0.0231361 2.06771
v 4 -0.0212698 2.06832
l 1399 1400
v 4 -0.024985 2.06705
v 4 -0.0231361 2.06771
l 1401 1402
v 4 -0.0268151 2.06634
v 4 -0.024985 2.06705
l 1403 1404
v 4 -0.028625 2.06558
v 4 -0.0268151 2.06634
l 1405 1406
v 4 -0.0304133 2.06477
v 4 -0.028625 2.06558
l 1407 1408
v 4 -0.0321788 2.06391
v 4 -0.0304133 2.06477
l 1409 1410
v 4 -0.03392 2.063
v 4 -0.0321788 2.06391
l 1411 1412
v 4 -0.0356357 2.06205
v 4 -0.03392 2.063
l 1413 1414
v 4 -0.0373246 2.06105
v 4 -0.0356357 2.06205
l 1415 1416
v 4 -0.0389854 2.06
v 4 -0.0373246 2.06105
l 1417 1418
v 4 -0.0406168 2.05891
v 4 -0.0389854 2.06
l 1419 1420
v 4 -0.0422177 2.05777
v 4 -0.0406168 2.05891
l 1421 1422
v 4 -0.0437867 2.05659
v 4 -0.0422177 2.05777
l 1423 1424
v 4 -0.0453229 2.05537
v 4 -0.0437867 2.05659
l 1425 1426
v 4 -0.0468248 2.05411
v 4 -0.0453229 2.05537
l 1427 1428
v 4 -0.0482916 2.0528
v 4 -0.0468248 2.05411
l 1429 1430
v 4 -0.049722 2.05146
v 4 -0.0482916 2.0528
l 1431 1432
v 4 -0.051115 2.05007
v 4 -0.049722 2.05146
l 1433 1434
v 4 -0.0524694 2.04865
v 4 -0.051115 2.05007
l 1435 1436
v 4 -0.0537844 2.04719
v 4 -0.0524694 2.04865
l 1437 1438
v 4 -0.0550589 2.0457
v 4 -0.0537844 2.04719
l 1439 1440
v 4 -0.056292 2.04417
v 4 -0.0550589 2.0457
l 1441 1442
v 4 -0.0574827 2.04261
v 4 -0.056292 2.04417
l 1443 1444
v 4 -0.0586301 2.04102
v 4 -0.0574827 2.04261
l 1445 1446
v 4 -0.0597334 2.0394
v 4 -0.0586301 2.04102
l 1447 1448
v 4 -0.0607917 2.03774
v 4 -0.0597334 2.0394
l 1449 1450
v 4 -0.0618042 2.03606
v 4 -0.0607917 2.03774
l 1451 1452
v 4 -0.0627702 2.03435
v 4 -0.0618042 2.03606
l 1453 1454
v 4 -0.063689 2.03262
v 4 -0.0627702 2.03435
l 1455 1456
v 4 -0.0645598 2.03086
v 4 -0.063689 2.03262
l 1457 1458
v 4 -0.0653821 2.02907
v 4 -0.0645598 2.03086
l 1459 1460
v 4 -0.0661551 2.02727
v 4 -0.0653821 2.02907
l 1461 1462
v 4 -0.0668783 2.02544
v 4 -0.0661551 2.02727
l 1463 1464
v 4 -0.0675512 2.0236
v 4 -0.0668783 2.02544
l 1465 1466
v 4 -0.0681732 2.02174
v 4 -0.0675512 2.0236
l 1467 1468
v 4 -0.0687439 2.01986
v 4 -0.0681732 2.02174
l 1469 1470
v 4 -0.0692628 2.01797
v 4 -0.0687439 2.01986
l 1471 1472
v 4 -0.0697296 2.01606
v 4 -0.0692628 2.01797
l 1473 1474
v 4 -0.070144 2.01414
v 4 -0.0697296 2.01606
l 1475 1476
v 4 -0.0705055 2.01221
v 4 -0.070144 2.01414
l 1477 1478
v 4 -0.0708139 2.01027
v 4 -0.0705055 2.01221
l 1479 1480
v 4 -0.0710691 2.00833
v 4 -0.0708139 2.01027
l 1481 1482
v 4 -0.0712707 2.00637
v 4 -0.0710691 2.00833
l 1483 1484
v 4 -0.0714187 2.00441
v 4 -0.0712707 2.00637
l 1485 1486
v 4 -0.0715129 2.00245
v 4 -0.0714187 2.00441
l 1487 1488
v 4 -0.0715533 2.00049
v 4 -0.0715129 2.00245
l 1489 1490
v 4 -0.0715399 1.99853
v 4 -0.0715533 2.00049
l 1491 1492
v 4 -0.0714726 1.99657
v 4 -0.0715399 1.99853
l 1493 1494
v 4 -0.0713514 1.99461
v 4 -0.0714726 1.99657
l 1495 1496
v 4 -0.0711766 1.99265
v 4 -0.0713514 1.99461
l 1497 1498
v 4 -0.0709482 1.9907
v 4 -0.0711766 1.99265
l 1499 1500
v 4 -0.0706664 1.98876
v 4 -0.0709482 1.9907
l 1501 1502
v 4 -0.0703313 1.98682
v 4 -0.0706664 1.98876
l 1503 1504
v 4 -0.0699434 1.9849
v 4 -0.0703313 1.98682
l 1505 1506
v 4 -0.0695028 1.98299
v 4 -0.0699434 1.9849
l 1507 1508
v 4 -0.0690099 1.98109
v 4 -0.0695028 1.98299
l 1509 1510
v 4 -0.068465 1.9792
v 4 -0.0690099 1.98109
l 1511 1512
v 4 -0.0678686 1.97733
v 4 -0.068465 1.9792
l 1513 1514
v 4 -0.0672211 1.97548
v 4 -0.0678686 1.97733
l 1515 1516
v 4 -0.0665229 1.97364
v 4 -0.0672211 1.97548
l 1517 1518
v 4 -0.0657748 1.97183
v 4 -0.0665229 1.97364
l 1519 1520
v 4 -0.0649771 1.97003
v 4 -0.0657748 1.97183
l 1521 1522
v 4 -0.0641305 1.96826
v 4 -0.0649771 1.97003
l 1523 1524
v 4 -0.0632356 1.96651
v 4 -0.0641305 1.96826
l 1525 1526
v 4 -0.0622931 1.96479
v 4 -0.0632356 1.96651
l 1527 1528
v 4 -0.0613037 1.9631
v 4 -0.0622931 1.96479
l 1529 1530
v 4 -0.0602682 1.96143
v 4 -0.0613037 1.9631
l 1531 1532
v 4 -0.0591873 1.95979
v 4 -0.0602682 1.96143
l 1533 1534
v 4 -0.0580618 1.95818
v 4 -0.0591873 1.95979
l 1535 1536
v 4 -0.0568927 1.9566
v 4 -0.0580618 1.95818
l 1537 1538
v 4 -0.0556807 1.95506
v 4 -0.0568927 1.9566
l 1539 1540
v 4 -0.0544268 1.95355
v 4 -0.0556807 1.95506
l 1541 1542
v 4 -0.0531319 1.95207
v 4 -0.0544268 1.95355
l 1543 1544
v 4 -0.0517971 1.95063
v 4 -0.0531319 1.95207
l 1545 1546
v 4 -0.0504232 1.94923
v 4 -0.0517971 1.95063
l 1547 1548
v 4 -0.0490114 1.94787
v 4 -0.0504232 1.94923
l 1549 1550
v 4 -0.0475627 1.94654
v 4 -0.0490114 1.94787
l 1551 1552
v 4 -0.0460782 1.94526
v 4 -0.0475627 1.94654
l 1553 1554
v 4 -0.044559 1.94401
v 4 -0.0460782 1.94526
l 1555 1556
v 4 -0.0430062 1.94281
v 4 -0.044559 1.94401
l 1557 1558
v 4 -0.0414211 1.94165
v 4 -0.0430062 1.94281
l 1559 1560
v 4 -0.0398048 1.94054
v 4 -0.0414211 1.94165
l 1561 1562
v 4 -0.0381586 1.93947
v 4 -0.0398048 1.94054
l 1563 1564
v 4 -0.0364836 1.93844
v 4 -0.0381586 1.93947
l 1565 1566
v 4 -0.0347812 1.93747
v 4 -0.0364836 1.93844
l 1567 1568
v 4 -0.0330525 1.93654
v 4 -0.0347812 1.93747
l 1569 1570
v 4 -0.031299 1.93565
v 4 -0.0330525 1.93654
l 1571 1572
v 4 -0.0295219 1.93482
v 4 -0.031299 1.93565
l 1573 1574
v 4 -0.0259025 1.9333
v 4 -0.0277227 1.93403
l 1575 1576
v 4 -0.0277227 1.93403
v 4 -0.0295219 1.93482
l 1577 1578
v 4 -0.0240628 1.93261
v 4 -0.0259025 1.9333
l 1579 1580
v 4 -0.0222051 1.93198
v 4 -0.0240628 1.93261
l 1581 1582
v 4 -0.0203306 1.93139
v 4 -0.0222051 1.93198
l 1583 1584
v 4 -0.0184408 1.93086
v 4 -0.0203306 1.93139
l 1585 1586
v 4 -0.0165371 1.93038
v 4 -0.0184408 1.93086
l 1587 1588
v 4 -0.014621 1.92995
v 4 -0.0165371 1.93038
l 1589 1590
v 4 -0.0126938 1.92958
v 4 -0.014621 1.92995
l 1591 1592
v 4 -0.0107572 1.92926
v 4 -0.0126938 1.92958
l 1593 1594
v 4 -0.00881238 1.92899
v 4 -0.0107572 1.92926
l 1595 1596
v 4 -0.00686096 1.92877
v 4 -0.00881238 1.92899
l 1597 1598
v 4 -0.00490438 1.92861
v 4 -0.00686096 1.92877
l 1599 1600
v 4 -0.0029441 1.92851
v 4 -0.00490438 1.92861
l 1601 1602
v 4 -0.000981614 1.92845
v 4 -0.0029441 1.92851
l 1603 1604
v 4 0.000981614 1.92845
v 4 -0.000981614 1.92845
l 1605 1606
v 4 0.0029441 1.92851
v 4 0.000981614 1.92845
l 1607 1608
v 4 0.00490438 1.92861
v 4 0.0029441 1.92851
l 1609 1610
v 4 0.00686096 1.92877
v 4 0.00490438 1.92861
l 1611 1612
v 4 0.00881238 1.92899
v 4 0.00686096 1.92877
l 1613 1614
v 4 0.0107572 1.92926
v 4 0.00881238 1.92899
l 1615 1616
v 4 0.0126938 1.92958
v 4 0.0107572 1.92926
l 1617 1618
v 4 0.014621 1.92995
v 4 0.0126938 1.92958
l 1619 1620
v 4 0.0165371 1.93038
v 4 0.014621 1.92995
l 1621 1622
v 4 0.0184408 1.93086
v 4 0.0165371 1.93038
l 1623 1624
v 4 0.0203306 1.93139
v 4 0.0184408 1.93086
l 1625 1626
v 4 0.0222051 1.93198
v 4 0.0203306 1.93139
l 1627 1628
v 4 0.0240628 1.93261
v 4 0.0222051 1.93198
l 1629 1630
v 4 0.0259025 1.9333
v 4 0.0240628 1.93261
l 1631 1632
v 4 0.0277227 1.93403
v 4 0.0259025 1.9333
l 1633 1634
v 4 0.0295219 1.93482
v 4 0.0277227 1.93403
l 1635 1636
v 4 0.031299 1.93565
v 4 0.0295219 1.93482
l 1637 1638
v 4 0.0330525 1.93654
v 4 0.031299 1.93565
l 1639 1640
v 4 0.0347812 1.93747
v 4 0.0330525 1.93654
l 1641 1642
v 4 0.0364836 1.93844
v 4 0.0347812 1.93747
l 1643 1644
v 4 0.0381586 1.93947
v 4 0.0364836 1.93844
l 1645 1646
v 4 0.0398048 1.94054
v 4 0.0381586 1.93947
l 1647 1648
v 4 0.0414211 1.94165
v 4 0.0398048 1.94054
l 1649 1650
v 4 0.0430062 1.94281
v 4 0.0414211 1.94165
l 1651 1652
v 4 0.044559 1.94401
v 4 0.0430062 1.94281
l 1653 1654
v 4 0.0460782 1.94526
v 4 0.044559 1.94401
l 1655 1656
v 4 0.0475627 1.94654
v 4 0.0460782 1.94526
l 1657 1658
v 4 0.0490114 1.94787
v 4 0.0475627 1.94654
l 1659 1660
v 4 0.0504232 1.94923
v 4 0.0490114 1.94787
l 1661 1662
v 4 0.0517971 1.95063
v 4 0.0504232 1.94923
l 1663 1664
v 4 0.0531319 1.95207
v 4 0.0517971 1.95063
l 1665 1666
v 4 0.0544268 1.95355
v 4 0.0531319 1.95207
l 1667 1668
v 4 0.0556807 1.95506
v 4 0.0544268 1.95355
l 1669 1670
v 4 0.0568927 1.9566
v 4 0.0556807 1.95506
l 1671 1672
v 4 0.0580618 1.95818
v 4 0.0568927 1.9566
l 1673 1674
v 4 0.0591873 1.95979
v 4 0.0580618 1.95818
l 1675 1676
v 4 0.0602682 1.96143
v 4 0.0591873 1.95979
l 1677 1678
v 4 0.0613037 1.9631
v 4 0.0602682 1.96143
l 1679 1680
v 4 0.0622931 1.96479
v 4 0.0613037 1.9631
l 1681 1682
v 4 0.0632356 1.96651
v 4 0.0622931 1.96479
l 1683 1684
v 4 0.0641305 1.96826
v 4 0.0632356 1.96651
l 1685 1686
v 4 0.0649771 1.97003
v 4 0.0641305 1.96826
l 1687 1688
v 4 0.0657748 1.97183
v 4 0.0649771 1.97003
l 1689 1690
v 4 0.0665229 1.97364
v 4 0.0657748 1.97183
l 1691 1692
v 4 0.0672211 1.97548
v 4 0.0665229 1.97364
l 1693 1694
v 4 0.0678686 1.97733
v 4 0.0672211 1.97548
l 1695 1696
v 4 0.068465 1.9792
v 4 0.0678686 1.97733
l 1697 1698
v 4 0.0690099 1.98109
v 4 0.068465 1.9792
l 1699 1700
v 4 0.0695028 1.98299
v 4 0.0690099 1.98109
l 1701 1702
v 4 0.0699434 1.9849
v 4 0.0695028 1.98299
l 1703 1704
v 4 0.0703313 1.98682
v 4 0.0699434 1.9849
l 1705 1706
v 4 0.0706664 1.98876
v 4 0.0703313 1.98682
l 1707 1708
v 4 0.0709482 1.9907
v 4 0.0706664 1.98876
l 1709 1710
v 4 0.0711766 1.99265
v 4 0.0709482 1.9907
l 1711 1712
v 4 0.0713514 1.99461
v 4 0.0711766 1.99265
l 1713 1714
v 4 0.0714726 1.99657
v 4 0.0713514 1.99461
l 1715 1716
v 4 0.0715399 1.99853
v 4 0.0714726 1.99657
l 1717 1718
v 4 0.0715533 2.00049
v 4 0.0715399 1.99853
l 1719 1720
v 4 0.0715129 2.00245
v 4 0.0715533 2.00049
l 1721 1722
v 4 0.0714187 2.00441
v 4 0.0715129 2.00245
l 1723 1724
v 4 0.0712707 2.00637
v 4 0.0714187 2.00441
l 1725 1726
v 4 0.0710691 2.00833
v 4 0.0712707 2.00637
l 1727 1728
v 4 0.0708139 2.01027
v 4 0.0710691 2.00833
l 1729 1730
v 4 0.0705055 2.01221
v 4 0.0708139 2.01027
l 1731 1732
v 4 0.070144 2.01414
v 4 0.0705055 2.01221
l 1733 1734
v 4 0.0697296 2.01606
v 4 0.070144 2.01414
l 1735 1736
v 4 0.0692628 2.01797
v 4 0.0697296 2.01606
l 1737 1738
v 4 0.0687439 2.01986
v 4 0.0692628 2.01797
l 1739 1740
v 4 0.0681732 2.02174
v 4 0.0687439 2.01986
l 1741 1742
v 4 0.0675512 2.0236
v 4 0.0681732 2.02174
l 1743 1744
v 4 0.0668783 2.02544
v 4 0.0675512 2.0236
l 1745 1746
v 4 0.0661551 2.02727
v 4 0.0668783 2.02544
l 1747 1748
v 4 0.0653821 2.02907
v 4 0.0661551 2.02727
l 1749 1750
v 4 0.0645598 2.03086
v 4 0.0653821 2.02907
l 1751 1752
v 4 0.063689 2.03262
v 4 0.0645598 2.03086
l 1753 1754
v 4 0.0627702 2.03435
v 4 0.063689 2.03262
l 1755 1756
v 4 0.0618042 2.03606
v 4 0.0627702 2.03435
l 1757 1758
v 4 0.0607917 2.03774
v 4 0.0618042 2.03606
l 1759 1760
v 4 0.0597334 2.0394
v 4 0.0607917 2.03774
l 1761 1762
v 4 0.0586301 2.04102
v 4 0.0597334 2.0394
l 1763 1764
v 4 0.0574827 2.04261
v 4 0.0586301 2.04102
l 1765 1766
v 4 0.056292 2.04417
v 4 0.0574827 2.04261
l 1767 1768
v 4 0.0550589 2.0457
v 4 0.056292 2.04417
l 1769 1770
v 4 0.0537844 2.04719
v 4 0.0550589 2.0457
l 1771 1772
v 4 0.0524694 2.04865
v 4 0.0537844 2.04719
l 1773 1774
v 4 0.051115 2.05007
v 4 0.0524694 2.04865
l 1775 1776
v 4 0.0482916 2.0528
v 4 0.049722 2.05146
l 1777 1778
v 4 0.049722 2.05146
v 4 0.051115 2.05007
l 1779 1780
v 4 0.0468248 2.05411
v 4 0.0482916 2.0528
l 1781 1782
v 4 0.0453229 2.05537
v 4 0.0468248 2.05411
l 1783 1784
v 4 0.0437867 2.05659
v 4 0.0453229 2.05537
l 1785 1786
v 4 0.0422177 2.05777
v 4 0.0437867 2.05659
l 1787 1788
v 4 0.0406168 2.05891
v 4 0.0422177 2.05777
l 1789 1790
v 4 0.0389854 2.06
v 4 0.0406168 2.05891
l 1791 1792
v 4 0.0373246 2.06105
v 4 0.0389854 2.06
l 1793 1794
v 4 0.0356357 2.06205
v 4 0.0373246 2.06105
l 1795 1796
v 4 0.03392 2.063
v 4 0.0356357 2.06205
l 1797 1798
v 4 0.0321788 2.06391
v 4 0.03392 2.063
l 1799 1800
v 4 0.0304133 2.06477
v 4 0.0321788 2.06391
l 1801 1802
v 4 0.028625 2.06558
v 4 0.0304133 2.06477
l 1803 1804
v 4 0.0268151 2.06634
v 4 0.028625 2.06558
l 1805 1806
v 4 0.024985 2.06705
v 4 0.0268151 2.06634
l 1807 1808
v 4 0.0231361 2.06771
v 4 0.024985 2.06705
l 1809 1810
v 4 0.0212698 2.06832
v 4 0.0231361 2.06771
l 1811 1812
v 4 0.0193875 2.06888
v 4 0.0212698 2.06832
l 1813 1814
v 4 0.0174906 2.06938
v 4 0.0193875 2.06888
l 1815 1816
v 4 0.0155805 2.06984
v 4 0.0174906 2.06938
l 1817 1818
v 4 0.0136587 2.07024
v 4 0.0155805 2.06984
l 1819 1820
v 4 0.0117266 2.07059
v 4 0.0136587 2.07024
l 1821 1822
v 4 0.00978569 2.07088
v 4 0.0117266 2.07059
l 1823 1824
v 4 0.00783741 2.07112
v 4 0.00978569 2.07088
l 1825 1826
v 4 0.00588322 2.07131
v 4 0.00783741 2.07112
l 1827 1828
v 4 0.00392461 2.07145
v 4 0.00588322 2.07131
l 1829 1830
v 4 0.00196304 2.07153
v 4 0.00392461 2.07145
l 1831 1832
v 2.125 -0.875183 2.00677
v 2.125 -0.875047 2.00342
l 1833 1834
v 2.125 -0.875047 2.00342
v 2.125 -0.875046 2.00338
l 1835 1836
