# Wavefront OBJ file written 2026-06-07T17:15:55
o manifold_edgeMesh

# points : 1413
# lines  : 1411

# <points count="1413">
v 2.08839 0.0883883 1.91161
v 2.08839 -0.0883883 1.91161
v 0 0.120996 0.0313851
v 0 0.121811 0.0280539
v 0 0.120089 0.0346927
v 0 0.114216 0.0507899
v 0 0.115567 0.0476373
v 0 0.11278 0.0539042
v 0 0.111259 0.0569779
v 0 0.109654 0.0600087
v 0 0.107966 0.0629944
v 0 0.106197 0.0659326
v 0 0.104349 0.0688212
v 0 0.102421 0.071658
v 0 -0.0723589 -0.101927
v 0 -0.0751279 -0.0999039
v 0 -0.0695354 -0.103874
v 0 0.0983369 0.0771677
v 0 0.100417 0.0744409
v 0 0.0961829 0.0798365
v 0 0.0892931 0.0874742
v 0 0.0916592 0.0849917
v 0 0.0868597 0.089891
v 0 0.0843609 0.0922401
v 0 0.0939564 0.0824451
v 0 -0.0904847 -0.0862411
v 0 -0.0928166 -0.0837262
v 0 -0.0880847 -0.088691
v 0 -0.0856184 -0.0910741
v 0 0.0791748 0.0967282
v 0 0.0817987 0.0945197
v 0 0.0764914 0.0988639
v 0 -0.097269 -0.0785095
v 0 -0.0993862 -0.0758114
v 0 -0.0950786 -0.0811484
v 0 0.0737503 0.100925
v 0 0.0709538 0.10291
v 0 0.0681038 0.104818
v 0 0.0622523 0.108396
v 0 0.0652026 0.106647
v 0 0.0592552 0.110063
v 0 -0.10882 -0.0615073
v 0 -0.110467 -0.0584988
v 0 -0.107092 -0.0644696
v 0 -0.105283 -0.0673833
v 0 -0.103395 -0.0702462
v 0 -0.101429 -0.0730563
v 0 -0.117429 -0.042842
v 0 -0.11856 -0.0396044
v 0 -0.116209 -0.0460475
v 0 0.0371564 0.11935
v 0 0.0404167 0.118286
v 0 0.0338682 0.120324
v 0 0.0305544 0.121208
v 0 0.0272177 0.122001
v 0 0.0204853 0.12331
v 0 0.0238605 0.122702
v 0 0.0170947 0.123826
v 0 0.0136912 0.124248
v 0 0.0102774 0.124577
v 0 0.00685593 0.124812
v 0 -0.00342926 0.124953
v 0 3.06162e-17 0.125
v 0 -0.00685593 0.124812
v 0 0.00342926 0.124953
v 0 -0.0136912 0.124248
v 0 -0.0102774 0.124577
v 0 -0.0170947 0.123826
v 0 -0.0204853 0.12331
v 0 -0.0238605 0.122702
v 0 -0.122535 0.0247016
v 0 -0.121811 0.0280539
v 0 -0.123167 0.0213306
v 0 -0.0272177 0.122001
v 0 -0.0305544 0.121208
v 0 -0.0371564 0.11935
v 0 -0.0338682 0.120324
v 0 -0.0404167 0.118286
v 0 -0.118006 0.0412271
v 0 -0.11683 0.0444489
v 0 -0.119092 0.0379742
v 0 -0.0436465 0.117132
v 0 -0.0468435 0.115891
v 0 -0.0500052 0.114562
v 0 -0.115567 0.0476373
v 0 -0.114216 0.0507899
v 0 -0.0531293 0.113147
v 0 -0.0562134 0.111647
v 0 -0.0592552 0.110063
v 0 -0.0622523 0.108396
v 0 -0.109654 0.0600087
v 0 -0.107966 0.0629944
v 0 -0.111259 0.0569779
v 0 -0.11278 0.0539042
v 0 -0.0652026 0.106647
v 0 -0.0681038 0.104818
v 0 -0.0709538 0.10291
v 0 -0.0737503 0.100925
v 0 -0.0961829 0.0798365
v 0 -0.0939564 0.0824451
v 0 -0.0983369 0.0771677
v 0 -0.100417 0.0744409
v 0 -0.102421 0.071658
v 0 -0.104349 0.0688212
v 0 -0.106197 0.0659326
v 0 -0.0791748 0.0967282
v 0 -0.0764914 0.0988639
v 0 -0.0817987 0.0945197
v 0 -0.0843609 0.0922401
v 0 -0.0868597 0.089891
v 0 -0.0892931 0.0874742
v 0 -0.0916592 0.0849917
v 0 -0.120089 0.0346927
v 0 -0.120996 0.0313851
v 0 -0.123705 0.0179436
v 0 -0.124151 0.0145432
v 0 -0.124503 0.0111317
v 0 -0.124762 0.00771189
v 0 -0.124926 0.00428627
v 0 -0.124997 0.000857415
v 0 -0.124974 -0.00257208
v 0 -0.124856 -0.00599965
v 0 -0.124644 -0.00942269
v 0 -0.124339 -0.0128386
v 0 -0.12394 -0.0162449
v 0 -0.123448 -0.019639
v 0 -0.122862 -0.0230183
v 0 -0.122185 -0.0263802
v 0 -0.121415 -0.0297223
v 0 -0.120554 -0.033042
v 0 -0.119602 -0.0363369
v 0 -0.114902 -0.0492182
v 0 -0.113509 -0.0523519
v 0 -0.11203 -0.0554462
v 0 -0.0830876 -0.0933887
v 0 -0.0804943 -0.095633
v 0 -0.0778404 -0.0978053
v 0 -0.0666595 -0.105743
v 0 -0.0637335 -0.107532
v 0 -0.0607595 -0.10924
v 0 -0.0577397 -0.110865
v 0 -0.0546765 -0.112408
v 0 -0.0515721 -0.113865
v 0 -0.0484289 -0.115237
v 0 -0.0452493 -0.116523
v 0 -0.0420355 -0.11772
v 0 -0.0387902 -0.118829
v 0 -0.0355156 -0.119848
v 0 -0.0322143 -0.120778
v 0 -0.0288888 -0.121616
v 0 -0.0255415 -0.122363
v 0 -0.022175 -0.123017
v 0 -0.0187918 -0.123579
v 0 -0.0153944 -0.124048
v 0 -0.0119855 -0.124424
v 0 -0.00856749 -0.124706
v 0 -0.00514308 -0.124894
v 0 -0.00171479 -0.124988
v 0 0.00171479 -0.124988
v 0 0.00514308 -0.124894
v 0 0.00856749 -0.124706
v 0 0.0119855 -0.124424
v 0 0.0153944 -0.124048
v 0 0.0187918 -0.123579
v 0 0.022175 -0.123017
v 0 0.0255415 -0.122363
v 0 0.0288888 -0.121616
v 0 0.0322143 -0.120778
v 0 0.0355156 -0.119848
v 0 0.0387902 -0.118829
v 0 0.0420355 -0.11772
v 0 0.0452493 -0.116523
v 0 0.0484289 -0.115237
v 0 0.0515721 -0.113865
v 0 0.0546765 -0.112408
v 0 0.0577397 -0.110865
v 0 0.0607595 -0.10924
v 0 0.0637335 -0.107532
v 0 0.0666595 -0.105743
v 0 0.0695354 -0.103874
v 0 0.0723589 -0.101927
v 0 0.0751279 -0.0999039
v 0 0.0778404 -0.0978053
v 0 0.0804943 -0.095633
v 0 0.0830876 -0.0933887
v 0 0.0856184 -0.0910741
v 0 0.0880847 -0.088691
v 0 0.0904847 -0.0862411
v 0 0.0928166 -0.0837262
v 0 0.0950786 -0.0811484
v 0 0.097269 -0.0785095
v 0 0.0993862 -0.0758114
v 0 0.101429 -0.0730563
v 0 0.103395 -0.0702462
v 0 0.105283 -0.0673833
v 0 0.107092 -0.0644696
v 0 0.10882 -0.0615073
v 0 0.110467 -0.0584988
v 0 0.11203 -0.0554462
v 0 0.113509 -0.0523519
v 0 0.114902 -0.0492182
v 0 0.116209 -0.0460475
v 0 0.117429 -0.042842
v 0 0.11856 -0.0396044
v 0 0.119602 -0.0363369
v 0 0.120554 -0.033042
v 0 0.121415 -0.0297223
v 0 0.122185 -0.0263802
v 0 0.122862 -0.0230183
v 0 0.123448 -0.019639
v 0 0.12394 -0.0162449
v 0 0.124339 -0.0128386
v 0 0.124644 -0.00942269
v 0 0.124856 -0.00599965
v 0 0.124974 -0.00257208
v 0 0.124997 0.000857415
v 0 0.124926 0.00428627
v 0 0.124762 0.00771189
v 0 0.124503 0.0111317
v 0 0.124151 0.0145432
v 0 0.123705 0.0179436
v 0 0.123167 0.0213306
v 0 0.122535 0.0247016
v 0 0.119092 0.0379742
v 0 0.118006 0.0412271
v 0 0.11683 0.0444489
v 0 0.0562134 0.111647
v 0 0.0531293 0.113147
v 0 0.0500052 0.114562
v 0 0.0468435 0.115891
v 0 0.0436465 0.117132
v 4 0.996586 2.12439
v 4 1 2.12444
v 4 0.993175 2.12425
v 4 0.989768 2.12402
v 4 0.98637 2.12369
v 4 0.982982 2.12327
v 4 0.979606 2.12276
v 4 0.976246 2.12215
v 4 0.972904 2.12146
v 4 0.969582 2.12067
v 4 0.966283 2.11979
v 4 0.96301 2.11882
v 4 0.959764 2.11776
v 4 0.956548 2.11661
v 4 0.953366 2.11537
v 4 0.950218 2.11405
v 4 0.947108 2.11264
v 4 0.944038 2.11115
v 4 0.94101 2.10957
v 4 0.938026 2.10791
v 4 0.935089 2.10617
v 4 0.9322 2.10435
v 4 0.929363 2.10245
v 4 0.926579 2.10047
v 4 0.92385 2.09842
v 4 0.921179 2.0963
v 4 0.918567 2.0941
v 4 0.916016 2.09183
v 4 0.913528 2.08949
v 4 0.911106 2.08708
v 4 0.90875 2.08461
v 4 0.906463 2.08208
v 4 0.904247 2.07948
v 4 0.902102 2.07682
v 4 0.900032 2.07411
v 4 0.898036 2.07134
v 4 0.896117 2.06851
v 4 0.894277 2.06564
v 4 0.892516 2.06271
v 4 0.890836 2.05974
v 4 0.889238 2.05672
v 4 0.887724 2.05366
v 4 0.886294 2.05056
v 4 0.884949 2.04742
v 4 0.883692 2.04425
v 4 0.882521 2.04104
v 4 0.88144 2.0378
v 4 0.880447 2.03454
v 4 0.879545 2.03124
v 4 0.878733 2.02793
v 4 0.878012 2.02459
v 4 0.877384 2.02124
v 4 0.876847 2.01786
v 4 0.876403 2.01448
v 4 0.876053 2.01108
v 4 0.875795 2.00768
v 4 0.875632 2.00427
v 4 0.875561 2.00085
v 4 0.875585 1.99744
v 4 0.875702 1.99403
v 4 0.875912 1.99062
v 4 0.876216 1.98722
v 4 0.876614 1.98383
v 4 0.877104 1.98045
v 4 0.877686 1.97708
v 4 0.878361 1.97374
v 4 0.879127 1.97041
v 4 0.879985 1.96711
v 4 0.880932 1.96383
v 4 0.88197 1.96057
v 4 0.883096 1.95735
v 4 0.88431 1.95416
v 4 0.885611 1.951
v 4 0.886998 1.94788
v 4 0.88847 1.9448
v 4 0.890027 1.94176
v 4 0.891666 1.93877
v 4 0.893386 1.93582
v 4 0.895187 1.93292
v 4 0.897067 1.93007
v 4 0.899024 1.92727
v 4 0.901058 1.92453
v 4 0.903165 1.92184
v 4 0.905346 1.91921
v 4 0.907598 1.91665
v 4 0.90992 1.91414
v 4 0.912309 1.91171
v 4 0.914764 1.90933
v 4 0.917284 1.90703
v 4 0.919865 1.90479
v 4 0.922507 1.90263
v 4 0.925208 1.90054
v 4 0.927964 1.89853
v 4 0.930775 1.89659
v 4 0.933638 1.89473
v 4 0.936551 1.89295
v 4 0.939512 1.89125
v 4 0.942518 1.88963
v 4 0.945568 1.88809
v 4 0.948658 1.88664
v 4 0.951787 1.88528
v 4 0.954953 1.884
v 4 0.958152 1.88281
v 4 0.961383 1.8817
v 4 0.964643 1.88069
v 4 0.96793 1.87976
v 4 0.97124 1.87893
v 4 0.974573 1.87818
v 4 0.977924 1.87753
v 4 0.981292 1.87697
v 4 0.984674 1.87651
v 4 0.988068 1.87613
v 4 0.991471 1.87585
v 4 0.99488 1.87566
v 4 0.998293 1.87557
v 4 1.00171 1.87557
v 4 1.00512 1.87566
v 4 1.00853 1.87585
v 4 1.01193 1.87613
v 4 1.01533 1.87651
v 4 1.01871 1.87697
v 4 1.02208 1.87753
v 4 1.02543 1.87818
v 4 1.02876 1.87893
v 4 1.03207 1.87976
v 4 1.03536 1.88069
v 4 1.03862 1.8817
v 4 1.04185 1.88281
v 4 1.04505 1.884
v 4 1.04821 1.88528
v 4 1.05134 1.88664
v 4 1.05443 1.88809
v 4 1.05748 1.88963
v 4 1.06049 1.89125
v 4 1.06345 1.89295
v 4 1.06636 1.89473
v 4 1.06922 1.89659
v 4 1.07204 1.89853
v 4 1.07479 1.90054
v 4 1.07749 1.90263
v 4 1.08013 1.90479
v 4 1.08272 1.90703
v 4 1.08524 1.90933
v 4 1.08769 1.91171
v 4 1.09008 1.91414
v 4 1.0924 1.91665
v 4 1.09465 1.91921
v 4 1.09683 1.92184
v 4 1.09894 1.92453
v 4 1.10098 1.92727
v 4 1.10293 1.93007
v 4 1.10481 1.93292
v 4 1.10661 1.93582
v 4 1.10833 1.93877
v 4 1.10997 1.94176
v 4 1.11153 1.9448
v 4 1.113 1.94788
v 4 1.11439 1.951
v 4 1.11569 1.95416
v 4 1.1169 1.95735
v 4 1.11803 1.96057
v 4 1.11907 1.96383
v 4 1.12002 1.96711
v 4 1.12087 1.97041
v 4 1.12164 1.97374
v 4 1.12231 1.97708
v 4 1.1229 1.98045
v 4 1.12339 1.98383
v 4 1.12378 1.98722
v 4 1.12409 1.99062
v 4 1.1243 1.99403
v 4 1.12442 1.99744
v 4 1.12444 2.00085
v 4 1.12437 2.00427
v 4 1.1242 2.00768
v 4 1.12395 2.01108
v 4 1.1236 2.01448
v 4 1.12315 2.01786
v 4 1.12262 2.02124
v 4 1.12199 2.02459
v 4 1.12127 2.02793
v 4 1.12046 2.03124
v 4 1.11955 2.03454
v 4 1.11856 2.0378
v 4 1.11748 2.04104
v 4 1.11631 2.04425
v 4 1.11505 2.04742
v 4 1.11371 2.05056
v 4 1.11228 2.05366
v 4 1.11076 2.05672
v 4 1.10916 2.05974
v 4 1.10748 2.06271
v 4 1.10572 2.06564
v 4 1.10388 2.06851
v 4 1.10196 2.07134
v 4 1.09997 2.07411
v 4 1.0979 2.07682
v 4 1.09575 2.07948
v 4 1.09354 2.08208
v 4 1.09125 2.08461
v 4 1.08889 2.08708
v 4 1.08647 2.08949
v 4 1.08398 2.09183
v 4 1.08143 2.0941
v 4 1.07882 2.0963
v 4 1.07615 2.09842
v 4 1.07342 2.10047
v 4 1.07064 2.10245
v 4 1.0678 2.10435
v 4 1.06491 2.10617
v 4 1.06197 2.10791
v 4 1.05899 2.10957
v 4 1.05596 2.11115
v 4 1.05289 2.11264
v 4 1.04978 2.11405
v 4 1.04663 2.11537
v 4 1.04345 2.11661
v 4 1.04024 2.11776
v 4 1.03699 2.11882
v 4 1.03372 2.11979
v 4 1.03042 2.12067
v 4 1.0271 2.12146
v 4 1.02375 2.12215
v 4 1.02039 2.12276
v 4 1.01702 2.12327
v 4 1.01363 2.12369
v 4 1.01023 2.12402
v 4 1.00683 2.12425
v 4 1.00341 2.12439
v 4 -1.00341 2.12439
v 4 -1 2.12444
v 4 -1.00683 2.12425
v 4 -1.01023 2.12402
v 4 -1.01363 2.12369
v 4 -1.01702 2.12327
v 4 -1.02039 2.12276
v 4 -1.02375 2.12215
v 4 -1.0271 2.12146
v 4 -1.03042 2.12067
v 4 -1.03372 2.11979
v 4 -1.03699 2.11882
v 4 -1.04024 2.11776
v 4 -1.04345 2.11661
v 4 -1.04663 2.11537
v 4 -1.04978 2.11405
v 4 -1.05289 2.11264
v 4 -1.05596 2.11115
v 4 -1.05899 2.10957
v 4 -1.06197 2.10791
v 4 -1.06491 2.10617
v 4 -1.0678 2.10435
v 4 -1.07064 2.10245
v 4 -1.07342 2.10047
v 4 -1.07615 2.09842
v 4 -1.07882 2.0963
v 4 -1.08143 2.0941
v 4 -1.08398 2.09183
v 4 -1.08647 2.08949
v 4 -1.08889 2.08708
v 4 -1.09125 2.08461
v 4 -1.09354 2.08208
v 4 -1.09575 2.07948
v 4 -1.0979 2.07682
v 4 -1.09997 2.07411
v 4 -1.10196 2.07134
v 4 -1.10388 2.06851
v 4 -1.10572 2.06564
v 4 -1.10748 2.06271
v 4 -1.10916 2.05974
v 4 -1.11076 2.05672
v 4 -1.11228 2.05366
v 4 -1.11371 2.05056
v 4 -1.11505 2.04742
v 4 -1.11631 2.04425
v 4 -1.11748 2.04104
v 4 -1.11856 2.0378
v 4 -1.11955 2.03454
v 4 -1.12046 2.03124
v 4 -1.12127 2.02793
v 4 -1.12199 2.02459
v 4 -1.12262 2.02124
v 4 -1.12315 2.01786
v 4 -1.1236 2.01448
v 4 -1.12395 2.01108
v 4 -1.1242 2.00768
v 4 -1.12437 2.00427
v 4 -1.12444 2.00085
v 4 -1.12442 1.99744
v 4 -1.1243 1.99403
v 4 -1.12409 1.99062
v 4 -1.12378 1.98722
v 4 -1.12339 1.98383
v 4 -1.1229 1.98045
v 4 -1.12231 1.97708
v 4 -1.12164 1.97374
v 4 -1.12087 1.97041
v 4 -1.12002 1.96711
v 4 -1.11907 1.96383
v 4 -1.11803 1.96057
v 4 -1.1169 1.95735
v 4 -1.11569 1.95416
v 4 -1.11439 1.951
v 4 -1.113 1.94788
v 4 -1.11153 1.9448
v 4 -1.10997 1.94176
v 4 -1.10833 1.93877
v 4 -1.10661 1.93582
v 4 -1.10481 1.93292
v 4 -1.10293 1.93007
v 4 -1.10098 1.92727
v 4 -1.09894 1.92453
v 4 -1.09683 1.92184
v 4 -1.09465 1.91921
v 4 -1.0924 1.91665
v 4 -1.09008 1.91414
v 4 -1.08769 1.91171
v 4 -1.08524 1.90933
v 4 -1.08272 1.90703
v 4 -1.08013 1.90479
v 4 -1.07749 1.90263
v 4 -1.07479 1.90054
v 4 -1.07204 1.89853
v 4 -1.06922 1.89659
v 4 -1.06636 1.89473
v 4 -1.06345 1.89295
v 4 -1.06049 1.89125
v 4 -1.05748 1.88963
v 4 -1.05443 1.88809
v 4 -1.05134 1.88664
v 4 -1.04821 1.88528
v 4 -1.04505 1.884
v 4 -1.04185 1.88281
v 4 -1.03862 1.8817
v 4 -1.03536 1.88069
v 4 -1.03207 1.87976
v 4 -1.02876 1.87893
v 4 -1.02543 1.87818
v 4 -1.02208 1.87753
v 4 -1.01871 1.87697
v 4 -1.01533 1.87651
v 4 -1.01193 1.87613
v 4 -1.00853 1.87585
v 4 -1.00512 1.87566
v 4 -1.00171 1.87557
v 4 -0.998293 1.87557
v 4 -0.99488 1.87566
v 4 -0.991471 1.87585
v 4 -0.988068 1.87613
v 4 -0.984674 1.87651
v 4 -0.981292 1.87697
v 4 -0.977924 1.87753
v 4 -0.974573 1.87818
v 4 -0.97124 1.87893
v 4 -0.96793 1.87976
v 4 -0.964643 1.88069
v 4 -0.961383 1.8817
v 4 -0.958152 1.88281
v 4 -0.954953 1.884
v 4 -0.951787 1.88528
v 4 -0.948658 1.88664
v 4 -0.945568 1.88809
v 4 -0.942518 1.88963
v 4 -0.939512 1.89125
v 4 -0.936551 1.89295
v 4 -0.933638 1.89473
v 4 -0.930775 1.89659
v 4 -0.927964 1.89853
v 4 -0.925208 1.90054
v 4 -0.922507 1.90263
v 4 -0.919865 1.90479
v 4 -0.917284 1.90703
v 4 -0.914764 1.90933
v 4 -0.912309 1.91171
v 4 -0.90992 1.91414
v 4 -0.907598 1.91665
v 4 -0.905346 1.91921
v 4 -0.903165 1.92184
v 4 -0.901058 1.92453
v 4 -0.899024 1.92727
v 4 -0.897067 1.93007
v 4 -0.895187 1.93292
v 4 -0.893386 1.93582
v 4 -0.891666 1.93877
v 4 -0.890027 1.94176
v 4 -0.88847 1.9448
v 4 -0.886998 1.94788
v 4 -0.885611 1.951
v 4 -0.88431 1.95416
v 4 -0.883096 1.95735
v 4 -0.88197 1.96057
v 4 -0.880932 1.96383
v 4 -0.879985 1.96711
v 4 -0.879127 1.97041
v 4 -0.878361 1.97374
v 4 -0.877686 1.97708
v 4 -0.877104 1.98045
v 4 -0.876614 1.98383
v 4 -0.876216 1.98722
v 4 -0.875912 1.99062
v 4 -0.875702 1.99403
v 4 -0.875585 1.99744
v 4 -0.875561 2.00085
v 4 -0.875632 2.00427
v 4 -0.875795 2.00768
v 4 -0.876053 2.01108
v 4 -0.876403 2.01448
v 4 -0.876847 2.01786
v 4 -0.877384 2.02124
v 4 -0.878012 2.02459
v 4 -0.878733 2.02793
v 4 -0.879545 2.03124
v 4 -0.880447 2.03454
v 4 -0.88144 2.0378
v 4 -0.882521 2.04104
v 4 -0.883692 2.04425
v 4 -0.884949 2.04742
v 4 -0.886294 2.05056
v 4 -0.887724 2.05366
v 4 -0.889238 2.05672
v 4 -0.890836 2.05974
v 4 -0.892516 2.06271
v 4 -0.894277 2.06564
v 4 -0.896117 2.06851
v 4 -0.898036 2.07134
v 4 -0.900032 2.07411
v 4 -0.902102 2.07682
v 4 -0.904247 2.07948
v 4 -0.906463 2.08208
v 4 -0.90875 2.08461
v 4 -0.911106 2.08708
v 4 -0.913528 2.08949
v 4 -0.916016 2.09183
v 4 -0.918567 2.0941
v 4 -0.921179 2.0963
v 4 -0.92385 2.09842
v 4 -0.926579 2.10047
v 4 -0.929363 2.10245
v 4 -0.9322 2.10435
v 4 -0.935089 2.10617
v 4 -0.938026 2.10791
v 4 -0.94101 2.10957
v 4 -0.944038 2.11115
v 4 -0.947108 2.11264
v 4 -0.950218 2.11405
v 4 -0.953366 2.11537
v 4 -0.956548 2.11661
v 4 -0.959764 2.11776
v 4 -0.96301 2.11882
v 4 -0.966283 2.11979
v 4 -0.969582 2.12067
v 4 -0.972904 2.12146
v 4 -0.976246 2.12215
v 4 -0.979606 2.12276
v 4 -0.982982 2.12327
v 4 -0.98637 2.12369
v 4 -0.989768 2.12402
v 4 -0.993175 2.12425
v 4 -0.996586 2.12439
v 4 -0.00196304 2.07153
v 4 1.75259e-17 2.07156
v 4 0.00196304 2.07153
v 4 -0.00392461 2.07145
v 4 -0.00588322 2.07131
v 4 -0.00783741 2.07112
v 4 -0.00978569 2.07088
v 4 -0.0117266 2.07059
v 4 -0.0136587 2.07024
v 4 -0.0155805 2.06984
v 4 -0.0174906 2.06938
v 4 -0.0193875 2.06888
v 4 -0.0212698 2.06832
v 4 -0.0231361 2.06771
v 4 -0.024985 2.06705
v 4 -0.0268151 2.06634
v 4 -0.028625 2.06558
v 4 -0.0304133 2.06477
v 4 -0.0321788 2.06391
v 4 -0.03392 2.063
v 4 -0.0356357 2.06205
v 4 -0.0373246 2.06105
v 4 -0.0389854 2.06
v 4 -0.0406168 2.05891
v 4 -0.0422177 2.05777
v 4 -0.0437867 2.05659
v 4 -0.0453229 2.05537
v 4 -0.0468248 2.05411
v 4 -0.0482916 2.0528
v 4 -0.049722 2.05146
v 4 -0.051115 2.05007
v 4 -0.0524694 2.04865
v 4 -0.0537844 2.04719
v 4 -0.0550589 2.0457
v 4 -0.056292 2.04417
v 4 -0.0574827 2.04261
v 4 -0.0586301 2.04102
v 4 -0.0597334 2.0394
v 4 -0.0607917 2.03774
v 4 -0.0618042 2.03606
v 4 -0.0627702 2.03435
v 4 -0.063689 2.03262
v 4 -0.0645598 2.03086
v 4 -0.0653821 2.02907
v 4 -0.0661551 2.02727
v 4 -0.0668783 2.02544
v 4 -0.0675512 2.0236
v 4 -0.0681732 2.02174
v 4 -0.0687439 2.01986
v 4 -0.0692628 2.01797
v 4 -0.0697296 2.01606
v 4 -0.070144 2.01414
v 4 -0.0705055 2.01221
v 4 -0.0708139 2.01027
v 4 -0.0710691 2.00833
v 4 -0.0712707 2.00637
v 4 -0.0714187 2.00441
v 4 -0.0715129 2.00245
v 4 -0.0715533 2.00049
v 4 -0.0715399 1.99853
v 4 -0.0714726 1.99657
v 4 -0.0713514 1.99461
v 4 -0.0711766 1.99265
v 4 -0.0709482 1.9907
v 4 -0.0706664 1.98876
v 4 -0.0703313 1.98682
v 4 -0.0699434 1.9849
v 4 -0.0695028 1.98299
v 4 -0.0690099 1.98109
v 4 -0.068465 1.9792
v 4 -0.0678686 1.97733
v 4 -0.0672211 1.97548
v 4 -0.0665229 1.97364
v 4 -0.0657748 1.97183
v 4 -0.0649771 1.97003
v 4 -0.0641305 1.96826
v 4 -0.0632356 1.96651
v 4 -0.0622931 1.96479
v 4 -0.0613037 1.9631
v 4 -0.0602682 1.96143
v 4 -0.0591873 1.95979
v 4 -0.0580618 1.95818
v 4 -0.0568927 1.9566
v 4 -0.0556807 1.95506
v 4 -0.0544268 1.95355
v 4 -0.0531319 1.95207
v 4 -0.0517971 1.95063
v 4 -0.0504232 1.94923
v 4 -0.0490114 1.94787
v 4 -0.0475627 1.94654
v 4 -0.0460782 1.94526
v 4 -0.044559 1.94401
v 4 -0.0430062 1.94281
v 4 -0.0414211 1.94165
v 4 -0.0398048 1.94054
v 4 -0.0381586 1.93947
v 4 -0.0364836 1.93844
v 4 -0.0347812 1.93747
v 4 -0.0330525 1.93654
v 4 -0.031299 1.93565
v 4 -0.0295219 1.93482
v 4 -0.0259025 1.9333
v 4 -0.0277227 1.93403
v 4 -0.0240628 1.93261
v 4 -0.0222051 1.93198
v 4 -0.0203306 1.93139
v 4 -0.0184408 1.93086
v 4 -0.0165371 1.93038
v 4 -0.014621 1.92995
v 4 -0.0126938 1.92958
v 4 -0.0107572 1.92926
v 4 -0.00881238 1.92899
v 4 -0.00686096 1.92877
v 4 -0.00490438 1.92861
v 4 -0.0029441 1.92851
v 4 -0.000981614 1.92845
v 4 0.000981614 1.92845
v 4 0.0029441 1.92851
v 4 0.00490438 1.92861
v 4 0.00686096 1.92877
v 4 0.00881238 1.92899
v 4 0.0107572 1.92926
v 4 0.0126938 1.92958
v 4 0.014621 1.92995
v 4 0.0165371 1.93038
v 4 0.0184408 1.93086
v 4 0.0203306 1.93139
v 4 0.0222051 1.93198
v 4 0.0240628 1.93261
v 4 0.0259025 1.9333
v 4 0.0277227 1.93403
v 4 0.0295219 1.93482
v 4 0.031299 1.93565
v 4 0.0330525 1.93654
v 4 0.0347812 1.93747
v 4 0.0364836 1.93844
v 4 0.0381586 1.93947
v 4 0.0398048 1.94054
v 4 0.0414211 1.94165
v 4 0.0430062 1.94281
v 4 0.044559 1.94401
v 4 0.0460782 1.94526
v 4 0.0475627 1.94654
v 4 0.0490114 1.94787
v 4 0.0504232 1.94923
v 4 0.0517971 1.95063
v 4 0.0531319 1.95207
v 4 0.0544268 1.95355
v 4 0.0556807 1.95506
v 4 0.0568927 1.9566
v 4 0.0580618 1.95818
v 4 0.0591873 1.95979
v 4 0.0602682 1.96143
v 4 0.0613037 1.9631
v 4 0.0622931 1.96479
v 4 0.0632356 1.96651
v 4 0.0641305 1.96826
v 4 0.0649771 1.97003
v 4 0.0657748 1.97183
v 4 0.0665229 1.97364
v 4 0.0672211 1.97548
v 4 0.0678686 1.97733
v 4 0.068465 1.9792
v 4 0.0690099 1.98109
v 4 0.0695028 1.98299
v 4 0.0699434 1.9849
v 4 0.0703313 1.98682
v 4 0.0706664 1.98876
v 4 0.0709482 1.9907
v 4 0.0711766 1.99265
v 4 0.0713514 1.99461
v 4 0.0714726 1.99657
v 4 0.0715399 1.99853
v 4 0.0715533 2.00049
v 4 0.0715129 2.00245
v 4 0.0714187 2.00441
v 4 0.0712707 2.00637
v 4 0.0710691 2.00833
v 4 0.0708139 2.01027
v 4 0.0705055 2.01221
v 4 0.070144 2.01414
v 4 0.0697296 2.01606
v 4 0.0692628 2.01797
v 4 0.0687439 2.01986
v 4 0.0681732 2.02174
v 4 0.0675512 2.0236
v 4 0.0668783 2.02544
v 4 0.0661551 2.02727
v 4 0.0653821 2.02907
v 4 0.0645598 2.03086
v 4 0.063689 2.03262
v 4 0.0627702 2.03435
v 4 0.0618042 2.03606
v 4 0.0607917 2.03774
v 4 0.0597334 2.0394
v 4 0.0586301 2.04102
v 4 0.0574827 2.04261
v 4 0.056292 2.04417
v 4 0.0550589 2.0457
v 4 0.0537844 2.04719
v 4 0.0524694 2.04865
v 4 0.051115 2.05007
v 4 0.0482916 2.0528
v 4 0.049722 2.05146
v 4 0.0468248 2.05411
v 4 0.0453229 2.05537
v 4 0.0437867 2.05659
v 4 0.0422177 2.05777
v 4 0.0406168 2.05891
v 4 0.0389854 2.06
v 4 0.0373246 2.06105
v 4 0.0356357 2.06205
v 4 0.03392 2.063
v 4 0.0321788 2.06391
v 4 0.0304133 2.06477
v 4 0.028625 2.06558
v 4 0.0268151 2.06634
v 4 0.024985 2.06705
v 4 0.0231361 2.06771
v 4 0.0212698 2.06832
v 4 0.0193875 2.06888
v 4 0.0174906 2.06938
v 4 0.0155805 2.06984
v 4 0.0136587 2.07024
v 4 0.0117266 2.07059
v 4 0.00978569 2.07088
v 4 0.00783741 2.07112
v 4 0.00588322 2.07131
v 4 0.00392461 2.07145
v 2.125 -0.875183 2.00677
v 2.125 -0.875047 2.00342
v 2.125 -0.875046 2.00338
v 2.12498 0.124983 2.00205
v 2.125 0.125 2
v 2.125 -0.125 2
v 2.12498 -0.12498 2.00223
v 2.12493 0.124932 2.00411
v 2.12485 0.124848 2.00617
v 2.12492 -0.12492 2.00446
v 2.12473 0.124729 2.00823
v 2.12458 0.124576 2.01029
v 2.12482 -0.124821 2.00669
v 2.12468 -0.124682 2.00891
v 2.12439 0.124389 2.01234
v 2.1245 -0.124503 2.01113
v 2.12417 0.124169 2.01439
v 2.12391 0.123914 2.01644
v 2.12428 -0.124285 2.01335
v 2.12403 -0.124027 2.01557
v 2.12363 0.123626 2.01848
v 2.1233 0.123304 2.02052
v 2.12373 -0.123729 2.01778
v 2.12295 0.122949 2.02255
v 2.12339 -0.123393 2.01998
v 2.12302 -0.123017 2.02218
v 2.12256 0.12256 2.02458
v 2.12209 0.122088 2.02682
v 2.1226 -0.122601 2.02437
v 2.12215 -0.122147 2.02655
v 2.12152 0.121517 2.0293
v 2.12165 -0.121654 2.02873
v 2.12089 0.120894 2.03177
v 2.12022 0.120222 2.03423
v 2.12112 -0.121122 2.03089
v 2.12055 -0.120552 2.03305
v 2.1195 0.119499 2.03667
v 2.11994 -0.119943 2.03519
v 2.11873 0.118727 2.0391
v 2.1193 -0.119296 2.03733
v 2.11861 -0.118612 2.03945
v 2.11791 0.117906 2.04151
v 2.11704 0.117036 2.0439
v 2.11789 -0.117889 2.04156
v 2.11612 0.116117 2.04628
v 2.11713 -0.117129 2.04366
v 2.11633 -0.116332 2.04574
v 2.11515 0.11515 2.04864
v 2.1155 -0.115497 2.04781
v 2.11414 0.114135 2.05097
v 2.11307 0.113073 2.05329
v 2.11463 -0.114626 2.04986
v 2.11372 -0.113719 2.05189
v 2.11196 0.111964 2.05558
v 2.11278 -0.112775 2.05391
v 2.11081 0.110808 2.05785
v 2.1118 -0.111795 2.05592
v 2.11078 -0.11078 2.0579
v 2.10961 0.109606 2.0601
v 2.10836 0.108359 2.06232
v 2.10973 -0.10973 2.05987
v 2.10707 0.107067 2.06451
v 2.10864 -0.108644 2.06182
v 2.10752 -0.107524 2.06375
v 2.10558 0.105579 2.06692
v 2.10637 -0.10637 2.06565
v 2.10386 0.103863 2.06955
v 2.10518 -0.105182 2.06754
v 2.10396 -0.103961 2.06941
v 2.10208 0.10208 2.07214
v 2.10271 -0.102706 2.07125
v 2.10142 -0.101419 2.07307
v 2.10023 0.100233 2.07469
v 2.1001 -0.1001 2.07487
v 2.09832 0.0983229 2.07719
v 2.09875 -0.0987483 2.07664
v 2.09737 -0.0973655 2.07839
v 2.09595 -0.0959518 2.08011
v 2.09432 0.0943168 2.08203
v 2.09635 0.0963503 2.07963
v 2.09451 -0.0945075 2.08181
v 2.09303 -0.0930331 2.08349
v 2.09007 0.090072 2.08667
v 2.09222 0.0922236 2.08438
v 2.09153 -0.0915292 2.08513
v 2.08786 0.0878635 2.08891
v 2.09 -0.0899961 2.08675
v 2.08843 -0.0884344 2.08834
v 2.08684 -0.0868446 2.08991
v 2.08328 0.083281 2.09322
v 2.0856 0.0855993 2.09109
v 2.08523 -0.0852271 2.09144
v 2.08358 -0.0835825 2.09295
v 2.08191 -0.0819113 2.09442
v 2.08021 -0.0802141 2.09587
v 2.07849 -0.0784913 2.09728
v 2.07674 -0.0767435 2.09867
v 2.07497 -0.0749714 2.10002
v 2.07318 -0.0731753 2.10134
v 2.07136 -0.071356 2.10263
v 2.0689 -0.0688951 2.1043
v 2.05736 -0.0573591 2.11106
v 2.05437 -0.0543672 2.11256
v 2.05134 -0.0513363 2.11397
v 2.04827 -0.0482688 2.1153
v 1.88603 0.0513363 1.94866
v 1.8847 0.0482688 1.95173
v 1.88744 0.0543672 1.94563
v 1.89389 0.06608 1.93392
v 1.89216 0.0632176 1.93678
v 1.8957 0.0688951 1.9311
v 1.89737 0.071356 1.92864
v 1.89866 0.0731753 1.92682
v 1.89998 0.0749714 1.92503
v 1.90133 0.0767435 1.92326
v 1.90272 0.0784913 1.92151
v 1.90413 0.0802141 1.91979
v 1.90558 0.0819113 1.91809
v 1.90705 0.0835825 1.91642
v 1.90856 0.0852271 1.91477
v 1.91009 0.0868446 1.91316
v 1.9064 -0.0828479 1.91715
v 1.90863 -0.0852996 1.9147
v 1.91166 0.0884344 1.91157
v 1.91325 0.0899961 1.91
v 1.91487 0.0915292 1.90847
v 1.91092 -0.0876914 1.91231
v 1.91328 -0.0900216 1.90998
v 1.91569 -0.0922885 1.90771
v 1.91651 0.0930331 1.90697
v 1.91819 0.0945075 1.90549
v 1.91817 -0.0944906 1.90551
v 1.91989 0.0959518 1.90405
v 1.9207 -0.0966263 1.90337
v 1.92161 0.0973655 1.90263
v 1.92336 0.0987483 1.90125
v 1.92329 -0.0986941 1.90131
v 1.92513 0.1001 1.8999
v 1.92593 -0.100693 1.89931
v 1.92693 0.101419 1.89858
v 1.92875 0.102706 1.89729
v 1.92836 -0.102431 1.89757
v 1.93059 0.103961 1.89604
v 1.93057 -0.103945 1.89605
v 1.93246 0.105182 1.89482
v 1.93435 0.10637 1.89363
v 1.93282 -0.105412 1.89459
v 1.93625 0.107524 1.89248
v 1.93818 0.108644 1.89136
v 1.9351 -0.10683 1.89317
v 1.93741 -0.108199 1.8918
v 1.94013 0.10973 1.89027
v 1.93974 -0.109518 1.89048
v 1.9421 0.11078 1.88922
v 1.94408 0.111795 1.8882
v 1.94211 -0.110786 1.88921
v 1.94609 0.112775 1.88723
v 1.9445 -0.112003 1.888
v 1.94811 0.113719 1.88628
v 1.95014 0.114626 1.88537
v 1.94692 -0.113169 1.88683
v 1.94936 -0.114283 1.88572
v 1.95219 0.115497 1.8845
v 1.95182 -0.115344 1.88466
v 1.95426 0.116332 1.88367
v 1.95634 0.117129 1.88287
v 1.95431 -0.116351 1.88365
v 1.95844 0.117889 1.88211
v 1.95682 -0.117305 1.88269
v 1.96055 0.118612 1.88139
v 1.96267 0.119296 1.8807
v 1.95935 -0.118205 1.88179
v 1.96164 -0.118969 1.88103
v 1.96481 0.119943 1.88006
v 1.96372 -0.119618 1.88038
v 1.96695 0.120552 1.87945
v 1.96911 0.121122 1.87888
v 1.9658 -0.120231 1.87977
v 1.9679 -0.120807 1.87919
v 1.97127 0.121654 1.87835
v 1.97 -0.121347 1.87865
v 1.97212 -0.121851 1.87815
v 1.97345 0.122147 1.87785
v 1.97563 0.122601 1.8774
v 1.97424 -0.122317 1.87768
v 1.97782 0.123017 1.87698
v 1.98002 0.123393 1.87661
v 1.97637 -0.122747 1.87725
v 1.97851 -0.123139 1.87686
v 1.98222 0.123729 1.87627
v 1.98065 -0.123494 1.87651
v 1.98443 0.124027 1.87597
v 1.98665 0.124285 1.87572
v 1.98281 -0.123812 1.87619
v 1.98496 -0.124092 1.87591
v 1.98887 0.124503 1.8755
v 1.98712 -0.124335 1.87567
v 1.99109 0.124682 1.87532
v 1.99331 0.124821 1.87518
v 1.98929 -0.12454 1.87546
v 1.99145 -0.124707 1.87529
v 1.99554 0.12492 1.87508
v 1.99362 -0.124837 1.87516
v 1.9958 -0.124929 1.87507
v 1.99777 0.12498 1.87502
v 2 0.125 1.875
v 1.9979 -0.124982 1.87502
v 2.00193 0.124985 1.87501
v 2.00385 0.124941 1.87506
v 2 -0.125 1.875
v 2.00205 -0.124983 1.87502
v 2.00603 0.124855 1.87515
v 2.00409 -0.124933 1.87507
v 2.0082 0.124731 1.87527
v 2.01036 0.12457 1.87543
v 2.00613 -0.124849 1.87515
v 2.00818 -0.124732 1.87527
v 2.01253 0.124371 1.87563
v 2.01022 -0.124582 1.87542
v 2.01225 -0.124398 1.8756
v 2.01469 0.124134 1.87587
v 2.01685 0.12386 1.87614
v 2.01429 -0.124181 1.87582
v 2.019 0.123548 1.87645
v 2.01632 -0.123931 1.87607
v 2.01834 -0.123647 1.87635
v 2.02114 0.123199 1.8768
v 2.02328 0.122813 1.87719
v 2.02036 -0.12333 1.87667
v 2.02238 -0.122981 1.87702
v 2.02541 0.122389 1.87761
v 2.02439 -0.122598 1.8774
v 2.02754 0.121929 1.87807
v 2.02966 0.121431 1.87857
v 2.02639 -0.122183 1.87782
v 2.02838 -0.121735 1.87827
v 2.03176 0.120897 1.8791
v 2.03386 0.120327 1.87967
v 2.03037 -0.121254 1.87875
v 2.03235 -0.120741 1.87926
v 2.03595 0.11972 1.88028
v 2.03432 -0.120195 1.8798
v 2.03802 0.119076 1.88092
v 2.04032 0.118319 1.88168
v 2.03629 -0.119618 1.88038
v 2.03824 -0.119008 1.88099
v 2.04285 0.117427 1.88257
v 2.04018 -0.118366 1.88163
v 2.04211 -0.117693 1.88231
v 2.04536 0.11648 1.88352
v 2.04403 -0.116988 1.88301
v 2.04785 0.115479 1.88452
v 2.04594 -0.116252 1.88375
v 2.04784 -0.115485 1.88452
v 2.05032 0.114425 1.88558
v 2.05276 0.113318 1.88668
v 2.04972 -0.114687 1.88531
v 2.05159 -0.113858 1.88614
v 2.05518 0.112159 1.88784
v 2.05344 -0.112999 1.887
v 2.05758 0.110949 1.88905
v 2.05529 -0.112109 1.88789
v 2.05711 -0.11119 1.88881
v 2.05995 0.109687 1.89031
v 2.05892 -0.11024 1.88976
v 2.06072 -0.109261 1.89074
v 2.06229 0.108375 1.89163
v 2.0646 0.107012 1.89299
v 2.0625 -0.108253 1.89175
v 2.06688 0.105601 1.8944
v 2.06426 -0.107216 1.89278
v 2.06601 -0.10615 1.89385
v 2.06914 0.104141 1.89586
v 2.06774 -0.105056 1.89494
v 2.06945 -0.103934 1.89607
v 2.07136 0.102632 1.89737
v 2.07114 -0.102784 1.89722
v 2.07354 0.101077 1.89892
v 2.07593 0.0992935 1.90071
v 2.07281 -0.101606 1.89839
v 2.07446 -0.100401 1.8996
v 2.0761 -0.0991692 1.90083
v 2.07771 -0.0979108 1.90209
v 2.0793 -0.0966263 1.90337
v 2.08087 -0.0953159 1.90468
v 2.08242 -0.09398 1.90602
v 2.08601 0.0906999 1.9093
v 2.08358 0.0929478 1.90705
v 2.08394 -0.0926189 1.90738
v 2.08545 -0.091233 1.90877
v 2.08693 -0.0898227 1.91018
v 2.08982 0.0898227 1.91307
v 2.0907 -0.0906999 1.91399
v 2.09123 0.091233 1.91455
v 2.09262 0.0926189 1.91606
v 2.09295 -0.0929478 1.91642
v 2.09398 0.09398 1.91758
v 2.09532 0.0953159 1.91913
v 2.09663 0.0966263 1.9207
v 2.09513 -0.0951304 1.91891
v 2.09725 -0.0972461 1.92146
v 2.09791 0.0979108 1.92229
v 2.09917 0.0991692 1.9239
v 2.09929 -0.0992935 1.92407
v 2.1004 0.100401 1.92554
v 2.10161 0.101606 1.92719
v 2.10108 -0.101077 1.92646
v 2.10278 0.102784 1.92886
v 2.10263 -0.102632 1.92864
v 2.10393 0.103934 1.93055
v 2.10506 0.105056 1.93226
v 2.10414 -0.104141 1.93086
v 2.10615 0.10615 1.93399
v 2.10722 0.107216 1.93574
v 2.1056 -0.105601 1.93312
v 2.10825 0.108253 1.9375
v 2.10701 -0.107012 1.9354
v 2.10837 -0.108375 1.93771
v 2.10926 0.109261 1.93928
v 2.11024 0.11024 1.94108
v 2.10969 -0.109687 1.94005
v 2.11119 0.11119 1.94289
v 2.11211 0.112109 1.94471
v 2.11095 -0.110949 1.94242
v 2.113 0.112999 1.94656
v 2.11216 -0.112159 1.94482
v 2.11386 0.113858 1.94841
v 2.11469 0.114687 1.95028
v 2.11332 -0.113318 1.94724
v 2.11442 -0.114425 1.94968
v 2.11548 0.115485 1.95216
v 2.11625 0.116252 1.95406
v 2.11548 -0.115479 1.95215
v 2.11699 0.116988 1.95597
v 2.11648 -0.11648 1.95464
v 2.11769 0.117693 1.95789
v 2.11837 0.118366 1.95982
v 2.11743 -0.117427 1.95715
v 2.11832 -0.118319 1.95968
v 2.11901 0.119008 1.96176
v 2.11962 0.119618 1.96371
v 2.11908 -0.119076 1.96198
v 2.1202 0.120195 1.96568
v 2.11972 -0.11972 1.96405
v 2.12074 0.120741 1.96765
v 2.12125 0.121254 1.96963
v 2.12033 -0.120327 1.96614
v 2.1209 -0.120897 1.96824
v 2.12173 0.121735 1.97162
v 2.12218 0.122183 1.97361
v 2.12143 -0.121431 1.97034
v 2.12193 -0.121929 1.97246
v 2.1226 0.122598 1.97561
v 2.12239 -0.122389 1.97459
v 2.12298 0.122981 1.97762
v 2.12333 0.12333 1.97964
v 2.12281 -0.122813 1.97672
v 2.1232 -0.123199 1.97886
v 2.12365 0.123647 1.98166
v 2.12355 -0.123548 1.981
v 2.12393 0.123931 1.98368
v 2.12418 0.124181 1.98571
v 2.12386 -0.12386 1.98315
v 2.12413 -0.124134 1.98531
v 2.1244 0.124398 1.98775
v 2.12458 0.124582 1.98978
v 2.12437 -0.124371 1.98747
v 2.12473 0.124732 1.99182
v 2.12457 -0.12457 1.98964
v 2.12473 -0.124731 1.9918
v 2.12485 0.124849 1.99387
v 2.12493 0.124933 1.99591
v 2.12485 -0.124855 1.99397
v 2.12498 0.124983 1.99795
v 2.12494 -0.124941 1.99615
v 2.12499 -0.124985 1.99807
v 2.04399 0.0439868 2.117
v 2.0476 0.0475987 2.11558
v 2.05116 0.0511648 2.11405
v 2.05468 0.0546815 2.11241
v 2.05815 0.0581455 2.11065
v 2.06155 0.0615534 2.10879
v 2.0649 0.0649019 2.10683
v 2.06819 0.0681879 2.10476
v 2.07141 0.0714081 2.1026
v 2.07456 0.0745594 2.10033
v 2.07764 0.0776388 2.09797
v 2.08064 0.0806433 2.09551
v 2.08109 0.0951304 1.90487
v 2.07854 0.0972461 1.90275
v 1.89051 0.0603099 1.93969
v 1.88894 0.0573591 1.94264
v 1.88345 0.0451666 1.95483
v 1.88301 -0.0440313 1.95597
v 1.88452 -0.0478354 1.95216
v 1.88614 -0.0515884 1.94841
v 1.88789 -0.0552861 1.94471
v 1.88976 -0.0589246 1.94108
v 1.89175 -0.0625 1.9375
v 1.89385 -0.0660085 1.93399
v 1.89607 -0.0694463 1.93055
v 1.89816 -0.0724768 1.92752
v 1.90011 -0.0751506 1.92485
v 1.90214 -0.0777716 1.92223
v 1.90424 -0.080338 1.91966
v 2.06608 -0.06608 2.10611
v 2.06322 -0.0632176 2.10784
v 2.06031 -0.0603099 2.10949
v 2.04517 -0.0451666 2.11655
v 2.12498 0.00204522 1.87502
v 2.125 -3.06162e-17 1.875
v 2.12493 0.00408989 1.87507
v 2.12485 0.00613346 1.87515
v 2.12473 0.00817539 1.87527
v 2.12458 0.0102151 1.87542
v 2.1244 0.0122521 1.8756
v 2.12418 0.0142859 1.87582
v 2.12393 0.0163158 1.87607
v 2.12365 0.0183413 1.87635
v 2.12333 0.0203619 1.87667
v 2.12298 0.0223771 1.87702
v 2.1226 0.0243863 1.8774
v 2.12218 0.0263889 1.87782
v 2.12173 0.0283845 1.87827
v 2.12125 0.0303725 1.87875
v 2.12074 0.0323524 1.87926
v 2.1202 0.0343236 1.8798
v 2.11962 0.0362856 1.88038
v 2.11901 0.0382379 1.88099
v 2.11837 0.0401799 1.88163
v 2.11769 0.0421112 1.88231
v 2.11699 0.0440313 1.88301
v 2.11625 0.0459395 1.88375
v 2.11548 0.0478354 1.88452
v 2.11469 0.0497186 1.88531
v 2.11386 0.0515884 1.88614
v 2.113 0.0534444 1.887
v 2.11211 0.0552861 1.88789
v 2.11119 0.057113 1.88881
v 2.11024 0.0589246 1.88976
v 2.10926 0.0607204 1.89074
v 2.10825 0.0625 1.89175
v 2.10722 0.0642628 1.89278
v 2.10615 0.0660085 1.89385
v 2.10506 0.0677364 1.89494
v 2.10393 0.0694463 1.89607
v 2.10278 0.0711375 1.89722
v 2.10161 0.0728097 1.89839
v 2.1004 0.0744624 1.8996
v 2.09917 0.0760952 1.90083
v 2.09791 0.0777076 1.90209
v 2.09663 0.0792992 1.90337
v 2.09532 0.0808695 1.90468
v 2.09398 0.0824182 1.90602
v 2.09262 0.0839449 1.90738
v 2.09123 0.085449 1.90877
v 2.08982 0.0869303 1.91018
v 2.0907 -0.0860146 1.9093
v 2.09295 -0.0835805 1.90705
v 2.09513 -0.0810876 1.90487
v 2.09725 -0.0785378 1.90275
v 2.09929 -0.0759328 1.90071
v 2.10108 -0.0735426 1.89892
v 2.10263 -0.0713557 1.89737
v 2.10414 -0.0691358 1.89586
v 2.1056 -0.066884 1.8944
v 2.10701 -0.0646015 1.89299
v 2.10837 -0.0622891 1.89163
v 2.10969 -0.059948 1.89031
v 2.11095 -0.0575793 1.88905
v 2.11216 -0.0551841 1.88784
v 2.11332 -0.0527634 1.88668
v 2.11442 -0.0503184 1.88558
v 2.11548 -0.0478502 1.88452
v 2.11648 -0.0453599 1.88352
v 2.11743 -0.0428487 1.88257
v 2.11832 -0.0403178 1.88168
v 2.11908 -0.038024 1.88092
v 2.11972 -0.0359475 1.88028
v 2.12033 -0.0338601 1.87967
v 2.1209 -0.0317624 1.8791
v 2.12143 -0.0296552 1.87857
v 2.12193 -0.0275389 1.87807
v 2.12239 -0.0254144 1.87761
v 2.12281 -0.0232821 1.87719
v 2.1232 -0.0211428 1.8768
v 2.12355 -0.0189971 1.87645
v 2.12386 -0.0168457 1.87614
v 2.12413 -0.0146892 1.87587
v 2.12437 -0.0125282 1.87563
v 2.12457 -0.0103634 1.87543
v 2.12473 -0.00819554 1.87527
v 2.12485 -0.00602517 1.87515
v 2.12494 -0.00385297 1.87506
v 2.12499 -0.00192671 1.87501
# </points>

# <edges count="1411">
l 3 4
l 5 3
l 6 7
l 8 6
l 9 8
l 10 9
l 11 10
l 12 11
l 13 12
l 14 13
l 15 16
l 17 15
l 18 19
l 20 18
l 21 22
l 23 21
l 24 23
l 22 25
l 26 27
l 28 26
l 29 28
l 30 31
l 32 30
l 33 34
l 35 33
l 36 32
l 37 36
l 31 24
l 38 37
l 39 40
l 41 39
l 42 43
l 44 42
l 45 44
l 46 45
l 47 46
l 48 49
l 50 48
l 51 52
l 53 51
l 54 53
l 55 54
l 56 57
l 58 56
l 59 58
l 60 59
l 61 60
l 62 63
l 64 62
l 63 65
l 66 67
l 68 66
l 69 68
l 70 69
l 71 72
l 73 71
l 74 70
l 75 74
l 76 77
l 78 76
l 79 80
l 81 79
l 82 78
l 83 82
l 84 83
l 85 86
l 80 85
l 87 84
l 88 87
l 89 88
l 90 89
l 91 92
l 93 91
l 94 93
l 95 90
l 96 95
l 97 96
l 98 97
l 99 100
l 101 99
l 102 101
l 103 102
l 104 103
l 105 104
l 92 105
l 106 107
l 108 106
l 109 108
l 67 64
l 77 75
l 107 98
l 110 109
l 111 110
l 112 111
l 100 112
l 86 94
l 113 81
l 114 113
l 72 114
l 115 73
l 116 115
l 117 116
l 118 117
l 119 118
l 120 119
l 121 120
l 122 121
l 123 122
l 124 123
l 125 124
l 126 125
l 127 126
l 128 127
l 129 128
l 130 129
l 131 130
l 49 131
l 132 50
l 133 132
l 134 133
l 43 134
l 34 47
l 27 35
l 135 29
l 136 135
l 137 136
l 16 137
l 138 17
l 139 138
l 140 139
l 141 140
l 142 141
l 143 142
l 144 143
l 145 144
l 146 145
l 147 146
l 148 147
l 149 148
l 150 149
l 151 150
l 152 151
l 153 152
l 154 153
l 155 154
l 156 155
l 157 156
l 158 157
l 159 158
l 160 159
l 161 160
l 162 161
l 163 162
l 164 163
l 165 164
l 166 165
l 167 166
l 168 167
l 169 168
l 170 169
l 171 170
l 172 171
l 173 172
l 174 173
l 175 174
l 176 175
l 177 176
l 178 177
l 179 178
l 180 179
l 181 180
l 182 181
l 183 182
l 184 183
l 185 184
l 186 185
l 187 186
l 188 187
l 189 188
l 190 189
l 191 190
l 192 191
l 193 192
l 194 193
l 195 194
l 196 195
l 197 196
l 198 197
l 199 198
l 200 199
l 201 200
l 202 201
l 203 202
l 204 203
l 205 204
l 206 205
l 207 206
l 208 207
l 209 208
l 210 209
l 211 210
l 212 211
l 213 212
l 214 213
l 215 214
l 216 215
l 217 216
l 218 217
l 219 218
l 220 219
l 221 220
l 222 221
l 223 222
l 4 223
l 224 5
l 225 224
l 226 225
l 7 226
l 19 14
l 25 20
l 40 38
l 227 41
l 228 227
l 229 228
l 230 229
l 231 230
l 52 231
l 57 55
l 65 61
l 232 233
l 234 232
l 235 234
l 236 235
l 237 236
l 238 237
l 239 238
l 240 239
l 241 240
l 242 241
l 243 242
l 244 243
l 245 244
l 246 245
l 247 246
l 248 247
l 249 248
l 250 249
l 251 250
l 252 251
l 253 252
l 254 253
l 255 254
l 256 255
l 257 256
l 258 257
l 259 258
l 260 259
l 261 260
l 262 261
l 263 262
l 264 263
l 265 264
l 266 265
l 267 266
l 268 267
l 269 268
l 270 269
l 271 270
l 272 271
l 273 272
l 274 273
l 275 274
l 276 275
l 277 276
l 278 277
l 279 278
l 280 279
l 281 280
l 282 281
l 283 282
l 284 283
l 285 284
l 286 285
l 287 286
l 288 287
l 289 288
l 290 289
l 291 290
l 292 291
l 293 292
l 294 293
l 295 294
l 296 295
l 297 296
l 298 297
l 299 298
l 300 299
l 301 300
l 302 301
l 303 302
l 304 303
l 305 304
l 306 305
l 307 306
l 308 307
l 309 308
l 310 309
l 311 310
l 312 311
l 313 312
l 314 313
l 315 314
l 316 315
l 317 316
l 318 317
l 319 318
l 320 319
l 321 320
l 322 321
l 323 322
l 324 323
l 325 324
l 326 325
l 327 326
l 328 327
l 329 328
l 330 329
l 331 330
l 332 331
l 333 332
l 334 333
l 335 334
l 336 335
l 337 336
l 338 337
l 339 338
l 340 339
l 341 340
l 342 341
l 343 342
l 344 343
l 345 344
l 346 345
l 347 346
l 348 347
l 349 348
l 350 349
l 351 350
l 352 351
l 353 352
l 354 353
l 355 354
l 356 355
l 357 356
l 358 357
l 359 358
l 360 359
l 361 360
l 362 361
l 363 362
l 364 363
l 365 364
l 366 365
l 367 366
l 368 367
l 369 368
l 370 369
l 371 370
l 372 371
l 373 372
l 374 373
l 375 374
l 376 375
l 377 376
l 378 377
l 379 378
l 380 379
l 381 380
l 382 381
l 383 382
l 384 383
l 385 384
l 386 385
l 387 386
l 388 387
l 389 388
l 390 389
l 391 390
l 392 391
l 393 392
l 394 393
l 395 394
l 396 395
l 397 396
l 398 397
l 399 398
l 400 399
l 401 400
l 402 401
l 403 402
l 404 403
l 405 404
l 406 405
l 407 406
l 408 407
l 409 408
l 410 409
l 411 410
l 412 411
l 413 412
l 414 413
l 415 414
l 416 415
l 417 416
l 418 417
l 419 418
l 420 419
l 421 420
l 422 421
l 423 422
l 424 423
l 425 424
l 426 425
l 427 426
l 428 427
l 429 428
l 430 429
l 431 430
l 432 431
l 433 432
l 434 433
l 435 434
l 436 435
l 437 436
l 438 437
l 439 438
l 440 439
l 441 440
l 442 441
l 443 442
l 444 443
l 445 444
l 446 445
l 447 446
l 448 447
l 449 448
l 450 449
l 451 450
l 452 451
l 453 452
l 454 453
l 455 454
l 456 455
l 457 456
l 458 457
l 459 458
l 460 459
l 233 460
l 461 462
l 463 461
l 464 463
l 465 464
l 466 465
l 467 466
l 468 467
l 469 468
l 470 469
l 471 470
l 472 471
l 473 472
l 474 473
l 475 474
l 476 475
l 477 476
l 478 477
l 479 478
l 480 479
l 481 480
l 482 481
l 483 482
l 484 483
l 485 484
l 486 485
l 487 486
l 488 487
l 489 488
l 490 489
l 491 490
l 492 491
l 493 492
l 494 493
l 495 494
l 496 495
l 497 496
l 498 497
l 499 498
l 500 499
l 501 500
l 502 501
l 503 502
l 504 503
l 505 504
l 506 505
l 507 506
l 508 507
l 509 508
l 510 509
l 511 510
l 512 511
l 513 512
l 514 513
l 515 514
l 516 515
l 517 516
l 518 517
l 519 518
l 520 519
l 521 520
l 522 521
l 523 522
l 524 523
l 525 524
l 526 525
l 527 526
l 528 527
l 529 528
l 530 529
l 531 530
l 532 531
l 533 532
l 534 533
l 535 534
l 536 535
l 537 536
l 538 537
l 539 538
l 540 539
l 541 540
l 542 541
l 543 542
l 544 543
l 545 544
l 546 545
l 547 546
l 548 547
l 549 548
l 550 549
l 551 550
l 552 551
l 553 552
l 554 553
l 555 554
l 556 555
l 557 556
l 558 557
l 559 558
l 560 559
l 561 560
l 562 561
l 563 562
l 564 563
l 565 564
l 566 565
l 567 566
l 568 567
l 569 568
l 570 569
l 571 570
l 572 571
l 573 572
l 574 573
l 575 574
l 576 575
l 577 576
l 578 577
l 579 578
l 580 579
l 581 580
l 582 581
l 583 582
l 584 583
l 585 584
l 586 585
l 587 586
l 588 587
l 589 588
l 590 589
l 591 590
l 592 591
l 593 592
l 594 593
l 595 594
l 596 595
l 597 596
l 598 597
l 599 598
l 600 599
l 601 600
l 602 601
l 603 602
l 604 603
l 605 604
l 606 605
l 607 606
l 608 607
l 609 608
l 610 609
l 611 610
l 612 611
l 613 612
l 614 613
l 615 614
l 616 615
l 617 616
l 618 617
l 619 618
l 620 619
l 621 620
l 622 621
l 623 622
l 624 623
l 625 624
l 626 625
l 627 626
l 628 627
l 629 628
l 630 629
l 631 630
l 632 631
l 633 632
l 634 633
l 635 634
l 636 635
l 637 636
l 638 637
l 639 638
l 640 639
l 641 640
l 642 641
l 643 642
l 644 643
l 645 644
l 646 645
l 647 646
l 648 647
l 649 648
l 650 649
l 651 650
l 652 651
l 653 652
l 654 653
l 655 654
l 656 655
l 657 656
l 658 657
l 659 658
l 660 659
l 661 660
l 662 661
l 663 662
l 664 663
l 665 664
l 666 665
l 667 666
l 668 667
l 669 668
l 670 669
l 671 670
l 672 671
l 673 672
l 674 673
l 675 674
l 676 675
l 677 676
l 678 677
l 679 678
l 680 679
l 681 680
l 682 681
l 683 682
l 684 683
l 685 684
l 686 685
l 687 686
l 688 687
l 689 688
l 462 689
l 690 691
l 691 692
l 693 690
l 694 693
l 695 694
l 696 695
l 697 696
l 698 697
l 699 698
l 700 699
l 701 700
l 702 701
l 703 702
l 704 703
l 705 704
l 706 705
l 707 706
l 708 707
l 709 708
l 710 709
l 711 710
l 712 711
l 713 712
l 714 713
l 715 714
l 716 715
l 717 716
l 718 717
l 719 718
l 720 719
l 721 720
l 722 721
l 723 722
l 724 723
l 725 724
l 726 725
l 727 726
l 728 727
l 729 728
l 730 729
l 731 730
l 732 731
l 733 732
l 734 733
l 735 734
l 736 735
l 737 736
l 738 737
l 739 738
l 740 739
l 741 740
l 742 741
l 743 742
l 744 743
l 745 744
l 746 745
l 747 746
l 748 747
l 749 748
l 750 749
l 751 750
l 752 751
l 753 752
l 754 753
l 755 754
l 756 755
l 757 756
l 758 757
l 759 758
l 760 759
l 761 760
l 762 761
l 763 762
l 764 763
l 765 764
l 766 765
l 767 766
l 768 767
l 769 768
l 770 769
l 771 770
l 772 771
l 773 772
l 774 773
l 775 774
l 776 775
l 777 776
l 778 777
l 779 778
l 780 779
l 781 780
l 782 781
l 783 782
l 784 783
l 785 784
l 786 785
l 787 786
l 788 787
l 789 788
l 790 789
l 791 792
l 792 790
l 793 791
l 794 793
l 795 794
l 796 795
l 797 796
l 798 797
l 799 798
l 800 799
l 801 800
l 802 801
l 803 802
l 804 803
l 805 804
l 806 805
l 807 806
l 808 807
l 809 808
l 810 809
l 811 810
l 812 811
l 813 812
l 814 813
l 815 814
l 816 815
l 817 816
l 818 817
l 819 818
l 820 819
l 821 820
l 822 821
l 823 822
l 824 823
l 825 824
l 826 825
l 827 826
l 828 827
l 829 828
l 830 829
l 831 830
l 832 831
l 833 832
l 834 833
l 835 834
l 836 835
l 837 836
l 838 837
l 839 838
l 840 839
l 841 840
l 842 841
l 843 842
l 844 843
l 845 844
l 846 845
l 847 846
l 848 847
l 849 848
l 850 849
l 851 850
l 852 851
l 853 852
l 854 853
l 855 854
l 856 855
l 857 856
l 858 857
l 859 858
l 860 859
l 861 860
l 862 861
l 863 862
l 864 863
l 865 864
l 866 865
l 867 866
l 868 867
l 869 868
l 870 869
l 871 870
l 872 871
l 873 872
l 874 873
l 875 874
l 876 875
l 877 876
l 878 877
l 879 878
l 880 879
l 881 880
l 882 881
l 883 882
l 884 883
l 885 884
l 886 885
l 887 886
l 888 887
l 889 888
l 890 889
l 891 890
l 892 893
l 893 891
l 894 892
l 895 894
l 896 895
l 897 896
l 898 897
l 899 898
l 900 899
l 901 900
l 902 901
l 903 902
l 904 903
l 905 904
l 906 905
l 907 906
l 908 907
l 909 908
l 910 909
l 911 910
l 912 911
l 913 912
l 914 913
l 915 914
l 916 915
l 917 916
l 918 917
l 692 918
l 919 920
l 920 921
l 922 923
l 924 925
l 926 922
l 927 926
l 925 928
l 929 927
l 930 929
l 928 931
l 931 932
l 933 930
l 932 934
l 935 933
l 936 935
l 934 937
l 937 938
l 939 936
l 940 939
l 938 941
l 942 940
l 941 943
l 943 944
l 945 942
l 946 945
l 944 947
l 947 948
l 949 946
l 948 950
l 951 949
l 952 951
l 950 953
l 953 954
l 955 952
l 954 956
l 957 955
l 956 958
l 958 959
l 960 957
l 961 960
l 959 962
l 963 961
l 962 964
l 964 965
l 966 963
l 965 967
l 968 966
l 969 968
l 967 970
l 970 971
l 972 969
l 971 973
l 974 972
l 973 975
l 975 976
l 977 974
l 978 977
l 976 979
l 980 978
l 979 981
l 981 982
l 983 980
l 982 984
l 985 983
l 984 986
l 986 987
l 988 985
l 987 989
l 989 990
l 991 988
l 990 992
l 993 991
l 992 994
l 994 995
l 995 996
l 997 998
l 996 999
l 999 1000
l 1001 1002
l 1000 1003
l 1004 1001
l 1003 1005
l 1005 1006
l 1006 1007
l 1008 1009
l 1007 1010
l 1010 1011
l 1011 1012
l 1012 1013
l 1013 1014
l 1014 1015
l 1015 1016
l 1016 1017
l 1017 1018
l 1018 1019
l 1020 1021
l 1021 1022
l 1022 1023
l 1024 1025
l 1026 1024
l 1027 1028
l 1029 1027
l 1030 1029
l 1031 1030
l 1032 1031
l 1033 1032
l 1034 1033
l 1035 1034
l 1036 1035
l 1037 1036
l 1038 1037
l 1039 1038
l 1040 1041
l 1042 1039
l 1043 1042
l 1044 1043
l 1045 1046
l 1046 1047
l 1048 1044
l 1049 1048
l 1047 1050
l 1051 1049
l 1050 1052
l 1053 1051
l 1054 1053
l 1052 1055
l 1056 1054
l 1055 1057
l 1058 1056
l 1059 1058
l 1057 1060
l 1061 1059
l 1060 1062
l 1063 1061
l 1064 1063
l 1062 1065
l 1066 1064
l 1067 1066
l 1065 1068
l 1068 1069
l 1070 1067
l 1069 1071
l 1072 1070
l 1073 1072
l 1071 1074
l 1075 1073
l 1074 1076
l 1077 1075
l 1078 1077
l 1076 1079
l 1079 1080
l 1081 1078
l 1080 1082
l 1083 1081
l 1084 1083
l 1082 1085
l 1086 1084
l 1085 1087
l 1088 1086
l 1089 1088
l 1087 1090
l 1090 1091
l 1092 1089
l 1091 1093
l 1094 1092
l 1095 1094
l 1093 1096
l 1096 1097
l 1098 1095
l 1097 1099
l 1099 1100
l 1101 1098
l 1102 1101
l 1100 1103
l 1104 1102
l 1105 1104
l 1103 1106
l 1106 1107
l 1108 1105
l 1107 1109
l 1110 1108
l 1111 1110
l 1109 1112
l 1112 1113
l 1114 1111
l 1113 1115
l 1116 1114
l 1117 1116
l 1115 1118
l 1118 1119
l 1120 1117
l 1119 1121
l 1121 1122
l 1123 1120
l 1124 1123
l 1122 1125
l 1126 1124
l 1127 1126
l 1125 1128
l 1128 1129
l 1130 1127
l 1129 1131
l 1132 1130
l 1133 1132
l 1131 1134
l 1134 1135
l 1136 1133
l 1135 1137
l 1137 1138
l 1139 1136
l 1140 1139
l 1138 1141
l 1142 1140
l 1141 1143
l 1143 1144
l 1145 1142
l 1146 1145
l 1144 1147
l 1147 1148
l 1149 1146
l 1148 1150
l 1151 1149
l 1152 1151
l 1150 1153
l 1153 1154
l 1155 1152
l 1156 1155
l 1154 1157
l 1157 1158
l 1159 1156
l 1158 1160
l 1161 1159
l 1162 1161
l 1160 1163
l 1163 1164
l 1165 1162
l 1164 1166
l 1166 1167
l 1168 1165
l 1167 1169
l 1170 1168
l 1169 1171
l 1171 1172
l 1173 1170
l 1174 1173
l 1172 1175
l 1175 1176
l 1177 1174
l 1176 1178
l 1179 1177
l 1178 1180
l 1180 1181
l 1182 1179
l 1181 1183
l 1183 1184
l 1185 1182
l 1186 1185
l 1184 1187
l 1188 1186
l 1187 1189
l 1189 1190
l 1191 1188
l 1190 1192
l 1192 1193
l 1194 1191
l 1193 1195
l 1196 1194
l 1197 1196
l 1195 1198
l 1198 1199
l 1199 1200
l 1200 1201
l 1201 1202
l 1202 1203
l 1203 1204
l 1205 1206
l 1204 1207
l 1207 1208
l 1208 1209
l 1210 1
l 1209 2
l 2 1211
l 1212 1210
l 1213 1212
l 1211 1214
l 1215 1213
l 1216 1215
l 1217 1216
l 1218 1219
l 1220 1217
l 1221 1220
l 1219 1222
l 1223 1221
l 1224 1223
l 1222 1225
l 1226 1224
l 1225 1227
l 1228 1226
l 1229 1228
l 1227 1230
l 1231 1229
l 1232 1231
l 1230 1233
l 1234 1232
l 1233 1235
l 1235 1236
l 1237 1234
l 1238 1237
l 1236 1239
l 1240 1238
l 1241 1240
l 1239 1242
l 1243 1241
l 1242 1244
l 1245 1243
l 1246 1245
l 1244 1247
l 1247 1248
l 1249 1246
l 1250 1249
l 1248 1251
l 1252 1250
l 1251 1253
l 1254 1252
l 1255 1254
l 1253 1256
l 1256 1257
l 1258 1255
l 1259 1258
l 1257 1260
l 1261 1259
l 1260 1262
l 1263 1261
l 1264 1263
l 1262 1265
l 1265 1266
l 1267 1264
l 1268 1267
l 1266 1269
l 1269 1270
l 1271 1268
l 1270 1272
l 1273 1271
l 1274 1273
l 1272 1275
l 1275 1276
l 1277 1274
l 1276 1278
l 1279 1277
l 1280 1279
l 1278 1281
l 1281 1282
l 1283 1280
l 1284 1283
l 1282 1285
l 1286 1284
l 1285 1287
l 1287 1288
l 1289 1286
l 1290 1289
l 1288 1291
l 1292 1290
l 923 1292
l 1291 1293
l 1293 1294
l 1294 924
l 1295 1296
l 1296 1297
l 1297 1298
l 1298 1299
l 1299 1300
l 1300 1301
l 1301 1302
l 1302 1303
l 1303 1304
l 1304 1305
l 1305 1306
l 1306 1008
l 1009 1004
l 1002 997
l 998 993
l 1 1205
l 1206 1307
l 1307 1308
l 1308 1197
l 1028 1309
l 1309 1310
l 1310 1026
l 1025 1311
l 1312 1313
l 1313 1314
l 1314 1315
l 1315 1316
l 1316 1317
l 1317 1318
l 1318 1319
l 1319 1320
l 1320 1321
l 1321 1322
l 1322 1323
l 1323 1040
l 1041 1045
l 1214 1218
l 1019 1324
l 1324 1325
l 1325 1326
l 1326 1020
l 1023 1327
l 1328 1329
l 1330 1328
l 1331 1330
l 1332 1331
l 1333 1332
l 1334 1333
l 1335 1334
l 1336 1335
l 1337 1336
l 1338 1337
l 1339 1338
l 1340 1339
l 1341 1340
l 1342 1341
l 1343 1342
l 1344 1343
l 1345 1344
l 1346 1345
l 1347 1346
l 1348 1347
l 1349 1348
l 1350 1349
l 1351 1350
l 1352 1351
l 1353 1352
l 1354 1353
l 1355 1354
l 1356 1355
l 1357 1356
l 1358 1357
l 1359 1358
l 1360 1359
l 1361 1360
l 1362 1361
l 1363 1362
l 1364 1363
l 1365 1364
l 1366 1365
l 1367 1366
l 1368 1367
l 1369 1368
l 1370 1369
l 1371 1370
l 1372 1371
l 1373 1372
l 1374 1373
l 1375 1374
l 1 1375
l 1376 2
l 1377 1376
l 1378 1377
l 1379 1378
l 1380 1379
l 1381 1380
l 1382 1381
l 1383 1382
l 1384 1383
l 1385 1384
l 1386 1385
l 1387 1386
l 1388 1387
l 1389 1388
l 1390 1389
l 1391 1390
l 1392 1391
l 1393 1392
l 1394 1393
l 1395 1394
l 1396 1395
l 1397 1396
l 1398 1397
l 1399 1398
l 1400 1399
l 1401 1400
l 1402 1401
l 1403 1402
l 1404 1403
l 1405 1404
l 1406 1405
l 1407 1406
l 1408 1407
l 1409 1408
l 1410 1409
l 1411 1410
l 1412 1411
l 1413 1412
l 1329 1413
# </edges>
