v 0 0.120996 0.0313851
v 0 0.358774 -0.939934
l 1 2
v 0 0.120089 0.0346927
v 0 0.384424 -0.929738
l 3 4
v 0 0.114216 0.0507899
v 0 0.507964 -0.868429
l 5 6
v 0 0.11278 0.0539042
v 0 0.531595 -0.854167
l 7 8
v 0 0.111259 0.0569779
v 0 0.554827 -0.839263
l 9 10
v 0 0.109654 0.0600087
v 0 0.577645 -0.823725
l 11 12
v 0 0.107966 0.0629944
v 0 0.600026 -0.807567
l 13 14
v 0 0.106197 0.0659326
v 0 0.621954 -0.790803
l 15 16
v 0 0.104349 0.0688212
v 0 0.643415 -0.773442
l 17 18
v 0 0.102421 0.071658
v 0 0.664391 -0.7555
l 19 20
v 0 -0.0723589 -0.101927
v 0 -0.87976 0.488075
l 21 22
v 0 -0.0695354 -0.103874
v 0 -0.892819 0.463756
l 23 24
v 0 0.0983369 0.0771677
v 0 0.704828 -0.717922
l 25 26
v 0 0.0961829 0.0798365
v 0 0.724258 -0.698316
l 27 28
v 0 0.0892931 0.0874742
v 0 0.779222 -0.636403
l 29 30
v 0 0.0868597 0.089891
v 0 0.796387 -0.614787
l 31 32
v 0 0.0843609 0.0922401
v 0 0.812954 -0.592707
l 33 34
v 0 0.0916592 0.0849917
v 0 0.76147 -0.65754
l 35 36
v 0 -0.0904847 -0.0862411
v 0 -0.770418 0.647033
l 37 38
v 0 -0.0880847 -0.088691
v 0 -0.787879 0.625654
l 39 40
v 0 -0.0856184 -0.0910741
v 0 -0.804747 0.603803
l 41 42
v 0 0.0791748 0.0967282
v 0 0.844238 -0.547227
l 43 44
v 0 0.0764914 0.0988639
v 0 0.858934 -0.523859
l 45 46
v 0 -0.097269 -0.0785095
v 0 -0.714611 0.708186
l 47 48
v 0 -0.0950786 -0.0811484
v 0 -0.733771 0.688314
l 49 50
v 0 0.0737503 0.100925
v 0 0.872981 -0.5001
l 51 52
v 0 0.0709538 0.10291
v 0 0.886373 -0.47596
l 53 54
v 0 0.0817987 0.0945197
v 0 0.828909 -0.570181
l 55 56
v 0 0.0681038 0.104818
v 0 0.899096 -0.451466
l 57 58
v 0 0.0622523 0.108396
v 0 0.922505 -0.401472
l 59 60
v 0 0.0592552 0.110063
v 0 0.933172 -0.376013
l 61 62
v 0 -0.10882 -0.0615073
v 0 -0.58889 0.815723
l 63 64
v 0 -0.107092 -0.0644696
v 0 -0.611046 0.799261
l 65 66
v 0 -0.105283 -0.0673833
v 0 -0.632743 0.782196
l 67 68
v 0 -0.103395 -0.0702462
v 0 -0.653965 0.764543
l 69 70
v 0 -0.101429 -0.0730563
v 0 -0.674693 0.746314
l 71 72
v 0 -0.117429 -0.042842
v 0 -0.447245 0.901203
l 73 74
v 0 -0.116209 -0.0460475
v 0 -0.4718 0.888594
l 75 76
v 0 0.0371564 0.11935
v 0 0.987788 -0.190971
l 77 78
v 0 0.0338682 0.120324
v 0 0.992655 -0.163801
l 79 80
v 0 0.0305544 0.121208
v 0 0.996775 -0.136507
l 81 82
v 0 0.0272177 0.122001
v 0 1.00015 -0.109109
l 83 84
v 0 0.0204853 0.12331
v 0 1.00462 -0.0540899
l 85 86
v 0 0.0170947 0.123826
v 0 1.00573 -0.0265099
l 87 88
v 0 0.0136912 0.124248
v 0 1.00608 0.00109403
l 89 90
v 0 0.0102774 0.124577
v 0 1.00567 0.0286936
l 91 92
v 0 0.00685593 0.124812
v 0 1.0045 0.0562711
l 93 94
v 0 -0.00342926 0.124953
v 0 0.996477 0.138672
l 95 96
v 0 -0.00685593 0.124812
v 0 0.992297 0.165956
l 97 98
v 0 3.06162e-17 0.125
v 0 0.999906 0.111281
l 99 100
v 0 -0.0136912 0.124248
v 0 0.981701 0.220131
l 101 102
v 0 -0.0170947 0.123826
v 0 0.975293 0.246979
l 103 104
v 0 -0.0204853 0.12331
v 0 0.96815 0.273645
l 105 106
v 0 -0.0238605 0.122702
v 0 0.960278 0.300101
l 107 108
v 0 -0.122535 0.0247016
v 0 0.0885074 1.00218
l 109 110
v 0 -0.123167 0.0213306
v 0 0.0609789 1.00423
l 111 112
v 0 -0.0272177 0.122001
v 0 0.951684 0.326333
l 113 114
v 0 -0.0305544 0.121208
v 0 0.942373 0.352318
l 115 116
v 0 -0.0371564 0.11935
v 0 0.921631 0.403476
l 117 118
v 0 -0.0404167 0.118286
v 0 0.910215 0.428607
l 119 120
v 0 -0.118006 0.0412271
v 0 0.224731 0.980659
l 121 122
v 0 -0.119092 0.0379742
v 0 0.197742 0.986455
l 123 124
v 0 -0.0436465 0.117132
v 0 0.898114 0.453416
l 125 126
v 0 -0.0468435 0.115891
v 0 0.885337 0.477884
l 127 128
v 0 -0.0500052 0.114562
v 0 0.871893 0.501994
l 129 130
v 0 -0.115567 0.0476373
v 0 0.27818 0.966856
l 131 132
v 0 -0.11683 0.0444489
v 0 0.251549 0.974124
l 133 134
v 0 -0.0531293 0.113147
v 0 0.857794 0.525723
l 135 136
v 0 -0.0562134 0.111647
v 0 0.843047 0.549061
l 137 138
v 0 -0.0592552 0.110063
v 0 0.827668 0.57198
l 139 140
v 0 -0.0622523 0.108396
v 0 0.811664 0.594472
l 141 142
v 0 -0.109654 0.0600087
v 0 0.382406 0.93057
l 143 144
v 0 -0.111259 0.0569779
v 0 0.356732 0.940711
l 145 146
v 0 -0.11278 0.0539042
v 0 0.330788 0.950145
l 147 148
v 0 -0.0652026 0.106647
v 0 0.79505 0.616515
l 149 150
v 0 -0.0681038 0.104818
v 0 0.777838 0.638093
l 151 152
v 0 -0.0709538 0.10291
v 0 0.760039 0.659194
l 153 154
v 0 -0.0737503 0.100925
v 0 0.741669 0.679796
l 155 156
v 0 -0.0961829 0.0798365
v 0 0.553004 0.840466
l 157 158
v 0 -0.0983369 0.0771677
v 0 0.529739 0.85532
l 159 160
v 0 -0.100417 0.0744409
v 0 0.506074 0.869531
l 161 162
v 0 -0.102421 0.071658
v 0 0.48203 0.883087
l 163 164
v 0 -0.104349 0.0688212
v 0 0.457621 0.895979
l 165 166
v 0 -0.106197 0.0659326
v 0 0.432869 0.908196
l 167 168
v 0 -0.107966 0.0629944
v 0 0.40779 0.91973
l 169 170
v 0 -0.0791748 0.0967282
v 0 0.703268 0.719451
l 171 172
v 0 -0.0817987 0.0945197
v 0 0.683264 0.738475
l 173 174
v 0 -0.0843609 0.0922401
v 0 0.662749 0.75694
l 175 176
v 0 -0.0102774 0.124577
v 0 0.987371 0.193117
l 177 178
v 0 -0.0338682 0.120324
v 0 0.932353 0.37804
l 179 180
v 0 -0.0764914 0.0988639
v 0 0.722739 0.699889
l 181 182
v 0 -0.0868597 0.089891
v 0 0.641734 0.774838
l 183 184
v 0 -0.0892931 0.0874742
v 0 0.620234 0.792152
l 185 186
v 0 -0.0916592 0.0849917
v 0 0.598269 0.808869
l 187 188
v 0 -0.0939564 0.0824451
v 0 0.575855 0.824977
l 189 190
v 0 -0.114216 0.0507899
v 0 0.304599 0.958861
l 191 192
v 0 -0.120089 0.0346927
v 0 0.170606 0.991508
l 193 194
v 0 -0.120996 0.0313851
v 0 0.143339 0.995816
l 195 196
v 0 -0.121811 0.0280539
v 0 0.115967 0.999373
l 197 198
v 0 -0.123705 0.0179436
v 0 0.033406 1.00552
l 199 200
v 0 -0.124151 0.0145432
v 0 0.00580906 1.00606
l 201 202
v 0 -0.124503 0.0111317
v 0 -0.0217944 1.00584
l 203 204
v 0 -0.124762 0.00771189
v 0 -0.0493801 1.00487
l 205 206
v 0 -0.124926 0.00428627
v 0 -0.0769284 1.00313
l 207 208
v 0 -0.124997 0.000857415
v 0 -0.104422 1.00065
l 209 210
v 0 -0.124974 -0.00257208
v 0 -0.131832 0.997404
l 211 212
v 0 -0.124856 -0.00599965
v 0 -0.159146 0.993412
l 213 214
v 0 -0.124644 -0.00942269
v 0 -0.18634 0.988672
l 215 216
v 0 -0.124339 -0.0128386
v 0 -0.213392 0.983188
l 217 218
v 0 -0.12394 -0.0162449
v 0 -0.240285 0.976964
l 219 220
v 0 -0.123448 -0.019639
v 0 -0.266999 0.970004
l 221 222
v 0 -0.122862 -0.0230183
v 0 -0.293506 0.962315
l 223 224
v 0 -0.122185 -0.0263802
v 0 -0.319797 0.9539
l 225 226
v 0 -0.121415 -0.0297223
v 0 -0.345846 0.944768
l 227 228
v 0 -0.120554 -0.033042
v 0 -0.371634 0.934924
l 229 230
v 0 -0.119602 -0.0363369
v 0 -0.397145 0.924376
l 231 232
v 0 -0.11856 -0.0396044
v 0 -0.422353 0.913134
l 233 234
v 0 -0.114902 -0.0492182
v 0 -0.496002 0.875316
l 235 236
v 0 -0.113509 -0.0523519
v 0 -0.519828 0.861379
l 237 238
v 0 -0.11203 -0.0554462
v 0 -0.543263 0.846794
l 239 240
v 0 -0.110467 -0.0584988
v 0 -0.56629 0.831572
l 241 242
v 0 -0.0993862 -0.0758114
v 0 -0.694914 0.727523
l 243 244
v 0 -0.0928166 -0.0837262
v 0 -0.752376 0.667926
l 245 246
v 0 -0.0830876 -0.0933887
v 0 -0.821007 0.5815
l 247 248
v 0 -0.0804943 -0.095633
v 0 -0.836652 0.558756
l 249 250
v 0 -0.0778404 -0.0978053
v 0 -0.851666 0.535593
l 251 252
v 0 -0.0751279 -0.0999039
v 0 -0.86604 0.512026
l 253 254
v 0 -0.0666595 -0.105743
v 0 -0.905206 0.439088
l 255 256
v 0 -0.0637335 -0.107532
v 0 -0.91691 0.41409
l 257 258
v 0 -0.0607595 -0.10924
v 0 -0.927926 0.388778
l 259 260
v 0 -0.0577397 -0.110865
v 0 -0.938242 0.363176
l 261 262
v 0 -0.0546765 -0.112408
v 0 -0.947852 0.3373
l 263 264
v 0 -0.0515721 -0.113865
v 0 -0.95675 0.311168
l 265 266
v 0 -0.0484289 -0.115237
v 0 -0.964925 0.284806
l 267 268
v 0 -0.0452493 -0.116523
v 0 -0.972376 0.258225
l 269 270
v 0 -0.0420355 -0.11772
v 0 -0.979094 0.231453
l 271 272
v 0 -0.0387902 -0.118829
v 0 -0.985076 0.204503
l 273 274
v 0 -0.0355156 -0.119848
v 0 -0.990315 0.177403
l 275 276
v 0 -0.0322143 -0.120778
v 0 -0.994809 0.150168
l 277 278
v 0 -0.0288888 -0.121616
v 0 -0.998554 0.122819
l 279 280
v 0 -0.0255415 -0.122363
v 0 -1.00155 0.0953795
l 281 282
v 0 -0.022175 -0.123017
v 0 -1.00379 0.0678648
l 283 284
v 0 -0.0187918 -0.123579
v 0 -1.00527 0.0403035
l 285 286
v 0 -0.0153944 -0.124048
v 0 -1.006 0.0127093
l 287 288
v 0 -0.0119855 -0.124424
v 0 -1.00597 -0.0148936
l 289 290
v 0 -0.00856749 -0.124706
v 0 -1.00518 -0.0424876
l 291 292
v 0 -0.00514308 -0.124894
v 0 -1.00364 -0.0700464
l 293 294
v 0 -0.00171479 -0.124988
v 0 -1.00134 -0.0975546
l 295 296
v 0 0.00171479 -0.124988
v 0 -0.998285 -0.124988
l 297 298
v 0 0.00514308 -0.124894
v 0 -0.994481 -0.152328
l 299 300
v 0 0.00856749 -0.124706
v 0 -0.989927 -0.179554
l 301 302
v 0 0.0119855 -0.124424
v 0 -0.984629 -0.206643
l 303 304
v 0 0.0153944 -0.124048
v 0 -0.978589 -0.233579
l 305 306
v 0 0.0187918 -0.123579
v 0 -0.971813 -0.260337
l 307 308
v 0 0.022175 -0.123017
v 0 -0.964305 -0.2869
l 309 310
v 0 0.0255415 -0.122363
v 0 -0.956071 -0.313245
l 311 312
v 0 0.0288888 -0.121616
v 0 -0.947118 -0.339358
l 313 314
v 0 0.0322143 -0.120778
v 0 -0.937451 -0.365213
l 315 316
v 0 0.0355156 -0.119848
v 0 -0.927079 -0.390794
l 317 318
v 0 0.0387902 -0.118829
v 0 -0.916009 -0.416081
l 319 320
v 0 0.0420355 -0.11772
v 0 -0.90425 -0.441052
l 321 322
v 0 0.0452493 -0.116523
v 0 -0.891809 -0.465696
l 323 324
v 0 0.0484289 -0.115237
v 0 -0.878698 -0.489985
l 325 326
v 0 0.0515721 -0.113865
v 0 -0.864924 -0.513908
l 327 328
v 0 0.0546765 -0.112408
v 0 -0.850501 -0.537441
l 329 330
v 0 0.0577397 -0.110865
v 0 -0.835436 -0.560573
l 331 332
v 0 0.0607595 -0.10924
v 0 -0.819743 -0.583281
l 333 334
v 0 0.0637335 -0.107532
v 0 -0.803433 -0.60555
l 335 336
v 0 0.0666595 -0.105743
v 0 -0.786517 -0.627365
l 337 338
v 0 0.0695354 -0.103874
v 0 -0.769011 -0.648705
l 339 340
v 0 0.0723589 -0.101927
v 0 -0.750925 -0.669557
l 341 342
v 0 0.0751279 -0.0999039
v 0 -0.732274 -0.689906
l 343 344
v 0 0.0778404 -0.0978053
v 0 -0.713071 -0.709736
l 345 346
v 0 0.0804943 -0.095633
v 0 -0.693331 -0.729032
l 347 348
v 0 0.0830876 -0.0933887
v 0 -0.67307 -0.747778
l 349 350
v 0 0.0856184 -0.0910741
v 0 -0.652301 -0.765963
l 351 352
v 0 0.0880847 -0.088691
v 0 -0.631044 -0.783568
l 353 354
v 0 0.0904847 -0.0862411
v 0 -0.609309 -0.800586
l 355 356
v 0 0.0928166 -0.0837262
v 0 -0.587117 -0.817
l 357 358
v 0 0.0950786 -0.0811484
v 0 -0.564481 -0.8328
l 359 360
v 0 0.097269 -0.0785095
v 0 -0.541423 -0.847972
l 361 362
v 0 0.0993862 -0.0758114
v 0 -0.517955 -0.862507
l 363 364
v 0 0.101429 -0.0730563
v 0 -0.494099 -0.876391
l 365 366
v 0 0.103395 -0.0702462
v 0 -0.46987 -0.889617
l 367 368
v 0 0.105283 -0.0673833
v 0 -0.445287 -0.902172
l 369 370
v 0 0.107092 -0.0644696
v 0 -0.420369 -0.914049
l 371 372
v 0 0.10882 -0.0615073
v 0 -0.395134 -0.925238
l 373 374
v 0 0.110467 -0.0584988
v 0 -0.369603 -0.935729
l 375 376
v 0 0.11203 -0.0554462
v 0 -0.343793 -0.945517
l 377 378
v 0 0.113509 -0.0523519
v 0 -0.317724 -0.954592
l 379 380
v 0 0.114902 -0.0492182
v 0 -0.291417 -0.962949
l 381 382
v 0 0.116209 -0.0460475
v 0 -0.26489 -0.970581
l 383 384
v 0 0.117429 -0.042842
v 0 -0.238162 -0.977484
l 385 386
v 0 0.11856 -0.0396044
v 0 -0.211256 -0.983649
l 387 388
v 0 0.119602 -0.0363369
v 0 -0.184191 -0.989075
l 389 390
v 0 0.120554 -0.033042
v 0 -0.156989 -0.993755
l 391 392
v 0 0.121415 -0.0297223
v 0 -0.129666 -0.997689
l 393 394
v 0 0.122185 -0.0263802
v 0 -0.102247 -1.00087
l 395 396
v 0 0.122862 -0.0230183
v 0 -0.07475 -1.0033
l 397 398
v 0 0.123448 -0.019639
v 0 -0.047196 -1.00497
l 399 400
v 0 0.12394 -0.0162449
v 0 -0.0196111 -1.00589
l 401 402
v 0 0.124339 -0.0128386
v 0 0.0079935 -1.00605
l 403 404
v 0 0.124644 -0.00942269
v 0 0.0355914 -1.00545
l 405 406
v 0 0.124856 -0.00599965
v 0 0.0631606 -1.00409
l 407 408
v 0 0.124974 -0.00257208
v 0 0.0906836 -1.00198
l 409 410
v 0 0.124997 0.000857415
v 0 0.118139 -0.999119
l 411 412
v 0 0.124926 0.00428627
v 0 0.145502 -0.995502
l 413 414
v 0 0.124762 0.00771189
v 0 0.17276 -0.991136
l 415 416
v 0 0.124503 0.0111317
v 0 0.199885 -0.986023
l 417 418
v 0 0.124151 0.0145432
v 0 0.22686 -0.980168
l 419 420
v 0 0.123705 0.0179436
v 0 0.253666 -0.973576
l 421 422
v 0 0.123167 0.0213306
v 0 0.280278 -0.96625
l 423 424
v 0 0.122535 0.0247016
v 0 0.30668 -0.958197
l 425 426
v 0 0.121811 0.0280539
v 0 0.332854 -0.949423
l 427 428
v 0 0.119092 0.0379742
v 0 0.409787 -0.918842
l 429 430
v 0 0.118006 0.0412271
v 0 0.43484 -0.907254
l 431 432
v 0 0.11683 0.0444489
v 0 0.459566 -0.894983
l 433 434
v 0 0.115567 0.0476373
v 0 0.483946 -0.882038
l 435 436
v 0 0.100417 0.0744409
v 0 0.684868 -0.736988
l 437 438
v 0 0.0939564 0.0824451
v 0 0.743143 -0.678184
l 439 440
v 0 0.0652026 0.106647
v 0 0.911145 -0.426628
l 441 442
v 0 0.0562134 0.111647
v 0 0.943137 -0.35027
l 443 444
v 0 0.0531293 0.113147
v 0 0.95239 -0.324266
l 445 446
v 0 0.0500052 0.114562
v 0 0.960928 -0.298014
l 447 448
v 0 0.0468435 0.115891
v 0 0.968742 -0.271541
l 449 450
v 0 0.0436465 0.117132
v 0 0.975827 -0.24486
l 451 452
v 0 0.0404167 0.118286
v 0 0.982177 -0.217998
l 453 454
v 0 0.0238605 0.122702
v 0 1.00276 -0.0816302
l 455 456
v 0 0.00342926 0.124953
v 0 1.00258 0.083809
l 457 458
v 4 0.996586 2.12439
v 4 1.99649 2.13808
l 459 460
v 4 0.993175 2.12425
v 4 1.99233 2.16545
l 461 462
v 4 0.989768 2.12402
v 4 1.98742 2.19252
l 463 464
v 4 0.98637 2.12369
v 4 1.98176 2.21957
l 465 466
v 4 0.982982 2.12327
v 4 1.97537 2.24645
l 467 468
v 4 0.979606 2.12276
v 4 1.96824 2.2731
l 469 470
v 4 0.976246 2.12215
v 4 1.96039 2.29952
l 471 472
v 4 0.972904 2.12146
v 4 1.95181 2.32578
l 473 474
v 4 0.969582 2.12067
v 4 1.9425 2.3518
l 475 476
v 4 0.966283 2.11979
v 4 1.93251 2.37746
l 477 478
v 4 0.96301 2.11882
v 4 1.92179 2.40296
l 479 480
v 4 0.959764 2.11776
v 4 1.91039 2.42808
l 481 482
v 4 0.956548 2.11661
v 4 1.8983 2.45291
l 483 484
v 4 0.953366 2.11537
v 4 1.88554 2.47737
l 485 486
v 4 0.950218 2.11405
v 4 1.87212 2.50147
l 487 488
v 4 0.947108 2.11264
v 4 1.85804 2.5252
l 489 490
v 4 0.944038 2.11115
v 4 1.8433 2.54857
l 491 492
v 4 0.94101 2.10957
v 4 1.82793 2.57149
l 493 494
v 4 0.938026 2.10791
v 4 1.81194 2.594
l 495 496
v 4 0.935089 2.10617
v 4 1.79536 2.61601
l 497 498
v 4 0.9322 2.10435
v 4 1.77813 2.63764
l 499 500
v 4 0.929363 2.10245
v 4 1.76036 2.65872
l 501 502
v 4 0.926579 2.10047
v 4 1.74199 2.67936
l 503 504
v 4 0.92385 2.09842
v 4 1.72308 2.69945
l 505 506
v 4 0.921179 2.0963
v 4 1.70361 2.71903
l 507 508
v 4 0.918567 2.0941
v 4 1.68365 2.73802
l 509 510
v 4 0.916016 2.09183
v 4 1.66312 2.75653
l 511 512
v 4 0.913528 2.08949
v 4 1.64211 2.77445
l 513 514
v 4 0.911106 2.08708
v 4 1.62064 2.79175
l 515 516
v 4 0.90875 2.08461
v 4 1.59868 2.80848
l 517 518
v 4 0.906463 2.08208
v 4 1.57625 2.82463
l 519 520
v 4 0.904247 2.07948
v 4 1.55346 2.84009
l 521 522
v 4 0.902102 2.07682
v 4 1.53016 2.85499
l 523 524
v 4 0.900032 2.07411
v 4 1.50653 2.8692
l 525 526
v 4 0.898036 2.07134
v 4 1.48248 2.88277
l 527 528
v 4 0.896117 2.06851
v 4 1.4581 2.89566
l 529 530
v 4 0.894277 2.06564
v 4 1.43332 2.90792
l 531 532
v 4 0.892516 2.06271
v 4 1.40827 2.91945
l 533 534
v 4 0.890836 2.05974
v 4 1.38292 2.93029
l 535 536
v 4 0.889238 2.05672
v 4 1.35721 2.94047
l 537 538
v 4 0.887724 2.05366
v 4 1.33132 2.94989
l 539 540
v 4 0.886294 2.05056
v 4 1.3051 2.95864
l 541 542
v 4 0.884949 2.04742
v 4 1.27869 2.96664
l 543 544
v 4 0.883692 2.04425
v 4 1.25207 2.97393
l 545 546
v 4 0.882521 2.04104
v 4 1.22524 2.98048
l 547 548
v 4 0.88144 2.0378
v 4 1.19827 2.98629
l 549 550
v 4 0.880447 2.03454
v 4 1.17115 2.99135
l 551 552
v 4 0.879545 2.03124
v 4 1.14389 2.99567
l 553 554
v 4 0.878733 2.02793
v 4 1.1165 2.99925
l 555 556
v 4 0.878012 2.02459
v 4 1.08906 3.00207
l 557 558
v 4 0.877384 2.02124
v 4 1.06153 3.00413
l 559 560
v 4 0.876847 2.01786
v 4 1.03396 3.00544
l 561 562
v 4 0.876403 2.01448
v 4 1.00636 3.006
l 563 564
v 4 0.876053 2.01108
v 4 0.978754 3.00579
l 565 566
v 4 0.875795 2.00768
v 4 0.951181 3.00483
l 567 568
v 4 0.875632 2.00427
v 4 0.92364 3.00311
l 569 570
v 4 0.875561 2.00085
v 4 0.896125 3.00064
l 571 572
v 4 0.875585 1.99744
v 4 0.868724 2.99742
l 573 574
v 4 0.875702 1.99403
v 4 0.841415 2.99344
l 575 576
v 4 0.875912 1.99062
v 4 0.814217 2.98871
l 577 578
v 4 0.876216 1.98722
v 4 0.787165 2.98325
l 579 580
v 4 0.876614 1.98383
v 4 0.760279 2.97704
l 581 582
v 4 0.877104 1.98045
v 4 0.733549 2.97009
l 583 584
v 4 0.877686 1.97708
v 4 0.70704 2.96242
l 585 586
v 4 0.878361 1.97374
v 4 0.680741 2.95402
l 587 588
v 4 0.879127 1.97041
v 4 0.654708 2.9449
l 589 590
v 4 0.879985 1.96711
v 4 0.62889 2.93507
l 591 592
v 4 0.880932 1.96383
v 4 0.603395 2.92454
l 593 594
v 4 0.88197 1.96057
v 4 0.578171 2.91331
l 595 596
v 4 0.883096 1.95735
v 4 0.553294 2.9014
l 597 598
v 4 0.88431 1.95416
v 4 0.528717 2.8888
l 599 600
v 4 0.885611 1.951
v 4 0.504506 2.87553
l 601 602
v 4 0.886998 1.94788
v 4 0.480673 2.86161
l 603 604
v 4 0.88847 1.9448
v 4 0.457235 2.84704
l 605 606
v 4 0.890027 1.94176
v 4 0.434217 2.83184
l 607 608
v 4 0.891666 1.93877
v 4 0.41159 2.81599
l 609 610
v 4 0.893386 1.93582
v 4 0.389424 2.79954
l 611 612
v 4 0.895187 1.93292
v 4 0.367742 2.78251
l 613 614
v 4 0.897067 1.93007
v 4 0.346491 2.76485
l 615 616
v 4 0.899024 1.92727
v 4 0.325764 2.74664
l 617 618
v 4 0.901058 1.92453
v 4 0.305525 2.72786
l 619 620
v 4 0.903165 1.92184
v 4 0.285817 2.70853
l 621 622
v 4 0.905346 1.91921
v 4 0.266657 2.68868
l 623 624
v 4 0.907598 1.91665
v 4 0.248036 2.6683
l 625 626
v 4 0.90992 1.91414
v 4 0.229991 2.64742
l 627 628
v 4 0.912309 1.91171
v 4 0.212528 2.62606
l 629 630
v 4 0.914764 1.90933
v 4 0.19562 2.60419
l 631 632
v 4 0.917284 1.90703
v 4 0.179369 2.58192
l 633 634
v 4 0.919865 1.90479
v 4 0.163703 2.55918
l 635 636
v 4 0.922507 1.90263
v 4 0.148681 2.53603
l 637 638
v 4 0.925208 1.90054
v 4 0.134291 2.51247
l 639 640
v 4 0.927964 1.89853
v 4 0.120579 2.48855
l 641 642
v 4 0.930775 1.89659
v 4 0.107485 2.46421
l 643 644
v 4 0.933638 1.89473
v 4 0.0950982 2.43957
l 645 646
v 4 0.936551 1.89295
v 4 0.0833656 2.41456
l 647 648
v 4 0.939512 1.89125
v 4 0.0723495 2.38927
l 649 650
v 4 0.942518 1.88963
v 4 0.0620152 2.36367
l 651 652
v 4 0.945568 1.88809
v 4 0.052394 2.33781
l 653 654
v 4 0.948658 1.88664
v 4 0.0434767 2.31167
l 655 656
v 4 0.951787 1.88528
v 4 0.035295 2.28533
l 657 658
v 4 0.954953 1.884
v 4 0.0278259 2.25875
l 659 660
v 4 0.958152 1.88281
v 4 0.0210855 2.23196
l 661 662
v 4 0.961383 1.8817
v 4 0.0151025 2.20505
l 663 664
v 4 0.964643 1.88069
v 4 0.00984919 2.17796
l 665 666
v 4 0.96793 1.87976
v 4 0.00533393 2.1507
l 667 668
v 4 0.97124 1.87893
v 4 0.0015751 2.12336
l 669 670
v 4 0.974573 1.87818
v 4 -0.00143586 2.09592
l 671 672
v 4 0.977924 1.87753
v 4 -0.00368937 2.06841
l 673 674
v 4 0.981292 1.87697
v 4 -0.00518606 2.04086
l 675 676
v 4 0.984674 1.87651
v 4 -0.00592935 2.01327
l 677 678
v 4 0.988068 1.87613
v 4 -0.00591571 1.98566
l 679 680
v 4 0.991471 1.87585
v 4 -0.00514579 1.95804
l 681 682
v 4 0.99488 1.87566
v 4 -0.00361464 1.93051
l 683 684
v 4 0.998293 1.87557
v 4 -0.0013305 1.90301
l 685 686
v 4 1.00171 1.87557
v 4 0.00170708 1.87557
l 687 688
v 4 1.00512 1.87566
v 4 0.00549677 1.84822
l 689 690
v 4 1.00853 1.87585
v 4 0.0100348 1.821
l 691 692
v 4 1.01193 1.87613
v 4 0.0153152 1.79394
l 693 694
v 4 1.01533 1.87651
v 4 0.0213419 1.76698
l 695 696
v 4 1.01871 1.87697
v 4 0.0281039 1.74021
l 697 698
v 4 1.02208 1.87753
v 4 0.0355981 1.71364
l 699 700
v 4 1.02543 1.87818
v 4 0.0438145 1.6873
l 701 702
v 4 1.02876 1.87893
v 4 0.0527504 1.6612
l 703 704
v 4 1.03207 1.87976
v 4 0.0624063 1.63532
l 705 706
v 4 1.03536 1.88069
v 4 0.0727601 1.60975
l 707 708
v 4 1.03862 1.8817
v 4 0.0838231 1.58443
l 709 710
v 4 1.04185 1.88281
v 4 0.0955654 1.55946
l 711 712
v 4 1.04505 1.884
v 4 0.107983 1.53484
l 713 714
v 4 1.04821 1.88528
v 4 0.121088 1.51052
l 715 716
v 4 1.05134 1.88664
v 4 0.134847 1.4866
l 717 718
v 4 1.05443 1.88809
v 4 0.149251 1.46307
l 719 720
v 4 1.05748 1.88963
v 4 0.164308 1.43992
l 721 722
v 4 1.06049 1.89125
v 4 0.179981 1.41722
l 723 724
v 4 1.06345 1.89295
v 4 0.196291 1.39492
l 725 726
v 4 1.06636 1.89473
v 4 0.213171 1.37313
l 727 728
v 4 1.06922 1.89659
v 4 0.230695 1.35173
l 729 730
v 4 1.07204 1.89853
v 4 0.24874 1.33091
l 731 732
v 4 1.07479 1.90054
v 4 0.267401 1.31053
l 733 734
v 4 1.07749 1.90263
v 4 0.286583 1.2907
l 735 736
v 4 1.08013 1.90479
v 4 0.306308 1.2714
l 737 738
v 4 1.08272 1.90703
v 4 0.326554 1.25264
l 739 740
v 4 1.08524 1.90933
v 4 0.347321 1.23444
l 741 742
v 4 1.08769 1.91171
v 4 0.368555 1.21684
l 743 744
v 4 1.09008 1.91414
v 4 0.390291 1.1998
l 745 746
v 4 1.0924 1.91665
v 4 0.412473 1.18337
l 747 748
v 4 1.09465 1.91921
v 4 0.435102 1.16756
l 749 750
v 4 1.09683 1.92184
v 4 0.458135 1.15239
l 751 752
v 4 1.09894 1.92453
v 4 0.481594 1.13784
l 753 754
v 4 1.10098 1.92727
v 4 0.505432 1.12395
l 755 756
v 4 1.10293 1.93007
v 4 0.529695 1.11068
l 757 758
v 4 1.10481 1.93292
v 4 0.554237 1.09813
l 759 760
v 4 1.10661 1.93582
v 4 0.579156 1.08624
l 761 762
v 4 1.10833 1.93877
v 4 0.604372 1.07504
l 763 764
v 4 1.10997 1.94176
v 4 0.629884 1.06454
l 765 766
v 4 1.11153 1.9448
v 4 0.65572 1.05472
l 767 768
v 4 1.113 1.94788
v 4 0.681766 1.04564
l 769 770
v 4 1.11439 1.951
v 4 0.708079 1.03727
l 771 772
v 4 1.11569 1.95416
v 4 0.734586 1.02963
l 773 774
v 4 1.1169 1.95735
v 4 0.761327 1.0227
l 775 776
v 4 1.11803 1.96057
v 4 0.788198 1.01653
l 777 778
v 4 1.11907 1.96383
v 4 0.815269 1.01109
l 779 780
v 4 1.12002 1.96711
v 4 0.842478 1.00639
l 781 782
v 4 1.12087 1.97041
v 4 0.869794 1.00244
l 783 784
v 4 1.12164 1.97374
v 4 0.897203 0.999249
l 785 786
v 4 1.12231 1.97708
v 4 0.924727 0.996799
l 787 788
v 4 1.1229 1.98045
v 4 0.952233 0.995119
l 789 790
v 4 1.12339 1.98383
v 4 0.979849 0.994183
l 791 792
v 4 1.12378 1.98722
v 4 1.00741 0.994013
l 793 794
v 4 1.12409 1.99062
v 4 1.03505 0.994591
l 795 796
v 4 1.1243 1.99403
v 4 1.0626 0.995932
l 797 798
v 4 1.12442 1.99744
v 4 1.09013 0.998027
l 799 800
v 4 1.12444 2.00085
v 4 1.11756 1.00088
l 801 802
v 4 1.12437 2.00427
v 4 1.14497 1.00448
l 803 804
v 4 1.1242 2.00768
v 4 1.17218 1.00883
l 805 806
v 4 1.12395 2.01108
v 4 1.19933 1.01393
l 807 808
v 4 1.1236 2.01448
v 4 1.22631 1.01977
l 809 810
v 4 1.12315 2.01786
v 4 1.25311 1.02634
l 811 812
v 4 1.12262 2.02124
v 4 1.27973 1.03365
l 813 814
v 4 1.12199 2.02459
v 4 1.30614 1.04169
l 815 816
v 4 1.12127 2.02793
v 4 1.33233 1.05046
l 817 818
v 4 1.12046 2.03124
v 4 1.35822 1.05992
l 819 820
v 4 1.11955 2.03454
v 4 1.3839 1.07011
l 821 822
v 4 1.11856 2.0378
v 4 1.40923 1.08098
l 823 824
v 4 1.11748 2.04104
v 4 1.43435 1.09257
l 825 826
v 4 1.11631 2.04425
v 4 1.45902 1.10481
l 827 828
v 4 1.11505 2.04742
v 4 1.48345 1.11776
l 829 830
v 4 1.11371 2.05056
v 4 1.50744 1.13134
l 831 832
v 4 1.11228 2.05366
v 4 1.53108 1.14559
l 833 834
v 4 1.11076 2.05672
v 4 1.55434 1.16049
l 835 836
v 4 1.10916 2.05974
v 4 1.57715 1.176
l 837 838
v 4 1.10748 2.06271
v 4 1.59957 1.19217
l 839 840
v 4 1.10572 2.06564
v 4 1.62148 1.2089
l 841 842
v 4 1.10388 2.06851
v 4 1.64293 1.22624
l 843 844
v 4 1.10196 2.07134
v 4 1.66393 1.24418
l 845 846
v 4 1.09997 2.07411
v 4 1.68444 1.26269
l 847 848
v 4 1.0979 2.07682
v 4 1.70438 1.28173
l 849 850
v 4 1.09575 2.07948
v 4 1.72382 1.30132
l 851 852
v 4 1.09354 2.08208
v 4 1.74274 1.32146
l 853 854
v 4 1.09125 2.08461
v 4 1.76104 1.34206
l 855 856
v 4 1.08889 2.08708
v 4 1.77883 1.36321
l 857 858
v 4 1.08647 2.08949
v 4 1.79602 1.38483
l 859 860
v 4 1.08398 2.09183
v 4 1.81256 1.40686
l 861 862
v 4 1.08143 2.0941
v 4 1.82854 1.42939
l 863 864
v 4 1.07882 2.0963
v 4 1.84391 1.45237
l 865 866
v 4 1.07615 2.09842
v 4 1.85858 1.47569
l 867 868
v 4 1.07342 2.10047
v 4 1.87265 1.49945
l 869 870
v 4 1.07064 2.10245
v 4 1.88604 1.52356
l 871 872
v 4 1.0678 2.10435
v 4 1.8988 1.54807
l 873 874
v 4 1.06491 2.10617
v 4 1.91085 1.57289
l 875 876
v 4 1.06197 2.10791
v 4 1.92224 1.59807
l 877 878
v 4 1.05899 2.10957
v 4 1.9329 1.62349
l 879 880
v 4 1.05596 2.11115
v 4 1.94288 1.64922
l 881 882
v 4 1.05289 2.11264
v 4 1.95215 1.67523
l 883 884
v 4 1.04978 2.11405
v 4 1.96071 1.70149
l 885 886
v 4 1.04663 2.11537
v 4 1.96854 1.72795
l 887 888
v 4 1.04345 2.11661
v 4 1.97563 1.7546
l 889 890
v 4 1.04024 2.11776
v 4 1.98199 1.78146
l 891 892
v 4 1.03699 2.11882
v 4 1.98762 1.80849
l 893 894
v 4 1.03372 2.11979
v 4 1.9925 1.83564
l 895 896
v 4 1.03042 2.12067
v 4 1.99665 1.863
l 897 898
v 4 1.0271 2.12146
v 4 2.00002 1.89032
l 899 900
v 4 1.02375 2.12215
v 4 2.00266 1.91783
l 901 902
v 4 1.02039 2.12276
v 4 2.00454 1.94539
l 903 904
v 4 1.01702 2.12327
v 4 2.00565 1.97293
l 905 906
v 4 1.01363 2.12369
v 4 2.00601 2.00051
l 907 908
v 4 1.01023 2.12402
v 4 2.00562 2.02814
l 909 910
v 4 1.00683 2.12425
v 4 2.00448 2.05575
l 911 912
v 4 1.00341 2.12439
v 4 2.00256 2.0832
l 913 914
v 4 1 2.12444
v 4 1.99991 2.11075
l 915 916
v 4 -1.00341 2.12439
v 4 -0.00350758 2.13808
l 917 918
v 4 -1.00683 2.12425
v 4 -0.00767438 2.16545
l 919 920
v 4 -1.01023 2.12402
v 4 -0.0125807 2.19253
l 921 922
v 4 -1.01363 2.12369
v 4 -0.0182368 2.21957
l 923 924
v 4 -1.01702 2.12327
v 4 -0.0246339 2.24645
l 925 926
v 4 -1.02039 2.12276
v 4 -0.0317597 2.2731
l 927 928
v 4 -1.02375 2.12215
v 4 -0.0396103 2.29953
l 929 930
v 4 -1.0271 2.12146
v 4 -0.0481922 2.32578
l 931 932
v 4 -1.03042 2.12067
v 4 -0.0574976 2.35181
l 933 934
v 4 -1.03372 2.11979
v 4 -0.0674843 2.37746
l 935 936
v 4 -1.03699 2.11882
v 4 -0.0782085 2.40296
l 937 938
v 4 -1.04024 2.11776
v 4 -0.0896054 2.42808
l 939 940
v 4 -1.04345 2.11661
v 4 -0.101696 2.45291
l 941 942
v 4 -1.04663 2.11537
v 4 -0.114458 2.47738
l 943 944
v 4 -1.04978 2.11405
v 4 -0.127878 2.50147
l 945 946
v 4 -1.05289 2.11264
v 4 -0.14196 2.5252
l 947 948
v 4 -1.05596 2.11115
v 4 -0.156701 2.54856
l 949 950
v 4 -1.05899 2.10957
v 4 -0.172073 2.5715
l 951 952
v 4 -1.06197 2.10791
v 4 -0.188061 2.59399
l 953 954
v 4 -1.06491 2.10617
v 4 -0.204646 2.61602
l 955 956
v 4 -1.0678 2.10435
v 4 -0.221861 2.63763
l 957 958
v 4 -1.07064 2.10245
v 4 -0.239641 2.65873
l 959 960
v 4 -1.07342 2.10047
v 4 -0.258016 2.67937
l 961 962
v 4 -1.07615 2.09842
v 4 -0.276917 2.69944
l 963 964
v 4 -1.07882 2.0963
v 4 -0.296388 2.71903
l 965 966
v 4 -1.08143 2.0941
v 4 -0.316346 2.73802
l 967 968
v 4 -1.08398 2.09183
v 4 -0.336879 2.75653
l 969 970
v 4 -1.08647 2.08949
v 4 -0.357897 2.77446
l 971 972
v 4 -1.08889 2.08708
v 4 -0.379348 2.79174
l 973 974
v 4 -1.09125 2.08461
v 4 -0.401316 2.80848
l 975 976
v 4 -1.09354 2.08208
v 4 -0.423747 2.82463
l 977 978
v 4 -1.09575 2.07948
v 4 -0.446553 2.8401
l 979 980
v 4 -1.0979 2.07682
v 4 -0.469832 2.85498
l 981 982
v 4 -1.09997 2.07411
v 4 -0.493485 2.8692
l 983 984
v 4 -1.10196 2.07134
v 4 -0.517494 2.88275
l 985 986
v 4 -1.10388 2.06851
v 4 -0.541912 2.89567
l 987 988
v 4 -1.10572 2.06564
v 4 -0.566678 2.90792
l 989 990
v 4 -1.10748 2.06271
v 4 -0.591726 2.91945
l 991 992
v 4 -1.10916 2.05974
v 4 -0.61708 2.93029
l 993 994
v 4 -1.11076 2.05672
v 4 -0.642778 2.94046
l 995 996
v 4 -1.11228 2.05366
v 4 -0.668698 2.9499
l 997 998
v 4 -1.11371 2.05056
v 4 -0.694898 2.95864
l 999 1000
v 4 -1.11505 2.04742
v 4 -0.721321 2.96665
l 1001 1002
v 4 -1.11631 2.04425
v 4 -0.747912 2.97392
l 1003 1004
v 4 -1.11748 2.04104
v 4 -0.774771 2.98049
l 1005 1006
v 4 -1.11856 2.0378
v 4 -0.801694 2.98627
l 1007 1008
v 4 -1.11955 2.03454
v 4 -0.828882 2.99136
l 1009 1010
v 4 -1.12046 2.03124
v 4 -0.856112 2.99567
l 1011 1012
v 4 -1.12127 2.02793
v 4 -0.883499 2.99925
l 1013 1014
v 4 -1.12199 2.02459
v 4 -0.910928 3.00206
l 1015 1016
v 4 -1.12262 2.02124
v 4 -0.938467 3.00413
l 1017 1018
v 4 -1.12315 2.01786
v 4 -0.966039 3.00544
l 1019 1020
v 4 -1.1236 2.01448
v 4 -0.993642 3.006
l 1021 1022
v 4 -1.12395 2.01108
v 4 -1.02123 3.00579
l 1023 1024
v 4 -1.1242 2.00768
v 4 -1.04882 3.00483
l 1025 1026
v 4 -1.12437 2.00427
v 4 -1.0764 3.00312
l 1027 1028
v 4 -1.12444 2.00085
v 4 -1.10384 3.00064
l 1029 1030
v 4 -1.12442 1.99744
v 4 -1.13129 2.99742
l 1031 1032
v 4 -1.1243 1.99403
v 4 -1.15858 2.99344
l 1033 1034
v 4 -1.12409 1.99062
v 4 -1.18578 2.98871
l 1035 1036
v 4 -1.12378 1.98722
v 4 -1.21282 2.98325
l 1037 1038
v 4 -1.12339 1.98383
v 4 -1.23976 2.97703
l 1039 1040
v 4 -1.1229 1.98045
v 4 -1.26643 2.97009
l 1041 1042
v 4 -1.12231 1.97708
v 4 -1.29298 2.96241
l 1043 1044
v 4 -1.12164 1.97374
v 4 -1.31923 2.95402
l 1045 1046
v 4 -1.12087 1.97041
v 4 -1.34531 2.9449
l 1047 1048
v 4 -1.12002 1.96711
v 4 -1.37109 2.93507
l 1049 1050
v 4 -1.11907 1.96383
v 4 -1.39661 2.92454
l 1051 1052
v 4 -1.11803 1.96057
v 4 -1.42183 2.91331
l 1053 1054
v 4 -1.1169 1.95735
v 4 -1.44674 2.90139
l 1055 1056
v 4 -1.11569 1.95416
v 4 -1.47127 2.88881
l 1057 1058
v 4 -1.11439 1.951
v 4 -1.49549 2.87553
l 1059 1060
v 4 -1.113 1.94788
v 4 -1.51931 2.86162
l 1061 1062
v 4 -1.11153 1.9448
v 4 -1.54277 2.84704
l 1063 1064
v 4 -1.10997 1.94176
v 4 -1.56578 2.83184
l 1065 1066
v 4 -1.10833 1.93877
v 4 -1.58842 2.81599
l 1067 1068
v 4 -1.10661 1.93582
v 4 -1.61058 2.79954
l 1069 1070
v 4 -1.10481 1.93292
v 4 -1.63227 2.7825
l 1071 1072
v 4 -1.10293 1.93007
v 4 -1.65351 2.76485
l 1073 1074
v 4 -1.10098 1.92727
v 4 -1.67421 2.74666
l 1075 1076
v 4 -1.09894 1.92453
v 4 -1.69449 2.72785
l 1077 1078
v 4 -1.09683 1.92184
v 4 -1.71418 2.70853
l 1079 1080
v 4 -1.09465 1.91921
v 4 -1.73335 2.68867
l 1081 1082
v 4 -1.0924 1.91665
v 4 -1.75195 2.66831
l 1083 1084
v 4 -1.09008 1.91414
v 4 -1.77001 2.64742
l 1085 1086
v 4 -1.08769 1.91171
v 4 -1.78748 2.62605
l 1087 1088
v 4 -1.08524 1.90933
v 4 -1.80437 2.6042
l 1089 1090
v 4 -1.08272 1.90703
v 4 -1.82063 2.58192
l 1091 1092
v 4 -1.08013 1.90479
v 4 -1.8363 2.55918
l 1093 1094
v 4 -1.07749 1.90263
v 4 -1.85132 2.53603
l 1095 1096
v 4 -1.07479 1.90054
v 4 -1.8657 2.51247
l 1097 1098
v 4 -1.07204 1.89853
v 4 -1.87943 2.48854
l 1099 1100
v 4 -1.06922 1.89659
v 4 -1.89252 2.4642
l 1101 1102
v 4 -1.06636 1.89473
v 4 -1.90489 2.43959
l 1103 1104
v 4 -1.06345 1.89295
v 4 -1.91664 2.41455
l 1105 1106
v 4 -1.06049 1.89125
v 4 -1.92765 2.38928
l 1107 1108
v 4 -1.05748 1.88963
v 4 -1.93799 2.36366
l 1109 1110
v 4 -1.05443 1.88809
v 4 -1.94761 2.33781
l 1111 1112
v 4 -1.05134 1.88664
v 4 -1.95652 2.31167
l 1113 1114
v 4 -1.04821 1.88528
v 4 -1.96471 2.28532
l 1115 1116
v 4 -1.04505 1.884
v 4 -1.97217 2.25875
l 1117 1118
v 4 -1.04185 1.88281
v 4 -1.97891 2.23196
l 1119 1120
v 4 -1.03862 1.8817
v 4 -1.9849 2.20504
l 1121 1122
v 4 -1.03536 1.88069
v 4 -1.99015 2.17796
l 1123 1124
v 4 -1.03207 1.87976
v 4 -1.99467 2.1507
l 1125 1126
v 4 -1.02876 1.87893
v 4 -1.99842 2.12337
l 1127 1128
v 4 -1.02543 1.87818
v 4 -2.00144 2.09591
l 1129 1130
v 4 -1.02208 1.87753
v 4 -2.00369 2.06841
l 1131 1132
v 4 -1.01871 1.87697
v 4 -2.00519 2.04087
l 1133 1134
v 4 -1.01533 1.87651
v 4 -2.00593 2.01327
l 1135 1136
v 4 -1.01193 1.87613
v 4 -2.00592 1.98566
l 1137 1138
v 4 -1.00853 1.87585
v 4 -2.00515 1.95804
l 1139 1140
v 4 -1.00512 1.87566
v 4 -2.00361 1.93052
l 1141 1142
v 4 -1.00171 1.87557
v 4 -2.00133 1.90301
l 1143 1144
v 4 -0.998293 1.87557
v 4 -1.99829 1.87557
l 1145 1146
v 4 -0.99488 1.87566
v 4 -1.9945 1.84822
l 1147 1148
v 4 -0.991471 1.87585
v 4 -1.98997 1.821
l 1149 1150
v 4 -0.988068 1.87613
v 4 -1.98468 1.79394
l 1151 1152
v 4 -0.984674 1.87651
v 4 -1.97866 1.76698
l 1153 1154
v 4 -0.981292 1.87697
v 4 -1.9719 1.74021
l 1155 1156
v 4 -0.977924 1.87753
v 4 -1.9644 1.71364
l 1157 1158
v 4 -0.974573 1.87818
v 4 -1.95619 1.6873
l 1159 1160
v 4 -0.97124 1.87893
v 4 -1.94725 1.66119
l 1161 1162
v 4 -0.96793 1.87976
v 4 -1.93759 1.63532
l 1163 1164
v 4 -0.964643 1.88069
v 4 -1.92724 1.60974
l 1165 1166
v 4 -0.961383 1.8817
v 4 -1.91618 1.58443
l 1167 1168
v 4 -0.958152 1.88281
v 4 -1.90443 1.55946
l 1169 1170
v 4 -0.954953 1.884
v 4 -1.89202 1.53485
l 1171 1172
v 4 -0.951787 1.88528
v 4 -1.87891 1.51053
l 1173 1174
v 4 -0.948658 1.88664
v 4 -1.86515 1.48659
l 1175 1176
v 4 -0.945568 1.88809
v 4 -1.85075 1.46307
l 1177 1178
v 4 -0.942518 1.88963
v 4 -1.83569 1.43992
l 1179 1180
v 4 -0.939512 1.89125
v 4 -1.82002 1.41721
l 1181 1182
v 4 -0.936551 1.89295
v 4 -1.80371 1.39492
l 1183 1184
v 4 -0.933638 1.89473
v 4 -1.78682 1.37312
l 1185 1186
v 4 -0.930775 1.89659
v 4 -1.76932 1.35175
l 1187 1188
v 4 -0.927964 1.89853
v 4 -1.75125 1.33091
l 1189 1190
v 4 -0.925208 1.90054
v 4 -1.73259 1.31052
l 1191 1192
v 4 -0.922507 1.90263
v 4 -1.71342 1.29071
l 1193 1194
v 4 -0.919865 1.90479
v 4 -1.69369 1.2714
l 1195 1196
v 4 -0.917284 1.90703
v 4 -1.67345 1.25264
l 1197 1198
v 4 -0.914764 1.90933
v 4 -1.65268 1.23444
l 1199 1200
v 4 -0.912309 1.91171
v 4 -1.63145 1.21684
l 1201 1202
v 4 -0.90992 1.91414
v 4 -1.6097 1.19979
l 1203 1204
v 4 -0.907598 1.91665
v 4 -1.58753 1.18337
l 1205 1206
v 4 -0.905346 1.91921
v 4 -1.56491 1.16756
l 1207 1208
v 4 -0.903165 1.92184
v 4 -1.54185 1.15238
l 1209 1210
v 4 -0.901058 1.92453
v 4 -1.51841 1.13784
l 1211 1212
v 4 -0.899024 1.92727
v 4 -1.49456 1.12394
l 1213 1214
v 4 -0.897067 1.93007
v 4 -1.47033 1.11069
l 1215 1216
v 4 -0.895187 1.93292
v 4 -1.44576 1.09813
l 1217 1218
v 4 -0.893386 1.93582
v 4 -1.42083 1.08623
l 1219 1220
v 4 -0.891666 1.93877
v 4 -1.39563 1.07504
l 1221 1222
v 4 -0.890027 1.94176
v 4 -1.3701 1.06454
l 1223 1224
v 4 -0.88847 1.9448
v 4 -1.34428 1.05472
l 1225 1226
v 4 -0.886998 1.94788
v 4 -1.31823 1.04564
l 1227 1228
v 4 -0.885611 1.951
v 4 -1.29194 1.03727
l 1229 1230
v 4 -0.88431 1.95416
v 4 -1.26541 1.02963
l 1231 1232
v 4 -0.883096 1.95735
v 4 -1.23869 1.02271
l 1233 1234
v 4 -0.88197 1.96057
v 4 -1.21177 1.01652
l 1235 1236
v 4 -0.880932 1.96383
v 4 -1.18473 1.01109
l 1237 1238
v 4 -0.879985 1.96711
v 4 -1.15752 1.00639
l 1239 1240
v 4 -0.879127 1.97041
v 4 -1.13022 1.00245
l 1241 1242
v 4 -0.878361 1.97374
v 4 -1.10278 0.999245
l 1243 1244
v 4 -0.877686 1.97708
v 4 -1.07531 0.996806
l 1245 1246
v 4 -0.877104 1.98045
v 4 -1.04775 0.995116
l 1247 1248
v 4 -0.876614 1.98383
v 4 -1.02017 0.994185
l 1249 1250
v 4 -0.876216 1.98722
v 4 -0.992551 0.994009
l 1251 1252
v 4 -0.875912 1.99062
v 4 -0.964964 0.994592
l 1253 1254
v 4 -0.875702 1.99403
v 4 -0.937398 0.995932
l 1255 1256
v 4 -0.875585 1.99744
v 4 -0.909871 0.998027
l 1257 1258
v 4 -0.875561 2.00085
v 4 -0.882422 1.00088
l 1259 1260
v 4 -0.875632 2.00427
v 4 -0.855067 1.00448
l 1261 1262
v 4 -0.875795 2.00768
v 4 -0.827787 1.00883
l 1263 1264
v 4 -0.876053 2.01108
v 4 -0.800667 1.01393
l 1265 1266
v 4 -0.876403 2.01448
v 4 -0.773703 1.01977
l 1267 1268
v 4 -0.876847 2.01786
v 4 -0.746893 1.02634
l 1269 1270
v 4 -0.877384 2.02124
v 4 -0.72027 1.03365
l 1271 1272
v 4 -0.878012 2.02459
v 4 -0.693863 1.04169
l 1273 1274
v 4 -0.878733 2.02793
v 4 -0.66769 1.05045
l 1275 1276
v 4 -0.879545 2.03124
v 4 -0.641777 1.05992
l 1277 1278
v 4 -0.880447 2.03454
v 4 -0.616104 1.07011
l 1279 1280
v 4 -0.88144 2.0378
v 4 -0.590737 1.08099
l 1281 1282
v 4 -0.882521 2.04104
v 4 -0.565686 1.09256
l 1283 1284
v 4 -0.883692 2.04425
v 4 -0.540969 1.10481
l 1285 1286
v 4 -0.884949 2.04742
v 4 -0.516568 1.11775
l 1287 1288
v 4 -0.886294 2.05056
v 4 -0.492549 1.13134
l 1289 1290
v 4 -0.887724 2.05366
v 4 -0.468916 1.14559
l 1291 1292
v 4 -0.889238 2.05672
v 4 -0.445646 1.16049
l 1293 1294
v 4 -0.890836 2.05974
v 4 -0.422866 1.176
l 1295 1296
v 4 -0.892516 2.06271
v 4 -0.400432 1.19217
l 1297 1298
v 4 -0.894277 2.06564
v 4 -0.378519 1.2089
l 1299 1300
v 4 -0.896117 2.06851
v 4 -0.357073 1.22624
l 1301 1302
v 4 -0.898036 2.07134
v 4 -0.336053 1.24419
l 1303 1304
v 4 -0.900032 2.07411
v 4 -0.315584 1.26268
l 1305 1306
v 4 -0.902102 2.07682
v 4 -0.295608 1.28173
l 1307 1308
v 4 -0.904247 2.07948
v 4 -0.276192 1.30131
l 1309 1310
v 4 -0.906463 2.08208
v 4 -0.257253 1.32147
l 1311 1312
v 4 -0.90875 2.08461
v 4 -0.23896 1.34206
l 1313 1314
v 4 -0.911106 2.08708
v 4 -0.221172 1.36321
l 1315 1316
v 4 -0.913528 2.08949
v 4 -0.20399 1.38482
l 1317 1318
v 4 -0.916016 2.09183
v 4 -0.187433 1.40687
l 1319 1320
v 4 -0.918567 2.0941
v 4 -0.171462 1.42939
l 1321 1322
v 4 -0.921179 2.0963
v 4 -0.156092 1.45237
l 1323 1324
v 4 -0.92385 2.09842
v 4 -0.141417 1.47569
l 1325 1326
v 4 -0.926579 2.10047
v 4 -0.127353 1.49944
l 1327 1328
v 4 -0.929363 2.10245
v 4 -0.113952 1.52357
l 1329 1330
v 4 -0.9322 2.10435
v 4 -0.101199 1.54808
l 1331 1332
v 4 -0.935089 2.10617
v 4 -0.0891553 1.57288
l 1333 1334
v 4 -0.938026 2.10791
v 4 -0.0777558 1.59807
l 1335 1336
v 4 -0.94101 2.10957
v 4 -0.0671002 1.62348
l 1337 1338
v 4 -0.944038 2.11115
v 4 -0.0571169 1.64923
l 1339 1340
v 4 -0.947108 2.11264
v 4 -0.0478496 1.67522
l 1341 1342
v 4 -0.950218 2.11405
v 4 -0.0392887 1.70149
l 1343 1344
v 4 -0.953366 2.11537
v 4 -0.0314624 1.72795
l 1345 1346
v 4 -0.956548 2.11661
v 4 -0.0243699 1.75461
l 1347 1348
v 4 -0.959764 2.11776
v 4 -0.0180085 1.78146
l 1349 1350
v 4 -0.96301 2.11882
v 4 -0.0123789 1.80849
l 1351 1352
v 4 -0.966283 2.11979
v 4 -0.00749982 1.83565
l 1353 1354
v 4 -0.969582 2.12067
v 4 -0.00335062 1.86299
l 1355 1356
v 4 -0.972904 2.12146
v 4 1.73838e-05 1.89032
l 1357 1358
v 4 -0.976246 2.12215
v 4 0.00265711 1.91783
l 1359 1360
v 4 -0.979606 2.12276
v 4 0.00453795 1.94539
l 1361 1362
v 4 -0.982982 2.12327
v 4 0.00565211 1.97293
l 1363 1364
v 4 -0.98637 2.12369
v 4 0.00601423 2.00051
l 1365 1366
v 4 -0.989768 2.12402
v 4 0.00562477 2.02814
l 1367 1368
v 4 -0.993175 2.12425
v 4 0.00447619 2.05575
l 1369 1370
v 4 -0.996586 2.12439
v 4 0.00256487 2.0832
l 1371 1372
v 4 -1 2.12444
v 4 -9.3669e-05 2.11075
l 1373 1374
v 4 -0.00196304 2.07153
v 4 0.997943 2.08525
l 1375 1376
v 4 1.75259e-17 2.07156
v 4 0.999906 2.05783
l 1377 1378
v 4 -0.00392461 2.07145
v 4 0.995228 2.11262
l 1379 1380
v 4 -0.00588322 2.07131
v 4 0.99176 2.13993
l 1381 1382
v 4 -0.00783741 2.07112
v 4 0.987561 2.16694
l 1383 1384
v 4 -0.00978569 2.07088
v 4 0.982603 2.19403
l 1385 1386
v 4 -0.0117266 2.07059
v 4 0.976907 2.22093
l 1387 1388
v 4 -0.0136587 2.07024
v 4 0.970475 2.24767
l 1389 1390
v 4 -0.0155805 2.06984
v 4 0.96331 2.27422
l 1391 1392
v 4 -0.0174906 2.06938
v 4 0.955438 2.30049
l 1393 1394
v 4 -0.0193875 2.06888
v 4 0.946837 2.32658
l 1395 1396
v 4 -0.0212698 2.06832
v 4 0.937537 2.35238
l 1397 1398
v 4 -0.0231361 2.06771
v 4 0.927471 2.37811
l 1399 1400
v 4 -0.024985 2.06705
v 4 0.916779 2.40333
l 1401 1402
v 4 -0.0268151 2.06634
v 4 0.905398 2.42825
l 1403 1404
v 4 -0.028625 2.06558
v 4 0.893241 2.45309
l 1405 1406
v 4 -0.0304133 2.06477
v 4 0.880524 2.47732
l 1407 1408
v 4 -0.0321788 2.06391
v 4 0.867074 2.50134
l 1409 1410
v 4 -0.03392 2.063
v 4 0.853033 2.52486
l 1411 1412
v 4 -0.0356357 2.06205
v 4 0.838257 2.54817
l 1413 1414
v 4 -0.0373246 2.06105
v 4 0.822952 2.57088
l 1415 1416
v 4 -0.0389854 2.06
v 4 0.806912 2.59335
l 1417 1418
v 4 -0.0406168 2.05891
v 4 0.790412 2.61514
l 1419 1420
v 4 -0.0422177 2.05777
v 4 0.773181 2.63667
l 1421 1422
v 4 -0.0437867 2.05659
v 4 0.755448 2.65761
l 1423 1424
v 4 -0.0453229 2.05537
v 4 0.737104 2.67811
l 1425 1426
v 4 -0.0468248 2.05411
v 4 0.718272 2.69802
l 1427 1428
v 4 -0.0482916 2.0528
v 4 0.698782 2.71754
l 1429 1430
v 4 -0.049722 2.05146
v 4 0.678878 2.7364
l 1431 1432
v 4 -0.051115 2.05007
v 4 0.658448 2.75472
l 1433 1434
v 4 -0.0524694 2.04865
v 4 0.63744 2.77255
l 1435 1436
v 4 -0.0537844 2.04719
v 4 0.616043 2.78971
l 1437 1438
v 4 -0.0550589 2.0457
v 4 0.594086 2.80637
l 1439 1440
v 4 -0.056292 2.04417
v 4 0.571819 2.8223
l 1441 1442
v 4 -0.0574827 2.04261
v 4 0.549014 2.8377
l 1443 1444
v 4 -0.0586301 2.04102
v 4 0.525798 2.85247
l 1445 1446
v 4 -0.0597334 2.0394
v 4 0.502244 2.86655
l 1447 1448
v 4 -0.0607917 2.03774
v 4 0.478248 2.88002
l 1449 1450
v 4 -0.0618042 2.03606
v 4 0.453989 2.89277
l 1451 1452
v 4 -0.0627702 2.03435
v 4 0.429266 2.90493
l 1453 1454
v 4 -0.063689 2.03262
v 4 0.4043 2.91635
l 1455 1456
v 4 -0.0645598 2.03086
v 4 0.37901 2.9271
l 1457 1458
v 4 -0.0653821 2.02907
v 4 0.353452 2.93714
l 1459 1460
v 4 -0.0661551 2.02727
v 4 0.327599 2.94649
l 1461 1462
v 4 -0.0668783 2.02544
v 4 0.301472 2.95513
l 1463 1464
v 4 -0.0675512 2.0236
v 4 0.27521 2.96302
l 1465 1466
v 4 -0.0681732 2.02174
v 4 0.248667 2.97022
l 1467 1468
v 4 -0.0687439 2.01986
v 4 0.221943 2.97668
l 1469 1470
v 4 -0.0692628 2.01797
v 4 0.195059 2.9824
l 1471 1472
v 4 -0.0697296 2.01606
v 4 0.168052 2.98738
l 1473 1474
v 4 -0.070144 2.01414
v 4 0.140897 2.99162
l 1475 1476
v 4 -0.0705055 2.01221
v 4 0.113651 2.99511
l 1477 1478
v 4 -0.0708139 2.01027
v 4 0.0862813 2.99786
l 1479 1480
v 4 -0.0710691 2.00833
v 4 0.0589014 2.99984
l 1481 1482
v 4 -0.0712707 2.00637
v 4 0.0314331 3.00108
l 1483 1484
v 4 -0.0714187 2.00441
v 4 0.0039622 3.00157
l 1485 1486
v 4 -0.0715129 2.00245
v 4 -0.0235136 3.0013
l 1487 1488
v 4 -0.0715533 2.00049
v 4 -0.0509749 3.00028
l 1489 1490
v 4 -0.0715399 1.99853
v 4 -0.0784011 2.9985
l 1491 1492
v 4 -0.0714726 1.99657
v 4 -0.105761 2.99598
l 1493 1494
v 4 -0.0713514 1.99461
v 4 -0.133045 2.9927
l 1495 1496
v 4 -0.0711766 1.99265
v 4 -0.160233 2.98868
l 1497 1498
v 4 -0.0709482 1.9907
v 4 -0.187293 2.98391
l 1499 1500
v 4 -0.0706664 1.98876
v 4 -0.214216 2.9784
l 1501 1502
v 4 -0.0703313 1.98682
v 4 -0.240979 2.97216
l 1503 1504
v 4 -0.0699434 1.9849
v 4 -0.267556 2.96518
l 1505 1506
v 4 -0.0695028 1.98299
v 4 -0.293927 2.95748
l 1507 1508
v 4 -0.0690099 1.98109
v 4 -0.320094 2.94905
l 1509 1510
v 4 -0.068465 1.9792
v 4 -0.346002 2.93991
l 1511 1512
v 4 -0.0678686 1.97733
v 4 -0.371671 2.93006
l 1513 1514
v 4 -0.0672211 1.97548
v 4 -0.397043 2.91952
l 1515 1516
v 4 -0.0665229 1.97364
v 4 -0.422101 2.90829
l 1517 1518
v 4 -0.0657748 1.97183
v 4 -0.446873 2.89636
l 1519 1520
v 4 -0.0649771 1.97003
v 4 -0.471296 2.88376
l 1521 1522
v 4 -0.0641305 1.96826
v 4 -0.495358 2.8705
l 1523 1524
v 4 -0.0632356 1.96651
v 4 -0.519066 2.85658
l 1525 1526
v 4 -0.0622931 1.96479
v 4 -0.54236 2.84202
l 1527 1528
v 4 -0.0613037 1.9631
v 4 -0.565273 2.82682
l 1529 1530
v 4 -0.0602682 1.96143
v 4 -0.587716 2.81101
l 1531 1532
v 4 -0.0591873 1.95979
v 4 -0.609756 2.79458
l 1533 1534
v 4 -0.0580618 1.95818
v 4 -0.631326 2.77755
l 1535 1536
v 4 -0.0568927 1.9566
v 4 -0.652418 2.75994
l 1537 1538
v 4 -0.0556807 1.95506
v 4 -0.673019 2.74176
l 1539 1540
v 4 -0.0544268 1.95355
v 4 -0.693122 2.72301
l 1541 1542
v 4 -0.0531319 1.95207
v 4 -0.712715 2.7037
l 1543 1544
v 4 -0.0517971 1.95063
v 4 -0.731703 2.68393
l 1545 1546
v 4 -0.0504232 1.94923
v 4 -0.750229 2.66356
l 1547 1548
v 4 -0.0490114 1.94787
v 4 -0.768132 2.64275
l 1549 1550
v 4 -0.0475627 1.94654
v 4 -0.785501 2.62141
l 1551 1552
v 4 -0.0460782 1.94526
v 4 -0.802235 2.59965
l 1553 1554
v 4 -0.044559 1.94401
v 4 -0.818363 2.57744
l 1555 1556
v 4 -0.0430062 1.94281
v 4 -0.83394 2.55471
l 1557 1558
v 4 -0.0414211 1.94165
v 4 -0.848811 2.53167
l 1559 1560
v 4 -0.0398048 1.94054
v 4 -0.863093 2.50816
l 1561 1562
v 4 -0.0381586 1.93947
v 4 -0.876696 2.48431
l 1563 1564
v 4 -0.0364836 1.93844
v 4 -0.889673 2.46005
l 1565 1566
v 4 -0.0347812 1.93747
v 4 -0.901941 2.4355
l 1567 1568
v 4 -0.0330525 1.93654
v 4 -0.913552 2.41058
l 1569 1570
v 4 -0.031299 1.93565
v 4 -0.924478 2.38535
l 1571 1572
v 4 -0.0295219 1.93482
v 4 -0.934694 2.35986
l 1573 1574
v 4 -0.0259025 1.9333
v 4 -0.953021 2.30806
l 1575 1576
v 4 -0.0277227 1.93403
v 4 -0.944224 2.33407
l 1577 1578
v 4 -0.0240628 1.93261
v 4 -0.96113 2.28176
l 1579 1580
v 4 -0.0222051 1.93198
v 4 -0.968488 2.25532
l 1581 1582
v 4 -0.0203306 1.93139
v 4 -0.975136 2.22863
l 1583 1584
v 4 -0.0184408 1.93086
v 4 -0.981038 2.2018
l 1585 1586
v 4 -0.0165371 1.93038
v 4 -0.986196 2.17484
l 1587 1588
v 4 -0.014621 1.92995
v 4 -0.990627 2.1477
l 1589 1590
v 4 -0.0126938 1.92958
v 4 -0.994314 2.12043
l 1591 1592
v 4 -0.0107572 1.92926
v 4 -0.997236 2.09314
l 1593 1594
v 4 -0.00881238 1.92899
v 4 -0.999411 2.06579
l 1595 1596
v 4 -0.00686096 1.92877
v 4 -1.00085 2.03826
l 1597 1598
v 4 -0.00490438 1.92861
v 4 -1.00152 2.01083
l 1599 1600
v 4 -0.0029441 1.92851
v 4 -1.00144 1.9834
l 1601 1602
v 4 -0.000981614 1.92845
v 4 -1.0006 1.9559
l 1603 1604
v 4 0.000981614 1.92845
v 4 -0.999018 1.92845
l 1605 1606
v 4 0.0029441 1.92851
v 4 -0.996679 1.90106
l 1607 1608
v 4 0.00490438 1.92861
v 4 -0.993588 1.87372
l 1609 1610
v 4 0.00686096 1.92877
v 4 -0.989754 1.84656
l 1611 1612
v 4 0.00881238 1.92899
v 4 -0.985177 1.81951
l 1613 1614
v 4 0.0107572 1.92926
v 4 -0.979841 1.79245
l 1615 1616
v 4 0.0126938 1.92958
v 4 -0.973785 1.76569
l 1617 1618
v 4 0.014621 1.92995
v 4 -0.966999 1.73911
l 1619 1620
v 4 0.0165371 1.93038
v 4 -0.959468 1.71264
l 1621 1622
v 4 0.0184408 1.93086
v 4 -0.951218 1.6864
l 1623 1624
v 4 0.0203306 1.93139
v 4 -0.942266 1.66046
l 1625 1626
v 4 0.0222051 1.93198
v 4 -0.9326 1.63475
l 1627 1628
v 4 0.0240628 1.93261
v 4 -0.92222 1.60927
l 1629 1630
v 4 0.0259025 1.9333
v 4 -0.911165 1.58415
l 1631 1632
v 4 0.0277227 1.93403
v 4 -0.899396 1.55927
l 1633 1634
v 4 0.0295219 1.93482
v 4 -0.886979 1.53479
l 1635 1636
v 4 0.031299 1.93565
v 4 -0.873873 1.51061
l 1637 1638
v 4 0.0330525 1.93654
v 4 -0.860126 1.48683
l 1639 1640
v 4 0.0347812 1.93747
v 4 -0.845718 1.46342
l 1641 1642
v 4 0.0364836 1.93844
v 4 -0.830676 1.44041
l 1643 1644
v 4 0.0381586 1.93947
v 4 -0.815031 1.41787
l 1645 1646
v 4 0.0398048 1.94054
v 4 -0.798732 1.39569
l 1647 1648
v 4 0.0414211 1.94165
v 4 -0.781867 1.37403
l 1649 1650
v 4 0.0430062 1.94281
v 4 -0.764383 1.35279
l 1651 1652
v 4 0.044559 1.94401
v 4 -0.746374 1.33211
l 1653 1654
v 4 0.0460782 1.94526
v 4 -0.727726 1.31183
l 1655 1656
v 4 0.0475627 1.94654
v 4 -0.708594 1.29215
l 1657 1658
v 4 0.0490114 1.94787
v 4 -0.688927 1.273
l 1659 1660
v 4 0.0504232 1.94923
v 4 -0.668697 1.25434
l 1661 1662
v 4 0.0517971 1.95063
v 4 -0.648009 1.2363
l 1663 1664
v 4 0.0531319 1.95207
v 4 -0.626774 1.21877
l 1665 1666
v 4 0.0544268 1.95355
v 4 -0.605156 1.20192
l 1667 1668
v 4 0.0556807 1.95506
v 4 -0.583014 1.1856
l 1669 1670
v 4 0.0568927 1.9566
v 4 -0.560446 1.1699
l 1671 1672
v 4 0.0580618 1.95818
v 4 -0.537463 1.15484
l 1673 1674
v 4 0.0591873 1.95979
v 4 -0.514077 1.14042
l 1675 1676
v 4 0.0602682 1.96143
v 4 -0.490301 1.12664
l 1677 1678
v 4 0.0613037 1.9631
v 4 -0.466144 1.11351
l 1679 1680
v 4 0.0622931 1.96479
v 4 -0.441676 1.10107
l 1681 1682
v 4 0.0632356 1.96651
v 4 -0.416832 1.08928
l 1683 1684
v 4 0.0641305 1.96826
v 4 -0.3917 1.07819
l 1685 1686
v 4 0.0649771 1.97003
v 4 -0.366251 1.06779
l 1687 1688
v 4 0.0657748 1.97183
v 4 -0.340544 1.05809
l 1689 1690
v 4 0.0665229 1.97364
v 4 -0.314576 1.04911
l 1691 1692
v 4 0.0672211 1.97548
v 4 -0.288357 1.04083
l 1693 1694
v 4 0.0678686 1.97733
v 4 -0.261954 1.03329
l 1695 1696
v 4 0.068465 1.9792
v 4 -0.235337 1.02646
l 1697 1698
v 4 0.0690099 1.98109
v 4 -0.208527 1.02037
l 1699 1700
v 4 0.0695028 1.98299
v 4 -0.181582 1.01502
l 1701 1702
v 4 0.0699434 1.9849
v 4 -0.154481 1.01041
l 1703 1704
v 4 0.0703313 1.98682
v 4 -0.127281 1.00654
l 1705 1706
v 4 0.0706664 1.98876
v 4 -0.0999808 1.00343
l 1707 1708
v 4 0.0709482 1.9907
v 4 -0.0726018 1.00106
l 1709 1710
v 4 0.0711766 1.99265
v 4 -0.0451681 0.999442
l 1711 1712
v 4 0.0713514 1.99461
v 4 -0.0177053 0.998579
l 1713 1714
v 4 0.0714726 1.99657
v 4 0.00977849 0.99847
l 1715 1716
v 4 0.0715399 1.99853
v 4 0.0372513 0.999116
l 1717 1718
v 4 0.0715533 2.00049
v 4 0.0646921 1.00051
l 1719 1720
v 4 0.0715129 2.00245
v 4 0.0920914 1.00267
l 1721 1722
v 4 0.0714187 2.00441
v 4 0.119418 1.00557
l 1723 1724
v 4 0.0712707 2.00637
v 4 0.146652 1.00922
l 1725 1726
v 4 0.0710691 2.00833
v 4 0.173773 1.01361
l 1727 1728
v 4 0.0708139 2.01027
v 4 0.200784 1.01875
l 1729 1730
v 4 0.0705055 2.01221
v 4 0.227601 1.02463
l 1731 1732
v 4 0.070144 2.01414
v 4 0.254301 1.03124
l 1733 1734
v 4 0.0697296 2.01606
v 4 0.280771 1.03858
l 1735 1736
v 4 0.0692628 2.01797
v 4 0.307045 1.04665
l 1737 1738
v 4 0.0687439 2.01986
v 4 0.333066 1.05542
l 1739 1740
v 4 0.0681732 2.02174
v 4 0.35886 1.06492
l 1741 1742
v 4 0.0675512 2.0236
v 4 0.384391 1.07512
l 1743 1744
v 4 0.0668783 2.02544
v 4 0.409639 1.08602
l 1745 1746
v 4 0.0661551 2.02727
v 4 0.434505 1.09758
l 1747 1748
v 4 0.0653821 2.02907
v 4 0.459136 1.10986
l 1749 1750
v 4 0.0645598 2.03086
v 4 0.483394 1.12279
l 1751 1752
v 4 0.063689 2.03262
v 4 0.507259 1.13638
l 1753 1754
v 4 0.0627702 2.03435
v 4 0.530759 1.15062
l 1755 1756
v 4 0.0618042 2.03606
v 4 0.55384 1.16549
l 1757 1758
v 4 0.0607917 2.03774
v 4 0.576585 1.18103
l 1759 1760
v 4 0.0597334 2.0394
v 4 0.598773 1.19712
l 1761 1762
v 4 0.0586301 2.04102
v 4 0.620607 1.21387
l 1763 1764
v 4 0.0574827 2.04261
v 4 0.64191 1.23117
l 1765 1766
v 4 0.056292 2.04417
v 4 0.662789 1.24909
l 1767 1768
v 4 0.0550589 2.0457
v 4 0.68317 1.26758
l 1769 1770
v 4 0.0537844 2.04719
v 4 0.702929 1.28653
l 1771 1772
v 4 0.0524694 2.04865
v 4 0.722297 1.30614
l 1773 1774
v 4 0.051115 2.05007
v 4 0.741025 1.32618
l 1775 1776
v 4 0.0482916 2.0528
v 4 0.776892 1.36786
l 1777 1778
v 4 0.049722 2.05146
v 4 0.759285 1.34681
l 1779 1780
v 4 0.0468248 2.05411
v 4 0.793898 1.38937
l 1781 1782
v 4 0.0453229 2.05537
v 4 0.81042 1.41146
l 1783 1784
v 4 0.0437867 2.05659
v 4 0.826213 1.43385
l 1785 1786
v 4 0.0422177 2.05777
v 4 0.841453 1.45676
l 1787 1788
v 4 0.0406168 2.05891
v 4 0.856015 1.48001
l 1789 1790
v 4 0.0389854 2.06
v 4 0.870014 1.50377
l 1791 1792
v 4 0.0373246 2.06105
v 4 0.883222 1.5277
l 1793 1794
v 4 0.0356357 2.06205
v 4 0.895912 1.55222
l 1795 1796
v 4 0.03392 2.063
v 4 0.907812 1.57689
l 1797 1798
v 4 0.0321788 2.06391
v 4 0.919131 1.60205
l 1799 1800
v 4 0.0304133 2.06477
v 4 0.929666 1.62734
l 1801 1802
v 4 0.028625 2.06558
v 4 0.939562 1.65303
l 1803 1804
v 4 0.0268151 2.06634
v 4 0.948681 1.67883
l 1805 1806
v 4 0.024985 2.06705
v 4 0.957198 1.70514
l 1807 1808
v 4 0.0231361 2.06771
v 4 0.9649 1.73144
l 1809 1810
v 4 0.0212698 2.06832
v 4 0.971877 1.75792
l 1811 1812
v 4 0.0193875 2.06888
v 4 0.978194 1.78482
l 1813 1814
v 4 0.0174906 2.06938
v 4 0.983715 1.81168
l 1815 1816
v 4 0.0155805 2.06984
v 4 0.988509 1.83873
l 1817 1818
v 4 0.0136587 2.07024
v 4 0.992549 1.86585
l 1819 1820
v 4 0.0117266 2.07059
v 4 0.995861 1.89316
l 1821 1822
v 4 0.00978569 2.07088
v 4 0.998419 1.92054
l 1823 1824
v 4 0.00783741 2.07112
v 4 1.00023 1.94798
l 1825 1826
v 4 0.00588322 2.07131
v 4 1.00128 1.97549
l 1827 1828
v 4 0.00392461 2.07145
v 4 1.00157 2.00283
l 1829 1830
v 4 0.00196304 2.07153
v 4 1.00112 2.03036
l 1831 1832
v 2.125 -0.875183 2.00677
v 2.12464 -0.834406 1.0076
l 1833 1834
v 2.125 -0.875047 2.00342
v 2.15528 -0.847797 1.00425
l 1835 1836
v 2.12498 0.124983 2.00205
v 2.13322 0.1332 1.00212
l 1837 1838
v 2.125 -0.125 2
v 2.11613 -0.116082 2.99992
l 1839 1840
v 2.12493 0.124932 2.00411
v 2.14953 0.149577 1.00471
l 1841 1842
v 2.12485 0.124848 2.00617
v 2.16595 0.165928 1.00786
l 1843 1844
v 2.12498 -0.12498 2.00223
v 2.09815 -0.0982351 3.00151
l 1845 1846
v 2.12473 0.124729 2.00823
v 2.18219 0.182237 1.01154
l 1847 1848
v 2.12458 0.124576 2.01029
v 2.19845 0.198435 1.01576
l 1849 1850
v 2.12492 -0.12492 2.00446
v 2.08038 -0.0803868 3.00247
l 1851 1852
v 2.12482 -0.124821 2.00669
v 2.0626 -0.0625404 3.0028
l 1853 1854
v 2.12439 0.124389 2.01234
v 2.21463 0.214543 1.02051
l 1855 1856
v 2.12468 -0.124682 2.00891
v 2.04475 -0.0447613 3.0025
l 1857 1858
v 2.12417 0.124169 2.01439
v 2.23045 0.230494 1.02576
l 1859 1860
v 2.12391 0.123914 2.01644
v 2.2463 0.246321 1.03153
l 1861 1862
v 2.1245 -0.124503 2.01113
v 2.02702 -0.0270157 3.00159
l 1863 1864
v 2.12428 -0.124285 2.01335
v 2.00935 -0.0093584 3.00006
l 1865 1866
v 2.12363 0.123626 2.01848
v 2.262 0.261983 1.03782
l 1867 1868
v 2.1233 0.123304 2.02052
v 2.27746 0.277459 1.04457
l 1869 1870
v 2.12403 -0.124027 2.01557
v 1.99186 0.00818567 2.99794
l 1871 1872
v 2.12295 0.122949 2.02255
v 2.29275 0.292742 1.05181
l 1873 1874
v 2.12373 -0.123729 2.01778
v 1.97434 0.0256149 2.99521
l 1875 1876
v 2.12339 -0.123393 2.01998
v 1.95711 0.0429171 2.99193
l 1877 1878
v 2.12256 0.12256 2.02458
v 2.30778 0.307827 1.0595
l 1879 1880
v 2.12209 0.122088 2.02682
v 2.3235 0.32349 1.06825
l 1881 1882
v 2.12302 -0.123017 2.02218
v 1.93989 0.060053 2.98807
l 1883 1884
v 2.1226 -0.122601 2.02437
v 1.92302 0.076984 2.98371
l 1885 1886
v 2.12152 0.121517 2.0293
v 2.34063 0.340579 1.07851
l 1887 1888
v 2.12215 -0.122147 2.02655
v 1.90622 0.0937828 2.97879
l 1889 1890
v 2.12089 0.120894 2.03177
v 2.35823 0.358238 1.08979
l 1891 1892
v 2.12022 0.120222 2.03423
v 2.37545 0.375502 1.10166
l 1893 1894
v 2.12165 -0.121654 2.02873
v 1.88973 0.11032 2.9734
l 1895 1896
v 2.12112 -0.121122 2.03089
v 1.87333 0.126682 2.96748
l 1897 1898
v 2.1195 0.119499 2.03667
v 2.39237 0.392366 1.11413
l 1899 1900
v 2.12055 -0.120552 2.03305
v 1.8572 0.142793 2.96111
l 1901 1902
v 2.11873 0.118727 2.0391
v 2.40881 0.408808 1.12712
l 1903 1904
v 2.11994 -0.119943 2.03519
v 1.84134 0.15867 2.9543
l 1905 1906
v 2.1193 -0.119296 2.03733
v 1.82563 0.174289 2.94704
l 1907 1908
v 2.11791 0.117906 2.04151
v 2.42483 0.424805 1.14062
l 1909 1910
v 2.11704 0.117036 2.0439
v 2.44035 0.44036 1.15456
l 1911 1912
v 2.11861 -0.118612 2.03945
v 1.81038 0.189674 2.93942
l 1913 1914
v 2.11612 0.116117 2.04628
v 2.45546 0.455451 1.16896
l 1915 1916
v 2.11789 -0.117889 2.04156
v 1.79524 0.204755 2.93139
l 1917 1918
v 2.11713 -0.117129 2.04366
v 1.78045 0.219572 2.92302
l 1919 1920
v 2.11515 0.11515 2.04864
v 2.47013 0.470133 1.18378
l 1921 1922
v 2.11633 -0.116332 2.04574
v 1.76584 0.234111 2.91427
l 1923 1924
v 2.11414 0.114135 2.05097
v 2.48429 0.484261 1.19892
l 1925 1926
v 2.11307 0.113073 2.05329
v 2.49798 0.498011 1.21444
l 1927 1928
v 2.1155 -0.115497 2.04781
v 1.75166 0.248395 2.90525
l 1929 1930
v 2.11463 -0.114626 2.04986
v 1.73758 0.262377 2.89585
l 1931 1932
v 2.11196 0.111964 2.05558
v 2.5112 0.511229 1.23024
l 1933 1934
v 2.11372 -0.113719 2.05189
v 1.724 0.276038 2.88628
l 1935 1936
v 2.11081 0.110808 2.05785
v 2.52408 0.524015 1.24639
l 1937 1938
v 2.11278 -0.112775 2.05391
v 1.71052 0.289467 2.87634
l 1939 1940
v 2.1118 -0.111795 2.05592
v 1.69741 0.302598 2.8662
l 1941 1942
v 2.10961 0.109606 2.0601
v 2.53629 0.536308 1.26268
l 1943 1944
v 2.10836 0.108359 2.06232
v 2.54812 0.54812 1.27923
l 1945 1946
v 2.11078 -0.11078 2.0579
v 1.68461 0.315379 2.85588
l 1947 1948
v 2.10707 0.107067 2.06451
v 2.55952 0.559498 1.29601
l 1949 1950
v 2.10973 -0.10973 2.05987
v 1.67207 0.327961 2.84529
l 1951 1952
v 2.10864 -0.108644 2.06182
v 1.65976 0.340175 2.83452
l 1953 1954
v 2.10558 0.105579 2.06692
v 2.57093 0.570963 1.31401
l 1955 1956
v 2.10752 -0.107524 2.06375
v 1.64783 0.352153 2.8236
l 1957 1958
v 2.10386 0.103863 2.06955
v 2.58303 0.583028 1.33416
l 1959 1960
v 2.10637 -0.10637 2.06565
v 1.6362 0.363873 2.81252
l 1961 1962
v 2.10518 -0.105182 2.06754
v 1.62468 0.375242 2.80124
l 1963 1964
v 2.10208 0.10208 2.07214
v 2.59522 0.595197 1.35545
l 1965 1966
v 2.10396 -0.103961 2.06941
v 1.61369 0.386398 2.78995
l 1967 1968
v 2.10271 -0.102706 2.07125
v 1.60273 0.39727 2.77839
l 1969 1970
v 2.10023 0.100233 2.07469
v 2.60667 0.606702 1.37682
l 1971 1972
v 2.10142 -0.101419 2.07307
v 1.5921 0.407839 2.76679
l 1973 1974
v 2.09832 0.0983229 2.07719
v 2.61756 0.61753 1.39835
l 1975 1976
v 2.1001 -0.1001 2.07487
v 1.5818 0.418195 2.75511
l 1977 1978
v 2.09875 -0.0987483 2.07664
v 1.57178 0.428288 2.74337
l 1979 1980
v 2.09737 -0.0973655 2.07839
v 1.56186 0.438105 2.73147
l 1981 1982
v 2.09432 0.0943168 2.08203
v 2.63741 0.637358 1.44159
l 1983 1984
v 2.09595 -0.0959518 2.08011
v 1.55228 0.447695 2.71954
l 1985 1986
v 2.09451 -0.0945075 2.08181
v 1.54295 0.457037 2.70758
l 1987 1988
v 2.09007 0.090072 2.08667
v 2.65476 0.654781 1.48481
l 1989 1990
v 2.09303 -0.0930331 2.08349
v 1.53383 0.466168 2.69552
l 1991 1992
v 2.08786 0.0878635 2.08891
v 2.66267 0.662633 1.50647
l 1993 1994
v 2.09153 -0.0915292 2.08513
v 1.52498 0.475035 2.68349
l 1995 1996
v 2.09 -0.0899961 2.08675
v 1.51633 0.483696 2.67137
l 1997 1998
v 2.08843 -0.0884344 2.08834
v 1.50789 0.492136 2.65922
l 1999 2000
v 2.08328 0.083281 2.09322
v 2.67674 0.676726 1.5495
l 2001 2002
v 2.08684 -0.0868446 2.08991
v 1.49963 0.500298 2.64708
l 2003 2004
v 2.08523 -0.0852271 2.09144
v 1.49164 0.508356 2.63486
l 2005 2006
v 2.08358 -0.0835825 2.09295
v 1.48386 0.516183 2.62268
l 2007 2008
v 2.08191 -0.0819113 2.09442
v 1.47621 0.523769 2.61044
l 2009 2010
v 2.08021 -0.0802141 2.09587
v 1.4688 0.531191 2.59822
l 2011 2012
v 2.07849 -0.0784913 2.09728
v 1.46163 0.53842 2.58606
l 2013 2014
v 2.07674 -0.0767435 2.09867
v 1.45452 0.54548 2.57373
l 2015 2016
v 2.07497 -0.0749714 2.10002
v 1.4477 0.552311 2.56159
l 2017 2018
v 2.07318 -0.0731753 2.10134
v 1.44097 0.559007 2.5493
l 2019 2020
v 2.07136 -0.071356 2.10263
v 1.4337 0.566302 2.53482
l 2021 2022
v 2.05736 -0.0573591 2.11106
v 1.39064 0.609359 2.44418
l 2023 2024
v 2.05437 -0.0543672 2.11256
v 1.38288 0.617133 2.42591
l 2025 2026
v 2.05134 -0.0513363 2.11397
v 1.37541 0.624611 2.4076
l 2027 2028
v 1.88603 0.0513363 1.94866
v 1.59238 -0.624606 2.62459
l 2029 2030
v 1.88744 0.0543672 1.94563
v 1.57412 -0.617127 2.61714
l 2031 2032
v 1.89389 0.06608 1.93392
v 1.50094 -0.584142 2.58415
l 2033 2034
v 1.8957 0.0688951 1.9311
v 1.4826 -0.575054 2.57506
l 2035 2036
v 1.89737 0.071356 1.92864
v 1.46518 -0.566302 2.5663
l 2037 2038
v 1.89866 0.0731753 1.92682
v 1.45069 -0.559023 2.55901
l 2039 2040
v 1.89998 0.0749714 1.92503
v 1.43848 -0.552335 2.55233
l 2041 2042
v 1.90133 0.0767435 1.92326
v 1.42624 -0.545467 2.54546
l 2043 2044
v 1.90272 0.0784913 1.92151
v 1.414 -0.538401 2.53843
l 2045 2046
v 1.90413 0.0802141 1.91979
v 1.40174 -0.531194 2.53116
l 2047 2048
v 1.90558 0.0819113 1.91809
v 1.38956 -0.523769 2.52379
l 2049 2050
v 1.90705 0.0835825 1.91642
v 1.37734 -0.516167 2.51617
l 2051 2052
v 1.90856 0.0852271 1.91477
v 1.36511 -0.508342 2.50835
l 2053 2054
v 1.91009 0.0868446 1.91316
v 1.35295 -0.500356 2.50034
l 2055 2056
v 1.9064 -0.0828479 1.91715
v 2.4471 -0.677681 1.32233
l 2057 2058
v 1.91166 0.0884344 1.91157
v 1.34076 -0.492106 2.49213
l 2059 2060
v 1.91325 0.0899961 1.91
v 1.32863 -0.483696 2.48367
l 2061 2062
v 1.91487 0.0915292 1.90847
v 1.31653 -0.475021 2.47505
l 2063 2064
v 1.91092 -0.0876914 1.91231
v 2.49242 -0.662953 1.33704
l 2065 2066
v 1.91328 -0.0900216 1.90998
v 2.5152 -0.654689 1.34532
l 2067 2068
v 1.91651 0.0930331 1.90697
v 1.30445 -0.466153 2.46615
l 2069 2070
v 1.91819 0.0945075 1.90549
v 1.29243 -0.457066 2.45704
l 2071 2072
v 1.91569 -0.0922885 1.90771
v 2.53796 -0.645804 1.35418
l 2073 2074
v 1.91989 0.0959518 1.90405
v 1.28043 -0.447679 2.4477
l 2075 2076
v 1.91817 -0.0944906 1.90551
v 2.56077 -0.636283 1.36373
l 2077 2078
v 1.92161 0.0973655 1.90263
v 1.26852 -0.438118 2.4381
l 2079 2080
v 1.92336 0.0987483 1.90125
v 1.25667 -0.428292 2.42827
l 2081 2082
v 1.9207 -0.0966263 1.90337
v 2.58356 -0.626071 1.37393
l 2083 2084
v 1.92513 0.1001 1.8999
v 1.24489 -0.418195 2.4182
l 2085 2086
v 1.92329 -0.0986941 1.90131
v 2.60628 -0.615174 1.3848
l 2087 2088
v 1.92693 0.101419 1.89858
v 1.23319 -0.407851 2.40787
l 2089 2090
v 1.92875 0.102706 1.89729
v 1.22161 -0.39727 2.39727
l 2091 2092
v 1.92593 -0.100693 1.89931
v 2.62795 -0.604283 1.39575
l 2093 2094
v 1.93059 0.103961 1.89604
v 1.21011 -0.386392 2.3864
l 2095 2096
v 1.92836 -0.102431 1.89757
v 2.64732 -0.593898 1.4061
l 2097 2098
v 1.93246 0.105182 1.89482
v 1.19871 -0.375247 2.37523
l 2099 2100
v 1.93435 0.10637 1.89363
v 1.18751 -0.363853 2.36387
l 2101 2102
v 1.93057 -0.103945 1.89605
v 2.66547 -0.583491 1.41651
l 2103 2104
v 1.93625 0.107524 1.89248
v 1.17638 -0.352163 2.35213
l 2105 2106
v 1.93818 0.108644 1.89136
v 1.16547 -0.340185 2.3402
l 2107 2108
v 1.93282 -0.105412 1.89459
v 2.6835 -0.572559 1.42741
l 2109 2110
v 1.9351 -0.10683 1.89317
v 2.70136 -0.561174 1.43884
l 2111 2112
v 1.94013 0.10973 1.89027
v 1.15473 -0.327952 2.32797
l 2113 2114
v 1.93741 -0.108199 1.8918
v 2.71903 -0.549251 1.45074
l 2115 2116
v 1.9421 0.11078 1.88922
v 1.14414 -0.315396 2.3154
l 2117 2118
v 1.94408 0.111795 1.8882
v 1.13378 -0.302582 2.30258
l 2119 2120
v 1.93974 -0.109518 1.89048
v 2.7365 -0.536825 1.46319
l 2121 2122
v 1.94609 0.112775 1.88723
v 1.12362 -0.289459 2.28943
l 2123 2124
v 1.94211 -0.110786 1.88921
v 2.75372 -0.52387 1.47613
l 2125 2126
v 1.94811 0.113719 1.88628
v 1.11376 -0.276063 2.27608
l 2127 2128
v 1.95014 0.114626 1.88537
v 1.10412 -0.262368 2.26236
l 2129 2130
v 1.9445 -0.112003 1.888
v 2.77069 -0.510402 1.48963
l 2131 2132
v 1.94692 -0.113169 1.88683
v 2.7873 -0.4964 1.50356
l 2133 2134
v 1.95219 0.115497 1.8845
v 1.09477 -0.248388 2.24838
l 2135 2136
v 1.94936 -0.114283 1.88572
v 2.8036 -0.481891 1.51812
l 2137 2138
v 1.95426 0.116332 1.88367
v 1.08573 -0.234132 2.23414
l 2139 2140
v 1.95634 0.117129 1.88287
v 1.077 -0.219567 2.2196
l 2141 2142
v 1.95182 -0.115344 1.88466
v 2.81951 -0.466859 1.53315
l 2143 2144
v 1.95844 0.117889 1.88211
v 1.06861 -0.204755 2.20476
l 2145 2146
v 1.95431 -0.116351 1.88365
v 2.83501 -0.451304 1.54871
l 2147 2148
v 1.96055 0.118612 1.88139
v 1.06058 -0.189655 2.18965
l 2149 2150
v 1.96267 0.119296 1.8807
v 1.05293 -0.174284 2.17426
l 2151 2152
v 1.95682 -0.117305 1.88269
v 2.85003 -0.435243 1.56474
l 2153 2154
v 1.95935 -0.118205 1.88179
v 2.86398 -0.419573 1.58042
l 2155 2156
v 1.96481 0.119943 1.88006
v 1.0457 -0.15867 2.15866
l 2157 2158
v 1.96164 -0.118969 1.88103
v 2.87613 -0.405077 1.59493
l 2159 2160
v 1.96695 0.120552 1.87945
v 1.03889 -0.142793 2.1428
l 2161 2162
v 1.96911 0.121122 1.87888
v 1.03252 -0.126682 2.12667
l 2163 2164
v 1.96372 -0.119618 1.88038
v 2.88714 -0.390981 1.60899
l 2165 2166
v 1.9658 -0.120231 1.87977
v 2.89778 -0.376586 1.62344
l 2167 2168
v 1.97127 0.121654 1.87835
v 1.02662 -0.110329 2.11034
l 2169 2170
v 1.9679 -0.120807 1.87919
v 2.90798 -0.361895 1.63811
l 2171 2172
v 1.97 -0.121347 1.87865
v 2.91776 -0.346902 1.6531
l 2173 2174
v 1.97345 0.122147 1.87785
v 1.02121 -0.0937721 2.09377
l 2175 2176
v 1.97563 0.122601 1.8774
v 1.01631 -0.077002 2.07705
l 2177 2178
v 1.97212 -0.121851 1.87815
v 2.92709 -0.33165 1.66835
l 2179 2180
v 1.97782 0.123017 1.87698
v 1.01191 -0.0600472 2.06
l 2181 2182
v 1.98002 0.123393 1.87661
v 1.00807 -0.0429071 2.04293
l 2183 2184
v 1.97424 -0.122317 1.87768
v 2.93594 -0.316122 1.68386
l 2185 2186
v 1.97637 -0.122747 1.87725
v 2.94431 -0.30036 1.69965
l 2187 2188
v 1.98222 0.123729 1.87627
v 1.00478 -0.0256238 2.02562
l 2189 2190
v 1.97851 -0.123139 1.87686
v 2.95217 -0.284347 1.71564
l 2191 2192
v 1.98443 0.124027 1.87597
v 1.00207 -0.00818474 2.00819
l 2193 2194
v 1.98665 0.124285 1.87572
v 0.999944 0.0093584 1.99065
l 2195 2196
v 1.98065 -0.123494 1.87651
v 2.95952 -0.268126 1.7319
l 2197 2198
v 1.98281 -0.123812 1.87619
v 2.96632 -0.25169 1.74833
l 2199 2200
v 1.98887 0.124503 1.8755
v 0.998414 0.0270209 1.97297
l 2201 2202
v 1.98496 -0.124092 1.87591
v 2.97256 -0.235073 1.7649
l 2203 2204
v 1.99109 0.124682 1.87532
v 0.997499 0.0447528 1.95526
l 2205 2206
v 1.99331 0.124821 1.87518
v 0.997199 0.0625472 1.93745
l 2207 2208
v 1.98712 -0.124335 1.87567
v 2.97825 -0.218298 1.78171
l 2209 2210
v 1.98929 -0.12454 1.87546
v 2.98337 -0.201357 1.79864
l 2211 2212
v 1.99554 0.12492 1.87508
v 0.997527 0.0803868 1.91962
l 2213 2214
v 1.99145 -0.124707 1.87529
v 2.98789 -0.184303 1.81568
l 2215 2216
v 1.99362 -0.124837 1.87516
v 2.99183 -0.167126 1.83287
l 2217 2218
v 1.99777 0.12498 1.87502
v 0.998485 0.0982336 1.90174
l 2219 2220
v 2 0.125 1.875
v 1.00008 0.116082 1.88393
l 2221 2222
v 1.9958 -0.124929 1.87507
v 2.99516 -0.150154 1.84985
l 2223 2224
v 2.00193 0.124985 1.87501
v 1.00199 0.132692 1.86728
l 2225 2226
v 2.00385 0.124941 1.87506
v 1.00439 0.148052 1.85199
l 2227 2228
v 1.9979 -0.124982 1.87502
v 2.99783 -0.133393 1.86663
l 2229 2230
v 2 -0.125 1.875
v 2.99993 -0.116818 1.88316
l 2231 2232
v 2.00603 0.124855 1.87515
v 1.00759 0.164341 1.83564
l 2233 2234
v 2.00205 -0.124983 1.87502
v 3.00144 -0.100449 1.89955
l 2235 2236
v 2.0082 0.124731 1.87527
v 1.01142 0.181521 1.8185
l 2237 2238
v 2.01036 0.12457 1.87543
v 1.01586 0.198611 1.80138
l 2239 2240
v 2.00409 -0.124933 1.87507
v 3.00242 -0.0840761 1.91595
l 2241 2242
v 2.00613 -0.124849 1.87515
v 3.00286 -0.0677039 1.9323
l 2243 2244
v 2.01253 0.124371 1.87563
v 1.02088 0.215556 1.78444
l 2245 2246
v 2.00818 -0.124732 1.87527
v 3.00278 -0.0513615 1.94863
l 2247 2248
v 2.01022 -0.124582 1.87542
v 3.00217 -0.0350727 1.96493
l 2249 2250
v 2.01469 0.124134 1.87587
v 1.02647 0.232363 1.76766
l 2251 2252
v 2.01685 0.12386 1.87614
v 1.03264 0.249014 1.75095
l 2253 2254
v 2.01225 -0.124398 1.8756
v 3.00104 -0.0188357 1.9812
l 2255 2256
v 2.019 0.123548 1.87645
v 1.03934 0.265471 1.73456
l 2257 2258
v 2.01429 -0.124181 1.87582
v 2.99941 -0.00267798 1.99731
l 2259 2260
v 2.01632 -0.123931 1.87607
v 2.99728 0.0133865 2.01335
l 2261 2262
v 2.02114 0.123199 1.8768
v 1.0466 0.281745 1.71826
l 2263 2264
v 2.02328 0.122813 1.87719
v 1.05438 0.297773 1.70221
l 2265 2266
v 2.01834 -0.123647 1.87635
v 2.99465 0.0293518 2.02934
l 2267 2268
v 2.02036 -0.12333 1.87667
v 2.99154 0.0451887 2.04524
l 2269 2270
v 2.02541 0.122389 1.87761
v 1.06266 0.313576 1.68644
l 2271 2272
v 2.02238 -0.122981 1.87702
v 2.98799 0.0608712 2.06085
l 2273 2274
v 2.02754 0.121929 1.87807
v 1.07145 0.329153 1.67083
l 2275 2276
v 2.02966 0.121431 1.87857
v 1.0807 0.344458 1.65555
l 2277 2278
v 2.02439 -0.122598 1.8774
v 2.98394 0.0764617 2.07648
l 2279 2280
v 2.02639 -0.122183 1.87782
v 2.97948 0.0918469 2.09184
l 2281 2282
v 2.03176 0.120897 1.8791
v 1.09041 0.359494 1.64052
l 2283 2284
v 2.03386 0.120327 1.87967
v 1.10055 0.37423 1.62577
l 2285 2286
v 2.02838 -0.121735 1.87827
v 2.97459 0.107045 2.10707
l 2287 2288
v 2.03037 -0.121254 1.87875
v 2.96929 0.122118 2.12207
l 2289 2290
v 2.03595 0.11972 1.88028
v 1.11109 0.388651 1.61136
l 2291 2292
v 2.03235 -0.120741 1.87926
v 2.96358 0.136957 2.13696
l 2293 2294
v 2.03802 0.119076 1.88092
v 1.12207 0.402833 1.59717
l 2295 2296
v 2.04032 0.118319 1.88168
v 1.13414 0.417352 1.58264
l 2297 2298
v 2.03432 -0.120195 1.8798
v 2.95749 0.151623 2.15163
l 2299 2300
v 2.03629 -0.119618 1.88038
v 2.95102 0.166077 2.1661
l 2301 2302
v 2.04285 0.117427 1.88257
v 1.14802 0.433088 1.56691
l 2303 2304
v 2.03824 -0.119008 1.88099
v 2.94424 0.180281 2.18029
l 2305 2306
v 2.04018 -0.118366 1.88163
v 2.93711 0.194322 2.19428
l 2307 2308
v 2.04536 0.11648 1.88352
v 1.16301 0.449242 1.55076
l 2309 2310
v 2.04211 -0.117693 1.88231
v 2.92963 0.208088 2.20814
l 2311 2312
v 2.04785 0.115479 1.88452
v 1.17843 0.464845 1.53517
l 2313 2314
v 2.04403 -0.116988 1.88301
v 2.92192 0.221639 2.2216
l 2315 2316
v 2.04594 -0.116252 1.88375
v 2.91386 0.234969 2.23498
l 2317 2318
v 2.05032 0.114425 1.88558
v 1.19428 0.479933 1.52006
l 2319 2320
v 2.05276 0.113318 1.88668
v 1.21054 0.49453 1.50544
l 2321 2322
v 2.04784 -0.115485 1.88452
v 2.90558 0.248027 2.24802
l 2323 2324
v 2.04972 -0.114687 1.88531
v 2.89698 0.260906 2.26092
l 2325 2326
v 2.05518 0.112159 1.88784
v 1.22712 0.5086 1.49143
l 2327 2328
v 2.05159 -0.113858 1.88614
v 2.88821 0.273471 2.2735
l 2329 2330
v 2.05758 0.110949 1.88905
v 1.24405 0.522138 1.47783
l 2331 2332
v 2.05344 -0.112999 1.887
v 2.8792 0.285836 2.28582
l 2333 2334
v 2.05529 -0.112109 1.88789
v 2.86993 0.297983 2.29798
l 2335 2336
v 2.05995 0.109687 1.89031
v 1.26122 0.535153 1.46486
l 2337 2338
v 2.05711 -0.11119 1.88881
v 2.86055 0.309807 2.30982
l 2339 2340
v 2.05892 -0.11024 1.88976
v 2.85092 0.321477 2.32146
l 2341 2342
v 2.06229 0.108375 1.89163
v 1.27866 0.547659 1.45236
l 2343 2344
v 2.0646 0.107012 1.89299
v 1.29631 0.559622 1.44036
l 2345 2346
v 2.06072 -0.109261 1.89074
v 2.84115 0.332848 2.33286
l 2347 2348
v 2.06688 0.105601 1.8944
v 1.31414 0.571107 1.42891
l 2349 2350
v 2.0625 -0.108253 1.89175
v 2.83125 0.344001 2.34396
l 2351 2352
v 2.06426 -0.107216 1.89278
v 2.82116 0.354893 2.35491
l 2353 2354
v 2.06914 0.104141 1.89586
v 1.33217 0.582094 1.4179
l 2355 2356
v 2.06601 -0.10615 1.89385
v 2.81092 0.365602 2.3656
l 2357 2358
v 2.06774 -0.105056 1.89494
v 2.80065 0.376004 2.37601
l 2359 2360
v 2.07136 0.102632 1.89737
v 1.35029 0.592553 1.40743
l 2361 2362
v 2.06945 -0.103934 1.89607
v 2.79017 0.386254 2.38624
l 2363 2364
v 2.07354 0.101077 1.89892
v 1.36852 0.602552 1.39746
l 2365 2366
v 2.07593 0.0992935 1.90071
v 1.388 0.612499 1.38752
l 2367 2368
v 2.07114 -0.102784 1.89722
v 2.77968 0.396207 2.39619
l 2369 2370
v 2.07281 -0.101606 1.89839
v 2.76903 0.405962 2.40599
l 2371 2372
v 2.07446 -0.100401 1.8996
v 2.75831 0.415521 2.41553
l 2373 2374
v 2.0761 -0.0991692 1.90083
v 2.74756 0.424836 2.42481
l 2375 2376
v 2.07771 -0.0979108 1.90209
v 2.73671 0.433923 2.43395
l 2377 2378
v 2.0793 -0.0966263 1.90337
v 2.72576 0.442868 2.44285
l 2379 2380
v 2.08087 -0.0953159 1.90468
v 2.71483 0.451524 2.45155
l 2381 2382
v 2.08601 0.0906999 1.9093
v 1.47805 0.652113 1.34787
l 2383 2384
v 2.08242 -0.09398 1.90602
v 2.70382 0.460049 2.46002
l 2385 2386
v 2.08394 -0.0926189 1.90738
v 2.69277 0.468323 2.46834
l 2387 2388
v 2.08545 -0.091233 1.90877
v 2.68168 0.476428 2.47645
l 2389 2390
v 2.08982 0.0898227 1.91307
v 1.51566 -0.484353 1.32941
l 2391 2392
v 2.08693 -0.0898227 1.91018
v 2.67062 0.484337 2.48432
l 2393 2394
v 2.08839 -0.0883883 1.91161
v 2.66055 -0.660581 2.49917
l 2395 2396
v 2.09123 0.091233 1.91455
v 1.52358 -0.476443 1.3183
l 2397 2398
v 2.09262 0.0926189 1.91606
v 1.53164 -0.46834 1.30726
l 2399 2400
v 2.0907 -0.0906999 1.91399
v 2.65212 -0.652132 2.52194
l 2401 2402
v 2.09398 0.09398 1.91758
v 1.53996 -0.460018 1.29617
l 2403 2404
v 2.09532 0.0953159 1.91913
v 1.54847 -0.451556 1.28518
l 2405 2406
v 2.09663 0.0966263 1.9207
v 1.55717 -0.442851 1.27421
l 2407 2408
v 2.09513 -0.0951304 1.91891
v 2.63332 -0.633317 2.56754
l 2409 2410
v 2.09791 0.0979108 1.92229
v 1.56605 -0.433923 1.26329
l 2411 2412
v 2.09917 0.0991692 1.9239
v 1.57514 -0.42484 1.25248
l 2413 2414
v 2.09725 -0.0972461 1.92146
v 2.6229 -0.62293 2.5903
l 2415 2416
v 2.1004 0.100401 1.92554
v 1.58453 -0.415517 1.24165
l 2417 2418
v 2.10161 0.101606 1.92719
v 1.59401 -0.405962 1.23097
l 2419 2420
v 2.09929 -0.0992935 1.92407
v 2.6125 -0.612478 2.61201
l 2421 2422
v 2.10278 0.102784 1.92886
v 1.60383 -0.396238 1.22033
l 2423 2424
v 2.10108 -0.101077 1.92646
v 2.60258 -0.602556 2.63145
l 2425 2426
v 2.10393 0.103934 1.93055
v 1.6137 -0.386212 1.20984
l 2427 2428
v 2.10506 0.105056 1.93226
v 1.62401 -0.376034 1.19936
l 2429 2430
v 2.10263 -0.102632 1.92864
v 2.59254 -0.592562 2.64972
l 2431 2432
v 2.10615 0.10615 1.93399
v 1.63439 -0.365555 1.18905
l 2433 2434
v 2.10722 0.107216 1.93574
v 1.64511 -0.354922 1.17884
l 2435 2436
v 2.10414 -0.104141 1.93086
v 2.58209 -0.58208 2.66784
l 2437 2438
v 2.10825 0.108253 1.9375
v 1.656 -0.343991 1.16877
l 2439 2440
v 2.1056 -0.105601 1.93312
v 2.57106 -0.571115 2.68587
l 2441 2442
v 2.10701 -0.107012 1.9354
v 2.55965 -0.559635 2.70368
l 2443 2444
v 2.10926 0.109261 1.93928
v 1.66718 -0.332859 1.15884
l 2445 2446
v 2.11024 0.11024 1.94108
v 1.67852 -0.321449 1.14908
l 2447 2448
v 2.10837 -0.108375 1.93771
v 2.54769 -0.54763 2.72133
l 2449 2450
v 2.11119 0.11119 1.94289
v 1.69016 -0.309825 1.13947
l 2451 2452
v 2.11211 0.112109 1.94471
v 1.70204 -0.297965 1.13005
l 2453 2454
v 2.10969 -0.109687 1.94005
v 2.53514 -0.535153 2.73878
l 2455 2456
v 2.113 0.112999 1.94656
v 1.71416 -0.285854 1.12082
l 2457 2458
v 2.11095 -0.110949 1.94242
v 2.5221 -0.522151 2.75597
l 2459 2460
v 2.11386 0.113858 1.94841
v 1.72653 -0.273496 1.11179
l 2461 2462
v 2.11469 0.114687 1.95028
v 1.73914 -0.260896 1.10299
l 2463 2464
v 2.11216 -0.112159 1.94482
v 2.5086 -0.50858 2.77288
l 2465 2466
v 2.11332 -0.113318 1.94724
v 2.49456 -0.49453 2.78946
l 2467 2468
v 2.11548 0.115485 1.95216
v 1.75192 -0.248037 1.09445
l 2469 2470
v 2.11625 0.116252 1.95406
v 1.76504 -0.234952 1.08613
l 2471 2472
v 2.11442 -0.114425 1.94968
v 2.47991 -0.479951 2.80572
l 2473 2474
v 2.11699 0.116988 1.95597
v 1.77839 -0.221656 1.07809
l 2475 2476
v 2.11548 -0.115479 1.95215
v 2.4649 -0.464835 2.82155
l 2477 2478
v 2.11769 0.117693 1.95789
v 1.79191 -0.208094 1.07035
l 2479 2480
v 2.11837 0.118366 1.95982
v 1.80568 -0.194301 1.0629
l 2481 2482
v 2.11648 -0.11648 1.95464
v 2.44923 -0.44923 2.837
l 2483 2484
v 2.11743 -0.117427 1.95715
v 2.43303 -0.433108 2.85199
l 2485 2486
v 2.11901 0.119008 1.96176
v 1.8197 -0.180296 1.05577
l 2487 2488
v 2.11962 0.119618 1.96371
v 1.83397 -0.166067 1.04895
l 2489 2490
v 2.11832 -0.118319 1.95968
v 2.41738 -0.417365 2.86585
l 2491 2492
v 2.1202 0.120195 1.96568
v 1.84839 -0.151609 1.04251
l 2493 2494
v 2.11908 -0.119076 1.96198
v 2.40281 -0.402805 2.87794
l 2495 2496
v 2.12074 0.120741 1.96765
v 1.86304 -0.136957 1.03642
l 2497 2498
v 2.12125 0.121254 1.96963
v 1.87783 -0.122111 1.03074
l 2499 2500
v 2.11972 -0.11972 1.96405
v 2.38867 -0.388678 2.88889
l 2501 2502
v 2.12033 -0.120327 1.96614
v 2.37428 -0.374227 2.89944
l 2503 2504
v 2.12173 0.121735 1.97162
v 1.89296 -0.107072 1.02541
l 2505 2506
v 2.12218 0.122183 1.97361
v 1.90811 -0.0918443 1.02053
l 2507 2508
v 2.1209 -0.120897 1.96824
v 2.35946 -0.35947 2.9096
l 2509 2510
v 2.12143 -0.121431 1.97034
v 2.34445 -0.344458 2.9193
l 2511 2512
v 2.1226 0.122598 1.97561
v 1.9236 -0.0764421 1.01604
l 2513 2514
v 2.12193 -0.121929 1.97246
v 2.32911 -0.329155 2.92856
l 2515 2516
v 2.12298 0.122981 1.97762
v 1.93907 -0.0608896 1.01203
l 2517 2518
v 2.12333 0.12333 1.97964
v 1.95489 -0.0451826 1.00844
l 2519 2520
v 2.12239 -0.122389 1.97459
v 2.31368 -0.313582 2.93732
l 2521 2522
v 2.12281 -0.122813 1.97672
v 2.29775 -0.297784 2.94563
l 2523 2524
v 2.12365 0.123647 1.98166
v 1.97066 -0.0293518 1.00535
l 2525 2526
v 2.1232 -0.123199 1.97886
v 2.28172 -0.281728 2.9534
l 2527 2528
v 2.12393 0.123931 1.98368
v 1.98653 -0.0133921 1.00273
l 2529 2530
v 2.12418 0.124181 1.98571
v 2.00269 0.00267798 1.00059
l 2531 2532
v 2.12355 -0.123548 1.981
v 2.26544 -0.265479 2.96066
l 2533 2534
v 2.12386 -0.12386 1.98315
v 2.24899 -0.249015 2.96737
l 2535 2536
v 2.1244 0.124398 1.98775
v 2.01892 0.0188404 0.998945
l 2537 2538
v 2.12458 0.124582 1.98978
v 2.03506 0.0350675 0.99783
l 2539 2540
v 2.12413 -0.124134 1.98531
v 2.2324 -0.232363 2.97352
l 2541 2542
v 2.12473 0.124732 1.99182
v 2.05138 0.0513657 0.997221
l 2543 2544
v 2.12437 -0.124371 1.98747
v 2.21557 -0.215561 2.97912
l 2545 2546
v 2.12457 -0.12457 1.98964
v 2.19861 -0.198603 2.98414
l 2547 2548
v 2.12485 0.124849 1.99387
v 2.06771 0.0677073 0.997137
l 2549 2550
v 2.12493 0.124933 1.99591
v 2.08405 0.0840737 0.997582
l 2551 2552
v 2.12473 -0.124731 1.9918
v 2.18156 -0.181527 2.98857
l 2553 2554
v 2.12498 0.124983 1.99795
v 2.10039 0.100448 0.998558
l 2555 2556
v 2.125 0.125 2
v 2.11684 0.116819 1.00007
l 2557 2558
v 2.12485 -0.124855 1.99397
v 2.16431 -0.164337 2.99242
l 2559 2560
v 2.12494 -0.124941 1.99615
v 2.14807 -0.148054 2.99561
l 2561 2562
v 2.12499 -0.124985 1.99807
v 2.13266 -0.132692 2.99801
l 2563 2564
v 2.04399 0.0439868 2.117
v 2.72519 0.725178 1.84879
l 2565 2566
v 2.0476 0.0475987 2.11558
v 2.72411 0.724114 1.82462
l 2567 2568
v 2.05116 0.0511648 2.11405
v 2.72255 0.722559 1.80025
l 2569 2570
v 2.05468 0.0546815 2.11241
v 2.72048 0.720483 1.77563
l 2571 2572
v 2.05815 0.0581455 2.11065
v 2.71788 0.717873 1.75078
l 2573 2574
v 2.06155 0.0615534 2.10879
v 2.7147 0.714737 1.72571
l 2575 2576
v 2.0649 0.0649019 2.10683
v 2.71101 0.710973 1.70045
l 2577 2578
v 2.06819 0.0681879 2.10476
v 2.70664 0.706663 1.67497
l 2579 2580
v 2.07141 0.0714081 2.1026
v 2.70168 0.701658 1.64923
l 2581 2582
v 2.07456 0.0745594 2.10033
v 2.69604 0.696042 1.62334
l 2583 2584
v 2.07764 0.0776388 2.09797
v 2.68971 0.689704 1.59722
l 2585 2586
v 2.08064 0.0806433 2.09551
v 2.68316 0.683171 1.57212
l 2587 2588
v 2.0856 0.0855993 2.09109
v 2.66991 0.669943 1.52795
l 2589 2590
v 2.09222 0.0922236 2.08438
v 2.64633 0.646366 1.46318
l 2591 2592
v 2.09635 0.0963503 2.07963
v 2.62776 0.627791 1.41995
l 2593 2594
v 2.08839 0.0883883 1.91161
v 1.50084 0.660571 1.33943
l 2595 2596
v 2.08358 0.0929478 1.90705
v 1.45527 0.643045 1.35695
l 2597 2598
v 2.08109 0.0951304 1.90487
v 1.43246 0.633317 1.36668
l 2599 2600
v 2.07854 0.0972461 1.90275
v 1.40971 0.622921 1.37708
l 2601 2602
v 1.89216 0.0632176 1.93678
v 1.51921 -0.592875 2.59287
l 2603 2604
v 1.89051 0.0603099 1.93969
v 1.53755 -0.60129 2.60128
l 2605 2606
v 1.88894 0.0573591 1.94264
v 1.55582 -0.609359 2.60936
l 2607 2608
v 1.8847 0.0482688 1.95173
v 1.61065 -0.631761 2.63177
l 2609 2610
v 1.88301 -0.0440313 1.95597
v 2.15212 -0.72505 1.27494
l 2611 2612
v 1.88452 -0.0478354 1.95216
v 2.1776 -0.723892 1.27611
l 2613 2614
v 1.88614 -0.0515884 1.94841
v 2.20332 -0.722191 1.27782
l 2615 2616
v 1.88789 -0.0552861 1.94471
v 2.22928 -0.71991 1.28009
l 2617 2618
v 1.88976 -0.0589246 1.94108
v 2.2555 -0.717038 1.28295
l 2619 2620
v 1.89175 -0.0625 1.9375
v 2.28196 -0.713552 1.28645
l 2621 2622
v 1.89385 -0.0660085 1.93399
v 2.30868 -0.709396 1.29059
l 2623 2624
v 1.89607 -0.0694463 1.93055
v 2.3344 -0.705004 1.295
l 2625 2626
v 1.89816 -0.0724768 1.92752
v 2.35774 -0.700491 1.29952
l 2627 2628
v 1.90011 -0.0751506 1.92485
v 2.37989 -0.695552 1.30444
l 2629 2630
v 1.90214 -0.0777716 1.92223
v 2.40219 -0.690128 1.30988
l 2631 2632
v 1.90424 -0.080338 1.91966
v 2.42459 -0.684169 1.31582
l 2633 2634
v 1.90863 -0.0852996 1.9147
v 2.46973 -0.670603 1.32939
l 2635 2636
v 2.09295 -0.0929478 1.91642
v 2.64308 -0.643046 2.5447
l 2637 2638
v 2.0689 -0.0688951 2.1043
v 1.42492 0.57505 2.51737
l 2639 2640
v 2.06608 -0.06608 2.10611
v 1.41589 0.584158 2.49909
l 2641 2642
v 2.06322 -0.0632176 2.10784
v 1.40711 0.59287 2.48076
l 2643 2644
v 2.06031 -0.0603099 2.10949
v 1.39871 0.601279 2.46245
l 2645 2646
v 2.04827 -0.0482688 2.1153
v 1.36824 0.631778 2.38933
l 2647 2648
v 2.12498 0.00204522 1.87502
v 2.13314 -0.997888 1.86686
l 2649 2650
v 2.12493 0.00408989 1.87507
v 2.14952 -0.995307 1.85054
l 2651 2652
v 2.12485 0.00613346 1.87515
v 2.16573 -0.992194 1.83427
l 2653 2654
v 2.12473 0.00817539 1.87527
v 2.18187 -0.988554 1.81813
l 2655 2656
v 2.12458 0.0102151 1.87542
v 2.19794 -0.984389 1.80206
l 2657 2658
v 2.1244 0.0122521 1.8756
v 2.21391 -0.979703 1.78609
l 2659 2660
v 2.12418 0.0142859 1.87582
v 2.22967 -0.974512 1.77022
l 2661 2662
v 2.12393 0.0163158 1.87607
v 2.24542 -0.968813 1.75458
l 2663 2664
v 2.12365 0.0183413 1.87635
v 2.26105 -0.962614 1.73907
l 2665 2666
v 2.12333 0.0203619 1.87667
v 2.27631 -0.955954 1.72369
l 2667 2668
v 2.12298 0.0223771 1.87702
v 2.29143 -0.948814 1.70846
l 2669 2670
v 2.1226 0.0243863 1.8774
v 2.3065 -0.941212 1.69355
l 2671 2672
v 2.12218 0.0263889 1.87782
v 2.32119 -0.93318 1.67876
l 2673 2674
v 2.12173 0.0283845 1.87827
v 2.33581 -0.924701 1.66425
l 2675 2676
v 2.12125 0.0303725 1.87875
v 2.35003 -0.915831 1.64992
l 2677 2678
v 2.12074 0.0323524 1.87926
v 2.36417 -0.906551 1.63594
l 2679 2680
v 2.1202 0.0343236 1.8798
v 2.3779 -0.8969 1.6221
l 2681 2682
v 2.11962 0.0362856 1.88038
v 2.39143 -0.88688 1.60857
l 2683 2684
v 2.11901 0.0382379 1.88099
v 2.40466 -0.876518 1.59529
l 2685 2686
v 2.11837 0.0401799 1.88163
v 2.41767 -0.865816 1.58233
l 2687 2688
v 2.11769 0.0421112 1.88231
v 2.43038 -0.854819 1.56967
l 2689 2690
v 2.11699 0.0440313 1.88301
v 2.44276 -0.843495 1.55718
l 2691 2692
v 2.11625 0.0459395 1.88375
v 2.45485 -0.831956 1.54515
l 2693 2694
v 2.11548 0.0478354 1.88452
v 2.46671 -0.820085 1.53329
l 2695 2696
v 2.11469 0.0497186 1.88531
v 2.47826 -0.807996 1.5218
l 2697 2698
v 2.11386 0.0515884 1.88614
v 2.4894 -0.795703 1.51055
l 2699 2700
v 2.113 0.0534444 1.887
v 2.50032 -0.78317 1.49963
l 2701 2702
v 2.11211 0.0552861 1.88789
v 2.51094 -0.770462 1.48906
l 2703 2704
v 2.11119 0.057113 1.88881
v 2.52126 -0.757557 1.47874
l 2705 2706
v 2.11024 0.0589246 1.88976
v 2.53127 -0.744485 1.46873
l 2707 2708
v 2.10926 0.0607204 1.89074
v 2.541 -0.731275 1.45906
l 2709 2710
v 2.10825 0.0625 1.89175
v 2.55033 -0.717941 1.44962
l 2711 2712
v 2.10722 0.0642628 1.89278
v 2.55948 -0.704475 1.44057
l 2713 2714
v 2.10615 0.0660085 1.89385
v 2.56824 -0.690887 1.4317
l 2715 2716
v 2.10506 0.0677364 1.89494
v 2.57683 -0.67719 1.42323
l 2717 2718
v 2.10393 0.0694463 1.89607
v 2.58497 -0.663462 1.41498
l 2719 2720
v 2.10278 0.0711375 1.89722
v 2.59302 -0.649587 1.40709
l 2721 2722
v 2.10161 0.0728097 1.89839
v 2.60056 -0.635737 1.39939
l 2723 2724
v 2.1004 0.0744624 1.8996
v 2.60799 -0.62174 1.39201
l 2725 2726
v 2.09917 0.0760952 1.90083
v 2.61505 -0.60778 1.3849
l 2727 2728
v 2.09791 0.0777076 1.90209
v 2.62194 -0.593744 1.37811
l 2729 2730
v 2.09663 0.0792992 1.90337
v 2.62849 -0.579668 1.37151
l 2731 2732
v 2.09532 0.0808695 1.90468
v 2.63478 -0.565634 1.36522
l 2733 2734
v 2.09398 0.0824182 1.90602
v 2.64081 -0.55154 1.35914
l 2735 2736
v 2.09262 0.0839449 1.90738
v 2.64665 -0.537461 1.35339
l 2737 2738
v 2.09123 0.085449 1.90877
v 2.65219 -0.523366 1.34781
l 2739 2740
v 2.08982 0.0869303 1.91018
v 2.65747 -0.50931 1.34248
l 2741 2742
v 2.08839 0.0883883 1.91161
v 2.66256 -0.495268 1.33744
l 2743 2744
v 2.0907 -0.0860146 1.9093
v 1.51854 -0.673579 2.48149
l 2745 2746
v 2.09295 -0.0835805 1.90705
v 1.53154 -0.691528 2.46849
l 2747 2748
v 2.09513 -0.0810876 1.90487
v 1.545 -0.709381 2.45497
l 2749 2750
v 2.09725 -0.0785378 1.90275
v 1.55906 -0.727153 2.44094
l 2751 2752
v 2.09929 -0.0759328 1.90071
v 1.57364 -0.744777 2.42639
l 2753 2754
v 2.10108 -0.0735426 1.89892
v 1.58786 -0.761475 2.41211
l 2755 2756
v 2.10263 -0.0713557 1.89737
v 1.60113 -0.776364 2.39883
l 2757 2758
v 2.10414 -0.0691358 1.89586
v 1.61423 -0.790204 2.38581
l 2759 2760
v 2.1056 -0.066884 1.8944
v 1.62765 -0.803859 2.37235
l 2761 2762
v 2.10701 -0.0646015 1.89299
v 1.64154 -0.817357 2.3585
l 2763 2764
v 2.10837 -0.0622891 1.89163
v 1.65574 -0.830567 2.34426
l 2765 2766
v 2.10969 -0.059948 1.89031
v 1.67036 -0.843565 2.32956
l 2767 2768
v 2.11095 -0.0575793 1.88905
v 1.6855 -0.856315 2.3145
l 2769 2770
v 2.11216 -0.0551841 1.88784
v 1.70103 -0.868739 2.29906
l 2771 2772
v 2.11332 -0.0527634 1.88668
v 1.71687 -0.880825 2.28309
l 2773 2774
v 2.11442 -0.0503184 1.88558
v 1.73319 -0.892533 2.26681
l 2775 2776
v 2.11548 -0.0478502 1.88452
v 1.74999 -0.90389 2.25005
l 2777 2778
v 2.11648 -0.0453599 1.88352
v 1.76705 -0.914761 2.23286
l 2779 2780
v 2.11743 -0.0428487 1.88257
v 1.78468 -0.925207 2.21532
l 2781 2782
v 2.11832 -0.0403178 1.88168
v 1.80272 -0.935156 2.19737
l 2783 2784
v 2.11908 -0.038024 1.88092
v 1.82003 -0.944191 2.17997
l 2785 2786
v 2.11972 -0.0359475 1.88028
v 1.83598 -0.951909 2.16402
l 2787 2788
v 2.12033 -0.0338601 1.87967
v 1.85138 -0.958706 2.14862
l 2789 2790
v 2.1209 -0.0317624 1.8791
v 1.86695 -0.96506 2.133
l 2791 2792
v 2.12143 -0.0296552 1.87857
v 1.88286 -0.971018 2.11714
l 2793 2794
v 2.12193 -0.0275389 1.87807
v 1.89891 -0.9765 2.10109
l 2795 2796
v 2.12239 -0.0254144 1.87761
v 1.91521 -0.981515 2.08485
l 2797 2798
v 2.12281 -0.0232821 1.87719
v 1.93152 -0.986016 2.06837
l 2799 2800
v 2.1232 -0.0211428 1.8768
v 1.94827 -0.990049 2.05179
l 2801 2802
v 2.12355 -0.0189971 1.87645
v 1.96502 -0.993541 2.03498
l 2803 2804
v 2.12386 -0.0168457 1.87614
v 1.98197 -0.996505 2.01803
l 2805 2806
v 2.12413 -0.0146892 1.87587
v 1.999 -0.9989 2.00105
l 2807 2808
v 2.12437 -0.0125282 1.87563
v 2.0161 -1.00074 1.98384
l 2809 2810
v 2.12457 -0.0103634 1.87543
v 2.03337 -1.00201 1.96663
l 2811 2812
v 2.12473 -0.00819554 1.87527
v 2.05069 -1.0027 1.94931
l 2813 2814
v 2.12485 -0.00602517 1.87515
v 2.06803 -1.00279 1.93192
l 2815 2816
v 2.12494 -0.00385297 1.87506
v 2.08549 -1.00229 1.91457
l 2817 2818
v 2.12499 -0.00192671 1.87501
v 2.10185 -1.00139 1.89809
l 2819 2820
v 2.125 -3.06162e-17 1.875
v 2.11733 -0.999941 1.88273
l 2821 2822
