ISO-10303-21;
HEADER;
FILE_DESCRIPTION(('FreeCAD Model'),'2;1');
FILE_NAME('Open CASCADE Shape Model','2026-06-06T12:04:26',('FreeCAD'),(
    'FreeCAD'),'Open CASCADE STEP processor 7.8','FreeCAD','Unknown');
FILE_SCHEMA(('AUTOMOTIVE_DESIGN { 1 0 10303 214 1 1 1 1 }'));
ENDSEC;
DATA;
#1 = APPLICATION_PROTOCOL_DEFINITION('international standard',
  'automotive_design',2000,#2);
#2 = APPLICATION_CONTEXT(
  'core data for automotive mechanical design processes');
#3 = SHAPE_DEFINITION_REPRESENTATION(#4,#10);
#4 = PRODUCT_DEFINITION_SHAPE('','',#5);
#5 = PRODUCT_DEFINITION('design','',#6,#9);
#6 = PRODUCT_DEFINITION_FORMATION('','',#7);
#7 = PRODUCT('Open CASCADE STEP translator 7.8 1',
  'Open CASCADE STEP translator 7.8 1','',(#8));
#8 = PRODUCT_CONTEXT('',#2,'mechanical');
#9 = PRODUCT_DEFINITION_CONTEXT('part definition',#2,'design');
#10 = ADVANCED_BREP_SHAPE_REPRESENTATION('',(#11,#15),#550);
#11 = AXIS2_PLACEMENT_3D('',#12,#13,#14);
#12 = CARTESIAN_POINT('',(0.,0.,0.));
#13 = DIRECTION('',(0.,0.,1.));
#14 = DIRECTION('',(1.,0.,-0.));
#15 = MANIFOLD_SOLID_BREP('',#16);
#16 = CLOSED_SHELL('',(#17,#52,#75,#101,#126,#135,#265,#318,#339,#364,
    #373,#398,#424,#451,#476,#485,#516,#541));
#17 = ADVANCED_FACE('',(#18),#47,.T.);
#18 = FACE_BOUND('',#19,.T.);
#19 = EDGE_LOOP('',(#20,#31,#40));
#20 = ORIENTED_EDGE('',*,*,#21,.T.);
#21 = EDGE_CURVE('',#22,#24,#26,.T.);
#22 = VERTEX_POINT('',#23);
#23 = CARTESIAN_POINT('',(2.,0.875,2.125));
#24 = VERTEX_POINT('',#25);
#25 = CARTESIAN_POINT('',(2.125,0.875,2.));
#26 = CIRCLE('',#27,0.125);
#27 = AXIS2_PLACEMENT_3D('',#28,#29,#30);
#28 = CARTESIAN_POINT('',(2.,0.875,2.));
#29 = DIRECTION('',(0.,1.,0.));
#30 = DIRECTION('',(0.,0.,1.));
#31 = ORIENTED_EDGE('',*,*,#32,.F.);
#32 = EDGE_CURVE('',#33,#24,#35,.T.);
#33 = VERTEX_POINT('',#34);
#34 = CARTESIAN_POINT('',(2.125,1.,2.125));
#35 = CIRCLE('',#36,0.125);
#36 = AXIS2_PLACEMENT_3D('',#37,#38,#39);
#37 = CARTESIAN_POINT('',(2.125,1.,2.));
#38 = DIRECTION('',(1.,0.,-0.));
#39 = DIRECTION('',(0.,0.,1.));
#40 = ORIENTED_EDGE('',*,*,#41,.F.);
#41 = EDGE_CURVE('',#22,#33,#42,.T.);
#42 = CIRCLE('',#43,0.125);
#43 = AXIS2_PLACEMENT_3D('',#44,#45,#46);
#44 = CARTESIAN_POINT('',(2.125,0.875,2.125));
#45 = DIRECTION('',(0.,0.,-1.));
#46 = DIRECTION('',(-1.,1.7763568394E-15,0.));
#47 = TOROIDAL_SURFACE('',#48,0.125,0.125);
#48 = AXIS2_PLACEMENT_3D('',#49,#50,#51);
#49 = CARTESIAN_POINT('',(2.125,0.875,2.));
#50 = DIRECTION('',(0.,0.,-1.));
#51 = DIRECTION('',(-1.,1.7763568394E-15,0.));
#52 = ADVANCED_FACE('',(#53),#70,.T.);
#53 = FACE_BOUND('',#54,.T.);
#54 = EDGE_LOOP('',(#55,#62,#63));
#55 = ORIENTED_EDGE('',*,*,#56,.T.);
#56 = EDGE_CURVE('',#24,#22,#57,.T.);
#57 = CIRCLE('',#58,0.125);
#58 = AXIS2_PLACEMENT_3D('',#59,#60,#61);
#59 = CARTESIAN_POINT('',(2.,0.875,2.));
#60 = DIRECTION('',(0.,1.,0.));
#61 = DIRECTION('',(0.,0.,1.));
#62 = ORIENTED_EDGE('',*,*,#41,.T.);
#63 = ORIENTED_EDGE('',*,*,#64,.F.);
#64 = EDGE_CURVE('',#24,#33,#65,.T.);
#65 = CIRCLE('',#66,0.125);
#66 = AXIS2_PLACEMENT_3D('',#67,#68,#69);
#67 = CARTESIAN_POINT('',(2.125,1.,2.));
#68 = DIRECTION('',(1.,0.,-0.));
#69 = DIRECTION('',(0.,0.,1.));
#70 = TOROIDAL_SURFACE('',#71,0.125,0.125);
#71 = AXIS2_PLACEMENT_3D('',#72,#73,#74);
#72 = CARTESIAN_POINT('',(2.125,0.875,2.));
#73 = DIRECTION('',(0.,0.,-1.));
#74 = DIRECTION('',(-1.,1.7763568394E-15,0.));
#75 = ADVANCED_FACE('',(#76),#96,.T.);
#76 = FACE_BOUND('',#77,.T.);
#77 = EDGE_LOOP('',(#78,#79,#80,#88,#95));
#78 = ORIENTED_EDGE('',*,*,#32,.T.);
#79 = ORIENTED_EDGE('',*,*,#64,.T.);
#80 = ORIENTED_EDGE('',*,*,#81,.T.);
#81 = EDGE_CURVE('',#33,#82,#84,.T.);
#82 = VERTEX_POINT('',#83);
#83 = CARTESIAN_POINT('',(3.994974854,1.,2.125));
#84 = LINE('',#85,#86);
#85 = CARTESIAN_POINT('',(2.125,1.,2.125));
#86 = VECTOR('',#87,1.);
#87 = DIRECTION('',(1.,0.,0.));
#88 = ORIENTED_EDGE('',*,*,#89,.F.);
#89 = EDGE_CURVE('',#82,#82,#90,.T.);
#90 = CIRCLE('',#91,0.125);
#91 = AXIS2_PLACEMENT_3D('',#92,#93,#94);
#92 = CARTESIAN_POINT('',(3.994974854,1.,2.));
#93 = DIRECTION('',(1.,0.,-0.));
#94 = DIRECTION('',(0.,0.,1.));
#95 = ORIENTED_EDGE('',*,*,#81,.F.);
#96 = CYLINDRICAL_SURFACE('',#97,0.125);
#97 = AXIS2_PLACEMENT_3D('',#98,#99,#100);
#98 = CARTESIAN_POINT('',(2.125,1.,2.));
#99 = DIRECTION('',(1.,0.,0.));
#100 = DIRECTION('',(0.,0.,1.));
#101 = ADVANCED_FACE('',(#102),#121,.T.);
#102 = FACE_BOUND('',#103,.T.);
#103 = EDGE_LOOP('',(#104,#113,#119,#120));
#104 = ORIENTED_EDGE('',*,*,#105,.F.);
#105 = EDGE_CURVE('',#106,#106,#108,.T.);
#106 = VERTEX_POINT('',#107);
#107 = CARTESIAN_POINT('',(4.,1.,2.1244416504));
#108 = CIRCLE('',#109,0.1244416504);
#109 = AXIS2_PLACEMENT_3D('',#110,#111,#112);
#110 = CARTESIAN_POINT('',(4.,1.,2.));
#111 = DIRECTION('',(1.,0.,-0.));
#112 = DIRECTION('',(0.,0.,1.));
#113 = ORIENTED_EDGE('',*,*,#114,.F.);
#114 = EDGE_CURVE('',#82,#106,#115,.T.);
#115 = LINE('',#116,#117);
#116 = CARTESIAN_POINT('',(3.994974854,1.,2.125));
#117 = VECTOR('',#118,1.);
#118 = DIRECTION('',(0.993883733709,-2.704792511325E-17,-0.110431534758)
  );
#119 = ORIENTED_EDGE('',*,*,#89,.T.);
#120 = ORIENTED_EDGE('',*,*,#114,.T.);
#121 = CONICAL_SURFACE('',#122,0.125,0.11065722991);
#122 = AXIS2_PLACEMENT_3D('',#123,#124,#125);
#123 = CARTESIAN_POINT('',(3.994974854,1.,2.));
#124 = DIRECTION('',(-1.,-0.,-0.));
#125 = DIRECTION('',(0.,0.,1.));
#126 = ADVANCED_FACE('',(#127),#130,.T.);
#127 = FACE_BOUND('',#128,.T.);
#128 = EDGE_LOOP('',(#129));
#129 = ORIENTED_EDGE('',*,*,#105,.T.);
#130 = PLANE('',#131);
#131 = AXIS2_PLACEMENT_3D('',#132,#133,#134);
#132 = CARTESIAN_POINT('',(4.,1.,2.));
#133 = DIRECTION('',(1.,0.,0.));
#134 = DIRECTION('',(0.,0.,1.));
#135 = ADVANCED_FACE('',(#136),#260,.T.);
#136 = FACE_BOUND('',#137,.T.);
#137 = EDGE_LOOP('',(#138,#149,#158,#163,#164,#165,#166,#175,#184,#193,
    #202,#211,#220,#227,#236,#243,#244,#253));
#138 = ORIENTED_EDGE('',*,*,#139,.T.);
#139 = EDGE_CURVE('',#140,#142,#144,.T.);
#140 = VERTEX_POINT('',#141);
#141 = CARTESIAN_POINT('',(2.,0.,2.125));
#142 = VERTEX_POINT('',#143);
#143 = CARTESIAN_POINT('',(2.01,9.999999999988E-03,2.124599357944));
#144 = ELLIPSE('',#145,0.176776695297,0.125);
#145 = AXIS2_PLACEMENT_3D('',#146,#147,#148);
#146 = CARTESIAN_POINT('',(2.,0.,2.));
#147 = DIRECTION('',(-0.707106781187,0.707106781187,0.));
#148 = DIRECTION('',(0.707106781187,0.707106781187,0.));
#149 = ORIENTED_EDGE('',*,*,#150,.T.);
#150 = EDGE_CURVE('',#142,#151,#153,.T.);
#151 = VERTEX_POINT('',#152);
#152 = CARTESIAN_POINT('',(2.125,0.125,2.));
#153 = ELLIPSE('',#154,0.176776695297,0.125);
#154 = AXIS2_PLACEMENT_3D('',#155,#156,#157);
#155 = CARTESIAN_POINT('',(2.,0.,2.));
#156 = DIRECTION('',(-0.707106781187,0.707106781187,0.));
#157 = DIRECTION('',(0.707106781187,0.707106781187,0.));
#158 = ORIENTED_EDGE('',*,*,#159,.F.);
#159 = EDGE_CURVE('',#24,#151,#160,.T.);
#160 = B_SPLINE_CURVE_WITH_KNOTS('',1,(#161,#162),.UNSPECIFIED.,.F.,.F.,
  (2,2),(-0.875,-0.125),.PIECEWISE_BEZIER_KNOTS.);
#161 = CARTESIAN_POINT('',(2.125,0.875,2.));
#162 = CARTESIAN_POINT('',(2.125,0.125,2.));
#163 = ORIENTED_EDGE('',*,*,#21,.F.);
#164 = ORIENTED_EDGE('',*,*,#56,.F.);
#165 = ORIENTED_EDGE('',*,*,#159,.T.);
#166 = ORIENTED_EDGE('',*,*,#167,.T.);
#167 = EDGE_CURVE('',#151,#168,#170,.T.);
#168 = VERTEX_POINT('',#169);
#169 = CARTESIAN_POINT('',(2.088388347648,8.838834764832E-02,
    1.911611652352));
#170 = ELLIPSE('',#171,0.176776695297,0.125);
#171 = AXIS2_PLACEMENT_3D('',#172,#173,#174);
#172 = CARTESIAN_POINT('',(2.,0.,2.));
#173 = DIRECTION('',(-0.707106781187,0.707106781187,0.));
#174 = DIRECTION('',(0.707106781187,0.707106781187,0.));
#175 = ORIENTED_EDGE('',*,*,#176,.T.);
#176 = EDGE_CURVE('',#168,#177,#179,.T.);
#177 = VERTEX_POINT('',#178);
#178 = CARTESIAN_POINT('',(2.,0.125,1.875));
#179 = ELLIPSE('',#180,0.176776695297,0.125);
#180 = AXIS2_PLACEMENT_3D('',#181,#182,#183);
#181 = CARTESIAN_POINT('',(2.,0.,2.));
#182 = DIRECTION('',(0.,0.707106781187,0.707106781187));
#183 = DIRECTION('',(0.,0.707106781187,-0.707106781187));
#184 = ORIENTED_EDGE('',*,*,#185,.T.);
#185 = EDGE_CURVE('',#177,#186,#188,.T.);
#186 = VERTEX_POINT('',#187);
#187 = CARTESIAN_POINT('',(1.875,-4.488749207237E-15,2.));
#188 = ELLIPSE('',#189,0.176776695297,0.125);
#189 = AXIS2_PLACEMENT_3D('',#190,#191,#192);
#190 = CARTESIAN_POINT('',(2.,0.,2.));
#191 = DIRECTION('',(0.,0.707106781187,0.707106781187));
#192 = DIRECTION('',(0.,0.707106781187,-0.707106781187));
#193 = ORIENTED_EDGE('',*,*,#194,.T.);
#194 = EDGE_CURVE('',#186,#195,#197,.T.);
#195 = VERTEX_POINT('',#196);
#196 = CARTESIAN_POINT('',(2.,-0.125,1.875));
#197 = ELLIPSE('',#198,0.176776695297,0.125);
#198 = AXIS2_PLACEMENT_3D('',#199,#200,#201);
#199 = CARTESIAN_POINT('',(2.,0.,2.));
#200 = DIRECTION('',(0.,-0.707106781187,0.707106781187));
#201 = DIRECTION('',(0.,-0.707106781187,-0.707106781187));
#202 = ORIENTED_EDGE('',*,*,#203,.T.);
#203 = EDGE_CURVE('',#195,#204,#206,.T.);
#204 = VERTEX_POINT('',#205);
#205 = CARTESIAN_POINT('',(2.088388347648,-8.838834764832E-02,
    1.911611652352));
#206 = ELLIPSE('',#207,0.176776695297,0.125);
#207 = AXIS2_PLACEMENT_3D('',#208,#209,#210);
#208 = CARTESIAN_POINT('',(2.,0.,2.));
#209 = DIRECTION('',(0.,-0.707106781187,0.707106781187));
#210 = DIRECTION('',(0.,-0.707106781187,-0.707106781187));
#211 = ORIENTED_EDGE('',*,*,#212,.T.);
#212 = EDGE_CURVE('',#204,#213,#215,.T.);
#213 = VERTEX_POINT('',#214);
#214 = CARTESIAN_POINT('',(2.125,-0.125,2.));
#215 = ELLIPSE('',#216,0.176776695297,0.125);
#216 = AXIS2_PLACEMENT_3D('',#217,#218,#219);
#217 = CARTESIAN_POINT('',(2.,0.,2.));
#218 = DIRECTION('',(-0.707106781187,-0.707106781187,0.));
#219 = DIRECTION('',(0.707106781187,-0.707106781187,0.));
#220 = ORIENTED_EDGE('',*,*,#221,.T.);
#221 = EDGE_CURVE('',#213,#222,#224,.T.);
#222 = VERTEX_POINT('',#223);
#223 = CARTESIAN_POINT('',(2.125,-0.875,2.));
#224 = B_SPLINE_CURVE_WITH_KNOTS('',1,(#225,#226),.UNSPECIFIED.,.F.,.F.,
  (2,2),(0.125,0.875),.PIECEWISE_BEZIER_KNOTS.);
#225 = CARTESIAN_POINT('',(2.125,-0.125,2.));
#226 = CARTESIAN_POINT('',(2.125,-0.875,2.));
#227 = ORIENTED_EDGE('',*,*,#228,.F.);
#228 = EDGE_CURVE('',#229,#222,#231,.T.);
#229 = VERTEX_POINT('',#230);
#230 = CARTESIAN_POINT('',(2.,-0.875,1.875));
#231 = CIRCLE('',#232,0.125);
#232 = AXIS2_PLACEMENT_3D('',#233,#234,#235);
#233 = CARTESIAN_POINT('',(2.,-0.875,2.));
#234 = DIRECTION('',(0.,-1.,0.));
#235 = DIRECTION('',(0.,0.,-1.));
#236 = ORIENTED_EDGE('',*,*,#237,.F.);
#237 = EDGE_CURVE('',#222,#229,#238,.T.);
#238 = CIRCLE('',#239,0.125);
#239 = AXIS2_PLACEMENT_3D('',#240,#241,#242);
#240 = CARTESIAN_POINT('',(2.,-0.875,2.));
#241 = DIRECTION('',(0.,-1.,0.));
#242 = DIRECTION('',(0.,0.,-1.));
#243 = ORIENTED_EDGE('',*,*,#221,.F.);
#244 = ORIENTED_EDGE('',*,*,#245,.T.);
#245 = EDGE_CURVE('',#213,#246,#248,.T.);
#246 = VERTEX_POINT('',#247);
#247 = CARTESIAN_POINT('',(2.01,-9.999999999988E-03,2.124599357944));
#248 = ELLIPSE('',#249,0.176776695297,0.125);
#249 = AXIS2_PLACEMENT_3D('',#250,#251,#252);
#250 = CARTESIAN_POINT('',(2.,0.,2.));
#251 = DIRECTION('',(-0.707106781187,-0.707106781187,0.));
#252 = DIRECTION('',(0.707106781187,-0.707106781187,0.));
#253 = ORIENTED_EDGE('',*,*,#254,.T.);
#254 = EDGE_CURVE('',#246,#140,#255,.T.);
#255 = ELLIPSE('',#256,0.176776695297,0.125);
#256 = AXIS2_PLACEMENT_3D('',#257,#258,#259);
#257 = CARTESIAN_POINT('',(2.,0.,2.));
#258 = DIRECTION('',(-0.707106781187,-0.707106781187,0.));
#259 = DIRECTION('',(0.707106781187,-0.707106781187,0.));
#260 = CYLINDRICAL_SURFACE('',#261,0.125);
#261 = AXIS2_PLACEMENT_3D('',#262,#263,#264);
#262 = CARTESIAN_POINT('',(2.,0.,2.));
#263 = DIRECTION('',(0.,-1.,0.));
#264 = DIRECTION('',(0.,0.,-1.));
#265 = ADVANCED_FACE('',(#266),#313,.T.);
#266 = FACE_BOUND('',#267,.T.);
#267 = EDGE_LOOP('',(#268,#269,#270,#271,#280,#288,#297,#304,#305,#312)
  );
#268 = ORIENTED_EDGE('',*,*,#194,.F.);
#269 = ORIENTED_EDGE('',*,*,#185,.F.);
#270 = ORIENTED_EDGE('',*,*,#176,.F.);
#271 = ORIENTED_EDGE('',*,*,#272,.F.);
#272 = EDGE_CURVE('',#273,#168,#275,.T.);
#273 = VERTEX_POINT('',#274);
#274 = CARTESIAN_POINT('',(2.125,-3.061616997868E-17,1.875));
#275 = ELLIPSE('',#276,0.176776695297,0.125);
#276 = AXIS2_PLACEMENT_3D('',#277,#278,#279);
#277 = CARTESIAN_POINT('',(2.,0.,2.));
#278 = DIRECTION('',(0.707106781187,-0.,0.707106781187));
#279 = DIRECTION('',(0.707106781187,0.,-0.707106781187));
#280 = ORIENTED_EDGE('',*,*,#281,.F.);
#281 = EDGE_CURVE('',#282,#273,#284,.T.);
#282 = VERTEX_POINT('',#283);
#283 = CARTESIAN_POINT('',(2.125,-3.061616997868E-17,0.125));
#284 = LINE('',#285,#286);
#285 = CARTESIAN_POINT('',(2.125,-3.061616997868E-17,0.125));
#286 = VECTOR('',#287,1.);
#287 = DIRECTION('',(0.,0.,1.));
#288 = ORIENTED_EDGE('',*,*,#289,.F.);
#289 = EDGE_CURVE('',#290,#282,#292,.T.);
#290 = VERTEX_POINT('',#291);
#291 = CARTESIAN_POINT('',(1.875,1.020538999289E-17,0.125));
#292 = CIRCLE('',#293,0.125);
#293 = AXIS2_PLACEMENT_3D('',#294,#295,#296);
#294 = CARTESIAN_POINT('',(2.,0.,0.125));
#295 = DIRECTION('',(6.049014748177E-16,0.,-1.));
#296 = DIRECTION('',(1.,0.,6.049014748177E-16));
#297 = ORIENTED_EDGE('',*,*,#298,.F.);
#298 = EDGE_CURVE('',#282,#290,#299,.T.);
#299 = CIRCLE('',#300,0.125);
#300 = AXIS2_PLACEMENT_3D('',#301,#302,#303);
#301 = CARTESIAN_POINT('',(2.,0.,0.125));
#302 = DIRECTION('',(6.049014748177E-16,0.,-1.));
#303 = DIRECTION('',(1.,0.,6.049014748177E-16));
#304 = ORIENTED_EDGE('',*,*,#281,.T.);
#305 = ORIENTED_EDGE('',*,*,#306,.F.);
#306 = EDGE_CURVE('',#204,#273,#307,.T.);
#307 = ELLIPSE('',#308,0.176776695297,0.125);
#308 = AXIS2_PLACEMENT_3D('',#309,#310,#311);
#309 = CARTESIAN_POINT('',(2.,0.,2.));
#310 = DIRECTION('',(0.707106781187,-0.,0.707106781187));
#311 = DIRECTION('',(0.707106781187,0.,-0.707106781187));
#312 = ORIENTED_EDGE('',*,*,#203,.F.);
#313 = CYLINDRICAL_SURFACE('',#314,0.125);
#314 = AXIS2_PLACEMENT_3D('',#315,#316,#317);
#315 = CARTESIAN_POINT('',(2.,0.,0.125));
#316 = DIRECTION('',(0.,0.,1.));
#317 = DIRECTION('',(1.,0.,0.));
#318 = ADVANCED_FACE('',(#319),#330,.T.);
#319 = FACE_BOUND('',#320,.T.);
#320 = EDGE_LOOP('',(#321,#328,#329));
#321 = ORIENTED_EDGE('',*,*,#322,.T.);
#322 = EDGE_CURVE('',#290,#290,#323,.T.);
#323 = CIRCLE('',#324,0.125);
#324 = AXIS2_PLACEMENT_3D('',#325,#326,#327);
#325 = CARTESIAN_POINT('',(1.875,0.,0.));
#326 = DIRECTION('',(1.,0.,-0.));
#327 = DIRECTION('',(0.,0.,1.));
#328 = ORIENTED_EDGE('',*,*,#289,.T.);
#329 = ORIENTED_EDGE('',*,*,#298,.T.);
#330 = SURFACE_OF_REVOLUTION('',#331,#336);
#331 = CIRCLE('',#332,0.125);
#332 = AXIS2_PLACEMENT_3D('',#333,#334,#335);
#333 = CARTESIAN_POINT('',(1.875,0.,0.));
#334 = DIRECTION('',(-1.,-0.,-0.));
#335 = DIRECTION('',(0.,0.,-1.));
#336 = AXIS1_PLACEMENT('',#337,#338);
#337 = CARTESIAN_POINT('',(1.875,0.,0.125));
#338 = DIRECTION('',(0.,-1.,0.));
#339 = ADVANCED_FACE('',(#340),#359,.T.);
#340 = FACE_BOUND('',#341,.T.);
#341 = EDGE_LOOP('',(#342,#343,#351,#358));
#342 = ORIENTED_EDGE('',*,*,#322,.F.);
#343 = ORIENTED_EDGE('',*,*,#344,.F.);
#344 = EDGE_CURVE('',#345,#290,#347,.T.);
#345 = VERTEX_POINT('',#346);
#346 = CARTESIAN_POINT('',(0.,3.061616997868E-17,0.125));
#347 = LINE('',#348,#349);
#348 = CARTESIAN_POINT('',(0.,3.061616997868E-17,0.125));
#349 = VECTOR('',#350,1.);
#350 = DIRECTION('',(1.,0.,0.));
#351 = ORIENTED_EDGE('',*,*,#352,.T.);
#352 = EDGE_CURVE('',#345,#345,#353,.T.);
#353 = CIRCLE('',#354,0.125);
#354 = AXIS2_PLACEMENT_3D('',#355,#356,#357);
#355 = CARTESIAN_POINT('',(0.,0.,0.));
#356 = DIRECTION('',(1.,0.,-0.));
#357 = DIRECTION('',(0.,0.,1.));
#358 = ORIENTED_EDGE('',*,*,#344,.T.);
#359 = CYLINDRICAL_SURFACE('',#360,0.125);
#360 = AXIS2_PLACEMENT_3D('',#361,#362,#363);
#361 = CARTESIAN_POINT('',(0.,0.,0.));
#362 = DIRECTION('',(1.,0.,0.));
#363 = DIRECTION('',(0.,0.,1.));
#364 = ADVANCED_FACE('',(#365),#368,.F.);
#365 = FACE_BOUND('',#366,.T.);
#366 = EDGE_LOOP('',(#367));
#367 = ORIENTED_EDGE('',*,*,#352,.F.);
#368 = PLANE('',#369);
#369 = AXIS2_PLACEMENT_3D('',#370,#371,#372);
#370 = CARTESIAN_POINT('',(0.,0.,0.));
#371 = DIRECTION('',(1.,0.,0.));
#372 = DIRECTION('',(0.,0.,1.));
#373 = ADVANCED_FACE('',(#374),#393,.T.);
#374 = FACE_BOUND('',#375,.T.);
#375 = EDGE_LOOP('',(#376,#377,#386));
#376 = ORIENTED_EDGE('',*,*,#228,.T.);
#377 = ORIENTED_EDGE('',*,*,#378,.F.);
#378 = EDGE_CURVE('',#379,#222,#381,.T.);
#379 = VERTEX_POINT('',#380);
#380 = CARTESIAN_POINT('',(2.125,-1.,1.875));
#381 = CIRCLE('',#382,0.125);
#382 = AXIS2_PLACEMENT_3D('',#383,#384,#385);
#383 = CARTESIAN_POINT('',(2.125,-1.,2.));
#384 = DIRECTION('',(1.,0.,-0.));
#385 = DIRECTION('',(0.,0.,1.));
#386 = ORIENTED_EDGE('',*,*,#387,.F.);
#387 = EDGE_CURVE('',#229,#379,#388,.T.);
#388 = CIRCLE('',#389,0.125);
#389 = AXIS2_PLACEMENT_3D('',#390,#391,#392);
#390 = CARTESIAN_POINT('',(2.125,-0.875,1.875));
#391 = DIRECTION('',(0.,0.,1.));
#392 = DIRECTION('',(-1.,-1.7763568394E-15,0.));
#393 = TOROIDAL_SURFACE('',#394,0.125,0.125);
#394 = AXIS2_PLACEMENT_3D('',#395,#396,#397);
#395 = CARTESIAN_POINT('',(2.125,-0.875,2.));
#396 = DIRECTION('',(0.,0.,1.));
#397 = DIRECTION('',(-1.,-1.7763568394E-15,0.));
#398 = ADVANCED_FACE('',(#399),#419,.T.);
#399 = FACE_BOUND('',#400,.T.);
#400 = EDGE_LOOP('',(#401,#402,#403,#412));
#401 = ORIENTED_EDGE('',*,*,#237,.T.);
#402 = ORIENTED_EDGE('',*,*,#387,.T.);
#403 = ORIENTED_EDGE('',*,*,#404,.F.);
#404 = EDGE_CURVE('',#405,#379,#407,.T.);
#405 = VERTEX_POINT('',#406);
#406 = CARTESIAN_POINT('',(2.125,-1.,2.125));
#407 = CIRCLE('',#408,0.125);
#408 = AXIS2_PLACEMENT_3D('',#409,#410,#411);
#409 = CARTESIAN_POINT('',(2.125,-1.,2.));
#410 = DIRECTION('',(1.,0.,-0.));
#411 = DIRECTION('',(0.,0.,1.));
#412 = ORIENTED_EDGE('',*,*,#413,.F.);
#413 = EDGE_CURVE('',#222,#405,#414,.T.);
#414 = CIRCLE('',#415,0.125);
#415 = AXIS2_PLACEMENT_3D('',#416,#417,#418);
#416 = CARTESIAN_POINT('',(2.125,-1.,2.));
#417 = DIRECTION('',(1.,0.,-0.));
#418 = DIRECTION('',(0.,0.,1.));
#419 = TOROIDAL_SURFACE('',#420,0.125,0.125);
#420 = AXIS2_PLACEMENT_3D('',#421,#422,#423);
#421 = CARTESIAN_POINT('',(2.125,-0.875,2.));
#422 = DIRECTION('',(0.,0.,1.));
#423 = DIRECTION('',(-1.,-1.7763568394E-15,0.));
#424 = ADVANCED_FACE('',(#425),#446,.T.);
#425 = FACE_BOUND('',#426,.T.);
#426 = EDGE_LOOP('',(#427,#428,#429,#437,#444,#445));
#427 = ORIENTED_EDGE('',*,*,#378,.T.);
#428 = ORIENTED_EDGE('',*,*,#413,.T.);
#429 = ORIENTED_EDGE('',*,*,#430,.T.);
#430 = EDGE_CURVE('',#405,#431,#433,.T.);
#431 = VERTEX_POINT('',#432);
#432 = CARTESIAN_POINT('',(3.994974854,-1.,2.125));
#433 = LINE('',#434,#435);
#434 = CARTESIAN_POINT('',(2.125,-1.,2.125));
#435 = VECTOR('',#436,1.);
#436 = DIRECTION('',(1.,0.,0.));
#437 = ORIENTED_EDGE('',*,*,#438,.F.);
#438 = EDGE_CURVE('',#431,#431,#439,.T.);
#439 = CIRCLE('',#440,0.125);
#440 = AXIS2_PLACEMENT_3D('',#441,#442,#443);
#441 = CARTESIAN_POINT('',(3.994974854,-1.,2.));
#442 = DIRECTION('',(1.,0.,-0.));
#443 = DIRECTION('',(0.,0.,1.));
#444 = ORIENTED_EDGE('',*,*,#430,.F.);
#445 = ORIENTED_EDGE('',*,*,#404,.T.);
#446 = CYLINDRICAL_SURFACE('',#447,0.125);
#447 = AXIS2_PLACEMENT_3D('',#448,#449,#450);
#448 = CARTESIAN_POINT('',(2.125,-1.,2.));
#449 = DIRECTION('',(1.,0.,0.));
#450 = DIRECTION('',(0.,0.,1.));
#451 = ADVANCED_FACE('',(#452),#471,.T.);
#452 = FACE_BOUND('',#453,.T.);
#453 = EDGE_LOOP('',(#454,#463,#469,#470));
#454 = ORIENTED_EDGE('',*,*,#455,.F.);
#455 = EDGE_CURVE('',#456,#456,#458,.T.);
#456 = VERTEX_POINT('',#457);
#457 = CARTESIAN_POINT('',(4.,-1.,2.1244416504));
#458 = CIRCLE('',#459,0.1244416504);
#459 = AXIS2_PLACEMENT_3D('',#460,#461,#462);
#460 = CARTESIAN_POINT('',(4.,-1.,2.));
#461 = DIRECTION('',(1.,0.,-0.));
#462 = DIRECTION('',(0.,0.,1.));
#463 = ORIENTED_EDGE('',*,*,#464,.F.);
#464 = EDGE_CURVE('',#431,#456,#465,.T.);
#465 = LINE('',#466,#467);
#466 = CARTESIAN_POINT('',(3.994974854,-1.,2.125));
#467 = VECTOR('',#468,1.);
#468 = DIRECTION('',(0.993883733709,-2.704792511325E-17,-0.110431534758)
  );
#469 = ORIENTED_EDGE('',*,*,#438,.T.);
#470 = ORIENTED_EDGE('',*,*,#464,.T.);
#471 = CONICAL_SURFACE('',#472,0.125,0.11065722991);
#472 = AXIS2_PLACEMENT_3D('',#473,#474,#475);
#473 = CARTESIAN_POINT('',(3.994974854,-1.,2.));
#474 = DIRECTION('',(-1.,-0.,-0.));
#475 = DIRECTION('',(0.,0.,1.));
#476 = ADVANCED_FACE('',(#477),#480,.T.);
#477 = FACE_BOUND('',#478,.T.);
#478 = EDGE_LOOP('',(#479));
#479 = ORIENTED_EDGE('',*,*,#455,.T.);
#480 = PLANE('',#481);
#481 = AXIS2_PLACEMENT_3D('',#482,#483,#484);
#482 = CARTESIAN_POINT('',(4.,-1.,2.));
#483 = DIRECTION('',(1.,0.,0.));
#484 = DIRECTION('',(0.,0.,1.));
#485 = ADVANCED_FACE('',(#486),#511,.T.);
#486 = FACE_BOUND('',#487,.T.);
#487 = EDGE_LOOP('',(#488,#489,#496,#503,#504,#505,#506,#507,#508,#509,
    #510));
#488 = ORIENTED_EDGE('',*,*,#139,.F.);
#489 = ORIENTED_EDGE('',*,*,#490,.T.);
#490 = EDGE_CURVE('',#140,#491,#493,.T.);
#491 = VERTEX_POINT('',#492);
#492 = CARTESIAN_POINT('',(3.518995209,3.061616997868E-17,2.125));
#493 = B_SPLINE_CURVE_WITH_KNOTS('',1,(#494,#495),.UNSPECIFIED.,.F.,.F.,
  (2,2),(0.,1.518995209),.PIECEWISE_BEZIER_KNOTS.);
#494 = CARTESIAN_POINT('',(2.,0.,2.125));
#495 = CARTESIAN_POINT('',(3.518995209,0.,2.125));
#496 = ORIENTED_EDGE('',*,*,#497,.F.);
#497 = EDGE_CURVE('',#491,#491,#498,.T.);
#498 = CIRCLE('',#499,0.125);
#499 = AXIS2_PLACEMENT_3D('',#500,#501,#502);
#500 = CARTESIAN_POINT('',(3.518995209,0.,2.));
#501 = DIRECTION('',(1.,0.,-0.));
#502 = DIRECTION('',(0.,0.,1.));
#503 = ORIENTED_EDGE('',*,*,#490,.F.);
#504 = ORIENTED_EDGE('',*,*,#254,.F.);
#505 = ORIENTED_EDGE('',*,*,#245,.F.);
#506 = ORIENTED_EDGE('',*,*,#212,.F.);
#507 = ORIENTED_EDGE('',*,*,#306,.T.);
#508 = ORIENTED_EDGE('',*,*,#272,.T.);
#509 = ORIENTED_EDGE('',*,*,#167,.F.);
#510 = ORIENTED_EDGE('',*,*,#150,.F.);
#511 = CYLINDRICAL_SURFACE('',#512,0.125);
#512 = AXIS2_PLACEMENT_3D('',#513,#514,#515);
#513 = CARTESIAN_POINT('',(2.,0.,2.));
#514 = DIRECTION('',(1.,0.,0.));
#515 = DIRECTION('',(0.,0.,1.));
#516 = ADVANCED_FACE('',(#517),#536,.T.);
#517 = FACE_BOUND('',#518,.T.);
#518 = EDGE_LOOP('',(#519,#528,#534,#535));
#519 = ORIENTED_EDGE('',*,*,#520,.F.);
#520 = EDGE_CURVE('',#521,#521,#523,.T.);
#521 = VERTEX_POINT('',#522);
#522 = CARTESIAN_POINT('',(4.,1.752592602496E-17,2.0715550232));
#523 = CIRCLE('',#524,7.15550232E-02);
#524 = AXIS2_PLACEMENT_3D('',#525,#526,#527);
#525 = CARTESIAN_POINT('',(4.,0.,2.));
#526 = DIRECTION('',(1.,0.,-0.));
#527 = DIRECTION('',(0.,0.,1.));
#528 = ORIENTED_EDGE('',*,*,#529,.F.);
#529 = EDGE_CURVE('',#491,#521,#530,.T.);
#530 = LINE('',#531,#532);
#531 = CARTESIAN_POINT('',(3.518995209,3.061616997868E-17,2.125));
#532 = VECTOR('',#533,1.);
#533 = DIRECTION('',(0.993883734669,-2.704792299761E-17,-0.11043152612)
  );
#534 = ORIENTED_EDGE('',*,*,#497,.T.);
#535 = ORIENTED_EDGE('',*,*,#529,.T.);
#536 = CONICAL_SURFACE('',#537,0.125,0.11065722122);
#537 = AXIS2_PLACEMENT_3D('',#538,#539,#540);
#538 = CARTESIAN_POINT('',(3.518995209,0.,2.));
#539 = DIRECTION('',(-1.,-0.,-0.));
#540 = DIRECTION('',(0.,0.,1.));
#541 = ADVANCED_FACE('',(#542),#545,.T.);
#542 = FACE_BOUND('',#543,.T.);
#543 = EDGE_LOOP('',(#544));
#544 = ORIENTED_EDGE('',*,*,#520,.T.);
#545 = PLANE('',#546);
#546 = AXIS2_PLACEMENT_3D('',#547,#548,#549);
#547 = CARTESIAN_POINT('',(4.,0.,2.));
#548 = DIRECTION('',(1.,0.,0.));
#549 = DIRECTION('',(0.,0.,1.));
#550 = ( GEOMETRIC_REPRESENTATION_CONTEXT(3) 
GLOBAL_UNCERTAINTY_ASSIGNED_CONTEXT((#554)) GLOBAL_UNIT_ASSIGNED_CONTEXT
((#551,#552,#553)) REPRESENTATION_CONTEXT('Context #1',
  '3D Context with UNIT and UNCERTAINTY') );
#551 = ( LENGTH_UNIT() NAMED_UNIT(*) SI_UNIT(.MILLI.,.METRE.) );
#552 = ( NAMED_UNIT(*) PLANE_ANGLE_UNIT() SI_UNIT($,.RADIAN.) );
#553 = ( NAMED_UNIT(*) SI_UNIT($,.STERADIAN.) SOLID_ANGLE_UNIT() );
#554 = UNCERTAINTY_MEASURE_WITH_UNIT(LENGTH_MEASURE(2.E-06),#551,
  'distance_accuracy_value','confusion accuracy');
#555 = PRODUCT_RELATED_PRODUCT_CATEGORY('part',$,(#7));
ENDSEC;
END-ISO-10303-21;
