solid inlet
  facet normal -1.000000000e+00 0.000000000e+00 0.000000000e+00
    outer loop
      vertex 0.000000000e+00 1.218112424e-01 2.805389867e-02
      vertex 0.000000000e+00 1.200892009e-01 3.469270578e-02
      vertex 0.000000000e+00 1.209957625e-01 3.138511509e-02
    endloop
  endfacet
  facet normal -1.000000000e+00 0.000000000e+00 0.000000000e+00
    outer loop
      vertex 0.000000000e+00 1.155668020e-01 4.763732025e-02
      vertex 0.000000000e+00 1.112588014e-01 5.697788262e-02
      vertex 0.000000000e+00 1.142164199e-01 5.078985550e-02
    endloop
  endfacet
  facet normal -1.000000000e+00 0.000000000e+00 0.000000000e+00
    outer loop
      vertex 0.000000000e+00 1.142164199e-01 5.078985550e-02
      vertex 0.000000000e+00 1.112588014e-01 5.697788262e-02
      vertex 0.000000000e+00 1.127800593e-01 5.390415774e-02
    endloop
  endfacet
  facet normal -1.000000000e+00 0.000000000e+00 0.000000000e+00
    outer loop
      vertex 0.000000000e+00 1.112588014e-01 5.697788262e-02
      vertex 0.000000000e+00 1.061974098e-01 6.593261821e-02
      vertex 0.000000000e+00 1.096537914e-01 6.000871633e-02
    endloop
  endfacet
  facet normal -1.000000000e+00 0.000000000e+00 0.000000000e+00
    outer loop
      vertex 0.000000000e+00 1.096537914e-01 6.000871633e-02
      vertex 0.000000000e+00 1.061974098e-01 6.593261821e-02
      vertex 0.000000000e+00 1.079662374e-01 6.299437737e-02
    endloop
  endfacet
  facet normal -1.000000000e+00 0.000000000e+00 0.000000000e+00
    outer loop
      vertex 0.000000000e+00 1.061974098e-01 6.593261821e-02
      vertex 0.000000000e+00 1.024213201e-01 7.165802941e-02
      vertex 0.000000000e+00 1.043486402e-01 6.882122704e-02
    endloop
  endfacet
  facet normal -1.000000000e+00 0.000000000e+00 0.000000000e+00
    outer loop
      vertex 0.000000000e+00 -7.235888412e-02 -1.019273854e-01
      vertex 0.000000000e+00 -7.512793015e-02 -9.990392440e-02
      vertex 0.000000000e+00 -6.953536859e-02 -1.038741186e-01
    endloop
  endfacet
  facet normal -1.000000000e+00 0.000000000e+00 0.000000000e+00
    outer loop
      vertex 0.000000000e+00 1.004169005e-01 7.444088987e-02
      vertex 0.000000000e+00 9.618285503e-02 7.983644780e-02
      vertex 0.000000000e+00 9.833689026e-02 7.716771355e-02
    endloop
  endfacet
  facet normal -1.000000000e+00 0.000000000e+00 0.000000000e+00
    outer loop
      vertex 0.000000000e+00 9.165925027e-02 8.499165747e-02
      vertex 0.000000000e+00 8.685970460e-02 8.989099908e-02
      vertex 0.000000000e+00 8.929308595e-02 8.747425222e-02
    endloop
  endfacet
  facet normal -1.000000000e+00 0.000000000e+00 0.000000000e+00
    outer loop
      vertex 0.000000000e+00 9.165925027e-02 8.499165747e-02
      vertex 0.000000000e+00 8.436093799e-02 9.224007882e-02
      vertex 0.000000000e+00 8.685970460e-02 8.989099908e-02
    endloop
  endfacet
  facet normal -1.000000000e+00 0.000000000e+00 0.000000000e+00
    outer loop
      vertex 0.000000000e+00 9.395641637e-02 8.244508367e-02
      vertex 0.000000000e+00 8.436093799e-02 9.224007882e-02
      vertex 0.000000000e+00 9.165925027e-02 8.499165747e-02
    endloop
  endfacet
  facet normal -1.000000000e+00 0.000000000e+00 0.000000000e+00
    outer loop
      vertex 0.000000000e+00 -9.048468277e-02 -8.624107017e-02
      vertex 0.000000000e+00 -9.281656741e-02 -8.372624926e-02
      vertex 0.000000000e+00 -8.808468409e-02 -8.869097151e-02
    endloop
  endfacet
  facet normal -1.000000000e+00 0.000000000e+00 0.000000000e+00
    outer loop
      vertex 0.000000000e+00 -8.808468409e-02 -8.869097151e-02
      vertex 0.000000000e+00 -9.281656741e-02 -8.372624926e-02
      vertex 0.000000000e+00 -8.561837803e-02 -9.107410907e-02
    endloop
  endfacet
  facet normal -1.000000000e+00 0.000000000e+00 0.000000000e+00
    outer loop
      vertex 0.000000000e+00 8.179866711e-02 9.451972313e-02
      vertex 0.000000000e+00 7.649137407e-02 9.886389479e-02
      vertex 0.000000000e+00 7.917482075e-02 9.672821594e-02
    endloop
  endfacet
  facet normal -1.000000000e+00 0.000000000e+00 0.000000000e+00
    outer loop
      vertex 0.000000000e+00 -9.726902571e-02 -7.850946846e-02
      vertex 0.000000000e+00 -9.938624770e-02 -7.581143560e-02
      vertex 0.000000000e+00 -9.507858265e-02 -8.114840184e-02
    endloop
  endfacet
  facet normal -1.000000000e+00 0.000000000e+00 0.000000000e+00
    outer loop
      vertex 0.000000000e+00 7.649137407e-02 9.886389479e-02
      vertex 0.000000000e+00 7.095380314e-02 1.029104359e-01
      vertex 0.000000000e+00 7.375034708e-02 1.009251520e-01
    endloop
  endfacet
  facet normal -1.000000000e+00 0.000000000e+00 0.000000000e+00
    outer loop
      vertex 0.000000000e+00 8.179866711e-02 9.451972313e-02
      vertex 0.000000000e+00 7.095380314e-02 1.029104359e-01
      vertex 0.000000000e+00 7.649137407e-02 9.886389479e-02
    endloop
  endfacet
  facet normal -1.000000000e+00 0.000000000e+00 0.000000000e+00
    outer loop
      vertex 0.000000000e+00 8.436093799e-02 9.224007882e-02
      vertex 0.000000000e+00 6.810384741e-02 1.048182521e-01
      vertex 0.000000000e+00 8.179866711e-02 9.451972313e-02
    endloop
  endfacet
  facet normal -1.000000000e+00 0.000000000e+00 0.000000000e+00
    outer loop
      vertex 0.000000000e+00 8.179866711e-02 9.451972313e-02
      vertex 0.000000000e+00 6.810384741e-02 1.048182521e-01
      vertex 0.000000000e+00 7.095380314e-02 1.029104359e-01
    endloop
  endfacet
  facet normal -1.000000000e+00 0.000000000e+00 0.000000000e+00
    outer loop
      vertex 0.000000000e+00 6.520262523e-02 1.066471643e-01
      vertex 0.000000000e+00 5.925515429e-02 1.100628306e-01
      vertex 0.000000000e+00 6.225232056e-02 1.083957960e-01
    endloop
  endfacet
  facet normal -1.000000000e+00 0.000000000e+00 0.000000000e+00
    outer loop
      vertex 0.000000000e+00 -1.088202544e-01 -6.150733472e-02
      vertex 0.000000000e+00 -1.104666914e-01 -5.849880424e-02
      vertex 0.000000000e+00 -1.070919010e-01 -6.446956441e-02
    endloop
  endfacet
  facet normal -1.000000000e+00 0.000000000e+00 0.000000000e+00
    outer loop
      vertex 0.000000000e+00 -1.070919010e-01 -6.446956441e-02
      vertex 0.000000000e+00 -1.104666914e-01 -5.849880424e-02
      vertex 0.000000000e+00 -1.052829322e-01 -6.738326343e-02
    endloop
  endfacet
  facet normal -1.000000000e+00 0.000000000e+00 0.000000000e+00
    outer loop
      vertex 0.000000000e+00 -1.052829322e-01 -6.738326343e-02
      vertex 0.000000000e+00 -1.104666914e-01 -5.849880424e-02
      vertex 0.000000000e+00 -1.033947097e-01 -7.024623844e-02
    endloop
  endfacet
  facet normal -1.000000000e+00 0.000000000e+00 0.000000000e+00
    outer loop
      vertex 0.000000000e+00 -1.033947097e-01 -7.024623844e-02
      vertex 0.000000000e+00 -1.104666914e-01 -5.849880424e-02
      vertex 0.000000000e+00 -1.014286548e-01 -7.305633428e-02
    endloop
  endfacet
  facet normal -1.000000000e+00 0.000000000e+00 0.000000000e+00
    outer loop
      vertex 0.000000000e+00 -1.174289595e-01 -4.284202913e-02
      vertex 0.000000000e+00 -1.185600914e-01 -3.960435235e-02
      vertex 0.000000000e+00 -1.162094308e-01 -4.604745577e-02
    endloop
  endfacet
  facet normal -1.000000000e+00 0.000000000e+00 0.000000000e+00
    outer loop
      vertex 0.000000000e+00 4.041666210e-02 1.182856434e-01
      vertex 0.000000000e+00 3.386815950e-02 1.203243441e-01
      vertex 0.000000000e+00 3.715639589e-02 1.193499151e-01
    endloop
  endfacet
  facet normal -1.000000000e+00 0.000000000e+00 0.000000000e+00
    outer loop
      vertex 0.000000000e+00 3.386815950e-02 1.203243441e-01
      vertex 0.000000000e+00 2.721769654e-02 1.220008074e-01
      vertex 0.000000000e+00 3.055442823e-02 1.212081966e-01
    endloop
  endfacet
  facet normal -1.000000000e+00 0.000000000e+00 0.000000000e+00
    outer loop
      vertex 0.000000000e+00 4.041666210e-02 1.182856434e-01
      vertex 0.000000000e+00 2.721769654e-02 1.220008074e-01
      vertex 0.000000000e+00 3.386815950e-02 1.203243441e-01
    endloop
  endfacet
  facet normal -1.000000000e+00 0.000000000e+00 0.000000000e+00
    outer loop
      vertex 0.000000000e+00 2.386047622e-02 1.227015798e-01
      vertex 0.000000000e+00 1.709469206e-02 1.238255689e-01
      vertex 0.000000000e+00 2.048529449e-02 1.233099863e-01
    endloop
  endfacet
  facet normal -1.000000000e+00 0.000000000e+00 0.000000000e+00
    outer loop
      vertex 0.000000000e+00 1.709469206e-02 1.238255689e-01
      vertex 0.000000000e+00 1.027744419e-02 1.245767801e-01
      vertex 0.000000000e+00 1.369122129e-02 1.242479395e-01
    endloop
  endfacet
  facet normal -1.000000000e+00 0.000000000e+00 0.000000000e+00
    outer loop
      vertex 0.000000000e+00 1.709469206e-02 1.238255689e-01
      vertex 0.000000000e+00 6.855930561e-03 1.248118433e-01
      vertex 0.000000000e+00 1.027744419e-02 1.245767801e-01
    endloop
  endfacet
  facet normal -1.000000000e+00 0.000000000e+00 0.000000000e+00
    outer loop
      vertex 0.000000000e+00 3.061616998e-17 1.250000000e-01
      vertex 0.000000000e+00 -6.855930561e-03 1.248118433e-01
      vertex 0.000000000e+00 -3.429255999e-03 1.249529520e-01
    endloop
  endfacet
  facet normal -1.000000000e+00 -0.000000000e+00 0.000000000e+00
    outer loop
      vertex 0.000000000e+00 3.429255999e-03 1.249529520e-01
      vertex 0.000000000e+00 -6.855930561e-03 1.248118433e-01
      vertex 0.000000000e+00 3.061616998e-17 1.250000000e-01
    endloop
  endfacet
  facet normal -1.000000000e+00 0.000000000e+00 0.000000000e+00
    outer loop
      vertex 0.000000000e+00 -1.027744419e-02 1.245767801e-01
      vertex 0.000000000e+00 -1.709469206e-02 1.238255689e-01
      vertex 0.000000000e+00 -1.369122129e-02 1.242479395e-01
    endloop
  endfacet
  facet normal -1.000000000e+00 0.000000000e+00 0.000000000e+00
    outer loop
      vertex 0.000000000e+00 -1.709469206e-02 1.238255689e-01
      vertex 0.000000000e+00 -2.386047622e-02 1.227015798e-01
      vertex 0.000000000e+00 -2.048529449e-02 1.233099863e-01
    endloop
  endfacet
  facet normal -1.000000000e+00 0.000000000e+00 -0.000000000e+00
    outer loop
      vertex 0.000000000e+00 -1.225350265e-01 2.470156415e-02
      vertex 0.000000000e+00 -1.218112424e-01 2.805389867e-02
      vertex 0.000000000e+00 -1.231665702e-01 2.133063507e-02
    endloop
  endfacet
  facet normal -1.000000000e+00 0.000000000e+00 0.000000000e+00
    outer loop
      vertex 0.000000000e+00 -2.386047622e-02 1.227015798e-01
      vertex 0.000000000e+00 -3.055442823e-02 1.212081966e-01
      vertex 0.000000000e+00 -2.721769654e-02 1.220008074e-01
    endloop
  endfacet
  facet normal -1.000000000e+00 0.000000000e+00 0.000000000e+00
    outer loop
      vertex 0.000000000e+00 -3.386815950e-02 1.203243441e-01
      vertex 0.000000000e+00 -4.041666210e-02 1.182856434e-01
      vertex 0.000000000e+00 -3.715639589e-02 1.193499151e-01
    endloop
  endfacet
  facet normal -1.000000000e+00 0.000000000e+00 -0.000000000e+00
    outer loop
      vertex 0.000000000e+00 -1.180056299e-01 4.122707022e-02
      vertex 0.000000000e+00 -1.168301890e-01 4.444892511e-02
      vertex 0.000000000e+00 -1.190922398e-01 3.797418089e-02
    endloop
  endfacet
  facet normal -1.000000000e+00 0.000000000e+00 0.000000000e+00
    outer loop
      vertex 0.000000000e+00 -4.041666210e-02 1.182856434e-01
      vertex 0.000000000e+00 -4.684349002e-02 1.158908428e-01
      vertex 0.000000000e+00 -4.364650392e-02 1.171323298e-01
    endloop
  endfacet
  facet normal -1.000000000e+00 0.000000000e+00 0.000000000e+00
    outer loop
      vertex 0.000000000e+00 -4.041666210e-02 1.182856434e-01
      vertex 0.000000000e+00 -5.000521381e-02 1.145621167e-01
      vertex 0.000000000e+00 -4.684349002e-02 1.158908428e-01
    endloop
  endfacet
  facet normal -1.000000000e+00 0.000000000e+00 -0.000000000e+00
    outer loop
      vertex 0.000000000e+00 -1.155668020e-01 4.763732025e-02
      vertex 0.000000000e+00 -1.142164199e-01 5.078985550e-02
      vertex 0.000000000e+00 -1.168301890e-01 4.444892511e-02
    endloop
  endfacet
  facet normal -1.000000000e+00 0.000000000e+00 0.000000000e+00
    outer loop
      vertex 0.000000000e+00 -5.000521381e-02 1.145621167e-01
      vertex 0.000000000e+00 -6.225232056e-02 1.083957960e-01
      vertex 0.000000000e+00 -5.312929524e-02 1.131471519e-01
    endloop
  endfacet
  facet normal -1.000000000e+00 0.000000000e+00 0.000000000e+00
    outer loop
      vertex 0.000000000e+00 -5.312929524e-02 1.131471519e-01
      vertex 0.000000000e+00 -6.225232056e-02 1.083957960e-01
      vertex 0.000000000e+00 -5.621338260e-02 1.116470135e-01
    endloop
  endfacet
  facet normal -1.000000000e+00 0.000000000e+00 0.000000000e+00
    outer loop
      vertex 0.000000000e+00 -5.621338260e-02 1.116470135e-01
      vertex 0.000000000e+00 -6.225232056e-02 1.083957960e-01
      vertex 0.000000000e+00 -5.925515429e-02 1.100628306e-01
    endloop
  endfacet
  facet normal -1.000000000e+00 0.000000000e+00 -0.000000000e+00
    outer loop
      vertex 0.000000000e+00 -1.096537914e-01 6.000871633e-02
      vertex 0.000000000e+00 -1.079662374e-01 6.299437737e-02
      vertex 0.000000000e+00 -1.112588014e-01 5.697788262e-02
    endloop
  endfacet
  facet normal -1.000000000e+00 0.000000000e+00 -0.000000000e+00
    outer loop
      vertex 0.000000000e+00 -1.112588014e-01 5.697788262e-02
      vertex 0.000000000e+00 -1.079662374e-01 6.299437737e-02
      vertex 0.000000000e+00 -1.127800593e-01 5.390415774e-02
    endloop
  endfacet
  facet normal -1.000000000e+00 0.000000000e+00 0.000000000e+00
    outer loop
      vertex 0.000000000e+00 -6.225232056e-02 1.083957960e-01
      vertex 0.000000000e+00 -6.810384741e-02 1.048182521e-01
      vertex 0.000000000e+00 -6.520262523e-02 1.066471643e-01
    endloop
  endfacet
  facet normal -1.000000000e+00 0.000000000e+00 0.000000000e+00
    outer loop
      vertex 0.000000000e+00 -6.810384741e-02 1.048182521e-01
      vertex 0.000000000e+00 -7.375034708e-02 1.009251520e-01
      vertex 0.000000000e+00 -7.095380314e-02 1.029104359e-01
    endloop
  endfacet
  facet normal -1.000000000e+00 0.000000000e+00 -0.000000000e+00
    outer loop
      vertex 0.000000000e+00 -9.618285503e-02 7.983644780e-02
      vertex 0.000000000e+00 -9.395641637e-02 8.244508367e-02
      vertex 0.000000000e+00 -9.833689026e-02 7.716771355e-02
    endloop
  endfacet
  facet normal -1.000000000e+00 0.000000000e+00 -0.000000000e+00
    outer loop
      vertex 0.000000000e+00 -9.833689026e-02 7.716771355e-02
      vertex 0.000000000e+00 -9.395641637e-02 8.244508367e-02
      vertex 0.000000000e+00 -1.004169005e-01 7.444088987e-02
    endloop
  endfacet
  facet normal -1.000000000e+00 0.000000000e+00 -0.000000000e+00
    outer loop
      vertex 0.000000000e+00 -1.004169005e-01 7.444088987e-02
      vertex 0.000000000e+00 -9.395641637e-02 8.244508367e-02
      vertex 0.000000000e+00 -1.024213201e-01 7.165802941e-02
    endloop
  endfacet
  facet normal -1.000000000e+00 0.000000000e+00 -0.000000000e+00
    outer loop
      vertex 0.000000000e+00 -1.024213201e-01 7.165802941e-02
      vertex 0.000000000e+00 -9.395641637e-02 8.244508367e-02
      vertex 0.000000000e+00 -1.043486402e-01 6.882122704e-02
    endloop
  endfacet
  facet normal -1.000000000e+00 0.000000000e+00 -0.000000000e+00
    outer loop
      vertex 0.000000000e+00 -1.043486402e-01 6.882122704e-02
      vertex 0.000000000e+00 -9.395641637e-02 8.244508367e-02
      vertex 0.000000000e+00 -1.061974098e-01 6.593261821e-02
    endloop
  endfacet
  facet normal -1.000000000e+00 0.000000000e+00 -0.000000000e+00
    outer loop
      vertex 0.000000000e+00 -1.061974098e-01 6.593261821e-02
      vertex 0.000000000e+00 -9.395641637e-02 8.244508367e-02
      vertex 0.000000000e+00 -1.079662374e-01 6.299437737e-02
    endloop
  endfacet
  facet normal -1.000000000e+00 0.000000000e+00 0.000000000e+00
    outer loop
      vertex 0.000000000e+00 -7.649137407e-02 9.886389479e-02
      vertex 0.000000000e+00 -8.436093799e-02 9.224007882e-02
      vertex 0.000000000e+00 -7.917482075e-02 9.672821594e-02
    endloop
  endfacet
  facet normal -1.000000000e+00 0.000000000e+00 0.000000000e+00
    outer loop
      vertex 0.000000000e+00 -7.917482075e-02 9.672821594e-02
      vertex 0.000000000e+00 -8.436093799e-02 9.224007882e-02
      vertex 0.000000000e+00 -8.179866711e-02 9.451972313e-02
    endloop
  endfacet
  facet normal -1.000000000e+00 0.000000000e+00 0.000000000e+00
    outer loop
      vertex 0.000000000e+00 -6.855930561e-03 1.248118433e-01
      vertex 0.000000000e+00 -8.929308595e-02 8.747425222e-02
      vertex 0.000000000e+00 -1.027744419e-02 1.245767801e-01
    endloop
  endfacet
  facet normal -1.000000000e+00 0.000000000e+00 0.000000000e+00
    outer loop
      vertex 0.000000000e+00 -3.055442823e-02 1.212081966e-01
      vertex 0.000000000e+00 -8.929308595e-02 8.747425222e-02
      vertex 0.000000000e+00 -3.386815950e-02 1.203243441e-01
    endloop
  endfacet
  facet normal -1.000000000e+00 0.000000000e+00 0.000000000e+00
    outer loop
      vertex 0.000000000e+00 -7.375034708e-02 1.009251520e-01
      vertex 0.000000000e+00 -8.929308595e-02 8.747425222e-02
      vertex 0.000000000e+00 -7.649137407e-02 9.886389479e-02
    endloop
  endfacet
  facet normal -1.000000000e+00 0.000000000e+00 0.000000000e+00
    outer loop
      vertex 0.000000000e+00 -8.436093799e-02 9.224007882e-02
      vertex 0.000000000e+00 -8.929308595e-02 8.747425222e-02
      vertex 0.000000000e+00 -8.685970460e-02 8.989099908e-02
    endloop
  endfacet
  facet normal -1.000000000e+00 0.000000000e+00 -0.000000000e+00
    outer loop
      vertex 0.000000000e+00 -9.165925027e-02 8.499165747e-02
      vertex 0.000000000e+00 -8.929308595e-02 8.747425222e-02
      vertex 0.000000000e+00 -9.395641637e-02 8.244508367e-02
    endloop
  endfacet
  facet normal -1.000000000e+00 0.000000000e+00 -0.000000000e+00
    outer loop
      vertex 0.000000000e+00 -1.127800593e-01 5.390415774e-02
      vertex 0.000000000e+00 -8.929308595e-02 8.747425222e-02
      vertex 0.000000000e+00 -1.142164199e-01 5.078985550e-02
    endloop
  endfacet
  facet normal -1.000000000e+00 0.000000000e+00 -0.000000000e+00
    outer loop
      vertex 0.000000000e+00 -1.190922398e-01 3.797418089e-02
      vertex 0.000000000e+00 -8.929308595e-02 8.747425222e-02
      vertex 0.000000000e+00 -1.200892009e-01 3.469270578e-02
    endloop
  endfacet
  facet normal -1.000000000e+00 0.000000000e+00 -0.000000000e+00
    outer loop
      vertex 0.000000000e+00 -1.200892009e-01 3.469270578e-02
      vertex 0.000000000e+00 -8.929308595e-02 8.747425222e-02
      vertex 0.000000000e+00 -1.209957625e-01 3.138511509e-02
    endloop
  endfacet
  facet normal -1.000000000e+00 0.000000000e+00 -0.000000000e+00
    outer loop
      vertex 0.000000000e+00 -1.209957625e-01 3.138511509e-02
      vertex 0.000000000e+00 -8.929308595e-02 8.747425222e-02
      vertex 0.000000000e+00 -1.218112424e-01 2.805389867e-02
    endloop
  endfacet
  facet normal -1.000000000e+00 0.000000000e+00 -0.000000000e+00
    outer loop
      vertex 0.000000000e+00 -1.231665702e-01 2.133063507e-02
      vertex 0.000000000e+00 -8.929308595e-02 8.747425222e-02
      vertex 0.000000000e+00 -1.237053979e-01 1.794364896e-02
    endloop
  endfacet
  facet normal -1.000000000e+00 0.000000000e+00 -0.000000000e+00
    outer loop
      vertex 0.000000000e+00 -1.237053979e-01 1.794364896e-02
      vertex 0.000000000e+00 -8.929308595e-02 8.747425222e-02
      vertex 0.000000000e+00 -1.241511040e-01 1.454315543e-02
    endloop
  endfacet
  facet normal -1.000000000e+00 0.000000000e+00 -0.000000000e+00
    outer loop
      vertex 0.000000000e+00 -1.241511040e-01 1.454315543e-02
      vertex 0.000000000e+00 -8.929308595e-02 8.747425222e-02
      vertex 0.000000000e+00 -1.245033531e-01 1.113171426e-02
    endloop
  endfacet
  facet normal -1.000000000e+00 0.000000000e+00 -0.000000000e+00
    outer loop
      vertex 0.000000000e+00 -1.245033531e-01 1.113171426e-02
      vertex 0.000000000e+00 -8.929308595e-02 8.747425222e-02
      vertex 0.000000000e+00 -1.247618800e-01 7.711893498e-03
    endloop
  endfacet
  facet normal -1.000000000e+00 0.000000000e+00 -0.000000000e+00
    outer loop
      vertex 0.000000000e+00 -1.247618800e-01 7.711893498e-03
      vertex 0.000000000e+00 -8.929308595e-02 8.747425222e-02
      vertex 0.000000000e+00 -1.249264900e-01 4.286267459e-03
    endloop
  endfacet
  facet normal -1.000000000e+00 0.000000000e+00 -0.000000000e+00
    outer loop
      vertex 0.000000000e+00 -1.249264900e-01 4.286267459e-03
      vertex 0.000000000e+00 -8.929308595e-02 8.747425222e-02
      vertex 0.000000000e+00 -1.249970593e-01 8.574148520e-04
    endloop
  endfacet
  facet normal -1.000000000e+00 0.000000000e+00 0.000000000e+00
    outer loop
      vertex 0.000000000e+00 -1.249970593e-01 8.574148520e-04
      vertex 0.000000000e+00 -8.929308595e-02 8.747425222e-02
      vertex 0.000000000e+00 -1.249735348e-01 -2.572083190e-03
    endloop
  endfacet
  facet normal -1.000000000e+00 0.000000000e+00 0.000000000e+00
    outer loop
      vertex 0.000000000e+00 -1.249735348e-01 -2.572083190e-03
      vertex 0.000000000e+00 -8.929308595e-02 8.747425222e-02
      vertex 0.000000000e+00 -1.248559340e-01 -5.999645048e-03
    endloop
  endfacet
  facet normal -1.000000000e+00 0.000000000e+00 0.000000000e+00
    outer loop
      vertex 0.000000000e+00 -1.248559340e-01 -5.999645048e-03
      vertex 0.000000000e+00 -8.929308595e-02 8.747425222e-02
      vertex 0.000000000e+00 -1.246443457e-01 -9.422690561e-03
    endloop
  endfacet
  facet normal -1.000000000e+00 0.000000000e+00 0.000000000e+00
    outer loop
      vertex 0.000000000e+00 -1.246443457e-01 -9.422690561e-03
      vertex 0.000000000e+00 -8.929308595e-02 8.747425222e-02
      vertex 0.000000000e+00 -1.243389289e-01 -1.283864297e-02
    endloop
  endfacet
  facet normal -1.000000000e+00 0.000000000e+00 0.000000000e+00
    outer loop
      vertex 0.000000000e+00 -1.243389289e-01 -1.283864297e-02
      vertex 0.000000000e+00 -8.929308595e-02 8.747425222e-02
      vertex 0.000000000e+00 -1.239399138e-01 -1.624493085e-02
    endloop
  endfacet
  facet normal -1.000000000e+00 0.000000000e+00 0.000000000e+00
    outer loop
      vertex 0.000000000e+00 -1.239399138e-01 -1.624493085e-02
      vertex 0.000000000e+00 -8.929308595e-02 8.747425222e-02
      vertex 0.000000000e+00 -1.234476005e-01 -1.963899005e-02
    endloop
  endfacet
  facet normal -1.000000000e+00 0.000000000e+00 0.000000000e+00
    outer loop
      vertex 0.000000000e+00 -1.234476005e-01 -1.963899005e-02
      vertex 0.000000000e+00 -8.929308595e-02 8.747425222e-02
      vertex 0.000000000e+00 -1.228623598e-01 -2.301826564e-02
    endloop
  endfacet
  facet normal -1.000000000e+00 0.000000000e+00 0.000000000e+00
    outer loop
      vertex 0.000000000e+00 -1.228623598e-01 -2.301826564e-02
      vertex 0.000000000e+00 -8.929308595e-02 8.747425222e-02
      vertex 0.000000000e+00 -1.221846321e-01 -2.638021380e-02
    endloop
  endfacet
  facet normal -1.000000000e+00 0.000000000e+00 0.000000000e+00
    outer loop
      vertex 0.000000000e+00 -1.221846321e-01 -2.638021380e-02
      vertex 0.000000000e+00 -8.929308595e-02 8.747425222e-02
      vertex 0.000000000e+00 -1.214149277e-01 -2.972230376e-02
    endloop
  endfacet
  facet normal -1.000000000e+00 0.000000000e+00 0.000000000e+00
    outer loop
      vertex 0.000000000e+00 -1.214149277e-01 -2.972230376e-02
      vertex 0.000000000e+00 -8.929308595e-02 8.747425222e-02
      vertex 0.000000000e+00 -1.205538259e-01 -3.304201971e-02
    endloop
  endfacet
  facet normal -1.000000000e+00 0.000000000e+00 0.000000000e+00
    outer loop
      vertex 0.000000000e+00 -1.205538259e-01 -3.304201971e-02
      vertex 0.000000000e+00 -8.929308595e-02 8.747425222e-02
      vertex 0.000000000e+00 -1.196019750e-01 -3.633686265e-02
    endloop
  endfacet
  facet normal -1.000000000e+00 0.000000000e+00 0.000000000e+00
    outer loop
      vertex 0.000000000e+00 -1.196019750e-01 -3.633686265e-02
      vertex 0.000000000e+00 -8.929308595e-02 8.747425222e-02
      vertex 0.000000000e+00 -1.185600914e-01 -3.960435235e-02
    endloop
  endfacet
  facet normal -1.000000000e+00 0.000000000e+00 0.000000000e+00
    outer loop
      vertex 0.000000000e+00 -1.162094308e-01 -4.604745577e-02
      vertex 0.000000000e+00 -8.929308595e-02 8.747425222e-02
      vertex 0.000000000e+00 -1.149024233e-01 -4.921821933e-02
    endloop
  endfacet
  facet normal -1.000000000e+00 0.000000000e+00 0.000000000e+00
    outer loop
      vertex 0.000000000e+00 -1.149024233e-01 -4.921821933e-02
      vertex 0.000000000e+00 -8.929308595e-02 8.747425222e-02
      vertex 0.000000000e+00 -1.135089209e-01 -5.235193296e-02
    endloop
  endfacet
  facet normal -1.000000000e+00 0.000000000e+00 0.000000000e+00
    outer loop
      vertex 0.000000000e+00 -1.135089209e-01 -5.235193296e-02
      vertex 0.000000000e+00 -8.929308595e-02 8.747425222e-02
      vertex 0.000000000e+00 -1.120299724e-01 -5.544623770e-02
    endloop
  endfacet
  facet normal -1.000000000e+00 0.000000000e+00 0.000000000e+00
    outer loop
      vertex 0.000000000e+00 -1.120299724e-01 -5.544623770e-02
      vertex 0.000000000e+00 -8.929308595e-02 8.747425222e-02
      vertex 0.000000000e+00 -1.104666914e-01 -5.849880424e-02
    endloop
  endfacet
  facet normal -1.000000000e+00 0.000000000e+00 0.000000000e+00
    outer loop
      vertex 0.000000000e+00 -1.014286548e-01 -7.305633428e-02
      vertex 0.000000000e+00 -8.929308595e-02 8.747425222e-02
      vertex 0.000000000e+00 -9.938624770e-02 -7.581143560e-02
    endloop
  endfacet
  facet normal -1.000000000e+00 0.000000000e+00 0.000000000e+00
    outer loop
      vertex 0.000000000e+00 -9.507858265e-02 -8.114840184e-02
      vertex 0.000000000e+00 -8.929308595e-02 8.747425222e-02
      vertex 0.000000000e+00 -9.281656741e-02 -8.372624926e-02
    endloop
  endfacet
  facet normal -1.000000000e+00 0.000000000e+00 0.000000000e+00
    outer loop
      vertex 0.000000000e+00 -8.561837803e-02 -9.107410907e-02
      vertex 0.000000000e+00 -8.929308595e-02 8.747425222e-02
      vertex 0.000000000e+00 -8.308762113e-02 -9.338868890e-02
    endloop
  endfacet
  facet normal -1.000000000e+00 0.000000000e+00 0.000000000e+00
    outer loop
      vertex 0.000000000e+00 -8.308762113e-02 -9.338868890e-02
      vertex 0.000000000e+00 -8.929308595e-02 8.747425222e-02
      vertex 0.000000000e+00 -8.049431848e-02 -9.563296865e-02
    endloop
  endfacet
  facet normal -1.000000000e+00 0.000000000e+00 0.000000000e+00
    outer loop
      vertex 0.000000000e+00 -8.049431848e-02 -9.563296865e-02
      vertex 0.000000000e+00 -8.929308595e-02 8.747425222e-02
      vertex 0.000000000e+00 -7.784042223e-02 -9.780525889e-02
    endloop
  endfacet
  facet normal -1.000000000e+00 0.000000000e+00 0.000000000e+00
    outer loop
      vertex 0.000000000e+00 -7.784042223e-02 -9.780525889e-02
      vertex 0.000000000e+00 -8.929308595e-02 8.747425222e-02
      vertex 0.000000000e+00 -7.512793015e-02 -9.990392440e-02
    endloop
  endfacet
  facet normal -1.000000000e+00 0.000000000e+00 0.000000000e+00
    outer loop
      vertex 0.000000000e+00 -6.953536859e-02 -1.038741186e-01
      vertex 0.000000000e+00 -8.929308595e-02 8.747425222e-02
      vertex 0.000000000e+00 -6.665950901e-02 -1.057426587e-01
    endloop
  endfacet
  facet normal -1.000000000e+00 0.000000000e+00 0.000000000e+00
    outer loop
      vertex 0.000000000e+00 -6.665950901e-02 -1.057426587e-01
      vertex 0.000000000e+00 -8.929308595e-02 8.747425222e-02
      vertex 0.000000000e+00 -6.373347024e-02 -1.075315989e-01
    endloop
  endfacet
  facet normal -1.000000000e+00 0.000000000e+00 0.000000000e+00
    outer loop
      vertex 0.000000000e+00 -6.373347024e-02 -1.075315989e-01
      vertex 0.000000000e+00 -8.929308595e-02 8.747425222e-02
      vertex 0.000000000e+00 -6.075945492e-02 -1.092395928e-01
    endloop
  endfacet
  facet normal -1.000000000e+00 0.000000000e+00 0.000000000e+00
    outer loop
      vertex 0.000000000e+00 -6.075945492e-02 -1.092395928e-01
      vertex 0.000000000e+00 -8.929308595e-02 8.747425222e-02
      vertex 0.000000000e+00 -5.773970178e-02 -1.108653545e-01
    endloop
  endfacet
  facet normal -1.000000000e+00 0.000000000e+00 0.000000000e+00
    outer loop
      vertex 0.000000000e+00 -5.773970178e-02 -1.108653545e-01
      vertex 0.000000000e+00 -8.929308595e-02 8.747425222e-02
      vertex 0.000000000e+00 -5.467648400e-02 -1.124076603e-01
    endloop
  endfacet
  facet normal -1.000000000e+00 0.000000000e+00 0.000000000e+00
    outer loop
      vertex 0.000000000e+00 -5.467648400e-02 -1.124076603e-01
      vertex 0.000000000e+00 -8.929308595e-02 8.747425222e-02
      vertex 0.000000000e+00 -5.157210748e-02 -1.138653491e-01
    endloop
  endfacet
  facet normal -1.000000000e+00 0.000000000e+00 0.000000000e+00
    outer loop
      vertex 0.000000000e+00 -5.157210748e-02 -1.138653491e-01
      vertex 0.000000000e+00 -8.929308595e-02 8.747425222e-02
      vertex 0.000000000e+00 -4.842890910e-02 -1.152373237e-01
    endloop
  endfacet
  facet normal -1.000000000e+00 0.000000000e+00 0.000000000e+00
    outer loop
      vertex 0.000000000e+00 -4.842890910e-02 -1.152373237e-01
      vertex 0.000000000e+00 -8.929308595e-02 8.747425222e-02
      vertex 0.000000000e+00 -4.524925495e-02 -1.165225512e-01
    endloop
  endfacet
  facet normal -1.000000000e+00 0.000000000e+00 0.000000000e+00
    outer loop
      vertex 0.000000000e+00 -4.524925495e-02 -1.165225512e-01
      vertex 0.000000000e+00 -8.929308595e-02 8.747425222e-02
      vertex 0.000000000e+00 -4.203553858e-02 -1.177200641e-01
    endloop
  endfacet
  facet normal -1.000000000e+00 0.000000000e+00 0.000000000e+00
    outer loop
      vertex 0.000000000e+00 -4.203553858e-02 -1.177200641e-01
      vertex 0.000000000e+00 -8.929308595e-02 8.747425222e-02
      vertex 0.000000000e+00 -3.879017917e-02 -1.188289611e-01
    endloop
  endfacet
  facet normal -1.000000000e+00 0.000000000e+00 0.000000000e+00
    outer loop
      vertex 0.000000000e+00 -3.879017917e-02 -1.188289611e-01
      vertex 0.000000000e+00 -8.929308595e-02 8.747425222e-02
      vertex 0.000000000e+00 -3.551561973e-02 -1.198484074e-01
    endloop
  endfacet
  facet normal -1.000000000e+00 0.000000000e+00 0.000000000e+00
    outer loop
      vertex 0.000000000e+00 -3.551561973e-02 -1.198484074e-01
      vertex 0.000000000e+00 -8.929308595e-02 8.747425222e-02
      vertex 0.000000000e+00 -3.221432525e-02 -1.207776355e-01
    endloop
  endfacet
  facet normal -1.000000000e+00 0.000000000e+00 0.000000000e+00
    outer loop
      vertex 0.000000000e+00 -3.221432525e-02 -1.207776355e-01
      vertex 0.000000000e+00 -8.929308595e-02 8.747425222e-02
      vertex 0.000000000e+00 -2.888878084e-02 -1.216159461e-01
    endloop
  endfacet
  facet normal -1.000000000e+00 0.000000000e+00 0.000000000e+00
    outer loop
      vertex 0.000000000e+00 -2.888878084e-02 -1.216159461e-01
      vertex 0.000000000e+00 -8.929308595e-02 8.747425222e-02
      vertex 0.000000000e+00 -2.554148985e-02 -1.223627079e-01
    endloop
  endfacet
  facet normal -1.000000000e+00 0.000000000e+00 0.000000000e+00
    outer loop
      vertex 0.000000000e+00 -2.554148985e-02 -1.223627079e-01
      vertex 0.000000000e+00 -8.929308595e-02 8.747425222e-02
      vertex 0.000000000e+00 -2.217497203e-02 -1.230173590e-01
    endloop
  endfacet
  facet normal -1.000000000e+00 0.000000000e+00 0.000000000e+00
    outer loop
      vertex 0.000000000e+00 -2.217497203e-02 -1.230173590e-01
      vertex 0.000000000e+00 -8.929308595e-02 8.747425222e-02
      vertex 0.000000000e+00 -1.879176159e-02 -1.235794064e-01
    endloop
  endfacet
  facet normal -1.000000000e+00 0.000000000e+00 0.000000000e+00
    outer loop
      vertex 0.000000000e+00 -1.879176159e-02 -1.235794064e-01
      vertex 0.000000000e+00 -8.929308595e-02 8.747425222e-02
      vertex 0.000000000e+00 -1.539440530e-02 -1.240484272e-01
    endloop
  endfacet
  facet normal -1.000000000e+00 0.000000000e+00 0.000000000e+00
    outer loop
      vertex 0.000000000e+00 -1.539440530e-02 -1.240484272e-01
      vertex 0.000000000e+00 -8.929308595e-02 8.747425222e-02
      vertex 0.000000000e+00 -1.198546058e-02 -1.244240681e-01
    endloop
  endfacet
  facet normal -1.000000000e+00 0.000000000e+00 0.000000000e+00
    outer loop
      vertex 0.000000000e+00 -1.198546058e-02 -1.244240681e-01
      vertex 0.000000000e+00 -8.929308595e-02 8.747425222e-02
      vertex 0.000000000e+00 -8.567493583e-03 -1.247060466e-01
    endloop
  endfacet
  facet normal -1.000000000e+00 0.000000000e+00 0.000000000e+00
    outer loop
      vertex 0.000000000e+00 -8.567493583e-03 -1.247060466e-01
      vertex 0.000000000e+00 -8.929308595e-02 8.747425222e-02
      vertex 0.000000000e+00 -5.143077246e-03 -1.248941502e-01
    endloop
  endfacet
  facet normal -1.000000000e+00 0.000000000e+00 0.000000000e+00
    outer loop
      vertex 0.000000000e+00 -5.143077246e-03 -1.248941502e-01
      vertex 0.000000000e+00 -8.929308595e-02 8.747425222e-02
      vertex 0.000000000e+00 -1.714789362e-03 -1.249882374e-01
    endloop
  endfacet
  facet normal -1.000000000e+00 0.000000000e+00 0.000000000e+00
    outer loop
      vertex 0.000000000e+00 -1.714789362e-03 -1.249882374e-01
      vertex 0.000000000e+00 -8.929308595e-02 8.747425222e-02
      vertex 0.000000000e+00 1.714789362e-03 -1.249882374e-01
    endloop
  endfacet
  facet normal -1.000000000e+00 0.000000000e+00 0.000000000e+00
    outer loop
      vertex 0.000000000e+00 1.714789362e-03 -1.249882374e-01
      vertex 0.000000000e+00 -8.929308595e-02 8.747425222e-02
      vertex 0.000000000e+00 5.143077246e-03 -1.248941502e-01
    endloop
  endfacet
  facet normal -1.000000000e+00 0.000000000e+00 0.000000000e+00
    outer loop
      vertex 0.000000000e+00 5.143077246e-03 -1.248941502e-01
      vertex 0.000000000e+00 -8.929308595e-02 8.747425222e-02
      vertex 0.000000000e+00 8.567493583e-03 -1.247060466e-01
    endloop
  endfacet
  facet normal -1.000000000e+00 0.000000000e+00 0.000000000e+00
    outer loop
      vertex 0.000000000e+00 8.567493583e-03 -1.247060466e-01
      vertex 0.000000000e+00 -8.929308595e-02 8.747425222e-02
      vertex 0.000000000e+00 1.198546058e-02 -1.244240681e-01
    endloop
  endfacet
  facet normal -1.000000000e+00 0.000000000e+00 0.000000000e+00
    outer loop
      vertex 0.000000000e+00 1.198546058e-02 -1.244240681e-01
      vertex 0.000000000e+00 -8.929308595e-02 8.747425222e-02
      vertex 0.000000000e+00 1.539440530e-02 -1.240484272e-01
    endloop
  endfacet
  facet normal -1.000000000e+00 0.000000000e+00 0.000000000e+00
    outer loop
      vertex 0.000000000e+00 1.539440530e-02 -1.240484272e-01
      vertex 0.000000000e+00 -8.929308595e-02 8.747425222e-02
      vertex 0.000000000e+00 1.879176159e-02 -1.235794064e-01
    endloop
  endfacet
  facet normal -1.000000000e+00 0.000000000e+00 0.000000000e+00
    outer loop
      vertex 0.000000000e+00 1.879176159e-02 -1.235794064e-01
      vertex 0.000000000e+00 -8.929308595e-02 8.747425222e-02
      vertex 0.000000000e+00 2.217497203e-02 -1.230173590e-01
    endloop
  endfacet
  facet normal -1.000000000e+00 0.000000000e+00 0.000000000e+00
    outer loop
      vertex 0.000000000e+00 2.217497203e-02 -1.230173590e-01
      vertex 0.000000000e+00 -8.929308595e-02 8.747425222e-02
      vertex 0.000000000e+00 2.554148985e-02 -1.223627079e-01
    endloop
  endfacet
  facet normal -1.000000000e+00 0.000000000e+00 0.000000000e+00
    outer loop
      vertex 0.000000000e+00 2.554148985e-02 -1.223627079e-01
      vertex 0.000000000e+00 -8.929308595e-02 8.747425222e-02
      vertex 0.000000000e+00 2.888878084e-02 -1.216159461e-01
    endloop
  endfacet
  facet normal -1.000000000e+00 0.000000000e+00 0.000000000e+00
    outer loop
      vertex 0.000000000e+00 2.888878084e-02 -1.216159461e-01
      vertex 0.000000000e+00 -8.929308595e-02 8.747425222e-02
      vertex 0.000000000e+00 3.221432525e-02 -1.207776355e-01
    endloop
  endfacet
  facet normal -1.000000000e+00 0.000000000e+00 0.000000000e+00
    outer loop
      vertex 0.000000000e+00 3.221432525e-02 -1.207776355e-01
      vertex 0.000000000e+00 -8.929308595e-02 8.747425222e-02
      vertex 0.000000000e+00 3.551561973e-02 -1.198484074e-01
    endloop
  endfacet
  facet normal -1.000000000e+00 0.000000000e+00 0.000000000e+00
    outer loop
      vertex 0.000000000e+00 3.551561973e-02 -1.198484074e-01
      vertex 0.000000000e+00 -8.929308595e-02 8.747425222e-02
      vertex 0.000000000e+00 3.879017917e-02 -1.188289611e-01
    endloop
  endfacet
  facet normal -1.000000000e+00 0.000000000e+00 0.000000000e+00
    outer loop
      vertex 0.000000000e+00 3.879017917e-02 -1.188289611e-01
      vertex 0.000000000e+00 -8.929308595e-02 8.747425222e-02
      vertex 0.000000000e+00 4.203553858e-02 -1.177200641e-01
    endloop
  endfacet
  facet normal -1.000000000e+00 0.000000000e+00 0.000000000e+00
    outer loop
      vertex 0.000000000e+00 4.203553858e-02 -1.177200641e-01
      vertex 0.000000000e+00 -8.929308595e-02 8.747425222e-02
      vertex 0.000000000e+00 4.524925495e-02 -1.165225512e-01
    endloop
  endfacet
  facet normal -1.000000000e+00 0.000000000e+00 0.000000000e+00
    outer loop
      vertex 0.000000000e+00 4.524925495e-02 -1.165225512e-01
      vertex 0.000000000e+00 -8.929308595e-02 8.747425222e-02
      vertex 0.000000000e+00 4.842890910e-02 -1.152373237e-01
    endloop
  endfacet
  facet normal -1.000000000e+00 0.000000000e+00 0.000000000e+00
    outer loop
      vertex 0.000000000e+00 4.842890910e-02 -1.152373237e-01
      vertex 0.000000000e+00 -8.929308595e-02 8.747425222e-02
      vertex 0.000000000e+00 5.157210748e-02 -1.138653491e-01
    endloop
  endfacet
  facet normal -1.000000000e+00 0.000000000e+00 0.000000000e+00
    outer loop
      vertex 0.000000000e+00 5.157210748e-02 -1.138653491e-01
      vertex 0.000000000e+00 -8.929308595e-02 8.747425222e-02
      vertex 0.000000000e+00 5.467648400e-02 -1.124076603e-01
    endloop
  endfacet
  facet normal -1.000000000e+00 0.000000000e+00 0.000000000e+00
    outer loop
      vertex 0.000000000e+00 5.467648400e-02 -1.124076603e-01
      vertex 0.000000000e+00 -8.929308595e-02 8.747425222e-02
      vertex 0.000000000e+00 5.773970178e-02 -1.108653545e-01
    endloop
  endfacet
  facet normal -1.000000000e+00 0.000000000e+00 0.000000000e+00
    outer loop
      vertex 0.000000000e+00 5.773970178e-02 -1.108653545e-01
      vertex 0.000000000e+00 -8.929308595e-02 8.747425222e-02
      vertex 0.000000000e+00 6.075945492e-02 -1.092395928e-01
    endloop
  endfacet
  facet normal -1.000000000e+00 0.000000000e+00 0.000000000e+00
    outer loop
      vertex 0.000000000e+00 6.075945492e-02 -1.092395928e-01
      vertex 0.000000000e+00 -8.929308595e-02 8.747425222e-02
      vertex 0.000000000e+00 6.373347024e-02 -1.075315989e-01
    endloop
  endfacet
  facet normal -1.000000000e+00 0.000000000e+00 0.000000000e+00
    outer loop
      vertex 0.000000000e+00 6.373347024e-02 -1.075315989e-01
      vertex 0.000000000e+00 -8.929308595e-02 8.747425222e-02
      vertex 0.000000000e+00 6.665950901e-02 -1.057426587e-01
    endloop
  endfacet
  facet normal -1.000000000e+00 0.000000000e+00 0.000000000e+00
    outer loop
      vertex 0.000000000e+00 6.665950901e-02 -1.057426587e-01
      vertex 0.000000000e+00 -8.929308595e-02 8.747425222e-02
      vertex 0.000000000e+00 6.953536859e-02 -1.038741186e-01
    endloop
  endfacet
  facet normal -1.000000000e+00 0.000000000e+00 0.000000000e+00
    outer loop
      vertex 0.000000000e+00 6.953536859e-02 -1.038741186e-01
      vertex 0.000000000e+00 -8.929308595e-02 8.747425222e-02
      vertex 0.000000000e+00 7.235888412e-02 -1.019273854e-01
    endloop
  endfacet
  facet normal -1.000000000e+00 0.000000000e+00 0.000000000e+00
    outer loop
      vertex 0.000000000e+00 7.235888412e-02 -1.019273854e-01
      vertex 0.000000000e+00 -8.929308595e-02 8.747425222e-02
      vertex 0.000000000e+00 7.512793015e-02 -9.990392440e-02
    endloop
  endfacet
  facet normal -1.000000000e+00 0.000000000e+00 0.000000000e+00
    outer loop
      vertex 0.000000000e+00 7.512793015e-02 -9.990392440e-02
      vertex 0.000000000e+00 -8.929308595e-02 8.747425222e-02
      vertex 0.000000000e+00 7.784042223e-02 -9.780525889e-02
    endloop
  endfacet
  facet normal -1.000000000e+00 0.000000000e+00 0.000000000e+00
    outer loop
      vertex 0.000000000e+00 7.784042223e-02 -9.780525889e-02
      vertex 0.000000000e+00 -8.929308595e-02 8.747425222e-02
      vertex 0.000000000e+00 8.049431848e-02 -9.563296865e-02
    endloop
  endfacet
  facet normal -1.000000000e+00 0.000000000e+00 0.000000000e+00
    outer loop
      vertex 0.000000000e+00 8.049431848e-02 -9.563296865e-02
      vertex 0.000000000e+00 -8.929308595e-02 8.747425222e-02
      vertex 0.000000000e+00 8.308762113e-02 -9.338868890e-02
    endloop
  endfacet
  facet normal -1.000000000e+00 0.000000000e+00 0.000000000e+00
    outer loop
      vertex 0.000000000e+00 8.308762113e-02 -9.338868890e-02
      vertex 0.000000000e+00 -8.929308595e-02 8.747425222e-02
      vertex 0.000000000e+00 8.561837803e-02 -9.107410907e-02
    endloop
  endfacet
  facet normal -1.000000000e+00 0.000000000e+00 0.000000000e+00
    outer loop
      vertex 0.000000000e+00 8.561837803e-02 -9.107410907e-02
      vertex 0.000000000e+00 -8.929308595e-02 8.747425222e-02
      vertex 0.000000000e+00 8.808468409e-02 -8.869097151e-02
    endloop
  endfacet
  facet normal -1.000000000e+00 0.000000000e+00 0.000000000e+00
    outer loop
      vertex 0.000000000e+00 8.808468409e-02 -8.869097151e-02
      vertex 0.000000000e+00 -8.929308595e-02 8.747425222e-02
      vertex 0.000000000e+00 9.048468277e-02 -8.624107017e-02
    endloop
  endfacet
  facet normal -1.000000000e+00 0.000000000e+00 0.000000000e+00
    outer loop
      vertex 0.000000000e+00 9.048468277e-02 -8.624107017e-02
      vertex 0.000000000e+00 -8.929308595e-02 8.747425222e-02
      vertex 0.000000000e+00 9.281656741e-02 -8.372624926e-02
    endloop
  endfacet
  facet normal -1.000000000e+00 0.000000000e+00 0.000000000e+00
    outer loop
      vertex 0.000000000e+00 9.281656741e-02 -8.372624926e-02
      vertex 0.000000000e+00 -8.929308595e-02 8.747425222e-02
      vertex 0.000000000e+00 9.507858265e-02 -8.114840184e-02
    endloop
  endfacet
  facet normal -1.000000000e+00 0.000000000e+00 0.000000000e+00
    outer loop
      vertex 0.000000000e+00 9.507858265e-02 -8.114840184e-02
      vertex 0.000000000e+00 -8.929308595e-02 8.747425222e-02
      vertex 0.000000000e+00 9.726902571e-02 -7.850946846e-02
    endloop
  endfacet
  facet normal -1.000000000e+00 0.000000000e+00 0.000000000e+00
    outer loop
      vertex 0.000000000e+00 9.726902571e-02 -7.850946846e-02
      vertex 0.000000000e+00 -8.929308595e-02 8.747425222e-02
      vertex 0.000000000e+00 9.938624770e-02 -7.581143560e-02
    endloop
  endfacet
  facet normal -1.000000000e+00 0.000000000e+00 0.000000000e+00
    outer loop
      vertex 0.000000000e+00 9.938624770e-02 -7.581143560e-02
      vertex 0.000000000e+00 -8.929308595e-02 8.747425222e-02
      vertex 0.000000000e+00 1.014286548e-01 -7.305633428e-02
    endloop
  endfacet
  facet normal -1.000000000e+00 0.000000000e+00 0.000000000e+00
    outer loop
      vertex 0.000000000e+00 1.014286548e-01 -7.305633428e-02
      vertex 0.000000000e+00 -8.929308595e-02 8.747425222e-02
      vertex 0.000000000e+00 1.033947097e-01 -7.024623844e-02
    endloop
  endfacet
  facet normal -1.000000000e+00 0.000000000e+00 0.000000000e+00
    outer loop
      vertex 0.000000000e+00 1.033947097e-01 -7.024623844e-02
      vertex 0.000000000e+00 -8.929308595e-02 8.747425222e-02
      vertex 0.000000000e+00 1.052829322e-01 -6.738326343e-02
    endloop
  endfacet
  facet normal -1.000000000e+00 0.000000000e+00 0.000000000e+00
    outer loop
      vertex 0.000000000e+00 1.052829322e-01 -6.738326343e-02
      vertex 0.000000000e+00 -8.929308595e-02 8.747425222e-02
      vertex 0.000000000e+00 1.070919010e-01 -6.446956441e-02
    endloop
  endfacet
  facet normal -1.000000000e+00 0.000000000e+00 0.000000000e+00
    outer loop
      vertex 0.000000000e+00 1.070919010e-01 -6.446956441e-02
      vertex 0.000000000e+00 -8.929308595e-02 8.747425222e-02
      vertex 0.000000000e+00 1.088202544e-01 -6.150733472e-02
    endloop
  endfacet
  facet normal -1.000000000e+00 0.000000000e+00 0.000000000e+00
    outer loop
      vertex 0.000000000e+00 1.088202544e-01 -6.150733472e-02
      vertex 0.000000000e+00 -8.929308595e-02 8.747425222e-02
      vertex 0.000000000e+00 1.104666914e-01 -5.849880424e-02
    endloop
  endfacet
  facet normal -1.000000000e+00 0.000000000e+00 0.000000000e+00
    outer loop
      vertex 0.000000000e+00 1.104666914e-01 -5.849880424e-02
      vertex 0.000000000e+00 -8.929308595e-02 8.747425222e-02
      vertex 0.000000000e+00 1.120299724e-01 -5.544623770e-02
    endloop
  endfacet
  facet normal -1.000000000e+00 0.000000000e+00 0.000000000e+00
    outer loop
      vertex 0.000000000e+00 1.120299724e-01 -5.544623770e-02
      vertex 0.000000000e+00 -8.929308595e-02 8.747425222e-02
      vertex 0.000000000e+00 1.135089209e-01 -5.235193296e-02
    endloop
  endfacet
  facet normal -1.000000000e+00 0.000000000e+00 0.000000000e+00
    outer loop
      vertex 0.000000000e+00 1.135089209e-01 -5.235193296e-02
      vertex 0.000000000e+00 -8.929308595e-02 8.747425222e-02
      vertex 0.000000000e+00 1.149024233e-01 -4.921821933e-02
    endloop
  endfacet
  facet normal -1.000000000e+00 0.000000000e+00 0.000000000e+00
    outer loop
      vertex 0.000000000e+00 1.149024233e-01 -4.921821933e-02
      vertex 0.000000000e+00 -8.929308595e-02 8.747425222e-02
      vertex 0.000000000e+00 1.162094308e-01 -4.604745577e-02
    endloop
  endfacet
  facet normal -1.000000000e+00 0.000000000e+00 0.000000000e+00
    outer loop
      vertex 0.000000000e+00 1.162094308e-01 -4.604745577e-02
      vertex 0.000000000e+00 -8.929308595e-02 8.747425222e-02
      vertex 0.000000000e+00 1.174289595e-01 -4.284202913e-02
    endloop
  endfacet
  facet normal -1.000000000e+00 0.000000000e+00 0.000000000e+00
    outer loop
      vertex 0.000000000e+00 1.174289595e-01 -4.284202913e-02
      vertex 0.000000000e+00 -8.929308595e-02 8.747425222e-02
      vertex 0.000000000e+00 1.185600914e-01 -3.960435235e-02
    endloop
  endfacet
  facet normal -1.000000000e+00 0.000000000e+00 0.000000000e+00
    outer loop
      vertex 0.000000000e+00 1.185600914e-01 -3.960435235e-02
      vertex 0.000000000e+00 -8.929308595e-02 8.747425222e-02
      vertex 0.000000000e+00 1.196019750e-01 -3.633686265e-02
    endloop
  endfacet
  facet normal -1.000000000e+00 0.000000000e+00 0.000000000e+00
    outer loop
      vertex 0.000000000e+00 1.196019750e-01 -3.633686265e-02
      vertex 0.000000000e+00 -8.929308595e-02 8.747425222e-02
      vertex 0.000000000e+00 1.205538259e-01 -3.304201971e-02
    endloop
  endfacet
  facet normal -1.000000000e+00 0.000000000e+00 0.000000000e+00
    outer loop
      vertex 0.000000000e+00 1.205538259e-01 -3.304201971e-02
      vertex 0.000000000e+00 -8.929308595e-02 8.747425222e-02
      vertex 0.000000000e+00 1.214149277e-01 -2.972230376e-02
    endloop
  endfacet
  facet normal -1.000000000e+00 0.000000000e+00 0.000000000e+00
    outer loop
      vertex 0.000000000e+00 1.214149277e-01 -2.972230376e-02
      vertex 0.000000000e+00 -8.929308595e-02 8.747425222e-02
      vertex 0.000000000e+00 1.221846321e-01 -2.638021380e-02
    endloop
  endfacet
  facet normal -1.000000000e+00 0.000000000e+00 0.000000000e+00
    outer loop
      vertex 0.000000000e+00 1.221846321e-01 -2.638021380e-02
      vertex 0.000000000e+00 -8.929308595e-02 8.747425222e-02
      vertex 0.000000000e+00 1.228623598e-01 -2.301826564e-02
    endloop
  endfacet
  facet normal -1.000000000e+00 0.000000000e+00 0.000000000e+00
    outer loop
      vertex 0.000000000e+00 1.228623598e-01 -2.301826564e-02
      vertex 0.000000000e+00 -8.929308595e-02 8.747425222e-02
      vertex 0.000000000e+00 1.234476005e-01 -1.963899005e-02
    endloop
  endfacet
  facet normal -1.000000000e+00 0.000000000e+00 0.000000000e+00
    outer loop
      vertex 0.000000000e+00 1.234476005e-01 -1.963899005e-02
      vertex 0.000000000e+00 -8.929308595e-02 8.747425222e-02
      vertex 0.000000000e+00 1.239399138e-01 -1.624493085e-02
    endloop
  endfacet
  facet normal -1.000000000e+00 0.000000000e+00 0.000000000e+00
    outer loop
      vertex 0.000000000e+00 1.239399138e-01 -1.624493085e-02
      vertex 0.000000000e+00 -8.929308595e-02 8.747425222e-02
      vertex 0.000000000e+00 1.243389289e-01 -1.283864297e-02
    endloop
  endfacet
  facet normal -1.000000000e+00 0.000000000e+00 0.000000000e+00
    outer loop
      vertex 0.000000000e+00 1.243389289e-01 -1.283864297e-02
      vertex 0.000000000e+00 -8.929308595e-02 8.747425222e-02
      vertex 0.000000000e+00 1.246443457e-01 -9.422690561e-03
    endloop
  endfacet
  facet normal -1.000000000e+00 0.000000000e+00 0.000000000e+00
    outer loop
      vertex 0.000000000e+00 1.246443457e-01 -9.422690561e-03
      vertex 0.000000000e+00 -8.929308595e-02 8.747425222e-02
      vertex 0.000000000e+00 1.248559340e-01 -5.999645048e-03
    endloop
  endfacet
  facet normal -1.000000000e+00 0.000000000e+00 0.000000000e+00
    outer loop
      vertex 0.000000000e+00 1.248559340e-01 -5.999645048e-03
      vertex 0.000000000e+00 -8.929308595e-02 8.747425222e-02
      vertex 0.000000000e+00 1.249735348e-01 -2.572083190e-03
    endloop
  endfacet
  facet normal -1.000000000e+00 0.000000000e+00 0.000000000e+00
    outer loop
      vertex 0.000000000e+00 1.249735348e-01 -2.572083190e-03
      vertex 0.000000000e+00 -8.929308595e-02 8.747425222e-02
      vertex 0.000000000e+00 1.249970593e-01 8.574148520e-04
    endloop
  endfacet
  facet normal -1.000000000e+00 0.000000000e+00 0.000000000e+00
    outer loop
      vertex 0.000000000e+00 1.249970593e-01 8.574148520e-04
      vertex 0.000000000e+00 -8.929308595e-02 8.747425222e-02
      vertex 0.000000000e+00 1.249264900e-01 4.286267459e-03
    endloop
  endfacet
  facet normal -1.000000000e+00 0.000000000e+00 0.000000000e+00
    outer loop
      vertex 0.000000000e+00 1.249264900e-01 4.286267459e-03
      vertex 0.000000000e+00 -8.929308595e-02 8.747425222e-02
      vertex 0.000000000e+00 1.247618800e-01 7.711893498e-03
    endloop
  endfacet
  facet normal -1.000000000e+00 0.000000000e+00 0.000000000e+00
    outer loop
      vertex 0.000000000e+00 1.247618800e-01 7.711893498e-03
      vertex 0.000000000e+00 -8.929308595e-02 8.747425222e-02
      vertex 0.000000000e+00 1.245033531e-01 1.113171426e-02
    endloop
  endfacet
  facet normal -1.000000000e+00 0.000000000e+00 0.000000000e+00
    outer loop
      vertex 0.000000000e+00 1.245033531e-01 1.113171426e-02
      vertex 0.000000000e+00 -8.929308595e-02 8.747425222e-02
      vertex 0.000000000e+00 1.241511040e-01 1.454315543e-02
    endloop
  endfacet
  facet normal -1.000000000e+00 0.000000000e+00 0.000000000e+00
    outer loop
      vertex 0.000000000e+00 1.241511040e-01 1.454315543e-02
      vertex 0.000000000e+00 -8.929308595e-02 8.747425222e-02
      vertex 0.000000000e+00 1.237053979e-01 1.794364896e-02
    endloop
  endfacet
  facet normal -1.000000000e+00 0.000000000e+00 0.000000000e+00
    outer loop
      vertex 0.000000000e+00 1.237053979e-01 1.794364896e-02
      vertex 0.000000000e+00 -8.929308595e-02 8.747425222e-02
      vertex 0.000000000e+00 1.231665702e-01 2.133063507e-02
    endloop
  endfacet
  facet normal -1.000000000e+00 0.000000000e+00 0.000000000e+00
    outer loop
      vertex 0.000000000e+00 1.231665702e-01 2.133063507e-02
      vertex 0.000000000e+00 -8.929308595e-02 8.747425222e-02
      vertex 0.000000000e+00 1.225350265e-01 2.470156415e-02
    endloop
  endfacet
  facet normal -1.000000000e+00 0.000000000e+00 0.000000000e+00
    outer loop
      vertex 0.000000000e+00 1.225350265e-01 2.470156415e-02
      vertex 0.000000000e+00 -8.929308595e-02 8.747425222e-02
      vertex 0.000000000e+00 1.218112424e-01 2.805389867e-02
    endloop
  endfacet
  facet normal -1.000000000e+00 0.000000000e+00 0.000000000e+00
    outer loop
      vertex 0.000000000e+00 1.200892009e-01 3.469270578e-02
      vertex 0.000000000e+00 -8.929308595e-02 8.747425222e-02
      vertex 0.000000000e+00 1.190922398e-01 3.797418089e-02
    endloop
  endfacet
  facet normal -1.000000000e+00 0.000000000e+00 0.000000000e+00
    outer loop
      vertex 0.000000000e+00 1.190922398e-01 3.797418089e-02
      vertex 0.000000000e+00 -8.929308595e-02 8.747425222e-02
      vertex 0.000000000e+00 1.180056299e-01 4.122707022e-02
    endloop
  endfacet
  facet normal -1.000000000e+00 0.000000000e+00 0.000000000e+00
    outer loop
      vertex 0.000000000e+00 1.180056299e-01 4.122707022e-02
      vertex 0.000000000e+00 -8.929308595e-02 8.747425222e-02
      vertex 0.000000000e+00 1.168301890e-01 4.444892511e-02
    endloop
  endfacet
  facet normal -1.000000000e+00 0.000000000e+00 0.000000000e+00
    outer loop
      vertex 0.000000000e+00 1.168301890e-01 4.444892511e-02
      vertex 0.000000000e+00 -8.929308595e-02 8.747425222e-02
      vertex 0.000000000e+00 1.155668020e-01 4.763732025e-02
    endloop
  endfacet
  facet normal -1.000000000e+00 0.000000000e+00 0.000000000e+00
    outer loop
      vertex 0.000000000e+00 1.024213201e-01 7.165802941e-02
      vertex 0.000000000e+00 -8.929308595e-02 8.747425222e-02
      vertex 0.000000000e+00 1.004169005e-01 7.444088987e-02
    endloop
  endfacet
  facet normal -1.000000000e+00 0.000000000e+00 0.000000000e+00
    outer loop
      vertex 0.000000000e+00 9.618285503e-02 7.983644780e-02
      vertex 0.000000000e+00 -8.929308595e-02 8.747425222e-02
      vertex 0.000000000e+00 9.395641637e-02 8.244508367e-02
    endloop
  endfacet
  facet normal -1.000000000e+00 -0.000000000e+00 0.000000000e+00
    outer loop
      vertex 0.000000000e+00 6.810384741e-02 1.048182521e-01
      vertex 0.000000000e+00 -8.929308595e-02 8.747425222e-02
      vertex 0.000000000e+00 6.520262523e-02 1.066471643e-01
    endloop
  endfacet
  facet normal -1.000000000e+00 -0.000000000e+00 0.000000000e+00
    outer loop
      vertex 0.000000000e+00 5.925515429e-02 1.100628306e-01
      vertex 0.000000000e+00 -8.929308595e-02 8.747425222e-02
      vertex 0.000000000e+00 5.621338260e-02 1.116470135e-01
    endloop
  endfacet
  facet normal -1.000000000e+00 -0.000000000e+00 0.000000000e+00
    outer loop
      vertex 0.000000000e+00 5.621338260e-02 1.116470135e-01
      vertex 0.000000000e+00 -8.929308595e-02 8.747425222e-02
      vertex 0.000000000e+00 5.312929524e-02 1.131471519e-01
    endloop
  endfacet
  facet normal -1.000000000e+00 -0.000000000e+00 0.000000000e+00
    outer loop
      vertex 0.000000000e+00 5.312929524e-02 1.131471519e-01
      vertex 0.000000000e+00 -8.929308595e-02 8.747425222e-02
      vertex 0.000000000e+00 5.000521381e-02 1.145621167e-01
    endloop
  endfacet
  facet normal -1.000000000e+00 -0.000000000e+00 0.000000000e+00
    outer loop
      vertex 0.000000000e+00 5.000521381e-02 1.145621167e-01
      vertex 0.000000000e+00 -8.929308595e-02 8.747425222e-02
      vertex 0.000000000e+00 4.684349002e-02 1.158908428e-01
    endloop
  endfacet
  facet normal -1.000000000e+00 -0.000000000e+00 0.000000000e+00
    outer loop
      vertex 0.000000000e+00 4.684349002e-02 1.158908428e-01
      vertex 0.000000000e+00 -8.929308595e-02 8.747425222e-02
      vertex 0.000000000e+00 4.364650392e-02 1.171323298e-01
    endloop
  endfacet
  facet normal -1.000000000e+00 -0.000000000e+00 0.000000000e+00
    outer loop
      vertex 0.000000000e+00 4.364650392e-02 1.171323298e-01
      vertex 0.000000000e+00 -8.929308595e-02 8.747425222e-02
      vertex 0.000000000e+00 4.041666210e-02 1.182856434e-01
    endloop
  endfacet
  facet normal -1.000000000e+00 -0.000000000e+00 0.000000000e+00
    outer loop
      vertex 0.000000000e+00 2.721769654e-02 1.220008074e-01
      vertex 0.000000000e+00 -8.929308595e-02 8.747425222e-02
      vertex 0.000000000e+00 2.386047622e-02 1.227015798e-01
    endloop
  endfacet
  facet normal -1.000000000e+00 -0.000000000e+00 0.000000000e+00
    outer loop
      vertex 0.000000000e+00 6.855930561e-03 1.248118433e-01
      vertex 0.000000000e+00 -8.929308595e-02 8.747425222e-02
      vertex 0.000000000e+00 3.429255999e-03 1.249529520e-01
    endloop
  endfacet
  facet normal -1.000000000e+00 0.000000000e+00 -0.000000000e+00
    outer loop
      vertex 0.000000000e+00 -9.395641637e-02 8.244508367e-02
      vertex 0.000000000e+00 -8.929308595e-02 8.747425222e-02
      vertex 0.000000000e+00 -1.079662374e-01 6.299437737e-02
    endloop
  endfacet
  facet normal -1.000000000e+00 0.000000000e+00 0.000000000e+00
    outer loop
      vertex 0.000000000e+00 -9.938624770e-02 -7.581143560e-02
      vertex 0.000000000e+00 -8.929308595e-02 8.747425222e-02
      vertex 0.000000000e+00 -9.507858265e-02 -8.114840184e-02
    endloop
  endfacet
  facet normal -1.000000000e+00 0.000000000e+00 0.000000000e+00
    outer loop
      vertex 0.000000000e+00 1.112588014e-01 5.697788262e-02
      vertex 0.000000000e+00 -8.929308595e-02 8.747425222e-02
      vertex 0.000000000e+00 1.061974098e-01 6.593261821e-02
    endloop
  endfacet
  facet normal -1.000000000e+00 -0.000000000e+00 0.000000000e+00
    outer loop
      vertex 0.000000000e+00 6.520262523e-02 1.066471643e-01
      vertex 0.000000000e+00 -8.929308595e-02 8.747425222e-02
      vertex 0.000000000e+00 5.925515429e-02 1.100628306e-01
    endloop
  endfacet
  facet normal -1.000000000e+00 0.000000000e+00 0.000000000e+00
    outer loop
      vertex 0.000000000e+00 1.061974098e-01 6.593261821e-02
      vertex 0.000000000e+00 -8.929308595e-02 8.747425222e-02
      vertex 0.000000000e+00 1.024213201e-01 7.165802941e-02
    endloop
  endfacet
  facet normal -1.000000000e+00 0.000000000e+00 0.000000000e+00
    outer loop
      vertex 0.000000000e+00 1.218112424e-01 2.805389867e-02
      vertex 0.000000000e+00 -8.929308595e-02 8.747425222e-02
      vertex 0.000000000e+00 1.200892009e-01 3.469270578e-02
    endloop
  endfacet
  facet normal -1.000000000e+00 0.000000000e+00 0.000000000e+00
    outer loop
      vertex 0.000000000e+00 -6.810384741e-02 1.048182521e-01
      vertex 0.000000000e+00 -8.929308595e-02 8.747425222e-02
      vertex 0.000000000e+00 -7.375034708e-02 1.009251520e-01
    endloop
  endfacet
  facet normal -1.000000000e+00 0.000000000e+00 0.000000000e+00
    outer loop
      vertex 0.000000000e+00 -1.104666914e-01 -5.849880424e-02
      vertex 0.000000000e+00 -8.929308595e-02 8.747425222e-02
      vertex 0.000000000e+00 -1.014286548e-01 -7.305633428e-02
    endloop
  endfacet
  facet normal -1.000000000e+00 0.000000000e+00 0.000000000e+00
    outer loop
      vertex 0.000000000e+00 1.155668020e-01 4.763732025e-02
      vertex 0.000000000e+00 -8.929308595e-02 8.747425222e-02
      vertex 0.000000000e+00 1.112588014e-01 5.697788262e-02
    endloop
  endfacet
  facet normal -1.000000000e+00 0.000000000e+00 -0.000000000e+00
    outer loop
      vertex 0.000000000e+00 -1.142164199e-01 5.078985550e-02
      vertex 0.000000000e+00 -8.929308595e-02 8.747425222e-02
      vertex 0.000000000e+00 -1.168301890e-01 4.444892511e-02
    endloop
  endfacet
  facet normal -1.000000000e+00 0.000000000e+00 0.000000000e+00
    outer loop
      vertex 0.000000000e+00 -9.281656741e-02 -8.372624926e-02
      vertex 0.000000000e+00 -8.929308595e-02 8.747425222e-02
      vertex 0.000000000e+00 -8.561837803e-02 -9.107410907e-02
    endloop
  endfacet
  facet normal -1.000000000e+00 0.000000000e+00 0.000000000e+00
    outer loop
      vertex 0.000000000e+00 -1.185600914e-01 -3.960435235e-02
      vertex 0.000000000e+00 -8.929308595e-02 8.747425222e-02
      vertex 0.000000000e+00 -1.162094308e-01 -4.604745577e-02
    endloop
  endfacet
  facet normal -1.000000000e+00 0.000000000e+00 0.000000000e+00
    outer loop
      vertex 0.000000000e+00 1.004169005e-01 7.444088987e-02
      vertex 0.000000000e+00 -8.929308595e-02 8.747425222e-02
      vertex 0.000000000e+00 9.618285503e-02 7.983644780e-02
    endloop
  endfacet
  facet normal -1.000000000e+00 -0.000000000e+00 0.000000000e+00
    outer loop
      vertex 0.000000000e+00 8.436093799e-02 9.224007882e-02
      vertex 0.000000000e+00 -8.929308595e-02 8.747425222e-02
      vertex 0.000000000e+00 6.810384741e-02 1.048182521e-01
    endloop
  endfacet
  facet normal -1.000000000e+00 0.000000000e+00 0.000000000e+00
    outer loop
      vertex 0.000000000e+00 -7.512793015e-02 -9.990392440e-02
      vertex 0.000000000e+00 -8.929308595e-02 8.747425222e-02
      vertex 0.000000000e+00 -6.953536859e-02 -1.038741186e-01
    endloop
  endfacet
  facet normal -1.000000000e+00 -0.000000000e+00 0.000000000e+00
    outer loop
      vertex 0.000000000e+00 4.041666210e-02 1.182856434e-01
      vertex 0.000000000e+00 -8.929308595e-02 8.747425222e-02
      vertex 0.000000000e+00 2.721769654e-02 1.220008074e-01
    endloop
  endfacet
  facet normal -1.000000000e+00 0.000000000e+00 0.000000000e+00
    outer loop
      vertex 0.000000000e+00 9.395641637e-02 8.244508367e-02
      vertex 0.000000000e+00 -8.929308595e-02 8.747425222e-02
      vertex 0.000000000e+00 8.436093799e-02 9.224007882e-02
    endloop
  endfacet
  facet normal -1.000000000e+00 0.000000000e+00 0.000000000e+00
    outer loop
      vertex 0.000000000e+00 -6.225232056e-02 1.083957960e-01
      vertex 0.000000000e+00 -8.929308595e-02 8.747425222e-02
      vertex 0.000000000e+00 -6.810384741e-02 1.048182521e-01
    endloop
  endfacet
  facet normal -1.000000000e+00 0.000000000e+00 -0.000000000e+00
    outer loop
      vertex 0.000000000e+00 -1.079662374e-01 6.299437737e-02
      vertex 0.000000000e+00 -8.929308595e-02 8.747425222e-02
      vertex 0.000000000e+00 -1.127800593e-01 5.390415774e-02
    endloop
  endfacet
  facet normal -1.000000000e+00 0.000000000e+00 0.000000000e+00
    outer loop
      vertex 0.000000000e+00 -1.709469206e-02 1.238255689e-01
      vertex 0.000000000e+00 -8.929308595e-02 8.747425222e-02
      vertex 0.000000000e+00 -2.386047622e-02 1.227015798e-01
    endloop
  endfacet
  facet normal -1.000000000e+00 0.000000000e+00 -0.000000000e+00
    outer loop
      vertex 0.000000000e+00 -1.218112424e-01 2.805389867e-02
      vertex 0.000000000e+00 -8.929308595e-02 8.747425222e-02
      vertex 0.000000000e+00 -1.231665702e-01 2.133063507e-02
    endloop
  endfacet
  facet normal -1.000000000e+00 0.000000000e+00 -0.000000000e+00
    outer loop
      vertex 0.000000000e+00 -1.168301890e-01 4.444892511e-02
      vertex 0.000000000e+00 -8.929308595e-02 8.747425222e-02
      vertex 0.000000000e+00 -1.190922398e-01 3.797418089e-02
    endloop
  endfacet
  facet normal -1.000000000e+00 0.000000000e+00 0.000000000e+00
    outer loop
      vertex 0.000000000e+00 -3.386815950e-02 1.203243441e-01
      vertex 0.000000000e+00 -8.929308595e-02 8.747425222e-02
      vertex 0.000000000e+00 -4.041666210e-02 1.182856434e-01
    endloop
  endfacet
  facet normal -1.000000000e+00 -0.000000000e+00 0.000000000e+00
    outer loop
      vertex 0.000000000e+00 1.709469206e-02 1.238255689e-01
      vertex 0.000000000e+00 -8.929308595e-02 8.747425222e-02
      vertex 0.000000000e+00 6.855930561e-03 1.248118433e-01
    endloop
  endfacet
  facet normal -1.000000000e+00 -0.000000000e+00 0.000000000e+00
    outer loop
      vertex 0.000000000e+00 2.386047622e-02 1.227015798e-01
      vertex 0.000000000e+00 -8.929308595e-02 8.747425222e-02
      vertex 0.000000000e+00 1.709469206e-02 1.238255689e-01
    endloop
  endfacet
  facet normal -1.000000000e+00 0.000000000e+00 0.000000000e+00
    outer loop
      vertex 0.000000000e+00 3.429255999e-03 1.249529520e-01
      vertex 0.000000000e+00 -8.929308595e-02 8.747425222e-02
      vertex 0.000000000e+00 -6.855930561e-03 1.248118433e-01
    endloop
  endfacet
  facet normal -1.000000000e+00 0.000000000e+00 0.000000000e+00
    outer loop
      vertex 0.000000000e+00 -5.000521381e-02 1.145621167e-01
      vertex 0.000000000e+00 -8.929308595e-02 8.747425222e-02
      vertex 0.000000000e+00 -6.225232056e-02 1.083957960e-01
    endloop
  endfacet
  facet normal -1.000000000e+00 0.000000000e+00 0.000000000e+00
    outer loop
      vertex 0.000000000e+00 -1.027744419e-02 1.245767801e-01
      vertex 0.000000000e+00 -8.929308595e-02 8.747425222e-02
      vertex 0.000000000e+00 -1.709469206e-02 1.238255689e-01
    endloop
  endfacet
  facet normal -1.000000000e+00 0.000000000e+00 0.000000000e+00
    outer loop
      vertex 0.000000000e+00 -2.386047622e-02 1.227015798e-01
      vertex 0.000000000e+00 -8.929308595e-02 8.747425222e-02
      vertex 0.000000000e+00 -3.055442823e-02 1.212081966e-01
    endloop
  endfacet
  facet normal -1.000000000e+00 0.000000000e+00 0.000000000e+00
    outer loop
      vertex 0.000000000e+00 -7.649137407e-02 9.886389479e-02
      vertex 0.000000000e+00 -8.929308595e-02 8.747425222e-02
      vertex 0.000000000e+00 -8.436093799e-02 9.224007882e-02
    endloop
  endfacet
  facet normal -1.000000000e+00 0.000000000e+00 0.000000000e+00
    outer loop
      vertex 0.000000000e+00 -4.041666210e-02 1.182856434e-01
      vertex 0.000000000e+00 -8.929308595e-02 8.747425222e-02
      vertex 0.000000000e+00 -5.000521381e-02 1.145621167e-01
    endloop
  endfacet
endsolid inlet
