ISO-10303-21;
HEADER;
FILE_DESCRIPTION(('FreeCAD Model'),'2;1');
FILE_NAME('Open CASCADE Shape Model','2026-06-06T12:27:58',('FreeCAD'),(
    'FreeCAD'),'Open CASCADE STEP processor 7.8','FreeCAD','Unknown');
FILE_SCHEMA(('AUTOMOTIVE_DESIGN { 1 0 10303 214 1 1 1 1 }'));
ENDSEC;
DATA;
#1 = APPLICATION_PROTOCOL_DEFINITION('international standard',
  'automotive_design',2000,#2);
#2 = APPLICATION_CONTEXT(
  'core data for automotive mechanical design processes');
#3 = SHAPE_DEFINITION_REPRESENTATION(#4,#10);
#4 = PRODUCT_DEFINITION_SHAPE('','',#5);
#5 = PRODUCT_DEFINITION('design','',#6,#9);
#6 = PRODUCT_DEFINITION_FORMATION('','',#7);
#7 = PRODUCT('Open CASCADE STEP translator 7.8 4',
  'Open CASCADE STEP translator 7.8 4','',(#8));
#8 = PRODUCT_CONTEXT('',#2,'mechanical');
#9 = PRODUCT_DEFINITION_CONTEXT('part definition',#2,'design');
#10 = SHAPE_REPRESENTATION('',(#11,#15,#34,#53,#72,#91,#128,#165,#209,
    #244,#392,#481,#520,#555,#592,#638,#691,#726,#823),#858);
#11 = AXIS2_PLACEMENT_3D('',#12,#13,#14);
#12 = CARTESIAN_POINT('',(0.,0.,0.));
#13 = DIRECTION('',(0.,0.,1.));
#14 = DIRECTION('',(1.,0.,-0.));
#15 = SHELL_BASED_SURFACE_MODEL('',(#16));
#16 = OPEN_SHELL('',(#17));
#17 = ADVANCED_FACE('',(#18),#29,.F.);
#18 = FACE_BOUND('',#19,.T.);
#19 = EDGE_LOOP('',(#20));
#20 = ORIENTED_EDGE('',*,*,#21,.F.);
#21 = EDGE_CURVE('',#22,#22,#24,.T.);
#22 = VERTEX_POINT('',#23);
#23 = CARTESIAN_POINT('',(0.,3.061616997868E-17,0.125));
#24 = CIRCLE('',#25,0.125);
#25 = AXIS2_PLACEMENT_3D('',#26,#27,#28);
#26 = CARTESIAN_POINT('',(0.,0.,0.));
#27 = DIRECTION('',(1.,0.,-0.));
#28 = DIRECTION('',(0.,0.,1.));
#29 = PLANE('',#30);
#30 = AXIS2_PLACEMENT_3D('',#31,#32,#33);
#31 = CARTESIAN_POINT('',(0.,0.,0.));
#32 = DIRECTION('',(1.,0.,0.));
#33 = DIRECTION('',(0.,0.,1.));
#34 = SHELL_BASED_SURFACE_MODEL('',(#35));
#35 = OPEN_SHELL('',(#36));
#36 = ADVANCED_FACE('',(#37),#48,.T.);
#37 = FACE_BOUND('',#38,.T.);
#38 = EDGE_LOOP('',(#39));
#39 = ORIENTED_EDGE('',*,*,#40,.T.);
#40 = EDGE_CURVE('',#41,#41,#43,.T.);
#41 = VERTEX_POINT('',#42);
#42 = CARTESIAN_POINT('',(4.,1.752592602496E-17,2.0715550232));
#43 = CIRCLE('',#44,7.15550232E-02);
#44 = AXIS2_PLACEMENT_3D('',#45,#46,#47);
#45 = CARTESIAN_POINT('',(4.,0.,2.));
#46 = DIRECTION('',(1.,0.,-0.));
#47 = DIRECTION('',(0.,0.,1.));
#48 = PLANE('',#49);
#49 = AXIS2_PLACEMENT_3D('',#50,#51,#52);
#50 = CARTESIAN_POINT('',(4.,0.,2.));
#51 = DIRECTION('',(1.,0.,0.));
#52 = DIRECTION('',(0.,0.,1.));
#53 = SHELL_BASED_SURFACE_MODEL('',(#54));
#54 = OPEN_SHELL('',(#55));
#55 = ADVANCED_FACE('',(#56),#67,.T.);
#56 = FACE_BOUND('',#57,.T.);
#57 = EDGE_LOOP('',(#58));
#58 = ORIENTED_EDGE('',*,*,#59,.T.);
#59 = EDGE_CURVE('',#60,#60,#62,.T.);
#60 = VERTEX_POINT('',#61);
#61 = CARTESIAN_POINT('',(4.,-1.,2.1244416504));
#62 = CIRCLE('',#63,0.1244416504);
#63 = AXIS2_PLACEMENT_3D('',#64,#65,#66);
#64 = CARTESIAN_POINT('',(4.,-1.,2.));
#65 = DIRECTION('',(1.,0.,-0.));
#66 = DIRECTION('',(0.,0.,1.));
#67 = PLANE('',#68);
#68 = AXIS2_PLACEMENT_3D('',#69,#70,#71);
#69 = CARTESIAN_POINT('',(4.,-1.,2.));
#70 = DIRECTION('',(1.,0.,0.));
#71 = DIRECTION('',(0.,0.,1.));
#72 = SHELL_BASED_SURFACE_MODEL('',(#73));
#73 = OPEN_SHELL('',(#74));
#74 = ADVANCED_FACE('',(#75),#86,.T.);
#75 = FACE_BOUND('',#76,.T.);
#76 = EDGE_LOOP('',(#77));
#77 = ORIENTED_EDGE('',*,*,#78,.T.);
#78 = EDGE_CURVE('',#79,#79,#81,.T.);
#79 = VERTEX_POINT('',#80);
#80 = CARTESIAN_POINT('',(4.,1.,2.1244416504));
#81 = CIRCLE('',#82,0.1244416504);
#82 = AXIS2_PLACEMENT_3D('',#83,#84,#85);
#83 = CARTESIAN_POINT('',(4.,1.,2.));
#84 = DIRECTION('',(1.,0.,-0.));
#85 = DIRECTION('',(0.,0.,1.));
#86 = PLANE('',#87);
#87 = AXIS2_PLACEMENT_3D('',#88,#89,#90);
#88 = CARTESIAN_POINT('',(4.,1.,2.));
#89 = DIRECTION('',(1.,0.,0.));
#90 = DIRECTION('',(0.,0.,1.));
#91 = SHELL_BASED_SURFACE_MODEL('',(#92));
#92 = OPEN_SHELL('',(#93));
#93 = ADVANCED_FACE('',(#94),#123,.T.);
#94 = FACE_BOUND('',#95,.T.);
#95 = EDGE_LOOP('',(#96,#107,#116));
#96 = ORIENTED_EDGE('',*,*,#97,.T.);
#97 = EDGE_CURVE('',#98,#100,#102,.T.);
#98 = VERTEX_POINT('',#99);
#99 = CARTESIAN_POINT('',(2.,0.875,2.125));
#100 = VERTEX_POINT('',#101);
#101 = CARTESIAN_POINT('',(2.125,0.875,2.));
#102 = CIRCLE('',#103,0.125);
#103 = AXIS2_PLACEMENT_3D('',#104,#105,#106);
#104 = CARTESIAN_POINT('',(2.,0.875,2.));
#105 = DIRECTION('',(0.,1.,0.));
#106 = DIRECTION('',(0.,0.,1.));
#107 = ORIENTED_EDGE('',*,*,#108,.F.);
#108 = EDGE_CURVE('',#109,#100,#111,.T.);
#109 = VERTEX_POINT('',#110);
#110 = CARTESIAN_POINT('',(2.125,1.,2.125));
#111 = CIRCLE('',#112,0.125);
#112 = AXIS2_PLACEMENT_3D('',#113,#114,#115);
#113 = CARTESIAN_POINT('',(2.125,1.,2.));
#114 = DIRECTION('',(1.,0.,-0.));
#115 = DIRECTION('',(0.,0.,1.));
#116 = ORIENTED_EDGE('',*,*,#117,.F.);
#117 = EDGE_CURVE('',#98,#109,#118,.T.);
#118 = CIRCLE('',#119,0.125);
#119 = AXIS2_PLACEMENT_3D('',#120,#121,#122);
#120 = CARTESIAN_POINT('',(2.125,0.875,2.125));
#121 = DIRECTION('',(0.,0.,-1.));
#122 = DIRECTION('',(-1.,1.7763568394E-15,0.));
#123 = TOROIDAL_SURFACE('',#124,0.125,0.125);
#124 = AXIS2_PLACEMENT_3D('',#125,#126,#127);
#125 = CARTESIAN_POINT('',(2.125,0.875,2.));
#126 = DIRECTION('',(0.,0.,-1.));
#127 = DIRECTION('',(-1.,1.7763568394E-15,0.));
#128 = SHELL_BASED_SURFACE_MODEL('',(#129));
#129 = OPEN_SHELL('',(#130));
#130 = ADVANCED_FACE('',(#131),#160,.T.);
#131 = FACE_BOUND('',#132,.T.);
#132 = EDGE_LOOP('',(#133,#144,#153));
#133 = ORIENTED_EDGE('',*,*,#134,.T.);
#134 = EDGE_CURVE('',#135,#137,#139,.T.);
#135 = VERTEX_POINT('',#136);
#136 = CARTESIAN_POINT('',(2.125,0.875,2.));
#137 = VERTEX_POINT('',#138);
#138 = CARTESIAN_POINT('',(2.,0.875,2.125));
#139 = CIRCLE('',#140,0.125);
#140 = AXIS2_PLACEMENT_3D('',#141,#142,#143);
#141 = CARTESIAN_POINT('',(2.,0.875,2.));
#142 = DIRECTION('',(0.,1.,0.));
#143 = DIRECTION('',(0.,0.,1.));
#144 = ORIENTED_EDGE('',*,*,#145,.T.);
#145 = EDGE_CURVE('',#137,#146,#148,.T.);
#146 = VERTEX_POINT('',#147);
#147 = CARTESIAN_POINT('',(2.125,1.,2.125));
#148 = CIRCLE('',#149,0.125);
#149 = AXIS2_PLACEMENT_3D('',#150,#151,#152);
#150 = CARTESIAN_POINT('',(2.125,0.875,2.125));
#151 = DIRECTION('',(0.,0.,-1.));
#152 = DIRECTION('',(-1.,1.7763568394E-15,0.));
#153 = ORIENTED_EDGE('',*,*,#154,.F.);
#154 = EDGE_CURVE('',#135,#146,#155,.T.);
#155 = CIRCLE('',#156,0.125);
#156 = AXIS2_PLACEMENT_3D('',#157,#158,#159);
#157 = CARTESIAN_POINT('',(2.125,1.,2.));
#158 = DIRECTION('',(1.,0.,-0.));
#159 = DIRECTION('',(0.,0.,1.));
#160 = TOROIDAL_SURFACE('',#161,0.125,0.125);
#161 = AXIS2_PLACEMENT_3D('',#162,#163,#164);
#162 = CARTESIAN_POINT('',(2.125,0.875,2.));
#163 = DIRECTION('',(0.,0.,-1.));
#164 = DIRECTION('',(-1.,1.7763568394E-15,0.));
#165 = SHELL_BASED_SURFACE_MODEL('',(#166));
#166 = OPEN_SHELL('',(#167));
#167 = ADVANCED_FACE('',(#168),#204,.T.);
#168 = FACE_BOUND('',#169,.T.);
#169 = EDGE_LOOP('',(#170,#181,#188,#196,#203));
#170 = ORIENTED_EDGE('',*,*,#171,.T.);
#171 = EDGE_CURVE('',#172,#174,#176,.T.);
#172 = VERTEX_POINT('',#173);
#173 = CARTESIAN_POINT('',(2.125,1.,2.125));
#174 = VERTEX_POINT('',#175);
#175 = CARTESIAN_POINT('',(2.125,0.875,2.));
#176 = CIRCLE('',#177,0.125);
#177 = AXIS2_PLACEMENT_3D('',#178,#179,#180);
#178 = CARTESIAN_POINT('',(2.125,1.,2.));
#179 = DIRECTION('',(1.,0.,-0.));
#180 = DIRECTION('',(0.,0.,1.));
#181 = ORIENTED_EDGE('',*,*,#182,.T.);
#182 = EDGE_CURVE('',#174,#172,#183,.T.);
#183 = CIRCLE('',#184,0.125);
#184 = AXIS2_PLACEMENT_3D('',#185,#186,#187);
#185 = CARTESIAN_POINT('',(2.125,1.,2.));
#186 = DIRECTION('',(1.,0.,-0.));
#187 = DIRECTION('',(0.,0.,1.));
#188 = ORIENTED_EDGE('',*,*,#189,.T.);
#189 = EDGE_CURVE('',#172,#190,#192,.T.);
#190 = VERTEX_POINT('',#191);
#191 = CARTESIAN_POINT('',(3.994974854,1.,2.125));
#192 = LINE('',#193,#194);
#193 = CARTESIAN_POINT('',(2.125,1.,2.125));
#194 = VECTOR('',#195,1.);
#195 = DIRECTION('',(1.,0.,0.));
#196 = ORIENTED_EDGE('',*,*,#197,.F.);
#197 = EDGE_CURVE('',#190,#190,#198,.T.);
#198 = CIRCLE('',#199,0.125);
#199 = AXIS2_PLACEMENT_3D('',#200,#201,#202);
#200 = CARTESIAN_POINT('',(3.994974854,1.,2.));
#201 = DIRECTION('',(1.,0.,-0.));
#202 = DIRECTION('',(0.,0.,1.));
#203 = ORIENTED_EDGE('',*,*,#189,.F.);
#204 = CYLINDRICAL_SURFACE('',#205,0.125);
#205 = AXIS2_PLACEMENT_3D('',#206,#207,#208);
#206 = CARTESIAN_POINT('',(2.125,1.,2.));
#207 = DIRECTION('',(1.,0.,0.));
#208 = DIRECTION('',(0.,0.,1.));
#209 = SHELL_BASED_SURFACE_MODEL('',(#210));
#210 = OPEN_SHELL('',(#211));
#211 = ADVANCED_FACE('',(#212),#239,.T.);
#212 = FACE_BOUND('',#213,.T.);
#213 = EDGE_LOOP('',(#214,#223,#231,#238));
#214 = ORIENTED_EDGE('',*,*,#215,.F.);
#215 = EDGE_CURVE('',#216,#216,#218,.T.);
#216 = VERTEX_POINT('',#217);
#217 = CARTESIAN_POINT('',(4.,1.,2.1244416504));
#218 = CIRCLE('',#219,0.1244416504);
#219 = AXIS2_PLACEMENT_3D('',#220,#221,#222);
#220 = CARTESIAN_POINT('',(4.,1.,2.));
#221 = DIRECTION('',(1.,0.,-0.));
#222 = DIRECTION('',(0.,0.,1.));
#223 = ORIENTED_EDGE('',*,*,#224,.F.);
#224 = EDGE_CURVE('',#225,#216,#227,.T.);
#225 = VERTEX_POINT('',#226);
#226 = CARTESIAN_POINT('',(3.994974854,1.,2.125));
#227 = LINE('',#228,#229);
#228 = CARTESIAN_POINT('',(3.994974854,1.,2.125));
#229 = VECTOR('',#230,1.);
#230 = DIRECTION('',(0.993883733709,-2.704792511325E-17,-0.110431534758)
  );
#231 = ORIENTED_EDGE('',*,*,#232,.T.);
#232 = EDGE_CURVE('',#225,#225,#233,.T.);
#233 = CIRCLE('',#234,0.125);
#234 = AXIS2_PLACEMENT_3D('',#235,#236,#237);
#235 = CARTESIAN_POINT('',(3.994974854,1.,2.));
#236 = DIRECTION('',(1.,0.,-0.));
#237 = DIRECTION('',(0.,0.,1.));
#238 = ORIENTED_EDGE('',*,*,#224,.T.);
#239 = CONICAL_SURFACE('',#240,0.125,0.11065722991);
#240 = AXIS2_PLACEMENT_3D('',#241,#242,#243);
#241 = CARTESIAN_POINT('',(3.994974854,1.,2.));
#242 = DIRECTION('',(-1.,-0.,-0.));
#243 = DIRECTION('',(0.,0.,1.));
#244 = SHELL_BASED_SURFACE_MODEL('',(#245));
#245 = OPEN_SHELL('',(#246));
#246 = ADVANCED_FACE('',(#247),#387,.T.);
#247 = FACE_BOUND('',#248,.T.);
#248 = EDGE_LOOP('',(#249,#260,#269,#276,#285,#292,#293,#302,#311,#320,
    #329,#338,#347,#354,#363,#370,#371,#380));
#249 = ORIENTED_EDGE('',*,*,#250,.T.);
#250 = EDGE_CURVE('',#251,#253,#255,.T.);
#251 = VERTEX_POINT('',#252);
#252 = CARTESIAN_POINT('',(2.,0.,2.125));
#253 = VERTEX_POINT('',#254);
#254 = CARTESIAN_POINT('',(2.01,9.999999999988E-03,2.124599357944));
#255 = ELLIPSE('',#256,0.176776695297,0.125);
#256 = AXIS2_PLACEMENT_3D('',#257,#258,#259);
#257 = CARTESIAN_POINT('',(2.,0.,2.));
#258 = DIRECTION('',(-0.707106781187,0.707106781187,0.));
#259 = DIRECTION('',(0.707106781187,0.707106781187,0.));
#260 = ORIENTED_EDGE('',*,*,#261,.T.);
#261 = EDGE_CURVE('',#253,#262,#264,.T.);
#262 = VERTEX_POINT('',#263);
#263 = CARTESIAN_POINT('',(2.125,0.125,2.));
#264 = ELLIPSE('',#265,0.176776695297,0.125);
#265 = AXIS2_PLACEMENT_3D('',#266,#267,#268);
#266 = CARTESIAN_POINT('',(2.,0.,2.));
#267 = DIRECTION('',(-0.707106781187,0.707106781187,0.));
#268 = DIRECTION('',(0.707106781187,0.707106781187,0.));
#269 = ORIENTED_EDGE('',*,*,#270,.F.);
#270 = EDGE_CURVE('',#271,#262,#273,.T.);
#271 = VERTEX_POINT('',#272);
#272 = CARTESIAN_POINT('',(2.125,0.875,2.));
#273 = B_SPLINE_CURVE_WITH_KNOTS('',1,(#274,#275),.UNSPECIFIED.,.F.,.F.,
  (2,2),(-0.875,-0.125),.PIECEWISE_BEZIER_KNOTS.);
#274 = CARTESIAN_POINT('',(2.125,0.875,2.));
#275 = CARTESIAN_POINT('',(2.125,0.125,2.));
#276 = ORIENTED_EDGE('',*,*,#277,.F.);
#277 = EDGE_CURVE('',#278,#271,#280,.T.);
#278 = VERTEX_POINT('',#279);
#279 = CARTESIAN_POINT('',(2.,0.875,2.125));
#280 = CIRCLE('',#281,0.125);
#281 = AXIS2_PLACEMENT_3D('',#282,#283,#284);
#282 = CARTESIAN_POINT('',(2.,0.875,2.));
#283 = DIRECTION('',(0.,1.,0.));
#284 = DIRECTION('',(0.,0.,1.));
#285 = ORIENTED_EDGE('',*,*,#286,.F.);
#286 = EDGE_CURVE('',#271,#278,#287,.T.);
#287 = CIRCLE('',#288,0.125);
#288 = AXIS2_PLACEMENT_3D('',#289,#290,#291);
#289 = CARTESIAN_POINT('',(2.,0.875,2.));
#290 = DIRECTION('',(0.,1.,0.));
#291 = DIRECTION('',(0.,0.,1.));
#292 = ORIENTED_EDGE('',*,*,#270,.T.);
#293 = ORIENTED_EDGE('',*,*,#294,.T.);
#294 = EDGE_CURVE('',#262,#295,#297,.T.);
#295 = VERTEX_POINT('',#296);
#296 = CARTESIAN_POINT('',(2.088388347648,8.838834764832E-02,
    1.911611652352));
#297 = ELLIPSE('',#298,0.176776695297,0.125);
#298 = AXIS2_PLACEMENT_3D('',#299,#300,#301);
#299 = CARTESIAN_POINT('',(2.,0.,2.));
#300 = DIRECTION('',(-0.707106781187,0.707106781187,0.));
#301 = DIRECTION('',(0.707106781187,0.707106781187,0.));
#302 = ORIENTED_EDGE('',*,*,#303,.T.);
#303 = EDGE_CURVE('',#295,#304,#306,.T.);
#304 = VERTEX_POINT('',#305);
#305 = CARTESIAN_POINT('',(2.,0.125,1.875));
#306 = ELLIPSE('',#307,0.176776695297,0.125);
#307 = AXIS2_PLACEMENT_3D('',#308,#309,#310);
#308 = CARTESIAN_POINT('',(2.,0.,2.));
#309 = DIRECTION('',(0.,0.707106781187,0.707106781187));
#310 = DIRECTION('',(0.,0.707106781187,-0.707106781187));
#311 = ORIENTED_EDGE('',*,*,#312,.T.);
#312 = EDGE_CURVE('',#304,#313,#315,.T.);
#313 = VERTEX_POINT('',#314);
#314 = CARTESIAN_POINT('',(1.875,-4.488749207237E-15,2.));
#315 = ELLIPSE('',#316,0.176776695297,0.125);
#316 = AXIS2_PLACEMENT_3D('',#317,#318,#319);
#317 = CARTESIAN_POINT('',(2.,0.,2.));
#318 = DIRECTION('',(0.,0.707106781187,0.707106781187));
#319 = DIRECTION('',(0.,0.707106781187,-0.707106781187));
#320 = ORIENTED_EDGE('',*,*,#321,.T.);
#321 = EDGE_CURVE('',#313,#322,#324,.T.);
#322 = VERTEX_POINT('',#323);
#323 = CARTESIAN_POINT('',(2.,-0.125,1.875));
#324 = ELLIPSE('',#325,0.176776695297,0.125);
#325 = AXIS2_PLACEMENT_3D('',#326,#327,#328);
#326 = CARTESIAN_POINT('',(2.,0.,2.));
#327 = DIRECTION('',(0.,-0.707106781187,0.707106781187));
#328 = DIRECTION('',(0.,-0.707106781187,-0.707106781187));
#329 = ORIENTED_EDGE('',*,*,#330,.T.);
#330 = EDGE_CURVE('',#322,#331,#333,.T.);
#331 = VERTEX_POINT('',#332);
#332 = CARTESIAN_POINT('',(2.088388347648,-8.838834764832E-02,
    1.911611652352));
#333 = ELLIPSE('',#334,0.176776695297,0.125);
#334 = AXIS2_PLACEMENT_3D('',#335,#336,#337);
#335 = CARTESIAN_POINT('',(2.,0.,2.));
#336 = DIRECTION('',(0.,-0.707106781187,0.707106781187));
#337 = DIRECTION('',(0.,-0.707106781187,-0.707106781187));
#338 = ORIENTED_EDGE('',*,*,#339,.T.);
#339 = EDGE_CURVE('',#331,#340,#342,.T.);
#340 = VERTEX_POINT('',#341);
#341 = CARTESIAN_POINT('',(2.125,-0.125,2.));
#342 = ELLIPSE('',#343,0.176776695297,0.125);
#343 = AXIS2_PLACEMENT_3D('',#344,#345,#346);
#344 = CARTESIAN_POINT('',(2.,0.,2.));
#345 = DIRECTION('',(-0.707106781187,-0.707106781187,0.));
#346 = DIRECTION('',(0.707106781187,-0.707106781187,0.));
#347 = ORIENTED_EDGE('',*,*,#348,.T.);
#348 = EDGE_CURVE('',#340,#349,#351,.T.);
#349 = VERTEX_POINT('',#350);
#350 = CARTESIAN_POINT('',(2.125,-0.875,2.));
#351 = B_SPLINE_CURVE_WITH_KNOTS('',1,(#352,#353),.UNSPECIFIED.,.F.,.F.,
  (2,2),(0.125,0.875),.PIECEWISE_BEZIER_KNOTS.);
#352 = CARTESIAN_POINT('',(2.125,-0.125,2.));
#353 = CARTESIAN_POINT('',(2.125,-0.875,2.));
#354 = ORIENTED_EDGE('',*,*,#355,.F.);
#355 = EDGE_CURVE('',#356,#349,#358,.T.);
#356 = VERTEX_POINT('',#357);
#357 = CARTESIAN_POINT('',(2.,-0.875,1.875));
#358 = CIRCLE('',#359,0.125);
#359 = AXIS2_PLACEMENT_3D('',#360,#361,#362);
#360 = CARTESIAN_POINT('',(2.,-0.875,2.));
#361 = DIRECTION('',(0.,-1.,0.));
#362 = DIRECTION('',(0.,0.,-1.));
#363 = ORIENTED_EDGE('',*,*,#364,.F.);
#364 = EDGE_CURVE('',#349,#356,#365,.T.);
#365 = CIRCLE('',#366,0.125);
#366 = AXIS2_PLACEMENT_3D('',#367,#368,#369);
#367 = CARTESIAN_POINT('',(2.,-0.875,2.));
#368 = DIRECTION('',(0.,-1.,0.));
#369 = DIRECTION('',(0.,0.,-1.));
#370 = ORIENTED_EDGE('',*,*,#348,.F.);
#371 = ORIENTED_EDGE('',*,*,#372,.T.);
#372 = EDGE_CURVE('',#340,#373,#375,.T.);
#373 = VERTEX_POINT('',#374);
#374 = CARTESIAN_POINT('',(2.01,-9.999999999988E-03,2.124599357944));
#375 = ELLIPSE('',#376,0.176776695297,0.125);
#376 = AXIS2_PLACEMENT_3D('',#377,#378,#379);
#377 = CARTESIAN_POINT('',(2.,0.,2.));
#378 = DIRECTION('',(-0.707106781187,-0.707106781187,0.));
#379 = DIRECTION('',(0.707106781187,-0.707106781187,0.));
#380 = ORIENTED_EDGE('',*,*,#381,.T.);
#381 = EDGE_CURVE('',#373,#251,#382,.T.);
#382 = ELLIPSE('',#383,0.176776695297,0.125);
#383 = AXIS2_PLACEMENT_3D('',#384,#385,#386);
#384 = CARTESIAN_POINT('',(2.,0.,2.));
#385 = DIRECTION('',(-0.707106781187,-0.707106781187,0.));
#386 = DIRECTION('',(0.707106781187,-0.707106781187,0.));
#387 = CYLINDRICAL_SURFACE('',#388,0.125);
#388 = AXIS2_PLACEMENT_3D('',#389,#390,#391);
#389 = CARTESIAN_POINT('',(2.,0.,2.));
#390 = DIRECTION('',(0.,-1.,0.));
#391 = DIRECTION('',(0.,0.,-1.));
#392 = SHELL_BASED_SURFACE_MODEL('',(#393));
#393 = OPEN_SHELL('',(#394));
#394 = ADVANCED_FACE('',(#395),#476,.T.);
#395 = FACE_BOUND('',#396,.T.);
#396 = EDGE_LOOP('',(#397,#408,#417,#426,#435,#443,#452,#459,#460,#469)
  );
#397 = ORIENTED_EDGE('',*,*,#398,.F.);
#398 = EDGE_CURVE('',#399,#401,#403,.T.);
#399 = VERTEX_POINT('',#400);
#400 = CARTESIAN_POINT('',(1.875,-4.488749207237E-15,2.));
#401 = VERTEX_POINT('',#402);
#402 = CARTESIAN_POINT('',(2.,-0.125,1.875));
#403 = ELLIPSE('',#404,0.176776695297,0.125);
#404 = AXIS2_PLACEMENT_3D('',#405,#406,#407);
#405 = CARTESIAN_POINT('',(2.,0.,2.));
#406 = DIRECTION('',(0.,-0.707106781187,0.707106781187));
#407 = DIRECTION('',(0.,-0.707106781187,-0.707106781187));
#408 = ORIENTED_EDGE('',*,*,#409,.F.);
#409 = EDGE_CURVE('',#410,#399,#412,.T.);
#410 = VERTEX_POINT('',#411);
#411 = CARTESIAN_POINT('',(2.,0.125,1.875));
#412 = ELLIPSE('',#413,0.176776695297,0.125);
#413 = AXIS2_PLACEMENT_3D('',#414,#415,#416);
#414 = CARTESIAN_POINT('',(2.,0.,2.));
#415 = DIRECTION('',(0.,0.707106781187,0.707106781187));
#416 = DIRECTION('',(0.,0.707106781187,-0.707106781187));
#417 = ORIENTED_EDGE('',*,*,#418,.F.);
#418 = EDGE_CURVE('',#419,#410,#421,.T.);
#419 = VERTEX_POINT('',#420);
#420 = CARTESIAN_POINT('',(2.088388347648,8.838834764832E-02,
    1.911611652352));
#421 = ELLIPSE('',#422,0.176776695297,0.125);
#422 = AXIS2_PLACEMENT_3D('',#423,#424,#425);
#423 = CARTESIAN_POINT('',(2.,0.,2.));
#424 = DIRECTION('',(0.,0.707106781187,0.707106781187));
#425 = DIRECTION('',(0.,0.707106781187,-0.707106781187));
#426 = ORIENTED_EDGE('',*,*,#427,.F.);
#427 = EDGE_CURVE('',#428,#419,#430,.T.);
#428 = VERTEX_POINT('',#429);
#429 = CARTESIAN_POINT('',(2.125,-3.061616997868E-17,1.875));
#430 = ELLIPSE('',#431,0.176776695297,0.125);
#431 = AXIS2_PLACEMENT_3D('',#432,#433,#434);
#432 = CARTESIAN_POINT('',(2.,0.,2.));
#433 = DIRECTION('',(0.707106781187,-0.,0.707106781187));
#434 = DIRECTION('',(0.707106781187,0.,-0.707106781187));
#435 = ORIENTED_EDGE('',*,*,#436,.F.);
#436 = EDGE_CURVE('',#437,#428,#439,.T.);
#437 = VERTEX_POINT('',#438);
#438 = CARTESIAN_POINT('',(2.125,-3.061616997868E-17,0.125));
#439 = LINE('',#440,#441);
#440 = CARTESIAN_POINT('',(2.125,-3.061616997868E-17,0.125));
#441 = VECTOR('',#442,1.);
#442 = DIRECTION('',(0.,0.,1.));
#443 = ORIENTED_EDGE('',*,*,#444,.F.);
#444 = EDGE_CURVE('',#445,#437,#447,.T.);
#445 = VERTEX_POINT('',#446);
#446 = CARTESIAN_POINT('',(1.875,1.020538999289E-17,0.125));
#447 = CIRCLE('',#448,0.125);
#448 = AXIS2_PLACEMENT_3D('',#449,#450,#451);
#449 = CARTESIAN_POINT('',(2.,0.,0.125));
#450 = DIRECTION('',(6.049014748177E-16,0.,-1.));
#451 = DIRECTION('',(1.,0.,6.049014748177E-16));
#452 = ORIENTED_EDGE('',*,*,#453,.F.);
#453 = EDGE_CURVE('',#437,#445,#454,.T.);
#454 = CIRCLE('',#455,0.125);
#455 = AXIS2_PLACEMENT_3D('',#456,#457,#458);
#456 = CARTESIAN_POINT('',(2.,0.,0.125));
#457 = DIRECTION('',(6.049014748177E-16,0.,-1.));
#458 = DIRECTION('',(1.,0.,6.049014748177E-16));
#459 = ORIENTED_EDGE('',*,*,#436,.T.);
#460 = ORIENTED_EDGE('',*,*,#461,.F.);
#461 = EDGE_CURVE('',#462,#428,#464,.T.);
#462 = VERTEX_POINT('',#463);
#463 = CARTESIAN_POINT('',(2.088388347648,-8.838834764832E-02,
    1.911611652352));
#464 = ELLIPSE('',#465,0.176776695297,0.125);
#465 = AXIS2_PLACEMENT_3D('',#466,#467,#468);
#466 = CARTESIAN_POINT('',(2.,0.,2.));
#467 = DIRECTION('',(0.707106781187,-0.,0.707106781187));
#468 = DIRECTION('',(0.707106781187,0.,-0.707106781187));
#469 = ORIENTED_EDGE('',*,*,#470,.F.);
#470 = EDGE_CURVE('',#401,#462,#471,.T.);
#471 = ELLIPSE('',#472,0.176776695297,0.125);
#472 = AXIS2_PLACEMENT_3D('',#473,#474,#475);
#473 = CARTESIAN_POINT('',(2.,0.,2.));
#474 = DIRECTION('',(0.,-0.707106781187,0.707106781187));
#475 = DIRECTION('',(0.,-0.707106781187,-0.707106781187));
#476 = CYLINDRICAL_SURFACE('',#477,0.125);
#477 = AXIS2_PLACEMENT_3D('',#478,#479,#480);
#478 = CARTESIAN_POINT('',(2.,0.,0.125));
#479 = DIRECTION('',(0.,0.,1.));
#480 = DIRECTION('',(1.,0.,0.));
#481 = SHELL_BASED_SURFACE_MODEL('',(#482));
#482 = OPEN_SHELL('',(#483));
#483 = ADVANCED_FACE('',(#484),#511,.T.);
#484 = FACE_BOUND('',#485,.T.);
#485 = EDGE_LOOP('',(#486,#495,#504));
#486 = ORIENTED_EDGE('',*,*,#487,.T.);
#487 = EDGE_CURVE('',#488,#488,#490,.T.);
#488 = VERTEX_POINT('',#489);
#489 = CARTESIAN_POINT('',(1.875,1.020538999289E-17,0.125));
#490 = CIRCLE('',#491,0.125);
#491 = AXIS2_PLACEMENT_3D('',#492,#493,#494);
#492 = CARTESIAN_POINT('',(1.875,0.,0.));
#493 = DIRECTION('',(1.,0.,-0.));
#494 = DIRECTION('',(0.,0.,1.));
#495 = ORIENTED_EDGE('',*,*,#496,.T.);
#496 = EDGE_CURVE('',#488,#497,#499,.T.);
#497 = VERTEX_POINT('',#498);
#498 = CARTESIAN_POINT('',(2.125,-3.061616997868E-17,0.125));
#499 = CIRCLE('',#500,0.125);
#500 = AXIS2_PLACEMENT_3D('',#501,#502,#503);
#501 = CARTESIAN_POINT('',(2.,0.,0.125));
#502 = DIRECTION('',(6.049014748177E-16,0.,-1.));
#503 = DIRECTION('',(1.,0.,6.049014748177E-16));
#504 = ORIENTED_EDGE('',*,*,#505,.T.);
#505 = EDGE_CURVE('',#497,#488,#506,.T.);
#506 = CIRCLE('',#507,0.125);
#507 = AXIS2_PLACEMENT_3D('',#508,#509,#510);
#508 = CARTESIAN_POINT('',(2.,0.,0.125));
#509 = DIRECTION('',(6.049014748177E-16,0.,-1.));
#510 = DIRECTION('',(1.,0.,6.049014748177E-16));
#511 = SURFACE_OF_REVOLUTION('',#512,#517);
#512 = CIRCLE('',#513,0.125);
#513 = AXIS2_PLACEMENT_3D('',#514,#515,#516);
#514 = CARTESIAN_POINT('',(1.875,0.,0.));
#515 = DIRECTION('',(-1.,-0.,-0.));
#516 = DIRECTION('',(0.,0.,-1.));
#517 = AXIS1_PLACEMENT('',#518,#519);
#518 = CARTESIAN_POINT('',(1.875,0.,0.125));
#519 = DIRECTION('',(0.,-1.,0.));
#520 = SHELL_BASED_SURFACE_MODEL('',(#521));
#521 = OPEN_SHELL('',(#522));
#522 = ADVANCED_FACE('',(#523),#550,.T.);
#523 = FACE_BOUND('',#524,.T.);
#524 = EDGE_LOOP('',(#525,#534,#542,#549));
#525 = ORIENTED_EDGE('',*,*,#526,.F.);
#526 = EDGE_CURVE('',#527,#527,#529,.T.);
#527 = VERTEX_POINT('',#528);
#528 = CARTESIAN_POINT('',(1.875,1.020538999289E-17,0.125));
#529 = CIRCLE('',#530,0.125);
#530 = AXIS2_PLACEMENT_3D('',#531,#532,#533);
#531 = CARTESIAN_POINT('',(1.875,0.,0.));
#532 = DIRECTION('',(1.,0.,-0.));
#533 = DIRECTION('',(0.,0.,1.));
#534 = ORIENTED_EDGE('',*,*,#535,.F.);
#535 = EDGE_CURVE('',#536,#527,#538,.T.);
#536 = VERTEX_POINT('',#537);
#537 = CARTESIAN_POINT('',(0.,3.061616997868E-17,0.125));
#538 = LINE('',#539,#540);
#539 = CARTESIAN_POINT('',(0.,3.061616997868E-17,0.125));
#540 = VECTOR('',#541,1.);
#541 = DIRECTION('',(1.,0.,0.));
#542 = ORIENTED_EDGE('',*,*,#543,.T.);
#543 = EDGE_CURVE('',#536,#536,#544,.T.);
#544 = CIRCLE('',#545,0.125);
#545 = AXIS2_PLACEMENT_3D('',#546,#547,#548);
#546 = CARTESIAN_POINT('',(0.,0.,0.));
#547 = DIRECTION('',(1.,0.,-0.));
#548 = DIRECTION('',(0.,0.,1.));
#549 = ORIENTED_EDGE('',*,*,#535,.T.);
#550 = CYLINDRICAL_SURFACE('',#551,0.125);
#551 = AXIS2_PLACEMENT_3D('',#552,#553,#554);
#552 = CARTESIAN_POINT('',(0.,0.,0.));
#553 = DIRECTION('',(1.,0.,0.));
#554 = DIRECTION('',(0.,0.,1.));
#555 = SHELL_BASED_SURFACE_MODEL('',(#556));
#556 = OPEN_SHELL('',(#557));
#557 = ADVANCED_FACE('',(#558),#587,.T.);
#558 = FACE_BOUND('',#559,.T.);
#559 = EDGE_LOOP('',(#560,#571,#580));
#560 = ORIENTED_EDGE('',*,*,#561,.T.);
#561 = EDGE_CURVE('',#562,#564,#566,.T.);
#562 = VERTEX_POINT('',#563);
#563 = CARTESIAN_POINT('',(2.,-0.875,1.875));
#564 = VERTEX_POINT('',#565);
#565 = CARTESIAN_POINT('',(2.125,-0.875,2.));
#566 = CIRCLE('',#567,0.125);
#567 = AXIS2_PLACEMENT_3D('',#568,#569,#570);
#568 = CARTESIAN_POINT('',(2.,-0.875,2.));
#569 = DIRECTION('',(0.,-1.,0.));
#570 = DIRECTION('',(0.,0.,-1.));
#571 = ORIENTED_EDGE('',*,*,#572,.F.);
#572 = EDGE_CURVE('',#573,#564,#575,.T.);
#573 = VERTEX_POINT('',#574);
#574 = CARTESIAN_POINT('',(2.125,-1.,1.875));
#575 = CIRCLE('',#576,0.125);
#576 = AXIS2_PLACEMENT_3D('',#577,#578,#579);
#577 = CARTESIAN_POINT('',(2.125,-1.,2.));
#578 = DIRECTION('',(1.,0.,-0.));
#579 = DIRECTION('',(0.,0.,1.));
#580 = ORIENTED_EDGE('',*,*,#581,.F.);
#581 = EDGE_CURVE('',#562,#573,#582,.T.);
#582 = CIRCLE('',#583,0.125);
#583 = AXIS2_PLACEMENT_3D('',#584,#585,#586);
#584 = CARTESIAN_POINT('',(2.125,-0.875,1.875));
#585 = DIRECTION('',(0.,0.,1.));
#586 = DIRECTION('',(-1.,-1.7763568394E-15,0.));
#587 = TOROIDAL_SURFACE('',#588,0.125,0.125);
#588 = AXIS2_PLACEMENT_3D('',#589,#590,#591);
#589 = CARTESIAN_POINT('',(2.125,-0.875,2.));
#590 = DIRECTION('',(0.,0.,1.));
#591 = DIRECTION('',(-1.,-1.7763568394E-15,0.));
#592 = SHELL_BASED_SURFACE_MODEL('',(#593));
#593 = OPEN_SHELL('',(#594));
#594 = ADVANCED_FACE('',(#595),#633,.T.);
#595 = FACE_BOUND('',#596,.T.);
#596 = EDGE_LOOP('',(#597,#608,#617,#626));
#597 = ORIENTED_EDGE('',*,*,#598,.T.);
#598 = EDGE_CURVE('',#599,#601,#603,.T.);
#599 = VERTEX_POINT('',#600);
#600 = CARTESIAN_POINT('',(2.125,-0.875,2.));
#601 = VERTEX_POINT('',#602);
#602 = CARTESIAN_POINT('',(2.,-0.875,1.875));
#603 = CIRCLE('',#604,0.125);
#604 = AXIS2_PLACEMENT_3D('',#605,#606,#607);
#605 = CARTESIAN_POINT('',(2.,-0.875,2.));
#606 = DIRECTION('',(0.,-1.,0.));
#607 = DIRECTION('',(0.,0.,-1.));
#608 = ORIENTED_EDGE('',*,*,#609,.T.);
#609 = EDGE_CURVE('',#601,#610,#612,.T.);
#610 = VERTEX_POINT('',#611);
#611 = CARTESIAN_POINT('',(2.125,-1.,1.875));
#612 = CIRCLE('',#613,0.125);
#613 = AXIS2_PLACEMENT_3D('',#614,#615,#616);
#614 = CARTESIAN_POINT('',(2.125,-0.875,1.875));
#615 = DIRECTION('',(0.,0.,1.));
#616 = DIRECTION('',(-1.,-1.7763568394E-15,0.));
#617 = ORIENTED_EDGE('',*,*,#618,.F.);
#618 = EDGE_CURVE('',#619,#610,#621,.T.);
#619 = VERTEX_POINT('',#620);
#620 = CARTESIAN_POINT('',(2.125,-1.,2.125));
#621 = CIRCLE('',#622,0.125);
#622 = AXIS2_PLACEMENT_3D('',#623,#624,#625);
#623 = CARTESIAN_POINT('',(2.125,-1.,2.));
#624 = DIRECTION('',(1.,0.,-0.));
#625 = DIRECTION('',(0.,0.,1.));
#626 = ORIENTED_EDGE('',*,*,#627,.F.);
#627 = EDGE_CURVE('',#599,#619,#628,.T.);
#628 = CIRCLE('',#629,0.125);
#629 = AXIS2_PLACEMENT_3D('',#630,#631,#632);
#630 = CARTESIAN_POINT('',(2.125,-1.,2.));
#631 = DIRECTION('',(1.,0.,-0.));
#632 = DIRECTION('',(0.,0.,1.));
#633 = TOROIDAL_SURFACE('',#634,0.125,0.125);
#634 = AXIS2_PLACEMENT_3D('',#635,#636,#637);
#635 = CARTESIAN_POINT('',(2.125,-0.875,2.));
#636 = DIRECTION('',(0.,0.,1.));
#637 = DIRECTION('',(-1.,-1.7763568394E-15,0.));
#638 = SHELL_BASED_SURFACE_MODEL('',(#639));
#639 = OPEN_SHELL('',(#640));
#640 = ADVANCED_FACE('',(#641),#686,.T.);
#641 = FACE_BOUND('',#642,.T.);
#642 = EDGE_LOOP('',(#643,#654,#663,#671,#678,#679));
#643 = ORIENTED_EDGE('',*,*,#644,.T.);
#644 = EDGE_CURVE('',#645,#647,#649,.T.);
#645 = VERTEX_POINT('',#646);
#646 = CARTESIAN_POINT('',(2.125,-1.,1.875));
#647 = VERTEX_POINT('',#648);
#648 = CARTESIAN_POINT('',(2.125,-0.875,2.));
#649 = CIRCLE('',#650,0.125);
#650 = AXIS2_PLACEMENT_3D('',#651,#652,#653);
#651 = CARTESIAN_POINT('',(2.125,-1.,2.));
#652 = DIRECTION('',(1.,0.,-0.));
#653 = DIRECTION('',(0.,0.,1.));
#654 = ORIENTED_EDGE('',*,*,#655,.T.);
#655 = EDGE_CURVE('',#647,#656,#658,.T.);
#656 = VERTEX_POINT('',#657);
#657 = CARTESIAN_POINT('',(2.125,-1.,2.125));
#658 = CIRCLE('',#659,0.125);
#659 = AXIS2_PLACEMENT_3D('',#660,#661,#662);
#660 = CARTESIAN_POINT('',(2.125,-1.,2.));
#661 = DIRECTION('',(1.,0.,-0.));
#662 = DIRECTION('',(0.,0.,1.));
#663 = ORIENTED_EDGE('',*,*,#664,.T.);
#664 = EDGE_CURVE('',#656,#665,#667,.T.);
#665 = VERTEX_POINT('',#666);
#666 = CARTESIAN_POINT('',(3.994974854,-1.,2.125));
#667 = LINE('',#668,#669);
#668 = CARTESIAN_POINT('',(2.125,-1.,2.125));
#669 = VECTOR('',#670,1.);
#670 = DIRECTION('',(1.,0.,0.));
#671 = ORIENTED_EDGE('',*,*,#672,.F.);
#672 = EDGE_CURVE('',#665,#665,#673,.T.);
#673 = CIRCLE('',#674,0.125);
#674 = AXIS2_PLACEMENT_3D('',#675,#676,#677);
#675 = CARTESIAN_POINT('',(3.994974854,-1.,2.));
#676 = DIRECTION('',(1.,0.,-0.));
#677 = DIRECTION('',(0.,0.,1.));
#678 = ORIENTED_EDGE('',*,*,#664,.F.);
#679 = ORIENTED_EDGE('',*,*,#680,.T.);
#680 = EDGE_CURVE('',#656,#645,#681,.T.);
#681 = CIRCLE('',#682,0.125);
#682 = AXIS2_PLACEMENT_3D('',#683,#684,#685);
#683 = CARTESIAN_POINT('',(2.125,-1.,2.));
#684 = DIRECTION('',(1.,0.,-0.));
#685 = DIRECTION('',(0.,0.,1.));
#686 = CYLINDRICAL_SURFACE('',#687,0.125);
#687 = AXIS2_PLACEMENT_3D('',#688,#689,#690);
#688 = CARTESIAN_POINT('',(2.125,-1.,2.));
#689 = DIRECTION('',(1.,0.,0.));
#690 = DIRECTION('',(0.,0.,1.));
#691 = SHELL_BASED_SURFACE_MODEL('',(#692));
#692 = OPEN_SHELL('',(#693));
#693 = ADVANCED_FACE('',(#694),#721,.T.);
#694 = FACE_BOUND('',#695,.T.);
#695 = EDGE_LOOP('',(#696,#705,#713,#720));
#696 = ORIENTED_EDGE('',*,*,#697,.F.);
#697 = EDGE_CURVE('',#698,#698,#700,.T.);
#698 = VERTEX_POINT('',#699);
#699 = CARTESIAN_POINT('',(4.,-1.,2.1244416504));
#700 = CIRCLE('',#701,0.1244416504);
#701 = AXIS2_PLACEMENT_3D('',#702,#703,#704);
#702 = CARTESIAN_POINT('',(4.,-1.,2.));
#703 = DIRECTION('',(1.,0.,-0.));
#704 = DIRECTION('',(0.,0.,1.));
#705 = ORIENTED_EDGE('',*,*,#706,.F.);
#706 = EDGE_CURVE('',#707,#698,#709,.T.);
#707 = VERTEX_POINT('',#708);
#708 = CARTESIAN_POINT('',(3.994974854,-1.,2.125));
#709 = LINE('',#710,#711);
#710 = CARTESIAN_POINT('',(3.994974854,-1.,2.125));
#711 = VECTOR('',#712,1.);
#712 = DIRECTION('',(0.993883733709,-2.704792511325E-17,-0.110431534758)
  );
#713 = ORIENTED_EDGE('',*,*,#714,.T.);
#714 = EDGE_CURVE('',#707,#707,#715,.T.);
#715 = CIRCLE('',#716,0.125);
#716 = AXIS2_PLACEMENT_3D('',#717,#718,#719);
#717 = CARTESIAN_POINT('',(3.994974854,-1.,2.));
#718 = DIRECTION('',(1.,0.,-0.));
#719 = DIRECTION('',(0.,0.,1.));
#720 = ORIENTED_EDGE('',*,*,#706,.T.);
#721 = CONICAL_SURFACE('',#722,0.125,0.11065722991);
#722 = AXIS2_PLACEMENT_3D('',#723,#724,#725);
#723 = CARTESIAN_POINT('',(3.994974854,-1.,2.));
#724 = DIRECTION('',(-1.,-0.,-0.));
#725 = DIRECTION('',(0.,0.,1.));
#726 = SHELL_BASED_SURFACE_MODEL('',(#727));
#727 = OPEN_SHELL('',(#728));
#728 = ADVANCED_FACE('',(#729),#818,.T.);
#729 = FACE_BOUND('',#730,.T.);
#730 = EDGE_LOOP('',(#731,#742,#749,#756,#757,#766,#775,#784,#793,#802,
    #811));
#731 = ORIENTED_EDGE('',*,*,#732,.F.);
#732 = EDGE_CURVE('',#733,#735,#737,.T.);
#733 = VERTEX_POINT('',#734);
#734 = CARTESIAN_POINT('',(2.,0.,2.125));
#735 = VERTEX_POINT('',#736);
#736 = CARTESIAN_POINT('',(2.01,9.999999999988E-03,2.124599357944));
#737 = ELLIPSE('',#738,0.176776695297,0.125);
#738 = AXIS2_PLACEMENT_3D('',#739,#740,#741);
#739 = CARTESIAN_POINT('',(2.,0.,2.));
#740 = DIRECTION('',(-0.707106781187,0.707106781187,0.));
#741 = DIRECTION('',(0.707106781187,0.707106781187,0.));
#742 = ORIENTED_EDGE('',*,*,#743,.T.);
#743 = EDGE_CURVE('',#733,#744,#746,.T.);
#744 = VERTEX_POINT('',#745);
#745 = CARTESIAN_POINT('',(3.518995209,3.061616997868E-17,2.125));
#746 = B_SPLINE_CURVE_WITH_KNOTS('',1,(#747,#748),.UNSPECIFIED.,.F.,.F.,
  (2,2),(0.,1.518995209),.PIECEWISE_BEZIER_KNOTS.);
#747 = CARTESIAN_POINT('',(2.,0.,2.125));
#748 = CARTESIAN_POINT('',(3.518995209,0.,2.125));
#749 = ORIENTED_EDGE('',*,*,#750,.F.);
#750 = EDGE_CURVE('',#744,#744,#751,.T.);
#751 = CIRCLE('',#752,0.125);
#752 = AXIS2_PLACEMENT_3D('',#753,#754,#755);
#753 = CARTESIAN_POINT('',(3.518995209,0.,2.));
#754 = DIRECTION('',(1.,0.,-0.));
#755 = DIRECTION('',(0.,0.,1.));
#756 = ORIENTED_EDGE('',*,*,#743,.F.);
#757 = ORIENTED_EDGE('',*,*,#758,.F.);
#758 = EDGE_CURVE('',#759,#733,#761,.T.);
#759 = VERTEX_POINT('',#760);
#760 = CARTESIAN_POINT('',(2.01,-9.999999999988E-03,2.124599357944));
#761 = ELLIPSE('',#762,0.176776695297,0.125);
#762 = AXIS2_PLACEMENT_3D('',#763,#764,#765);
#763 = CARTESIAN_POINT('',(2.,0.,2.));
#764 = DIRECTION('',(-0.707106781187,-0.707106781187,0.));
#765 = DIRECTION('',(0.707106781187,-0.707106781187,0.));
#766 = ORIENTED_EDGE('',*,*,#767,.F.);
#767 = EDGE_CURVE('',#768,#759,#770,.T.);
#768 = VERTEX_POINT('',#769);
#769 = CARTESIAN_POINT('',(2.125,-0.125,2.));
#770 = ELLIPSE('',#771,0.176776695297,0.125);
#771 = AXIS2_PLACEMENT_3D('',#772,#773,#774);
#772 = CARTESIAN_POINT('',(2.,0.,2.));
#773 = DIRECTION('',(-0.707106781187,-0.707106781187,0.));
#774 = DIRECTION('',(0.707106781187,-0.707106781187,0.));
#775 = ORIENTED_EDGE('',*,*,#776,.F.);
#776 = EDGE_CURVE('',#777,#768,#779,.T.);
#777 = VERTEX_POINT('',#778);
#778 = CARTESIAN_POINT('',(2.088388347648,-8.838834764832E-02,
    1.911611652352));
#779 = ELLIPSE('',#780,0.176776695297,0.125);
#780 = AXIS2_PLACEMENT_3D('',#781,#782,#783);
#781 = CARTESIAN_POINT('',(2.,0.,2.));
#782 = DIRECTION('',(-0.707106781187,-0.707106781187,0.));
#783 = DIRECTION('',(0.707106781187,-0.707106781187,0.));
#784 = ORIENTED_EDGE('',*,*,#785,.T.);
#785 = EDGE_CURVE('',#777,#786,#788,.T.);
#786 = VERTEX_POINT('',#787);
#787 = CARTESIAN_POINT('',(2.125,-3.061616997868E-17,1.875));
#788 = ELLIPSE('',#789,0.176776695297,0.125);
#789 = AXIS2_PLACEMENT_3D('',#790,#791,#792);
#790 = CARTESIAN_POINT('',(2.,0.,2.));
#791 = DIRECTION('',(0.707106781187,-0.,0.707106781187));
#792 = DIRECTION('',(0.707106781187,0.,-0.707106781187));
#793 = ORIENTED_EDGE('',*,*,#794,.T.);
#794 = EDGE_CURVE('',#786,#795,#797,.T.);
#795 = VERTEX_POINT('',#796);
#796 = CARTESIAN_POINT('',(2.088388347648,8.838834764832E-02,
    1.911611652352));
#797 = ELLIPSE('',#798,0.176776695297,0.125);
#798 = AXIS2_PLACEMENT_3D('',#799,#800,#801);
#799 = CARTESIAN_POINT('',(2.,0.,2.));
#800 = DIRECTION('',(0.707106781187,-0.,0.707106781187));
#801 = DIRECTION('',(0.707106781187,0.,-0.707106781187));
#802 = ORIENTED_EDGE('',*,*,#803,.F.);
#803 = EDGE_CURVE('',#804,#795,#806,.T.);
#804 = VERTEX_POINT('',#805);
#805 = CARTESIAN_POINT('',(2.125,0.125,2.));
#806 = ELLIPSE('',#807,0.176776695297,0.125);
#807 = AXIS2_PLACEMENT_3D('',#808,#809,#810);
#808 = CARTESIAN_POINT('',(2.,0.,2.));
#809 = DIRECTION('',(-0.707106781187,0.707106781187,0.));
#810 = DIRECTION('',(0.707106781187,0.707106781187,0.));
#811 = ORIENTED_EDGE('',*,*,#812,.F.);
#812 = EDGE_CURVE('',#735,#804,#813,.T.);
#813 = ELLIPSE('',#814,0.176776695297,0.125);
#814 = AXIS2_PLACEMENT_3D('',#815,#816,#817);
#815 = CARTESIAN_POINT('',(2.,0.,2.));
#816 = DIRECTION('',(-0.707106781187,0.707106781187,0.));
#817 = DIRECTION('',(0.707106781187,0.707106781187,0.));
#818 = CYLINDRICAL_SURFACE('',#819,0.125);
#819 = AXIS2_PLACEMENT_3D('',#820,#821,#822);
#820 = CARTESIAN_POINT('',(2.,0.,2.));
#821 = DIRECTION('',(1.,0.,0.));
#822 = DIRECTION('',(0.,0.,1.));
#823 = SHELL_BASED_SURFACE_MODEL('',(#824));
#824 = OPEN_SHELL('',(#825));
#825 = ADVANCED_FACE('',(#826),#853,.T.);
#826 = FACE_BOUND('',#827,.T.);
#827 = EDGE_LOOP('',(#828,#837,#845,#852));
#828 = ORIENTED_EDGE('',*,*,#829,.F.);
#829 = EDGE_CURVE('',#830,#830,#832,.T.);
#830 = VERTEX_POINT('',#831);
#831 = CARTESIAN_POINT('',(4.,1.752592602496E-17,2.0715550232));
#832 = CIRCLE('',#833,7.15550232E-02);
#833 = AXIS2_PLACEMENT_3D('',#834,#835,#836);
#834 = CARTESIAN_POINT('',(4.,0.,2.));
#835 = DIRECTION('',(1.,0.,-0.));
#836 = DIRECTION('',(0.,0.,1.));
#837 = ORIENTED_EDGE('',*,*,#838,.F.);
#838 = EDGE_CURVE('',#839,#830,#841,.T.);
#839 = VERTEX_POINT('',#840);
#840 = CARTESIAN_POINT('',(3.518995209,3.061616997868E-17,2.125));
#841 = LINE('',#842,#843);
#842 = CARTESIAN_POINT('',(3.518995209,3.061616997868E-17,2.125));
#843 = VECTOR('',#844,1.);
#844 = DIRECTION('',(0.993883734669,-2.704792299761E-17,-0.11043152612)
  );
#845 = ORIENTED_EDGE('',*,*,#846,.T.);
#846 = EDGE_CURVE('',#839,#839,#847,.T.);
#847 = CIRCLE('',#848,0.125);
#848 = AXIS2_PLACEMENT_3D('',#849,#850,#851);
#849 = CARTESIAN_POINT('',(3.518995209,0.,2.));
#850 = DIRECTION('',(1.,0.,-0.));
#851 = DIRECTION('',(0.,0.,1.));
#852 = ORIENTED_EDGE('',*,*,#838,.T.);
#853 = CONICAL_SURFACE('',#854,0.125,0.11065722122);
#854 = AXIS2_PLACEMENT_3D('',#855,#856,#857);
#855 = CARTESIAN_POINT('',(3.518995209,0.,2.));
#856 = DIRECTION('',(-1.,-0.,-0.));
#857 = DIRECTION('',(0.,0.,1.));
#858 = ( GEOMETRIC_REPRESENTATION_CONTEXT(3) 
GLOBAL_UNCERTAINTY_ASSIGNED_CONTEXT((#862)) GLOBAL_UNIT_ASSIGNED_CONTEXT
((#859,#860,#861)) REPRESENTATION_CONTEXT('Context #1',
  '3D Context with UNIT and UNCERTAINTY') );
#859 = ( LENGTH_UNIT() NAMED_UNIT(*) SI_UNIT(.MILLI.,.METRE.) );
#860 = ( NAMED_UNIT(*) PLANE_ANGLE_UNIT() SI_UNIT($,.RADIAN.) );
#861 = ( NAMED_UNIT(*) SI_UNIT($,.STERADIAN.) SOLID_ANGLE_UNIT() );
#862 = UNCERTAINTY_MEASURE_WITH_UNIT(LENGTH_MEASURE(2.E-06),#859,
  'distance_accuracy_value','confusion accuracy');
#863 = PRODUCT_RELATED_PRODUCT_CATEGORY('part',$,(#7));
ENDSEC;
END-ISO-10303-21;
