solid outlet_33
  facet normal 1.000000000e+00 0.000000000e+00 0.000000000e+00
    outer loop
      vertex 4.000000000e+00 5.246943824e-02 2.048652640e+00
      vertex 4.000000000e+00 5.629198771e-02 2.044173900e+00
      vertex 4.000000000e+00 5.505893139e-02 2.045701591e+00
    endloop
  endfacet
  facet normal 1.000000000e+00 0.000000000e+00 0.000000000e+00
    outer loop
      vertex 4.000000000e+00 5.246943824e-02 2.048652640e+00
      vertex 4.000000000e+00 5.505893139e-02 2.045701591e+00
      vertex 4.000000000e+00 5.378442843e-02 2.047194879e+00
    endloop
  endfacet
  facet normal 1.000000000e+00 0.000000000e+00 0.000000000e+00
    outer loop
      vertex 4.000000000e+00 4.682484418e-02 2.054106888e+00
      vertex 4.000000000e+00 4.972198542e-02 2.051457220e+00
      vertex 4.000000000e+00 4.829159100e-02 2.052801928e+00
    endloop
  endfacet
  facet normal 1.000000000e+00 0.000000000e+00 0.000000000e+00
    outer loop
      vertex 4.000000000e+00 4.682484418e-02 2.054106888e+00
      vertex 4.000000000e+00 5.111495070e-02 2.050073777e+00
      vertex 4.000000000e+00 4.972198542e-02 2.051457220e+00
    endloop
  endfacet
  facet normal 1.000000000e+00 0.000000000e+00 0.000000000e+00
    outer loop
      vertex 4.000000000e+00 -5.806183800e-02 1.958179618e+00
      vertex 4.000000000e+00 -5.689268208e-02 1.956602488e+00
      vertex 4.000000000e+00 -5.568069913e-02 1.955058025e+00
    endloop
  endfacet
  facet normal 1.000000000e+00 0.000000000e+00 0.000000000e+00
    outer loop
      vertex 4.000000000e+00 -5.806183800e-02 1.958179618e+00
      vertex 4.000000000e+00 -5.568069913e-02 1.955058025e+00
      vertex 4.000000000e+00 -5.442680150e-02 1.953547394e+00
    endloop
  endfacet
  facet normal 1.000000000e+00 0.000000000e+00 0.000000000e+00
    outer loop
      vertex 4.000000000e+00 3.898537905e-02 2.060002180e+00
      vertex 4.000000000e+00 4.221766237e-02 2.057773613e+00
      vertex 4.000000000e+00 4.061680824e-02 2.058910069e+00
    endloop
  endfacet
  facet normal 1.000000000e+00 0.000000000e+00 0.000000000e+00
    outer loop
      vertex 4.000000000e+00 3.563572993e-02 2.062050110e+00
      vertex 4.000000000e+00 3.898537905e-02 2.060002180e+00
      vertex 4.000000000e+00 3.732460289e-02 2.061049123e+00
    endloop
  endfacet
  facet normal 1.000000000e+00 0.000000000e+00 0.000000000e+00
    outer loop
      vertex 4.000000000e+00 3.392003152e-02 2.063004387e+00
      vertex 4.000000000e+00 3.898537905e-02 2.060002180e+00
      vertex 4.000000000e+00 3.563572993e-02 2.062050110e+00
    endloop
  endfacet
  facet normal 1.000000000e+00 0.000000000e+00 0.000000000e+00
    outer loop
      vertex 4.000000000e+00 -6.413045822e-02 1.968260345e+00
      vertex 4.000000000e+00 -6.323557331e-02 1.966512934e+00
      vertex 4.000000000e+00 -6.229308665e-02 1.964790730e+00
    endloop
  endfacet
  facet normal 1.000000000e+00 0.000000000e+00 0.000000000e+00
    outer loop
      vertex 4.000000000e+00 2.862499387e-02 2.065579959e+00
      vertex 4.000000000e+00 3.392003152e-02 2.063004387e+00
      vertex 4.000000000e+00 3.217879917e-02 2.063911237e+00
    endloop
  endfacet
  facet normal 1.000000000e+00 0.000000000e+00 0.000000000e+00
    outer loop
      vertex 4.000000000e+00 2.862499387e-02 2.065579959e+00
      vertex 4.000000000e+00 3.217879917e-02 2.063911237e+00
      vertex 4.000000000e+00 3.041334363e-02 2.064769977e+00
    endloop
  endfacet
  facet normal 1.000000000e+00 0.000000000e+00 0.000000000e+00
    outer loop
      vertex 4.000000000e+00 2.498501281e-02 2.067051253e+00
      vertex 4.000000000e+00 2.862499387e-02 2.065579959e+00
      vertex 4.000000000e+00 2.681509612e-02 2.066340576e+00
    endloop
  endfacet
  facet normal 1.000000000e+00 0.000000000e+00 0.000000000e+00
    outer loop
      vertex 4.000000000e+00 -6.722105540e-02 1.975475501e+00
      vertex 4.000000000e+00 -6.652294816e-02 1.973640586e+00
      vertex 4.000000000e+00 -6.577476453e-02 1.971825513e+00
    endloop
  endfacet
  facet normal 1.000000000e+00 0.000000000e+00 0.000000000e+00
    outer loop
      vertex 4.000000000e+00 1.938749551e-02 2.068878490e+00
      vertex 4.000000000e+00 2.313612156e-02 2.067711456e+00
      vertex 4.000000000e+00 2.126981416e-02 2.068320688e+00
    endloop
  endfacet
  facet normal 1.000000000e+00 0.000000000e+00 0.000000000e+00
    outer loop
      vertex 4.000000000e+00 1.558050326e-02 2.069838165e+00
      vertex 4.000000000e+00 1.938749551e-02 2.068878490e+00
      vertex 4.000000000e+00 1.749058257e-02 2.069384443e+00
    endloop
  endfacet
  facet normal 1.000000000e+00 0.000000000e+00 0.000000000e+00
    outer loop
      vertex 4.000000000e+00 1.558050326e-02 2.069838165e+00
      vertex 4.000000000e+00 2.313612156e-02 2.067711456e+00
      vertex 4.000000000e+00 1.938749551e-02 2.068878490e+00
    endloop
  endfacet
  facet normal 1.000000000e+00 0.000000000e+00 0.000000000e+00
    outer loop
      vertex 4.000000000e+00 9.785688697e-03 2.070882732e+00
      vertex 4.000000000e+00 1.365869544e-02 2.070239315e+00
      vertex 4.000000000e+00 1.172660578e-02 2.070587591e+00
    endloop
  endfacet
  facet normal 1.000000000e+00 0.000000000e+00 0.000000000e+00
    outer loop
      vertex 4.000000000e+00 1.963043940e-03 2.071528091e+00
      vertex 4.000000000e+00 5.883222062e-03 2.071312755e+00
      vertex 4.000000000e+00 3.924610163e-03 2.071447315e+00
    endloop
  endfacet
  facet normal 1.000000000e+00 0.000000000e+00 0.000000000e+00
    outer loop
      vertex 4.000000000e+00 -1.172660578e-02 2.070587591e+00
      vertex 4.000000000e+00 -7.837405256e-03 2.071124514e+00
      vertex 4.000000000e+00 -9.785688697e-03 2.070882732e+00
    endloop
  endfacet
  facet normal 1.000000000e+00 0.000000000e+00 0.000000000e+00
    outer loop
      vertex 4.000000000e+00 -1.558050326e-02 2.069838165e+00
      vertex 4.000000000e+00 -1.172660578e-02 2.070587591e+00
      vertex 4.000000000e+00 -1.365869544e-02 2.070239315e+00
    endloop
  endfacet
  facet normal 1.000000000e+00 0.000000000e+00 0.000000000e+00
    outer loop
      vertex 4.000000000e+00 -2.313612156e-02 2.067711456e+00
      vertex 4.000000000e+00 -1.938749551e-02 2.068878490e+00
      vertex 4.000000000e+00 -2.126981416e-02 2.068320688e+00
    endloop
  endfacet
  facet normal 1.000000000e+00 0.000000000e+00 0.000000000e+00
    outer loop
      vertex 4.000000000e+00 -3.217879917e-02 2.063911237e+00
      vertex 4.000000000e+00 -2.862499387e-02 2.065579959e+00
      vertex 4.000000000e+00 -3.041334363e-02 2.064769977e+00
    endloop
  endfacet
  facet normal 1.000000000e+00 0.000000000e+00 0.000000000e+00
    outer loop
      vertex 4.000000000e+00 -4.061680824e-02 2.058910069e+00
      vertex 4.000000000e+00 -3.732460289e-02 2.061049123e+00
      vertex 4.000000000e+00 -3.898537905e-02 2.060002180e+00
    endloop
  endfacet
  facet normal 1.000000000e+00 0.000000000e+00 0.000000000e+00
    outer loop
      vertex 4.000000000e+00 -5.863007951e-02 2.041019936e+00
      vertex 4.000000000e+00 -5.973335495e-02 2.039396036e+00
      vertex 4.000000000e+00 -6.079166500e-02 2.037742480e+00
    endloop
  endfacet
  facet normal 1.000000000e+00 0.000000000e+00 0.000000000e+00
    outer loop
      vertex 4.000000000e+00 -4.532284908e-02 2.055371118e+00
      vertex 4.000000000e+00 -4.061680824e-02 2.058910069e+00
      vertex 4.000000000e+00 -4.221766237e-02 2.057773613e+00
    endloop
  endfacet
  facet normal 1.000000000e+00 0.000000000e+00 0.000000000e+00
    outer loop
      vertex 4.000000000e+00 -4.532284908e-02 2.055371118e+00
      vertex 4.000000000e+00 -4.221766237e-02 2.057773613e+00
      vertex 4.000000000e+00 -4.378673637e-02 2.056593666e+00
    endloop
  endfacet
  facet normal 1.000000000e+00 0.000000000e+00 0.000000000e+00
    outer loop
      vertex 4.000000000e+00 -5.378442843e-02 2.047194879e+00
      vertex 4.000000000e+00 -5.505893139e-02 2.045701591e+00
      vertex 4.000000000e+00 -5.629198771e-02 2.044173900e+00
    endloop
  endfacet
  facet normal 1.000000000e+00 0.000000000e+00 0.000000000e+00
    outer loop
      vertex 4.000000000e+00 -5.378442843e-02 2.047194879e+00
      vertex 4.000000000e+00 -5.629198771e-02 2.044173900e+00
      vertex 4.000000000e+00 -5.748266919e-02 2.042612957e+00
    endloop
  endfacet
  facet normal 1.000000000e+00 0.000000000e+00 0.000000000e+00
    outer loop
      vertex 4.000000000e+00 -4.829159100e-02 2.052801928e+00
      vertex 4.000000000e+00 -4.532284908e-02 2.055371118e+00
      vertex 4.000000000e+00 -4.682484418e-02 2.054106888e+00
    endloop
  endfacet
  facet normal 1.000000000e+00 0.000000000e+00 0.000000000e+00
    outer loop
      vertex 4.000000000e+00 -5.111495070e-02 2.050073777e+00
      vertex 4.000000000e+00 1.752592602e-17 2.071555023e+00
      vertex 4.000000000e+00 -1.963043940e-03 2.071528091e+00
    endloop
  endfacet
  facet normal 1.000000000e+00 0.000000000e+00 0.000000000e+00
    outer loop
      vertex 4.000000000e+00 -5.111495070e-02 2.050073777e+00
      vertex 4.000000000e+00 -1.963043940e-03 2.071528091e+00
      vertex 4.000000000e+00 -3.924610163e-03 2.071447315e+00
    endloop
  endfacet
  facet normal 1.000000000e+00 0.000000000e+00 0.000000000e+00
    outer loop
      vertex 4.000000000e+00 -5.111495070e-02 2.050073777e+00
      vertex 4.000000000e+00 -3.924610163e-03 2.071447315e+00
      vertex 4.000000000e+00 -5.883222062e-03 2.071312755e+00
    endloop
  endfacet
  facet normal 1.000000000e+00 0.000000000e+00 0.000000000e+00
    outer loop
      vertex 4.000000000e+00 -5.111495070e-02 2.050073777e+00
      vertex 4.000000000e+00 -5.883222062e-03 2.071312755e+00
      vertex 4.000000000e+00 -7.837405256e-03 2.071124514e+00
    endloop
  endfacet
  facet normal 1.000000000e+00 0.000000000e+00 0.000000000e+00
    outer loop
      vertex 4.000000000e+00 -5.111495070e-02 2.050073777e+00
      vertex 4.000000000e+00 -1.558050326e-02 2.069838165e+00
      vertex 4.000000000e+00 -1.749058257e-02 2.069384443e+00
    endloop
  endfacet
  facet normal 1.000000000e+00 0.000000000e+00 0.000000000e+00
    outer loop
      vertex 4.000000000e+00 -5.111495070e-02 2.050073777e+00
      vertex 4.000000000e+00 -1.749058257e-02 2.069384443e+00
      vertex 4.000000000e+00 -1.938749551e-02 2.068878490e+00
    endloop
  endfacet
  facet normal 1.000000000e+00 0.000000000e+00 0.000000000e+00
    outer loop
      vertex 4.000000000e+00 -5.111495070e-02 2.050073777e+00
      vertex 4.000000000e+00 -2.313612156e-02 2.067711456e+00
      vertex 4.000000000e+00 -2.498501281e-02 2.067051253e+00
    endloop
  endfacet
  facet normal 1.000000000e+00 0.000000000e+00 0.000000000e+00
    outer loop
      vertex 4.000000000e+00 -5.111495070e-02 2.050073777e+00
      vertex 4.000000000e+00 -2.498501281e-02 2.067051253e+00
      vertex 4.000000000e+00 -2.681509612e-02 2.066340576e+00
    endloop
  endfacet
  facet normal 1.000000000e+00 0.000000000e+00 0.000000000e+00
    outer loop
      vertex 4.000000000e+00 -5.111495070e-02 2.050073777e+00
      vertex 4.000000000e+00 -2.681509612e-02 2.066340576e+00
      vertex 4.000000000e+00 -2.862499387e-02 2.065579959e+00
    endloop
  endfacet
  facet normal 1.000000000e+00 0.000000000e+00 0.000000000e+00
    outer loop
      vertex 4.000000000e+00 -5.111495070e-02 2.050073777e+00
      vertex 4.000000000e+00 -3.217879917e-02 2.063911237e+00
      vertex 4.000000000e+00 -3.392003152e-02 2.063004387e+00
    endloop
  endfacet
  facet normal 1.000000000e+00 0.000000000e+00 0.000000000e+00
    outer loop
      vertex 4.000000000e+00 -5.111495070e-02 2.050073777e+00
      vertex 4.000000000e+00 -3.392003152e-02 2.063004387e+00
      vertex 4.000000000e+00 -3.563572993e-02 2.062050110e+00
    endloop
  endfacet
  facet normal 1.000000000e+00 0.000000000e+00 0.000000000e+00
    outer loop
      vertex 4.000000000e+00 -5.111495070e-02 2.050073777e+00
      vertex 4.000000000e+00 -3.563572993e-02 2.062050110e+00
      vertex 4.000000000e+00 -3.732460289e-02 2.061049123e+00
    endloop
  endfacet
  facet normal 1.000000000e+00 0.000000000e+00 0.000000000e+00
    outer loop
      vertex 4.000000000e+00 -5.111495070e-02 2.050073777e+00
      vertex 4.000000000e+00 -4.829159100e-02 2.052801928e+00
      vertex 4.000000000e+00 -4.972198542e-02 2.051457220e+00
    endloop
  endfacet
  facet normal 1.000000000e+00 0.000000000e+00 0.000000000e+00
    outer loop
      vertex 4.000000000e+00 -5.111495070e-02 2.050073777e+00
      vertex 4.000000000e+00 -5.246943824e-02 2.048652640e+00
      vertex 4.000000000e+00 -5.378442843e-02 2.047194879e+00
    endloop
  endfacet
  facet normal 1.000000000e+00 0.000000000e+00 0.000000000e+00
    outer loop
      vertex 4.000000000e+00 -5.111495070e-02 2.050073777e+00
      vertex 4.000000000e+00 -5.748266919e-02 2.042612957e+00
      vertex 4.000000000e+00 -5.863007951e-02 2.041019936e+00
    endloop
  endfacet
  facet normal 1.000000000e+00 0.000000000e+00 0.000000000e+00
    outer loop
      vertex 4.000000000e+00 -5.111495070e-02 2.050073777e+00
      vertex 4.000000000e+00 -6.079166500e-02 2.037742480e+00
      vertex 4.000000000e+00 -6.180421298e-02 2.036060513e+00
    endloop
  endfacet
  facet normal 1.000000000e+00 0.000000000e+00 0.000000000e+00
    outer loop
      vertex 4.000000000e+00 -5.111495070e-02 2.050073777e+00
      vertex 4.000000000e+00 -6.180421298e-02 2.036060513e+00
      vertex 4.000000000e+00 -6.277023669e-02 2.034351401e+00
    endloop
  endfacet
  facet normal 1.000000000e+00 0.000000000e+00 0.000000000e+00
    outer loop
      vertex 4.000000000e+00 -5.111495070e-02 2.050073777e+00
      vertex 4.000000000e+00 -6.277023669e-02 2.034351401e+00
      vertex 4.000000000e+00 -6.368900893e-02 2.032616430e+00
    endloop
  endfacet
  facet normal 1.000000000e+00 0.000000000e+00 0.000000000e+00
    outer loop
      vertex 4.000000000e+00 -5.111495070e-02 2.050073777e+00
      vertex 4.000000000e+00 -6.368900893e-02 2.032616430e+00
      vertex 4.000000000e+00 -6.455983808e-02 2.030856906e+00
    endloop
  endfacet
  facet normal 1.000000000e+00 0.000000000e+00 0.000000000e+00
    outer loop
      vertex 4.000000000e+00 -5.111495070e-02 2.050073777e+00
      vertex 4.000000000e+00 -6.455983808e-02 2.030856906e+00
      vertex 4.000000000e+00 -6.538206862e-02 2.029074154e+00
    endloop
  endfacet
  facet normal 1.000000000e+00 0.000000000e+00 0.000000000e+00
    outer loop
      vertex 4.000000000e+00 -5.111495070e-02 2.050073777e+00
      vertex 4.000000000e+00 -6.538206862e-02 2.029074154e+00
      vertex 4.000000000e+00 -6.615508157e-02 2.027269516e+00
    endloop
  endfacet
  facet normal 1.000000000e+00 0.000000000e+00 0.000000000e+00
    outer loop
      vertex 4.000000000e+00 -5.111495070e-02 2.050073777e+00
      vertex 4.000000000e+00 -6.615508157e-02 2.027269516e+00
      vertex 4.000000000e+00 -6.687829506e-02 2.025444351e+00
    endloop
  endfacet
  facet normal 1.000000000e+00 0.000000000e+00 0.000000000e+00
    outer loop
      vertex 4.000000000e+00 -5.111495070e-02 2.050073777e+00
      vertex 4.000000000e+00 -6.687829506e-02 2.025444351e+00
      vertex 4.000000000e+00 -6.755116466e-02 2.023600032e+00
    endloop
  endfacet
  facet normal 1.000000000e+00 0.000000000e+00 0.000000000e+00
    outer loop
      vertex 4.000000000e+00 -5.111495070e-02 2.050073777e+00
      vertex 4.000000000e+00 -6.755116466e-02 2.023600032e+00
      vertex 4.000000000e+00 -6.817318387e-02 2.021737947e+00
    endloop
  endfacet
  facet normal 1.000000000e+00 0.000000000e+00 0.000000000e+00
    outer loop
      vertex 4.000000000e+00 -5.111495070e-02 2.050073777e+00
      vertex 4.000000000e+00 -6.817318387e-02 2.021737947e+00
      vertex 4.000000000e+00 -6.874388443e-02 2.019859499e+00
    endloop
  endfacet
  facet normal 1.000000000e+00 0.000000000e+00 0.000000000e+00
    outer loop
      vertex 4.000000000e+00 -5.111495070e-02 2.050073777e+00
      vertex 4.000000000e+00 -6.874388443e-02 2.019859499e+00
      vertex 4.000000000e+00 -6.926283676e-02 2.017966101e+00
    endloop
  endfacet
  facet normal 1.000000000e+00 0.000000000e+00 0.000000000e+00
    outer loop
      vertex 4.000000000e+00 -5.111495070e-02 2.050073777e+00
      vertex 4.000000000e+00 -6.926283676e-02 2.017966101e+00
      vertex 4.000000000e+00 -6.972965019e-02 2.016059179e+00
    endloop
  endfacet
  facet normal 1.000000000e+00 0.000000000e+00 0.000000000e+00
    outer loop
      vertex 4.000000000e+00 -5.111495070e-02 2.050073777e+00
      vertex 4.000000000e+00 -6.972965019e-02 2.016059179e+00
      vertex 4.000000000e+00 -7.014397333e-02 2.014140168e+00
    endloop
  endfacet
  facet normal 1.000000000e+00 0.000000000e+00 0.000000000e+00
    outer loop
      vertex 4.000000000e+00 -5.111495070e-02 2.050073777e+00
      vertex 4.000000000e+00 -7.014397333e-02 2.014140168e+00
      vertex 4.000000000e+00 -7.050549429e-02 2.012210513e+00
    endloop
  endfacet
  facet normal 1.000000000e+00 0.000000000e+00 0.000000000e+00
    outer loop
      vertex 4.000000000e+00 -5.111495070e-02 2.050073777e+00
      vertex 4.000000000e+00 -7.050549429e-02 2.012210513e+00
      vertex 4.000000000e+00 -7.081394092e-02 2.010271666e+00
    endloop
  endfacet
  facet normal 1.000000000e+00 0.000000000e+00 0.000000000e+00
    outer loop
      vertex 4.000000000e+00 -5.111495070e-02 2.050073777e+00
      vertex 4.000000000e+00 -7.081394092e-02 2.010271666e+00
      vertex 4.000000000e+00 -7.106908103e-02 2.008325087e+00
    endloop
  endfacet
  facet normal 1.000000000e+00 0.000000000e+00 0.000000000e+00
    outer loop
      vertex 4.000000000e+00 -5.111495070e-02 2.050073777e+00
      vertex 4.000000000e+00 -7.106908103e-02 2.008325087e+00
      vertex 4.000000000e+00 -7.127072257e-02 2.006372241e+00
    endloop
  endfacet
  facet normal 1.000000000e+00 0.000000000e+00 0.000000000e+00
    outer loop
      vertex 4.000000000e+00 -5.111495070e-02 2.050073777e+00
      vertex 4.000000000e+00 -7.127072257e-02 2.006372241e+00
      vertex 4.000000000e+00 -7.141871374e-02 2.004414598e+00
    endloop
  endfacet
  facet normal 1.000000000e+00 0.000000000e+00 0.000000000e+00
    outer loop
      vertex 4.000000000e+00 -5.111495070e-02 2.050073777e+00
      vertex 4.000000000e+00 -7.141871374e-02 2.004414598e+00
      vertex 4.000000000e+00 -7.151294314e-02 2.002453632e+00
    endloop
  endfacet
  facet normal 1.000000000e+00 0.000000000e+00 0.000000000e+00
    outer loop
      vertex 4.000000000e+00 -5.111495070e-02 2.050073777e+00
      vertex 4.000000000e+00 -7.151294314e-02 2.002453632e+00
      vertex 4.000000000e+00 -7.155333984e-02 2.000490819e+00
    endloop
  endfacet
  facet normal 1.000000000e+00 0.000000000e+00 0.000000000e+00
    outer loop
      vertex 4.000000000e+00 -5.111495070e-02 2.050073777e+00
      vertex 4.000000000e+00 -7.155333984e-02 2.000490819e+00
      vertex 4.000000000e+00 -7.153987343e-02 1.998527636e+00
    endloop
  endfacet
  facet normal 1.000000000e+00 0.000000000e+00 0.000000000e+00
    outer loop
      vertex 4.000000000e+00 -5.111495070e-02 2.050073777e+00
      vertex 4.000000000e+00 -7.153987343e-02 1.998527636e+00
      vertex 4.000000000e+00 -7.147255404e-02 1.996565562e+00
    endloop
  endfacet
  facet normal 1.000000000e+00 0.000000000e+00 0.000000000e+00
    outer loop
      vertex 4.000000000e+00 -5.111495070e-02 2.050073777e+00
      vertex 4.000000000e+00 -7.147255404e-02 1.996565562e+00
      vertex 4.000000000e+00 -7.135143236e-02 1.994606073e+00
    endloop
  endfacet
  facet normal 1.000000000e+00 0.000000000e+00 0.000000000e+00
    outer loop
      vertex 4.000000000e+00 -5.111495070e-02 2.050073777e+00
      vertex 4.000000000e+00 -7.135143236e-02 1.994606073e+00
      vertex 4.000000000e+00 -7.117659955e-02 1.992650645e+00
    endloop
  endfacet
  facet normal 1.000000000e+00 0.000000000e+00 0.000000000e+00
    outer loop
      vertex 4.000000000e+00 -5.111495070e-02 2.050073777e+00
      vertex 4.000000000e+00 -7.117659955e-02 1.992650645e+00
      vertex 4.000000000e+00 -7.094818723e-02 1.990700749e+00
    endloop
  endfacet
  facet normal 1.000000000e+00 0.000000000e+00 0.000000000e+00
    outer loop
      vertex 4.000000000e+00 -5.111495070e-02 2.050073777e+00
      vertex 4.000000000e+00 -7.094818723e-02 1.990700749e+00
      vertex 4.000000000e+00 -7.066636734e-02 1.988757853e+00
    endloop
  endfacet
  facet normal 1.000000000e+00 0.000000000e+00 0.000000000e+00
    outer loop
      vertex 4.000000000e+00 -5.111495070e-02 2.050073777e+00
      vertex 4.000000000e+00 -7.066636734e-02 1.988757853e+00
      vertex 4.000000000e+00 -7.033135203e-02 1.986823420e+00
    endloop
  endfacet
  facet normal 1.000000000e+00 0.000000000e+00 0.000000000e+00
    outer loop
      vertex 4.000000000e+00 -5.111495070e-02 2.050073777e+00
      vertex 4.000000000e+00 -7.033135203e-02 1.986823420e+00
      vertex 4.000000000e+00 -6.994339347e-02 1.984898906e+00
    endloop
  endfacet
  facet normal 1.000000000e+00 0.000000000e+00 0.000000000e+00
    outer loop
      vertex 4.000000000e+00 -5.111495070e-02 2.050073777e+00
      vertex 4.000000000e+00 -6.994339347e-02 1.984898906e+00
      vertex 4.000000000e+00 -6.950278373e-02 1.982985759e+00
    endloop
  endfacet
  facet normal 1.000000000e+00 0.000000000e+00 0.000000000e+00
    outer loop
      vertex 4.000000000e+00 -5.111495070e-02 2.050073777e+00
      vertex 4.000000000e+00 -6.950278373e-02 1.982985759e+00
      vertex 4.000000000e+00 -6.900985446e-02 1.981085420e+00
    endloop
  endfacet
  facet normal 1.000000000e+00 0.000000000e+00 0.000000000e+00
    outer loop
      vertex 4.000000000e+00 -5.111495070e-02 2.050073777e+00
      vertex 4.000000000e+00 -6.900985446e-02 1.981085420e+00
      vertex 4.000000000e+00 -6.846497674e-02 1.979199320e+00
    endloop
  endfacet
  facet normal 1.000000000e+00 0.000000000e+00 0.000000000e+00
    outer loop
      vertex 4.000000000e+00 -5.111495070e-02 2.050073777e+00
      vertex 4.000000000e+00 -6.846497674e-02 1.979199320e+00
      vertex 4.000000000e+00 -6.786856073e-02 1.977328877e+00
    endloop
  endfacet
  facet normal 1.000000000e+00 0.000000000e+00 0.000000000e+00
    outer loop
      vertex 4.000000000e+00 -5.111495070e-02 2.050073777e+00
      vertex 4.000000000e+00 -6.786856073e-02 1.977328877e+00
      vertex 4.000000000e+00 -6.722105540e-02 1.975475501e+00
    endloop
  endfacet
  facet normal 1.000000000e+00 0.000000000e+00 0.000000000e+00
    outer loop
      vertex 4.000000000e+00 -5.111495070e-02 2.050073777e+00
      vertex 4.000000000e+00 -6.577476453e-02 1.971825513e+00
      vertex 4.000000000e+00 -6.497706773e-02 1.970031650e+00
    endloop
  endfacet
  facet normal 1.000000000e+00 0.000000000e+00 0.000000000e+00
    outer loop
      vertex 4.000000000e+00 -5.111495070e-02 2.050073777e+00
      vertex 4.000000000e+00 -6.497706773e-02 1.970031650e+00
      vertex 4.000000000e+00 -6.413045822e-02 1.968260345e+00
    endloop
  endfacet
  facet normal 1.000000000e+00 0.000000000e+00 0.000000000e+00
    outer loop
      vertex 4.000000000e+00 -5.111495070e-02 2.050073777e+00
      vertex 4.000000000e+00 -6.229308665e-02 1.964790730e+00
      vertex 4.000000000e+00 -6.130370770e-02 1.963095031e+00
    endloop
  endfacet
  facet normal 1.000000000e+00 0.000000000e+00 0.000000000e+00
    outer loop
      vertex 4.000000000e+00 -5.111495070e-02 2.050073777e+00
      vertex 4.000000000e+00 -6.130370770e-02 1.963095031e+00
      vertex 4.000000000e+00 -6.026818124e-02 1.961427112e+00
    endloop
  endfacet
  facet normal 1.000000000e+00 0.000000000e+00 0.000000000e+00
    outer loop
      vertex 4.000000000e+00 -5.111495070e-02 2.050073777e+00
      vertex 4.000000000e+00 -6.026818124e-02 1.961427112e+00
      vertex 4.000000000e+00 -5.918728679e-02 1.959788230e+00
    endloop
  endfacet
  facet normal 1.000000000e+00 0.000000000e+00 0.000000000e+00
    outer loop
      vertex 4.000000000e+00 -5.111495070e-02 2.050073777e+00
      vertex 4.000000000e+00 -5.918728679e-02 1.959788230e+00
      vertex 4.000000000e+00 -5.806183800e-02 1.958179618e+00
    endloop
  endfacet
  facet normal 1.000000000e+00 0.000000000e+00 0.000000000e+00
    outer loop
      vertex 4.000000000e+00 -5.111495070e-02 2.050073777e+00
      vertex 4.000000000e+00 -5.442680150e-02 1.953547394e+00
      vertex 4.000000000e+00 -5.313193307e-02 1.952071730e+00
    endloop
  endfacet
  facet normal 1.000000000e+00 0.000000000e+00 0.000000000e+00
    outer loop
      vertex 4.000000000e+00 -5.111495070e-02 2.050073777e+00
      vertex 4.000000000e+00 -5.313193307e-02 1.952071730e+00
      vertex 4.000000000e+00 -5.179706860e-02 1.950632146e+00
    endloop
  endfacet
  facet normal 1.000000000e+00 0.000000000e+00 0.000000000e+00
    outer loop
      vertex 4.000000000e+00 -5.111495070e-02 2.050073777e+00
      vertex 4.000000000e+00 -5.179706860e-02 1.950632146e+00
      vertex 4.000000000e+00 -5.042321291e-02 1.949229724e+00
    endloop
  endfacet
  facet normal 1.000000000e+00 0.000000000e+00 0.000000000e+00
    outer loop
      vertex 4.000000000e+00 -5.111495070e-02 2.050073777e+00
      vertex 4.000000000e+00 -5.042321291e-02 1.949229724e+00
      vertex 4.000000000e+00 -4.901140021e-02 1.947865520e+00
    endloop
  endfacet
  facet normal 1.000000000e+00 0.000000000e+00 0.000000000e+00
    outer loop
      vertex 4.000000000e+00 -5.111495070e-02 2.050073777e+00
      vertex 4.000000000e+00 -4.901140021e-02 1.947865520e+00
      vertex 4.000000000e+00 -4.756269326e-02 1.946540562e+00
    endloop
  endfacet
  facet normal 1.000000000e+00 0.000000000e+00 0.000000000e+00
    outer loop
      vertex 4.000000000e+00 -5.111495070e-02 2.050073777e+00
      vertex 4.000000000e+00 -4.756269326e-02 1.946540562e+00
      vertex 4.000000000e+00 -4.607818261e-02 1.945255846e+00
    endloop
  endfacet
  facet normal 1.000000000e+00 0.000000000e+00 0.000000000e+00
    outer loop
      vertex 4.000000000e+00 -5.111495070e-02 2.050073777e+00
      vertex 4.000000000e+00 -4.607818261e-02 1.945255846e+00
      vertex 4.000000000e+00 -4.455898575e-02 1.944012339e+00
    endloop
  endfacet
  facet normal 1.000000000e+00 0.000000000e+00 0.000000000e+00
    outer loop
      vertex 4.000000000e+00 -5.111495070e-02 2.050073777e+00
      vertex 4.000000000e+00 -4.455898575e-02 1.944012339e+00
      vertex 4.000000000e+00 -4.300624628e-02 1.942810979e+00
    endloop
  endfacet
  facet normal 1.000000000e+00 0.000000000e+00 0.000000000e+00
    outer loop
      vertex 4.000000000e+00 -5.111495070e-02 2.050073777e+00
      vertex 4.000000000e+00 -4.300624628e-02 1.942810979e+00
      vertex 4.000000000e+00 -4.142113305e-02 1.941652669e+00
    endloop
  endfacet
  facet normal 1.000000000e+00 0.000000000e+00 0.000000000e+00
    outer loop
      vertex 4.000000000e+00 -5.111495070e-02 2.050073777e+00
      vertex 4.000000000e+00 -4.142113305e-02 1.941652669e+00
      vertex 4.000000000e+00 -3.980483930e-02 1.940538280e+00
    endloop
  endfacet
  facet normal 1.000000000e+00 0.000000000e+00 0.000000000e+00
    outer loop
      vertex 4.000000000e+00 -5.111495070e-02 2.050073777e+00
      vertex 4.000000000e+00 -3.980483930e-02 1.940538280e+00
      vertex 4.000000000e+00 -3.815858171e-02 1.939468653e+00
    endloop
  endfacet
  facet normal 1.000000000e+00 0.000000000e+00 0.000000000e+00
    outer loop
      vertex 4.000000000e+00 -5.111495070e-02 2.050073777e+00
      vertex 4.000000000e+00 -3.815858171e-02 1.939468653e+00
      vertex 4.000000000e+00 -3.648359953e-02 1.938444592e+00
    endloop
  endfacet
  facet normal 1.000000000e+00 0.000000000e+00 0.000000000e+00
    outer loop
      vertex 4.000000000e+00 -5.111495070e-02 2.050073777e+00
      vertex 4.000000000e+00 -3.648359953e-02 1.938444592e+00
      vertex 4.000000000e+00 -3.478115365e-02 1.937466867e+00
    endloop
  endfacet
  facet normal 1.000000000e+00 0.000000000e+00 0.000000000e+00
    outer loop
      vertex 4.000000000e+00 -5.111495070e-02 2.050073777e+00
      vertex 4.000000000e+00 -3.478115365e-02 1.937466867e+00
      vertex 4.000000000e+00 -3.305252560e-02 1.936536216e+00
    endloop
  endfacet
  facet normal 1.000000000e+00 0.000000000e+00 0.000000000e+00
    outer loop
      vertex 4.000000000e+00 -5.111495070e-02 2.050073777e+00
      vertex 4.000000000e+00 -3.305252560e-02 1.936536216e+00
      vertex 4.000000000e+00 -3.129901665e-02 1.935653338e+00
    endloop
  endfacet
  facet normal 1.000000000e+00 0.000000000e+00 0.000000000e+00
    outer loop
      vertex 4.000000000e+00 -5.111495070e-02 2.050073777e+00
      vertex 4.000000000e+00 -3.129901665e-02 1.935653338e+00
      vertex 4.000000000e+00 -2.952194678e-02 1.934818898e+00
    endloop
  endfacet
  facet normal 1.000000000e+00 0.000000000e+00 0.000000000e+00
    outer loop
      vertex 4.000000000e+00 -5.111495070e-02 2.050073777e+00
      vertex 4.000000000e+00 -2.952194678e-02 1.934818898e+00
      vertex 4.000000000e+00 -2.772265371e-02 1.934033525e+00
    endloop
  endfacet
  facet normal 1.000000000e+00 0.000000000e+00 0.000000000e+00
    outer loop
      vertex 4.000000000e+00 -5.111495070e-02 2.050073777e+00
      vertex 4.000000000e+00 -2.772265371e-02 1.934033525e+00
      vertex 4.000000000e+00 -2.590249190e-02 1.933297809e+00
    endloop
  endfacet
  facet normal 1.000000000e+00 0.000000000e+00 0.000000000e+00
    outer loop
      vertex 4.000000000e+00 -5.111495070e-02 2.050073777e+00
      vertex 4.000000000e+00 -2.590249190e-02 1.933297809e+00
      vertex 4.000000000e+00 -2.406283151e-02 1.932612305e+00
    endloop
  endfacet
  facet normal 1.000000000e+00 0.000000000e+00 0.000000000e+00
    outer loop
      vertex 4.000000000e+00 -5.111495070e-02 2.050073777e+00
      vertex 4.000000000e+00 -2.406283151e-02 1.932612305e+00
      vertex 4.000000000e+00 -2.220505736e-02 1.931977527e+00
    endloop
  endfacet
  facet normal 1.000000000e+00 0.000000000e+00 0.000000000e+00
    outer loop
      vertex 4.000000000e+00 -5.111495070e-02 2.050073777e+00
      vertex 4.000000000e+00 -2.220505736e-02 1.931977527e+00
      vertex 4.000000000e+00 -2.033056795e-02 1.931393955e+00
    endloop
  endfacet
  facet normal 1.000000000e+00 0.000000000e+00 0.000000000e+00
    outer loop
      vertex 4.000000000e+00 -5.111495070e-02 2.050073777e+00
      vertex 4.000000000e+00 -2.033056795e-02 1.931393955e+00
      vertex 4.000000000e+00 -1.844077433e-02 1.930862028e+00
    endloop
  endfacet
  facet normal 1.000000000e+00 0.000000000e+00 0.000000000e+00
    outer loop
      vertex 4.000000000e+00 -5.111495070e-02 2.050073777e+00
      vertex 4.000000000e+00 -1.844077433e-02 1.930862028e+00
      vertex 4.000000000e+00 -1.653709906e-02 1.930382145e+00
    endloop
  endfacet
  facet normal 1.000000000e+00 0.000000000e+00 0.000000000e+00
    outer loop
      vertex 4.000000000e+00 -5.111495070e-02 2.050073777e+00
      vertex 4.000000000e+00 -1.653709906e-02 1.930382145e+00
      vertex 4.000000000e+00 -1.462097519e-02 1.929954669e+00
    endloop
  endfacet
  facet normal 1.000000000e+00 0.000000000e+00 0.000000000e+00
    outer loop
      vertex 4.000000000e+00 -5.111495070e-02 2.050073777e+00
      vertex 4.000000000e+00 -1.462097519e-02 1.929954669e+00
      vertex 4.000000000e+00 -1.269384510e-02 1.929579920e+00
    endloop
  endfacet
  facet normal 1.000000000e+00 0.000000000e+00 0.000000000e+00
    outer loop
      vertex 4.000000000e+00 -5.111495070e-02 2.050073777e+00
      vertex 4.000000000e+00 -1.269384510e-02 1.929579920e+00
      vertex 4.000000000e+00 -1.075715949e-02 1.929258182e+00
    endloop
  endfacet
  facet normal 1.000000000e+00 0.000000000e+00 0.000000000e+00
    outer loop
      vertex 4.000000000e+00 -5.111495070e-02 2.050073777e+00
      vertex 4.000000000e+00 -1.075715949e-02 1.929258182e+00
      vertex 4.000000000e+00 -8.812376225e-03 1.928989695e+00
    endloop
  endfacet
  facet normal 1.000000000e+00 0.000000000e+00 0.000000000e+00
    outer loop
      vertex 4.000000000e+00 -5.111495070e-02 2.050073777e+00
      vertex 4.000000000e+00 -8.812376225e-03 1.928989695e+00
      vertex 4.000000000e+00 -6.860959279e-03 1.928774663e+00
    endloop
  endfacet
  facet normal 1.000000000e+00 0.000000000e+00 0.000000000e+00
    outer loop
      vertex 4.000000000e+00 -5.111495070e-02 2.050073777e+00
      vertex 4.000000000e+00 -6.860959279e-03 1.928774663e+00
      vertex 4.000000000e+00 -4.904377617e-03 1.928613248e+00
    endloop
  endfacet
  facet normal 1.000000000e+00 0.000000000e+00 0.000000000e+00
    outer loop
      vertex 4.000000000e+00 -5.111495070e-02 2.050073777e+00
      vertex 4.000000000e+00 -4.904377617e-03 1.928613248e+00
      vertex 4.000000000e+00 -2.944104093e-03 1.928505569e+00
    endloop
  endfacet
  facet normal 1.000000000e+00 0.000000000e+00 0.000000000e+00
    outer loop
      vertex 4.000000000e+00 -5.111495070e-02 2.050073777e+00
      vertex 4.000000000e+00 -2.944104093e-03 1.928505569e+00
      vertex 4.000000000e+00 -9.816143406e-04 1.928451710e+00
    endloop
  endfacet
  facet normal 1.000000000e+00 0.000000000e+00 0.000000000e+00
    outer loop
      vertex 4.000000000e+00 -5.111495070e-02 2.050073777e+00
      vertex 4.000000000e+00 -9.816143406e-04 1.928451710e+00
      vertex 4.000000000e+00 9.816143406e-04 1.928451710e+00
    endloop
  endfacet
  facet normal 1.000000000e+00 0.000000000e+00 0.000000000e+00
    outer loop
      vertex 4.000000000e+00 -5.111495070e-02 2.050073777e+00
      vertex 4.000000000e+00 9.816143406e-04 1.928451710e+00
      vertex 4.000000000e+00 2.944104093e-03 1.928505569e+00
    endloop
  endfacet
  facet normal 1.000000000e+00 0.000000000e+00 0.000000000e+00
    outer loop
      vertex 4.000000000e+00 -5.111495070e-02 2.050073777e+00
      vertex 4.000000000e+00 2.944104093e-03 1.928505569e+00
      vertex 4.000000000e+00 4.904377617e-03 1.928613248e+00
    endloop
  endfacet
  facet normal 1.000000000e+00 0.000000000e+00 0.000000000e+00
    outer loop
      vertex 4.000000000e+00 -5.111495070e-02 2.050073777e+00
      vertex 4.000000000e+00 4.904377617e-03 1.928613248e+00
      vertex 4.000000000e+00 6.860959279e-03 1.928774663e+00
    endloop
  endfacet
  facet normal 1.000000000e+00 0.000000000e+00 0.000000000e+00
    outer loop
      vertex 4.000000000e+00 -5.111495070e-02 2.050073777e+00
      vertex 4.000000000e+00 6.860959279e-03 1.928774663e+00
      vertex 4.000000000e+00 8.812376225e-03 1.928989695e+00
    endloop
  endfacet
  facet normal 1.000000000e+00 0.000000000e+00 0.000000000e+00
    outer loop
      vertex 4.000000000e+00 -5.111495070e-02 2.050073777e+00
      vertex 4.000000000e+00 8.812376225e-03 1.928989695e+00
      vertex 4.000000000e+00 1.075715949e-02 1.929258182e+00
    endloop
  endfacet
  facet normal 1.000000000e+00 0.000000000e+00 0.000000000e+00
    outer loop
      vertex 4.000000000e+00 -5.111495070e-02 2.050073777e+00
      vertex 4.000000000e+00 1.075715949e-02 1.929258182e+00
      vertex 4.000000000e+00 1.269384510e-02 1.929579920e+00
    endloop
  endfacet
  facet normal 1.000000000e+00 0.000000000e+00 0.000000000e+00
    outer loop
      vertex 4.000000000e+00 -5.111495070e-02 2.050073777e+00
      vertex 4.000000000e+00 1.269384510e-02 1.929579920e+00
      vertex 4.000000000e+00 1.462097519e-02 1.929954669e+00
    endloop
  endfacet
  facet normal 1.000000000e+00 0.000000000e+00 0.000000000e+00
    outer loop
      vertex 4.000000000e+00 -5.111495070e-02 2.050073777e+00
      vertex 4.000000000e+00 1.462097519e-02 1.929954669e+00
      vertex 4.000000000e+00 1.653709906e-02 1.930382145e+00
    endloop
  endfacet
  facet normal 1.000000000e+00 0.000000000e+00 0.000000000e+00
    outer loop
      vertex 4.000000000e+00 -5.111495070e-02 2.050073777e+00
      vertex 4.000000000e+00 1.653709906e-02 1.930382145e+00
      vertex 4.000000000e+00 1.844077433e-02 1.930862028e+00
    endloop
  endfacet
  facet normal 1.000000000e+00 0.000000000e+00 0.000000000e+00
    outer loop
      vertex 4.000000000e+00 -5.111495070e-02 2.050073777e+00
      vertex 4.000000000e+00 1.844077433e-02 1.930862028e+00
      vertex 4.000000000e+00 2.033056795e-02 1.931393955e+00
    endloop
  endfacet
  facet normal 1.000000000e+00 0.000000000e+00 0.000000000e+00
    outer loop
      vertex 4.000000000e+00 -5.111495070e-02 2.050073777e+00
      vertex 4.000000000e+00 2.033056795e-02 1.931393955e+00
      vertex 4.000000000e+00 2.220505736e-02 1.931977527e+00
    endloop
  endfacet
  facet normal 1.000000000e+00 0.000000000e+00 0.000000000e+00
    outer loop
      vertex 4.000000000e+00 -5.111495070e-02 2.050073777e+00
      vertex 4.000000000e+00 2.220505736e-02 1.931977527e+00
      vertex 4.000000000e+00 2.406283151e-02 1.932612305e+00
    endloop
  endfacet
  facet normal 1.000000000e+00 0.000000000e+00 0.000000000e+00
    outer loop
      vertex 4.000000000e+00 -5.111495070e-02 2.050073777e+00
      vertex 4.000000000e+00 2.406283151e-02 1.932612305e+00
      vertex 4.000000000e+00 2.590249190e-02 1.933297809e+00
    endloop
  endfacet
  facet normal 1.000000000e+00 0.000000000e+00 0.000000000e+00
    outer loop
      vertex 4.000000000e+00 -5.111495070e-02 2.050073777e+00
      vertex 4.000000000e+00 2.590249190e-02 1.933297809e+00
      vertex 4.000000000e+00 2.772265371e-02 1.934033525e+00
    endloop
  endfacet
  facet normal 1.000000000e+00 0.000000000e+00 0.000000000e+00
    outer loop
      vertex 4.000000000e+00 -5.111495070e-02 2.050073777e+00
      vertex 4.000000000e+00 2.772265371e-02 1.934033525e+00
      vertex 4.000000000e+00 2.952194678e-02 1.934818898e+00
    endloop
  endfacet
  facet normal 1.000000000e+00 0.000000000e+00 0.000000000e+00
    outer loop
      vertex 4.000000000e+00 -5.111495070e-02 2.050073777e+00
      vertex 4.000000000e+00 2.952194678e-02 1.934818898e+00
      vertex 4.000000000e+00 3.129901665e-02 1.935653338e+00
    endloop
  endfacet
  facet normal 1.000000000e+00 0.000000000e+00 0.000000000e+00
    outer loop
      vertex 4.000000000e+00 -5.111495070e-02 2.050073777e+00
      vertex 4.000000000e+00 3.129901665e-02 1.935653338e+00
      vertex 4.000000000e+00 3.305252560e-02 1.936536216e+00
    endloop
  endfacet
  facet normal 1.000000000e+00 0.000000000e+00 0.000000000e+00
    outer loop
      vertex 4.000000000e+00 -5.111495070e-02 2.050073777e+00
      vertex 4.000000000e+00 3.305252560e-02 1.936536216e+00
      vertex 4.000000000e+00 3.478115365e-02 1.937466867e+00
    endloop
  endfacet
  facet normal 1.000000000e+00 0.000000000e+00 0.000000000e+00
    outer loop
      vertex 4.000000000e+00 -5.111495070e-02 2.050073777e+00
      vertex 4.000000000e+00 3.478115365e-02 1.937466867e+00
      vertex 4.000000000e+00 3.648359953e-02 1.938444592e+00
    endloop
  endfacet
  facet normal 1.000000000e+00 0.000000000e+00 0.000000000e+00
    outer loop
      vertex 4.000000000e+00 -5.111495070e-02 2.050073777e+00
      vertex 4.000000000e+00 3.648359953e-02 1.938444592e+00
      vertex 4.000000000e+00 3.815858171e-02 1.939468653e+00
    endloop
  endfacet
  facet normal 1.000000000e+00 0.000000000e+00 0.000000000e+00
    outer loop
      vertex 4.000000000e+00 -5.111495070e-02 2.050073777e+00
      vertex 4.000000000e+00 3.815858171e-02 1.939468653e+00
      vertex 4.000000000e+00 3.980483930e-02 1.940538280e+00
    endloop
  endfacet
  facet normal 1.000000000e+00 0.000000000e+00 0.000000000e+00
    outer loop
      vertex 4.000000000e+00 -5.111495070e-02 2.050073777e+00
      vertex 4.000000000e+00 3.980483930e-02 1.940538280e+00
      vertex 4.000000000e+00 4.142113305e-02 1.941652669e+00
    endloop
  endfacet
  facet normal 1.000000000e+00 0.000000000e+00 0.000000000e+00
    outer loop
      vertex 4.000000000e+00 -5.111495070e-02 2.050073777e+00
      vertex 4.000000000e+00 4.142113305e-02 1.941652669e+00
      vertex 4.000000000e+00 4.300624628e-02 1.942810979e+00
    endloop
  endfacet
  facet normal 1.000000000e+00 0.000000000e+00 0.000000000e+00
    outer loop
      vertex 4.000000000e+00 -5.111495070e-02 2.050073777e+00
      vertex 4.000000000e+00 4.300624628e-02 1.942810979e+00
      vertex 4.000000000e+00 4.455898575e-02 1.944012339e+00
    endloop
  endfacet
  facet normal 1.000000000e+00 0.000000000e+00 0.000000000e+00
    outer loop
      vertex 4.000000000e+00 -5.111495070e-02 2.050073777e+00
      vertex 4.000000000e+00 4.455898575e-02 1.944012339e+00
      vertex 4.000000000e+00 4.607818261e-02 1.945255846e+00
    endloop
  endfacet
  facet normal 1.000000000e+00 0.000000000e+00 0.000000000e+00
    outer loop
      vertex 4.000000000e+00 -5.111495070e-02 2.050073777e+00
      vertex 4.000000000e+00 4.607818261e-02 1.945255846e+00
      vertex 4.000000000e+00 4.756269326e-02 1.946540562e+00
    endloop
  endfacet
  facet normal 1.000000000e+00 0.000000000e+00 0.000000000e+00
    outer loop
      vertex 4.000000000e+00 -5.111495070e-02 2.050073777e+00
      vertex 4.000000000e+00 4.756269326e-02 1.946540562e+00
      vertex 4.000000000e+00 4.901140021e-02 1.947865520e+00
    endloop
  endfacet
  facet normal 1.000000000e+00 0.000000000e+00 0.000000000e+00
    outer loop
      vertex 4.000000000e+00 -5.111495070e-02 2.050073777e+00
      vertex 4.000000000e+00 4.901140021e-02 1.947865520e+00
      vertex 4.000000000e+00 5.042321291e-02 1.949229724e+00
    endloop
  endfacet
  facet normal 1.000000000e+00 0.000000000e+00 0.000000000e+00
    outer loop
      vertex 4.000000000e+00 -5.111495070e-02 2.050073777e+00
      vertex 4.000000000e+00 5.042321291e-02 1.949229724e+00
      vertex 4.000000000e+00 5.179706860e-02 1.950632146e+00
    endloop
  endfacet
  facet normal 1.000000000e+00 0.000000000e+00 0.000000000e+00
    outer loop
      vertex 4.000000000e+00 -5.111495070e-02 2.050073777e+00
      vertex 4.000000000e+00 5.179706860e-02 1.950632146e+00
      vertex 4.000000000e+00 5.313193307e-02 1.952071730e+00
    endloop
  endfacet
  facet normal 1.000000000e+00 0.000000000e+00 0.000000000e+00
    outer loop
      vertex 4.000000000e+00 -5.111495070e-02 2.050073777e+00
      vertex 4.000000000e+00 5.313193307e-02 1.952071730e+00
      vertex 4.000000000e+00 5.442680150e-02 1.953547394e+00
    endloop
  endfacet
  facet normal 1.000000000e+00 0.000000000e+00 0.000000000e+00
    outer loop
      vertex 4.000000000e+00 -5.111495070e-02 2.050073777e+00
      vertex 4.000000000e+00 5.442680150e-02 1.953547394e+00
      vertex 4.000000000e+00 5.568069913e-02 1.955058025e+00
    endloop
  endfacet
  facet normal 1.000000000e+00 0.000000000e+00 0.000000000e+00
    outer loop
      vertex 4.000000000e+00 -5.111495070e-02 2.050073777e+00
      vertex 4.000000000e+00 5.568069913e-02 1.955058025e+00
      vertex 4.000000000e+00 5.689268208e-02 1.956602488e+00
    endloop
  endfacet
  facet normal 1.000000000e+00 0.000000000e+00 0.000000000e+00
    outer loop
      vertex 4.000000000e+00 -5.111495070e-02 2.050073777e+00
      vertex 4.000000000e+00 5.689268208e-02 1.956602488e+00
      vertex 4.000000000e+00 5.806183800e-02 1.958179618e+00
    endloop
  endfacet
  facet normal 1.000000000e+00 0.000000000e+00 0.000000000e+00
    outer loop
      vertex 4.000000000e+00 -5.111495070e-02 2.050073777e+00
      vertex 4.000000000e+00 5.806183800e-02 1.958179618e+00
      vertex 4.000000000e+00 5.918728679e-02 1.959788230e+00
    endloop
  endfacet
  facet normal 1.000000000e+00 0.000000000e+00 0.000000000e+00
    outer loop
      vertex 4.000000000e+00 -5.111495070e-02 2.050073777e+00
      vertex 4.000000000e+00 5.918728679e-02 1.959788230e+00
      vertex 4.000000000e+00 6.026818124e-02 1.961427112e+00
    endloop
  endfacet
  facet normal 1.000000000e+00 0.000000000e+00 0.000000000e+00
    outer loop
      vertex 4.000000000e+00 -5.111495070e-02 2.050073777e+00
      vertex 4.000000000e+00 6.026818124e-02 1.961427112e+00
      vertex 4.000000000e+00 6.130370770e-02 1.963095031e+00
    endloop
  endfacet
  facet normal 1.000000000e+00 0.000000000e+00 0.000000000e+00
    outer loop
      vertex 4.000000000e+00 -5.111495070e-02 2.050073777e+00
      vertex 4.000000000e+00 6.130370770e-02 1.963095031e+00
      vertex 4.000000000e+00 6.229308665e-02 1.964790730e+00
    endloop
  endfacet
  facet normal 1.000000000e+00 0.000000000e+00 0.000000000e+00
    outer loop
      vertex 4.000000000e+00 -5.111495070e-02 2.050073777e+00
      vertex 4.000000000e+00 6.229308665e-02 1.964790730e+00
      vertex 4.000000000e+00 6.323557331e-02 1.966512934e+00
    endloop
  endfacet
  facet normal 1.000000000e+00 0.000000000e+00 0.000000000e+00
    outer loop
      vertex 4.000000000e+00 -5.111495070e-02 2.050073777e+00
      vertex 4.000000000e+00 6.323557331e-02 1.966512934e+00
      vertex 4.000000000e+00 6.413045822e-02 1.968260345e+00
    endloop
  endfacet
  facet normal 1.000000000e+00 0.000000000e+00 0.000000000e+00
    outer loop
      vertex 4.000000000e+00 -5.111495070e-02 2.050073777e+00
      vertex 4.000000000e+00 6.413045822e-02 1.968260345e+00
      vertex 4.000000000e+00 6.497706773e-02 1.970031650e+00
    endloop
  endfacet
  facet normal 1.000000000e+00 0.000000000e+00 0.000000000e+00
    outer loop
      vertex 4.000000000e+00 -5.111495070e-02 2.050073777e+00
      vertex 4.000000000e+00 6.497706773e-02 1.970031650e+00
      vertex 4.000000000e+00 6.577476453e-02 1.971825513e+00
    endloop
  endfacet
  facet normal 1.000000000e+00 0.000000000e+00 0.000000000e+00
    outer loop
      vertex 4.000000000e+00 -5.111495070e-02 2.050073777e+00
      vertex 4.000000000e+00 6.577476453e-02 1.971825513e+00
      vertex 4.000000000e+00 6.652294816e-02 1.973640586e+00
    endloop
  endfacet
  facet normal 1.000000000e+00 0.000000000e+00 0.000000000e+00
    outer loop
      vertex 4.000000000e+00 -5.111495070e-02 2.050073777e+00
      vertex 4.000000000e+00 6.652294816e-02 1.973640586e+00
      vertex 4.000000000e+00 6.722105540e-02 1.975475501e+00
    endloop
  endfacet
  facet normal 1.000000000e+00 0.000000000e+00 0.000000000e+00
    outer loop
      vertex 4.000000000e+00 -5.111495070e-02 2.050073777e+00
      vertex 4.000000000e+00 6.722105540e-02 1.975475501e+00
      vertex 4.000000000e+00 6.786856073e-02 1.977328877e+00
    endloop
  endfacet
  facet normal 1.000000000e+00 0.000000000e+00 0.000000000e+00
    outer loop
      vertex 4.000000000e+00 -5.111495070e-02 2.050073777e+00
      vertex 4.000000000e+00 6.786856073e-02 1.977328877e+00
      vertex 4.000000000e+00 6.846497674e-02 1.979199320e+00
    endloop
  endfacet
  facet normal 1.000000000e+00 0.000000000e+00 0.000000000e+00
    outer loop
      vertex 4.000000000e+00 -5.111495070e-02 2.050073777e+00
      vertex 4.000000000e+00 6.846497674e-02 1.979199320e+00
      vertex 4.000000000e+00 6.900985446e-02 1.981085420e+00
    endloop
  endfacet
  facet normal 1.000000000e+00 0.000000000e+00 0.000000000e+00
    outer loop
      vertex 4.000000000e+00 -5.111495070e-02 2.050073777e+00
      vertex 4.000000000e+00 6.900985446e-02 1.981085420e+00
      vertex 4.000000000e+00 6.950278373e-02 1.982985759e+00
    endloop
  endfacet
  facet normal 1.000000000e+00 0.000000000e+00 0.000000000e+00
    outer loop
      vertex 4.000000000e+00 -5.111495070e-02 2.050073777e+00
      vertex 4.000000000e+00 6.950278373e-02 1.982985759e+00
      vertex 4.000000000e+00 6.994339347e-02 1.984898906e+00
    endloop
  endfacet
  facet normal 1.000000000e+00 0.000000000e+00 0.000000000e+00
    outer loop
      vertex 4.000000000e+00 -5.111495070e-02 2.050073777e+00
      vertex 4.000000000e+00 6.994339347e-02 1.984898906e+00
      vertex 4.000000000e+00 7.033135203e-02 1.986823420e+00
    endloop
  endfacet
  facet normal 1.000000000e+00 0.000000000e+00 0.000000000e+00
    outer loop
      vertex 4.000000000e+00 -5.111495070e-02 2.050073777e+00
      vertex 4.000000000e+00 7.033135203e-02 1.986823420e+00
      vertex 4.000000000e+00 7.066636734e-02 1.988757853e+00
    endloop
  endfacet
  facet normal 1.000000000e+00 0.000000000e+00 0.000000000e+00
    outer loop
      vertex 4.000000000e+00 -5.111495070e-02 2.050073777e+00
      vertex 4.000000000e+00 7.066636734e-02 1.988757853e+00
      vertex 4.000000000e+00 7.094818723e-02 1.990700749e+00
    endloop
  endfacet
  facet normal 1.000000000e+00 0.000000000e+00 0.000000000e+00
    outer loop
      vertex 4.000000000e+00 -5.111495070e-02 2.050073777e+00
      vertex 4.000000000e+00 7.094818723e-02 1.990700749e+00
      vertex 4.000000000e+00 7.117659955e-02 1.992650645e+00
    endloop
  endfacet
  facet normal 1.000000000e+00 0.000000000e+00 0.000000000e+00
    outer loop
      vertex 4.000000000e+00 -5.111495070e-02 2.050073777e+00
      vertex 4.000000000e+00 7.117659955e-02 1.992650645e+00
      vertex 4.000000000e+00 7.135143236e-02 1.994606073e+00
    endloop
  endfacet
  facet normal 1.000000000e+00 0.000000000e+00 0.000000000e+00
    outer loop
      vertex 4.000000000e+00 -5.111495070e-02 2.050073777e+00
      vertex 4.000000000e+00 7.135143236e-02 1.994606073e+00
      vertex 4.000000000e+00 7.147255404e-02 1.996565562e+00
    endloop
  endfacet
  facet normal 1.000000000e+00 0.000000000e+00 0.000000000e+00
    outer loop
      vertex 4.000000000e+00 -5.111495070e-02 2.050073777e+00
      vertex 4.000000000e+00 7.147255404e-02 1.996565562e+00
      vertex 4.000000000e+00 7.153987343e-02 1.998527636e+00
    endloop
  endfacet
  facet normal 1.000000000e+00 0.000000000e+00 0.000000000e+00
    outer loop
      vertex 4.000000000e+00 -5.111495070e-02 2.050073777e+00
      vertex 4.000000000e+00 7.153987343e-02 1.998527636e+00
      vertex 4.000000000e+00 7.155333984e-02 2.000490819e+00
    endloop
  endfacet
  facet normal 1.000000000e+00 0.000000000e+00 0.000000000e+00
    outer loop
      vertex 4.000000000e+00 -5.111495070e-02 2.050073777e+00
      vertex 4.000000000e+00 7.155333984e-02 2.000490819e+00
      vertex 4.000000000e+00 7.151294314e-02 2.002453632e+00
    endloop
  endfacet
  facet normal 1.000000000e+00 0.000000000e+00 0.000000000e+00
    outer loop
      vertex 4.000000000e+00 -5.111495070e-02 2.050073777e+00
      vertex 4.000000000e+00 7.151294314e-02 2.002453632e+00
      vertex 4.000000000e+00 7.141871374e-02 2.004414598e+00
    endloop
  endfacet
  facet normal 1.000000000e+00 0.000000000e+00 0.000000000e+00
    outer loop
      vertex 4.000000000e+00 -5.111495070e-02 2.050073777e+00
      vertex 4.000000000e+00 7.141871374e-02 2.004414598e+00
      vertex 4.000000000e+00 7.127072257e-02 2.006372241e+00
    endloop
  endfacet
  facet normal 1.000000000e+00 0.000000000e+00 0.000000000e+00
    outer loop
      vertex 4.000000000e+00 -5.111495070e-02 2.050073777e+00
      vertex 4.000000000e+00 7.127072257e-02 2.006372241e+00
      vertex 4.000000000e+00 7.106908103e-02 2.008325087e+00
    endloop
  endfacet
  facet normal 1.000000000e+00 0.000000000e+00 0.000000000e+00
    outer loop
      vertex 4.000000000e+00 -5.111495070e-02 2.050073777e+00
      vertex 4.000000000e+00 7.106908103e-02 2.008325087e+00
      vertex 4.000000000e+00 7.081394092e-02 2.010271666e+00
    endloop
  endfacet
  facet normal 1.000000000e+00 0.000000000e+00 0.000000000e+00
    outer loop
      vertex 4.000000000e+00 -5.111495070e-02 2.050073777e+00
      vertex 4.000000000e+00 7.081394092e-02 2.010271666e+00
      vertex 4.000000000e+00 7.050549429e-02 2.012210513e+00
    endloop
  endfacet
  facet normal 1.000000000e+00 0.000000000e+00 0.000000000e+00
    outer loop
      vertex 4.000000000e+00 -5.111495070e-02 2.050073777e+00
      vertex 4.000000000e+00 7.050549429e-02 2.012210513e+00
      vertex 4.000000000e+00 7.014397333e-02 2.014140168e+00
    endloop
  endfacet
  facet normal 1.000000000e+00 0.000000000e+00 0.000000000e+00
    outer loop
      vertex 4.000000000e+00 -5.111495070e-02 2.050073777e+00
      vertex 4.000000000e+00 7.014397333e-02 2.014140168e+00
      vertex 4.000000000e+00 6.972965019e-02 2.016059179e+00
    endloop
  endfacet
  facet normal 1.000000000e+00 0.000000000e+00 0.000000000e+00
    outer loop
      vertex 4.000000000e+00 -5.111495070e-02 2.050073777e+00
      vertex 4.000000000e+00 6.972965019e-02 2.016059179e+00
      vertex 4.000000000e+00 6.926283676e-02 2.017966101e+00
    endloop
  endfacet
  facet normal 1.000000000e+00 0.000000000e+00 0.000000000e+00
    outer loop
      vertex 4.000000000e+00 -5.111495070e-02 2.050073777e+00
      vertex 4.000000000e+00 6.926283676e-02 2.017966101e+00
      vertex 4.000000000e+00 6.874388443e-02 2.019859499e+00
    endloop
  endfacet
  facet normal 1.000000000e+00 0.000000000e+00 0.000000000e+00
    outer loop
      vertex 4.000000000e+00 -5.111495070e-02 2.050073777e+00
      vertex 4.000000000e+00 6.874388443e-02 2.019859499e+00
      vertex 4.000000000e+00 6.817318387e-02 2.021737947e+00
    endloop
  endfacet
  facet normal 1.000000000e+00 0.000000000e+00 0.000000000e+00
    outer loop
      vertex 4.000000000e+00 -5.111495070e-02 2.050073777e+00
      vertex 4.000000000e+00 6.817318387e-02 2.021737947e+00
      vertex 4.000000000e+00 6.755116466e-02 2.023600032e+00
    endloop
  endfacet
  facet normal 1.000000000e+00 0.000000000e+00 0.000000000e+00
    outer loop
      vertex 4.000000000e+00 -5.111495070e-02 2.050073777e+00
      vertex 4.000000000e+00 6.755116466e-02 2.023600032e+00
      vertex 4.000000000e+00 6.687829506e-02 2.025444351e+00
    endloop
  endfacet
  facet normal 1.000000000e+00 0.000000000e+00 0.000000000e+00
    outer loop
      vertex 4.000000000e+00 -5.111495070e-02 2.050073777e+00
      vertex 4.000000000e+00 6.687829506e-02 2.025444351e+00
      vertex 4.000000000e+00 6.615508157e-02 2.027269516e+00
    endloop
  endfacet
  facet normal 1.000000000e+00 0.000000000e+00 0.000000000e+00
    outer loop
      vertex 4.000000000e+00 -5.111495070e-02 2.050073777e+00
      vertex 4.000000000e+00 6.615508157e-02 2.027269516e+00
      vertex 4.000000000e+00 6.538206862e-02 2.029074154e+00
    endloop
  endfacet
  facet normal 1.000000000e+00 0.000000000e+00 0.000000000e+00
    outer loop
      vertex 4.000000000e+00 -5.111495070e-02 2.050073777e+00
      vertex 4.000000000e+00 6.538206862e-02 2.029074154e+00
      vertex 4.000000000e+00 6.455983808e-02 2.030856906e+00
    endloop
  endfacet
  facet normal 1.000000000e+00 0.000000000e+00 0.000000000e+00
    outer loop
      vertex 4.000000000e+00 -5.111495070e-02 2.050073777e+00
      vertex 4.000000000e+00 6.455983808e-02 2.030856906e+00
      vertex 4.000000000e+00 6.368900893e-02 2.032616430e+00
    endloop
  endfacet
  facet normal 1.000000000e+00 0.000000000e+00 0.000000000e+00
    outer loop
      vertex 4.000000000e+00 -5.111495070e-02 2.050073777e+00
      vertex 4.000000000e+00 6.368900893e-02 2.032616430e+00
      vertex 4.000000000e+00 6.277023669e-02 2.034351401e+00
    endloop
  endfacet
  facet normal 1.000000000e+00 0.000000000e+00 0.000000000e+00
    outer loop
      vertex 4.000000000e+00 -5.111495070e-02 2.050073777e+00
      vertex 4.000000000e+00 6.277023669e-02 2.034351401e+00
      vertex 4.000000000e+00 6.180421298e-02 2.036060513e+00
    endloop
  endfacet
  facet normal 1.000000000e+00 0.000000000e+00 0.000000000e+00
    outer loop
      vertex 4.000000000e+00 -5.111495070e-02 2.050073777e+00
      vertex 4.000000000e+00 6.180421298e-02 2.036060513e+00
      vertex 4.000000000e+00 6.079166500e-02 2.037742480e+00
    endloop
  endfacet
  facet normal 1.000000000e+00 0.000000000e+00 0.000000000e+00
    outer loop
      vertex 4.000000000e+00 -5.111495070e-02 2.050073777e+00
      vertex 4.000000000e+00 6.079166500e-02 2.037742480e+00
      vertex 4.000000000e+00 5.973335495e-02 2.039396036e+00
    endloop
  endfacet
  facet normal 1.000000000e+00 0.000000000e+00 0.000000000e+00
    outer loop
      vertex 4.000000000e+00 -5.111495070e-02 2.050073777e+00
      vertex 4.000000000e+00 5.973335495e-02 2.039396036e+00
      vertex 4.000000000e+00 5.863007951e-02 2.041019936e+00
    endloop
  endfacet
  facet normal 1.000000000e+00 0.000000000e+00 0.000000000e+00
    outer loop
      vertex 4.000000000e+00 -5.111495070e-02 2.050073777e+00
      vertex 4.000000000e+00 5.863007951e-02 2.041019936e+00
      vertex 4.000000000e+00 5.748266919e-02 2.042612957e+00
    endloop
  endfacet
  facet normal 1.000000000e+00 0.000000000e+00 0.000000000e+00
    outer loop
      vertex 4.000000000e+00 -5.111495070e-02 2.050073777e+00
      vertex 4.000000000e+00 5.748266919e-02 2.042612957e+00
      vertex 4.000000000e+00 5.629198771e-02 2.044173900e+00
    endloop
  endfacet
  facet normal 1.000000000e+00 -0.000000000e+00 0.000000000e+00
    outer loop
      vertex 4.000000000e+00 -5.111495070e-02 2.050073777e+00
      vertex 4.000000000e+00 5.246943824e-02 2.048652640e+00
      vertex 4.000000000e+00 5.111495070e-02 2.050073777e+00
    endloop
  endfacet
  facet normal 1.000000000e+00 0.000000000e+00 0.000000000e+00
    outer loop
      vertex 4.000000000e+00 -5.111495070e-02 2.050073777e+00
      vertex 4.000000000e+00 4.682484418e-02 2.054106888e+00
      vertex 4.000000000e+00 4.532284908e-02 2.055371118e+00
    endloop
  endfacet
  facet normal 1.000000000e+00 0.000000000e+00 0.000000000e+00
    outer loop
      vertex 4.000000000e+00 -5.111495070e-02 2.050073777e+00
      vertex 4.000000000e+00 4.532284908e-02 2.055371118e+00
      vertex 4.000000000e+00 4.378673637e-02 2.056593666e+00
    endloop
  endfacet
  facet normal 1.000000000e+00 0.000000000e+00 0.000000000e+00
    outer loop
      vertex 4.000000000e+00 -5.111495070e-02 2.050073777e+00
      vertex 4.000000000e+00 4.378673637e-02 2.056593666e+00
      vertex 4.000000000e+00 4.221766237e-02 2.057773613e+00
    endloop
  endfacet
  facet normal 1.000000000e+00 0.000000000e+00 0.000000000e+00
    outer loop
      vertex 4.000000000e+00 -5.111495070e-02 2.050073777e+00
      vertex 4.000000000e+00 2.498501281e-02 2.067051253e+00
      vertex 4.000000000e+00 2.313612156e-02 2.067711456e+00
    endloop
  endfacet
  facet normal 1.000000000e+00 0.000000000e+00 0.000000000e+00
    outer loop
      vertex 4.000000000e+00 -5.111495070e-02 2.050073777e+00
      vertex 4.000000000e+00 1.558050326e-02 2.069838165e+00
      vertex 4.000000000e+00 1.365869544e-02 2.070239315e+00
    endloop
  endfacet
  facet normal 1.000000000e+00 0.000000000e+00 0.000000000e+00
    outer loop
      vertex 4.000000000e+00 -5.111495070e-02 2.050073777e+00
      vertex 4.000000000e+00 9.785688697e-03 2.070882732e+00
      vertex 4.000000000e+00 7.837405256e-03 2.071124514e+00
    endloop
  endfacet
  facet normal 1.000000000e+00 0.000000000e+00 0.000000000e+00
    outer loop
      vertex 4.000000000e+00 -5.111495070e-02 2.050073777e+00
      vertex 4.000000000e+00 7.837405256e-03 2.071124514e+00
      vertex 4.000000000e+00 5.883222062e-03 2.071312755e+00
    endloop
  endfacet
  facet normal 1.000000000e+00 0.000000000e+00 0.000000000e+00
    outer loop
      vertex 4.000000000e+00 -5.111495070e-02 2.050073777e+00
      vertex 4.000000000e+00 1.963043940e-03 2.071528091e+00
      vertex 4.000000000e+00 1.752592602e-17 2.071555023e+00
    endloop
  endfacet
  facet normal 1.000000000e+00 0.000000000e+00 0.000000000e+00
    outer loop
      vertex 4.000000000e+00 -5.111495070e-02 2.050073777e+00
      vertex 4.000000000e+00 2.862499387e-02 2.065579959e+00
      vertex 4.000000000e+00 2.498501281e-02 2.067051253e+00
    endloop
  endfacet
  facet normal 1.000000000e+00 0.000000000e+00 0.000000000e+00
    outer loop
      vertex 4.000000000e+00 -5.111495070e-02 2.050073777e+00
      vertex 4.000000000e+00 1.365869544e-02 2.070239315e+00
      vertex 4.000000000e+00 9.785688697e-03 2.070882732e+00
    endloop
  endfacet
  facet normal 1.000000000e+00 0.000000000e+00 0.000000000e+00
    outer loop
      vertex 4.000000000e+00 -5.111495070e-02 2.050073777e+00
      vertex 4.000000000e+00 -5.378442843e-02 2.047194879e+00
      vertex 4.000000000e+00 -5.748266919e-02 2.042612957e+00
    endloop
  endfacet
  facet normal 1.000000000e+00 0.000000000e+00 0.000000000e+00
    outer loop
      vertex 4.000000000e+00 -5.111495070e-02 2.050073777e+00
      vertex 4.000000000e+00 3.392003152e-02 2.063004387e+00
      vertex 4.000000000e+00 2.862499387e-02 2.065579959e+00
    endloop
  endfacet
  facet normal 1.000000000e+00 0.000000000e+00 0.000000000e+00
    outer loop
      vertex 4.000000000e+00 -5.111495070e-02 2.050073777e+00
      vertex 4.000000000e+00 3.898537905e-02 2.060002180e+00
      vertex 4.000000000e+00 3.392003152e-02 2.063004387e+00
    endloop
  endfacet
  facet normal 1.000000000e+00 0.000000000e+00 0.000000000e+00
    outer loop
      vertex 4.000000000e+00 -5.111495070e-02 2.050073777e+00
      vertex 4.000000000e+00 -1.172660578e-02 2.070587591e+00
      vertex 4.000000000e+00 -1.558050326e-02 2.069838165e+00
    endloop
  endfacet
  facet normal 1.000000000e+00 0.000000000e+00 0.000000000e+00
    outer loop
      vertex 4.000000000e+00 -5.111495070e-02 2.050073777e+00
      vertex 4.000000000e+00 5.629198771e-02 2.044173900e+00
      vertex 4.000000000e+00 5.246943824e-02 2.048652640e+00
    endloop
  endfacet
  facet normal 1.000000000e+00 0.000000000e+00 0.000000000e+00
    outer loop
      vertex 4.000000000e+00 -5.111495070e-02 2.050073777e+00
      vertex 4.000000000e+00 -6.413045822e-02 1.968260345e+00
      vertex 4.000000000e+00 -6.229308665e-02 1.964790730e+00
    endloop
  endfacet
  facet normal 1.000000000e+00 0.000000000e+00 0.000000000e+00
    outer loop
      vertex 4.000000000e+00 -5.111495070e-02 2.050073777e+00
      vertex 4.000000000e+00 -6.722105540e-02 1.975475501e+00
      vertex 4.000000000e+00 -6.577476453e-02 1.971825513e+00
    endloop
  endfacet
  facet normal 1.000000000e+00 0.000000000e+00 0.000000000e+00
    outer loop
      vertex 4.000000000e+00 -5.111495070e-02 2.050073777e+00
      vertex 4.000000000e+00 5.111495070e-02 2.050073777e+00
      vertex 4.000000000e+00 4.682484418e-02 2.054106888e+00
    endloop
  endfacet
  facet normal 1.000000000e+00 0.000000000e+00 0.000000000e+00
    outer loop
      vertex 4.000000000e+00 -5.111495070e-02 2.050073777e+00
      vertex 4.000000000e+00 -5.806183800e-02 1.958179618e+00
      vertex 4.000000000e+00 -5.442680150e-02 1.953547394e+00
    endloop
  endfacet
  facet normal 1.000000000e+00 0.000000000e+00 0.000000000e+00
    outer loop
      vertex 4.000000000e+00 -5.111495070e-02 2.050073777e+00
      vertex 4.000000000e+00 5.883222062e-03 2.071312755e+00
      vertex 4.000000000e+00 1.963043940e-03 2.071528091e+00
    endloop
  endfacet
  facet normal 1.000000000e+00 0.000000000e+00 0.000000000e+00
    outer loop
      vertex 4.000000000e+00 -5.111495070e-02 2.050073777e+00
      vertex 4.000000000e+00 4.221766237e-02 2.057773613e+00
      vertex 4.000000000e+00 3.898537905e-02 2.060002180e+00
    endloop
  endfacet
  facet normal 1.000000000e+00 0.000000000e+00 0.000000000e+00
    outer loop
      vertex 4.000000000e+00 -5.111495070e-02 2.050073777e+00
      vertex 4.000000000e+00 2.313612156e-02 2.067711456e+00
      vertex 4.000000000e+00 1.558050326e-02 2.069838165e+00
    endloop
  endfacet
  facet normal 1.000000000e+00 0.000000000e+00 0.000000000e+00
    outer loop
      vertex 4.000000000e+00 -5.111495070e-02 2.050073777e+00
      vertex 4.000000000e+00 -4.532284908e-02 2.055371118e+00
      vertex 4.000000000e+00 -4.829159100e-02 2.052801928e+00
    endloop
  endfacet
  facet normal 1.000000000e+00 0.000000000e+00 0.000000000e+00
    outer loop
      vertex 4.000000000e+00 -5.111495070e-02 2.050073777e+00
      vertex 4.000000000e+00 -4.061680824e-02 2.058910069e+00
      vertex 4.000000000e+00 -4.532284908e-02 2.055371118e+00
    endloop
  endfacet
  facet normal 1.000000000e+00 0.000000000e+00 0.000000000e+00
    outer loop
      vertex 4.000000000e+00 -5.111495070e-02 2.050073777e+00
      vertex 4.000000000e+00 -7.837405256e-03 2.071124514e+00
      vertex 4.000000000e+00 -1.172660578e-02 2.070587591e+00
    endloop
  endfacet
  facet normal 1.000000000e+00 0.000000000e+00 0.000000000e+00
    outer loop
      vertex 4.000000000e+00 -5.111495070e-02 2.050073777e+00
      vertex 4.000000000e+00 -1.938749551e-02 2.068878490e+00
      vertex 4.000000000e+00 -2.313612156e-02 2.067711456e+00
    endloop
  endfacet
  facet normal 1.000000000e+00 0.000000000e+00 0.000000000e+00
    outer loop
      vertex 4.000000000e+00 -5.111495070e-02 2.050073777e+00
      vertex 4.000000000e+00 -2.862499387e-02 2.065579959e+00
      vertex 4.000000000e+00 -3.217879917e-02 2.063911237e+00
    endloop
  endfacet
  facet normal 1.000000000e+00 0.000000000e+00 0.000000000e+00
    outer loop
      vertex 4.000000000e+00 -5.111495070e-02 2.050073777e+00
      vertex 4.000000000e+00 -3.732460289e-02 2.061049123e+00
      vertex 4.000000000e+00 -4.061680824e-02 2.058910069e+00
    endloop
  endfacet
  facet normal 1.000000000e+00 0.000000000e+00 0.000000000e+00
    outer loop
      vertex 4.000000000e+00 -5.111495070e-02 2.050073777e+00
      vertex 4.000000000e+00 -5.863007951e-02 2.041019936e+00
      vertex 4.000000000e+00 -6.079166500e-02 2.037742480e+00
    endloop
  endfacet
endsolid outlet_33
