solid outlet_53
  facet normal 1.000000000e+00 0.000000000e+00 0.000000000e+00
    outer loop
      vertex 4.000000000e+00 9.252076510e-01 1.900542326e+00
      vertex 4.000000000e+00 9.279643283e-01 1.898527904e+00
      vertex 4.000000000e+00 9.307752318e-01 1.896589866e+00
    endloop
  endfacet
  facet normal 1.000000000e+00 0.000000000e+00 0.000000000e+00
    outer loop
      vertex 4.000000000e+00 1.095753226e+00 2.079479835e+00
      vertex 4.000000000e+00 1.099968359e+00 2.074108378e+00
      vertex 4.000000000e+00 1.097897639e+00 2.076823021e+00
    endloop
  endfacet
  facet normal 1.000000000e+00 0.000000000e+00 0.000000000e+00
    outer loop
      vertex 4.000000000e+00 1.091249827e+00 2.084612017e+00
      vertex 4.000000000e+00 1.095753226e+00 2.079479835e+00
      vertex 4.000000000e+00 1.093536732e+00 2.082076818e+00
    endloop
  endfacet
  facet normal 1.000000000e+00 0.000000000e+00 0.000000000e+00
    outer loop
      vertex 4.000000000e+00 1.088894232e+00 2.087083523e+00
      vertex 4.000000000e+00 1.095753226e+00 2.079479835e+00
      vertex 4.000000000e+00 1.091249827e+00 2.084612017e+00
    endloop
  endfacet
  facet normal 1.000000000e+00 0.000000000e+00 0.000000000e+00
    outer loop
      vertex 4.000000000e+00 1.088894232e+00 2.087083523e+00
      vertex 4.000000000e+00 1.099968359e+00 2.074108378e+00
      vertex 4.000000000e+00 1.095753226e+00 2.079479835e+00
    endloop
  endfacet
  facet normal 1.000000000e+00 0.000000000e+00 0.000000000e+00
    outer loop
      vertex 4.000000000e+00 9.123087723e-01 1.911705193e+00
      vertex 4.000000000e+00 9.147640619e-01 1.909332700e+00
      vertex 4.000000000e+00 9.172835144e-01 1.907028459e+00
    endloop
  endfacet
  facet normal 1.000000000e+00 0.000000000e+00 0.000000000e+00
    outer loop
      vertex 4.000000000e+00 9.099194939e-01 1.914144151e+00
      vertex 4.000000000e+00 9.123087723e-01 1.911705193e+00
      vertex 4.000000000e+00 9.172835144e-01 1.907028459e+00
    endloop
  endfacet
  facet normal 1.000000000e+00 0.000000000e+00 0.000000000e+00
    outer loop
      vertex 4.000000000e+00 9.053461141e-01 1.919214072e+00
      vertex 4.000000000e+00 9.075980253e-01 1.916647739e+00
      vertex 4.000000000e+00 9.099194939e-01 1.914144151e+00
    endloop
  endfacet
  facet normal 1.000000000e+00 0.000000000e+00 0.000000000e+00
    outer loop
      vertex 4.000000000e+00 1.078821163e+00 2.096296151e+00
      vertex 4.000000000e+00 1.083984115e+00 2.091828061e+00
      vertex 4.000000000e+00 1.081433289e+00 2.094097523e+00
    endloop
  endfacet
  facet normal 1.000000000e+00 0.000000000e+00 0.000000000e+00
    outer loop
      vertex 4.000000000e+00 1.070636867e+00 2.102450756e+00
      vertex 4.000000000e+00 1.076149703e+00 2.098422290e+00
      vertex 4.000000000e+00 1.073420919e+00 2.100474340e+00
    endloop
  endfacet
  facet normal 1.000000000e+00 0.000000000e+00 0.000000000e+00
    outer loop
      vertex 4.000000000e+00 1.058990474e+00 2.109571202e+00
      vertex 4.000000000e+00 1.070636867e+00 2.102450756e+00
      vertex 4.000000000e+00 1.067799641e+00 2.104350050e+00
    endloop
  endfacet
  facet normal 1.000000000e+00 0.000000000e+00 0.000000000e+00
    outer loop
      vertex 4.000000000e+00 1.058990474e+00 2.109571202e+00
      vertex 4.000000000e+00 1.067799641e+00 2.104350050e+00
      vertex 4.000000000e+00 1.064911378e+00 2.106170793e+00
    endloop
  endfacet
  facet normal 1.000000000e+00 0.000000000e+00 0.000000000e+00
    outer loop
      vertex 4.000000000e+00 1.058990474e+00 2.109571202e+00
      vertex 4.000000000e+00 1.064911378e+00 2.106170793e+00
      vertex 4.000000000e+00 1.061974252e+00 2.107911614e+00
    endloop
  endfacet
  facet normal 1.000000000e+00 0.000000000e+00 0.000000000e+00
    outer loop
      vertex 4.000000000e+00 1.055962289e+00 2.111148309e+00
      vertex 4.000000000e+00 1.070636867e+00 2.102450756e+00
      vertex 4.000000000e+00 1.058990474e+00 2.109571202e+00
    endloop
  endfacet
  facet normal 1.000000000e+00 0.000000000e+00 0.000000000e+00
    outer loop
      vertex 4.000000000e+00 1.049781851e+00 2.114050391e+00
      vertex 4.000000000e+00 1.055962289e+00 2.111148309e+00
      vertex 4.000000000e+00 1.052891977e+00 2.112641747e+00
    endloop
  endfacet
  facet normal 1.000000000e+00 0.000000000e+00 0.000000000e+00
    outer loop
      vertex 4.000000000e+00 1.046634250e+00 2.115373182e+00
      vertex 4.000000000e+00 1.055962289e+00 2.111148309e+00
      vertex 4.000000000e+00 1.049781851e+00 2.114050391e+00
    endloop
  endfacet
  facet normal 1.000000000e+00 0.000000000e+00 0.000000000e+00
    outer loop
      vertex 4.000000000e+00 8.843096531e-01 1.954158229e+00
      vertex 4.000000000e+00 8.856108225e-01 1.951001628e+00
      vertex 4.000000000e+00 8.869981004e-01 1.947881912e+00
    endloop
  endfacet
  facet normal 1.000000000e+00 0.000000000e+00 0.000000000e+00
    outer loop
      vertex 4.000000000e+00 1.030417948e+00 2.120666784e+00
      vertex 4.000000000e+00 1.040236129e+00 2.117757285e+00
      vertex 4.000000000e+00 1.036990426e+00 2.118816803e+00
    endloop
  endfacet
  facet normal 1.000000000e+00 0.000000000e+00 0.000000000e+00
    outer loop
      vertex 4.000000000e+00 1.030417948e+00 2.120666784e+00
      vertex 4.000000000e+00 1.036990426e+00 2.118816803e+00
      vertex 4.000000000e+00 1.033716877e+00 2.119786880e+00
    endloop
  endfacet
  facet normal 1.000000000e+00 0.000000000e+00 0.000000000e+00
    outer loop
      vertex 4.000000000e+00 1.027096121e+00 2.121455855e+00
      vertex 4.000000000e+00 1.046634250e+00 2.115373182e+00
      vertex 4.000000000e+00 1.043451544e+00 2.116609124e+00
    endloop
  endfacet
  facet normal 1.000000000e+00 0.000000000e+00 0.000000000e+00
    outer loop
      vertex 4.000000000e+00 1.027096121e+00 2.121455855e+00
      vertex 4.000000000e+00 1.043451544e+00 2.116609124e+00
      vertex 4.000000000e+00 1.040236129e+00 2.117757285e+00
    endloop
  endfacet
  facet normal 1.000000000e+00 0.000000000e+00 0.000000000e+00
    outer loop
      vertex 4.000000000e+00 1.027096121e+00 2.121455855e+00
      vertex 4.000000000e+00 1.040236129e+00 2.117757285e+00
      vertex 4.000000000e+00 1.030417948e+00 2.120666784e+00
    endloop
  endfacet
  facet normal 1.000000000e+00 0.000000000e+00 0.000000000e+00
    outer loop
      vertex 4.000000000e+00 1.010231537e+00 2.124020321e+00
      vertex 4.000000000e+00 1.017018334e+00 2.123272465e+00
      vertex 4.000000000e+00 1.013630065e+00 2.123692949e+00
    endloop
  endfacet
  facet normal 1.000000000e+00 0.000000000e+00 0.000000000e+00
    outer loop
      vertex 4.000000000e+00 1.006825307e+00 2.124254334e+00
      vertex 4.000000000e+00 1.020393791e+00 2.122759186e+00
      vertex 4.000000000e+00 1.017018334e+00 2.123272465e+00
    endloop
  endfacet
  facet normal 1.000000000e+00 0.000000000e+00 0.000000000e+00
    outer loop
      vertex 4.000000000e+00 1.006825307e+00 2.124254334e+00
      vertex 4.000000000e+00 1.017018334e+00 2.123272465e+00
      vertex 4.000000000e+00 1.010231537e+00 2.124020321e+00
    endloop
  endfacet
  facet normal 1.000000000e+00 0.000000000e+00 0.000000000e+00
    outer loop
      vertex 4.000000000e+00 9.829816665e-01 2.123272465e+00
      vertex 4.000000000e+00 9.897684631e-01 2.124020321e+00
      vertex 4.000000000e+00 9.863699346e-01 2.123692949e+00
    endloop
  endfacet
  facet normal 1.000000000e+00 0.000000000e+00 0.000000000e+00
    outer loop
      vertex 4.000000000e+00 9.796062092e-01 2.122759186e+00
      vertex 4.000000000e+00 9.965860618e-01 2.124394813e+00
      vertex 4.000000000e+00 9.931746935e-01 2.124254334e+00
    endloop
  endfacet
  facet normal 1.000000000e+00 0.000000000e+00 0.000000000e+00
    outer loop
      vertex 4.000000000e+00 9.796062092e-01 2.122759186e+00
      vertex 4.000000000e+00 9.931746935e-01 2.124254334e+00
      vertex 4.000000000e+00 9.897684631e-01 2.124020321e+00
    endloop
  endfacet
  facet normal 1.000000000e+00 0.000000000e+00 0.000000000e+00
    outer loop
      vertex 4.000000000e+00 9.796062092e-01 2.122759186e+00
      vertex 4.000000000e+00 9.897684631e-01 2.124020321e+00
      vertex 4.000000000e+00 9.829816665e-01 2.123272465e+00
    endloop
  endfacet
  facet normal 1.000000000e+00 0.000000000e+00 0.000000000e+00
    outer loop
      vertex 4.000000000e+00 9.695820522e-01 2.120666784e+00
      vertex 4.000000000e+00 9.796062092e-01 2.122759186e+00
      vertex 4.000000000e+00 9.762461037e-01 2.122153497e+00
    endloop
  endfacet
  facet normal 1.000000000e+00 0.000000000e+00 0.000000000e+00
    outer loop
      vertex 4.000000000e+00 9.695820522e-01 2.120666784e+00
      vertex 4.000000000e+00 9.762461037e-01 2.122153497e+00
      vertex 4.000000000e+00 9.729038794e-01 2.121455855e+00
    endloop
  endfacet
  facet normal 1.000000000e+00 0.000000000e+00 0.000000000e+00
    outer loop
      vertex 4.000000000e+00 9.630095742e-01 2.118816803e+00
      vertex 4.000000000e+00 9.695820522e-01 2.120666784e+00
      vertex 4.000000000e+00 9.662831227e-01 2.119786880e+00
    endloop
  endfacet
  facet normal 1.000000000e+00 0.000000000e+00 0.000000000e+00
    outer loop
      vertex 4.000000000e+00 9.630095742e-01 2.118816803e+00
      vertex 4.000000000e+00 9.796062092e-01 2.122759186e+00
      vertex 4.000000000e+00 9.695820522e-01 2.120666784e+00
    endloop
  endfacet
  facet normal 1.000000000e+00 0.000000000e+00 0.000000000e+00
    outer loop
      vertex 4.000000000e+00 8.836916677e-01 2.044250381e+00
      vertex 4.000000000e+00 8.825214773e-01 2.041042917e+00
      vertex 4.000000000e+00 8.814397210e-01 2.037804558e+00
    endloop
  endfacet
  facet normal 1.000000000e+00 0.000000000e+00 0.000000000e+00
    outer loop
      vertex 4.000000000e+00 8.836916677e-01 2.044250381e+00
      vertex 4.000000000e+00 8.814397210e-01 2.037804558e+00
      vertex 4.000000000e+00 8.804472132e-01 2.034537741e+00
    endloop
  endfacet
  facet normal 1.000000000e+00 0.000000000e+00 0.000000000e+00
    outer loop
      vertex 4.000000000e+00 9.533657503e-01 2.115373182e+00
      vertex 4.000000000e+00 9.630095742e-01 2.118816803e+00
      vertex 4.000000000e+00 9.597638709e-01 2.117757285e+00
    endloop
  endfacet
  facet normal 1.000000000e+00 0.000000000e+00 0.000000000e+00
    outer loop
      vertex 4.000000000e+00 9.533657503e-01 2.115373182e+00
      vertex 4.000000000e+00 9.597638709e-01 2.117757285e+00
      vertex 4.000000000e+00 9.565484561e-01 2.116609124e+00
    endloop
  endfacet
  facet normal 1.000000000e+00 0.000000000e+00 0.000000000e+00
    outer loop
      vertex 4.000000000e+00 9.471080225e-01 2.112641747e+00
      vertex 4.000000000e+00 9.533657503e-01 2.115373182e+00
      vertex 4.000000000e+00 9.502181493e-01 2.114050391e+00
    endloop
  endfacet
  facet normal 1.000000000e+00 0.000000000e+00 0.000000000e+00
    outer loop
      vertex 4.000000000e+00 9.440377112e-01 2.111148309e+00
      vertex 4.000000000e+00 9.533657503e-01 2.115373182e+00
      vertex 4.000000000e+00 9.471080225e-01 2.112641747e+00
    endloop
  endfacet
  facet normal 1.000000000e+00 0.000000000e+00 0.000000000e+00
    outer loop
      vertex 4.000000000e+00 8.908360098e-01 2.059740670e+00
      vertex 4.000000000e+00 8.892381690e-01 2.056723374e+00
      vertex 4.000000000e+00 8.877237063e-01 2.053663379e+00
    endloop
  endfacet
  facet normal 1.000000000e+00 0.000000000e+00 0.000000000e+00
    outer loop
      vertex 4.000000000e+00 8.925160258e-01 2.062712994e+00
      vertex 4.000000000e+00 8.908360098e-01 2.059740670e+00
      vertex 4.000000000e+00 8.877237063e-01 2.053663379e+00
    endloop
  endfacet
  facet normal 1.000000000e+00 0.000000000e+00 0.000000000e+00
    outer loop
      vertex 4.000000000e+00 9.350886217e-01 2.106170793e+00
      vertex 4.000000000e+00 9.410095264e-01 2.109571202e+00
      vertex 4.000000000e+00 9.380257479e-01 2.107911614e+00
    endloop
  endfacet
  facet normal 1.000000000e+00 0.000000000e+00 0.000000000e+00
    outer loop
      vertex 4.000000000e+00 9.322003586e-01 2.104350050e+00
      vertex 4.000000000e+00 9.440377112e-01 2.111148309e+00
      vertex 4.000000000e+00 9.410095264e-01 2.109571202e+00
    endloop
  endfacet
  facet normal 1.000000000e+00 0.000000000e+00 0.000000000e+00
    outer loop
      vertex 4.000000000e+00 9.322003586e-01 2.104350050e+00
      vertex 4.000000000e+00 9.410095264e-01 2.109571202e+00
      vertex 4.000000000e+00 9.350886217e-01 2.106170793e+00
    endloop
  endfacet
  facet normal 1.000000000e+00 0.000000000e+00 0.000000000e+00
    outer loop
      vertex 4.000000000e+00 8.980361751e-01 2.071337948e+00
      vertex 4.000000000e+00 8.961174640e-01 2.068513817e+00
      vertex 4.000000000e+00 8.942769524e-01 2.065638111e+00
    endloop
  endfacet
  facet normal 1.000000000e+00 0.000000000e+00 0.000000000e+00
    outer loop
      vertex 4.000000000e+00 9.000316413e-01 2.074108378e+00
      vertex 4.000000000e+00 8.980361751e-01 2.071337948e+00
      vertex 4.000000000e+00 8.942769524e-01 2.065638111e+00
    endloop
  endfacet
  facet normal 1.000000000e+00 0.000000000e+00 0.000000000e+00
    outer loop
      vertex 4.000000000e+00 9.042467742e-01 2.079479835e+00
      vertex 4.000000000e+00 9.021023607e-01 2.076823021e+00
      vertex 4.000000000e+00 9.000316413e-01 2.074108378e+00
    endloop
  endfacet
  facet normal 1.000000000e+00 0.000000000e+00 0.000000000e+00
    outer loop
      vertex 4.000000000e+00 9.185667109e-01 2.094097523e+00
      vertex 4.000000000e+00 9.293631331e-01 2.102450756e+00
      vertex 4.000000000e+00 9.265790807e-01 2.100474340e+00
    endloop
  endfacet
  facet normal 1.000000000e+00 0.000000000e+00 0.000000000e+00
    outer loop
      vertex 4.000000000e+00 9.185667109e-01 2.094097523e+00
      vertex 4.000000000e+00 9.265790807e-01 2.100474340e+00
      vertex 4.000000000e+00 9.238502974e-01 2.098422290e+00
    endloop
  endfacet
  facet normal 1.000000000e+00 0.000000000e+00 0.000000000e+00
    outer loop
      vertex 4.000000000e+00 9.185667109e-01 2.094097523e+00
      vertex 4.000000000e+00 9.238502974e-01 2.098422290e+00
      vertex 4.000000000e+00 9.211788371e-01 2.096296151e+00
    endloop
  endfacet
  facet normal 1.000000000e+00 0.000000000e+00 0.000000000e+00
    outer loop
      vertex 4.000000000e+00 9.111057681e-01 2.087083523e+00
      vertex 4.000000000e+00 1.000000000e+00 2.124441650e+00
      vertex 4.000000000e+00 9.965860618e-01 2.124394813e+00
    endloop
  endfacet
  facet normal 1.000000000e+00 0.000000000e+00 0.000000000e+00
    outer loop
      vertex 4.000000000e+00 9.111057681e-01 2.087083523e+00
      vertex 4.000000000e+00 9.322003586e-01 2.104350050e+00
      vertex 4.000000000e+00 9.293631331e-01 2.102450756e+00
    endloop
  endfacet
  facet normal 1.000000000e+00 0.000000000e+00 0.000000000e+00
    outer loop
      vertex 4.000000000e+00 9.111057681e-01 2.087083523e+00
      vertex 4.000000000e+00 9.185667109e-01 2.094097523e+00
      vertex 4.000000000e+00 9.160158852e-01 2.091828061e+00
    endloop
  endfacet
  facet normal 1.000000000e+00 0.000000000e+00 0.000000000e+00
    outer loop
      vertex 4.000000000e+00 9.111057681e-01 2.087083523e+00
      vertex 4.000000000e+00 9.160158852e-01 2.091828061e+00
      vertex 4.000000000e+00 9.135282800e-01 2.089489474e+00
    endloop
  endfacet
  facet normal 1.000000000e+00 0.000000000e+00 0.000000000e+00
    outer loop
      vertex 4.000000000e+00 9.111057681e-01 2.087083523e+00
      vertex 4.000000000e+00 9.087501730e-01 2.084612017e+00
      vertex 4.000000000e+00 9.064632678e-01 2.082076818e+00
    endloop
  endfacet
  facet normal 1.000000000e+00 0.000000000e+00 0.000000000e+00
    outer loop
      vertex 4.000000000e+00 9.111057681e-01 2.087083523e+00
      vertex 4.000000000e+00 9.064632678e-01 2.082076818e+00
      vertex 4.000000000e+00 9.042467742e-01 2.079479835e+00
    endloop
  endfacet
  facet normal 1.000000000e+00 0.000000000e+00 0.000000000e+00
    outer loop
      vertex 4.000000000e+00 9.111057681e-01 2.087083523e+00
      vertex 4.000000000e+00 8.942769524e-01 2.065638111e+00
      vertex 4.000000000e+00 8.925160258e-01 2.062712994e+00
    endloop
  endfacet
  facet normal 1.000000000e+00 0.000000000e+00 0.000000000e+00
    outer loop
      vertex 4.000000000e+00 9.111057681e-01 2.087083523e+00
      vertex 4.000000000e+00 8.877237063e-01 2.053663379e+00
      vertex 4.000000000e+00 8.862937616e-01 2.050562988e+00
    endloop
  endfacet
  facet normal 1.000000000e+00 0.000000000e+00 0.000000000e+00
    outer loop
      vertex 4.000000000e+00 9.111057681e-01 2.087083523e+00
      vertex 4.000000000e+00 8.862937616e-01 2.050562988e+00
      vertex 4.000000000e+00 8.849494114e-01 2.047424534e+00
    endloop
  endfacet
  facet normal 1.000000000e+00 0.000000000e+00 0.000000000e+00
    outer loop
      vertex 4.000000000e+00 9.111057681e-01 2.087083523e+00
      vertex 4.000000000e+00 8.849494114e-01 2.047424534e+00
      vertex 4.000000000e+00 8.836916677e-01 2.044250381e+00
    endloop
  endfacet
  facet normal 1.000000000e+00 0.000000000e+00 0.000000000e+00
    outer loop
      vertex 4.000000000e+00 9.111057681e-01 2.087083523e+00
      vertex 4.000000000e+00 8.804472132e-01 2.034537741e+00
      vertex 4.000000000e+00 8.795447010e-01 2.031244924e+00
    endloop
  endfacet
  facet normal 1.000000000e+00 0.000000000e+00 0.000000000e+00
    outer loop
      vertex 4.000000000e+00 9.111057681e-01 2.087083523e+00
      vertex 4.000000000e+00 8.795447010e-01 2.031244924e+00
      vertex 4.000000000e+00 8.787328637e-01 2.027928588e+00
    endloop
  endfacet
  facet normal 1.000000000e+00 0.000000000e+00 0.000000000e+00
    outer loop
      vertex 4.000000000e+00 9.111057681e-01 2.087083523e+00
      vertex 4.000000000e+00 8.787328637e-01 2.027928588e+00
      vertex 4.000000000e+00 8.780123125e-01 2.024591227e+00
    endloop
  endfacet
  facet normal 1.000000000e+00 0.000000000e+00 0.000000000e+00
    outer loop
      vertex 4.000000000e+00 9.111057681e-01 2.087083523e+00
      vertex 4.000000000e+00 8.780123125e-01 2.024591227e+00
      vertex 4.000000000e+00 8.773835899e-01 2.021235355e+00
    endloop
  endfacet
  facet normal 1.000000000e+00 0.000000000e+00 0.000000000e+00
    outer loop
      vertex 4.000000000e+00 9.111057681e-01 2.087083523e+00
      vertex 4.000000000e+00 8.773835899e-01 2.021235355e+00
      vertex 4.000000000e+00 8.768471690e-01 2.017863498e+00
    endloop
  endfacet
  facet normal 1.000000000e+00 0.000000000e+00 0.000000000e+00
    outer loop
      vertex 4.000000000e+00 9.111057681e-01 2.087083523e+00
      vertex 4.000000000e+00 8.768471690e-01 2.017863498e+00
      vertex 4.000000000e+00 8.764034537e-01 2.014478194e+00
    endloop
  endfacet
  facet normal 1.000000000e+00 0.000000000e+00 0.000000000e+00
    outer loop
      vertex 4.000000000e+00 9.111057681e-01 2.087083523e+00
      vertex 4.000000000e+00 8.764034537e-01 2.014478194e+00
      vertex 4.000000000e+00 8.760527781e-01 2.011081991e+00
    endloop
  endfacet
  facet normal 1.000000000e+00 0.000000000e+00 0.000000000e+00
    outer loop
      vertex 4.000000000e+00 9.111057681e-01 2.087083523e+00
      vertex 4.000000000e+00 8.760527781e-01 2.011081991e+00
      vertex 4.000000000e+00 8.757954060e-01 2.007677446e+00
    endloop
  endfacet
  facet normal 1.000000000e+00 0.000000000e+00 0.000000000e+00
    outer loop
      vertex 4.000000000e+00 9.111057681e-01 2.087083523e+00
      vertex 4.000000000e+00 8.757954060e-01 2.007677446e+00
      vertex 4.000000000e+00 8.756315312e-01 2.004267122e+00
    endloop
  endfacet
  facet normal 1.000000000e+00 0.000000000e+00 0.000000000e+00
    outer loop
      vertex 4.000000000e+00 9.111057681e-01 2.087083523e+00
      vertex 4.000000000e+00 8.756315312e-01 2.004267122e+00
      vertex 4.000000000e+00 8.755612771e-01 2.000853585e+00
    endloop
  endfacet
  facet normal 1.000000000e+00 0.000000000e+00 0.000000000e+00
    outer loop
      vertex 4.000000000e+00 9.111057681e-01 2.087083523e+00
      vertex 4.000000000e+00 8.755612771e-01 2.000853585e+00
      vertex 4.000000000e+00 8.755846966e-01 1.997439406e+00
    endloop
  endfacet
  facet normal 1.000000000e+00 0.000000000e+00 0.000000000e+00
    outer loop
      vertex 4.000000000e+00 9.111057681e-01 2.087083523e+00
      vertex 4.000000000e+00 8.755846966e-01 1.997439406e+00
      vertex 4.000000000e+00 8.757017721e-01 1.994027154e+00
    endloop
  endfacet
  facet normal 1.000000000e+00 0.000000000e+00 0.000000000e+00
    outer loop
      vertex 4.000000000e+00 9.111057681e-01 2.087083523e+00
      vertex 4.000000000e+00 8.757017721e-01 1.994027154e+00
      vertex 4.000000000e+00 8.759124153e-01 1.990619399e+00
    endloop
  endfacet
  facet normal 1.000000000e+00 0.000000000e+00 0.000000000e+00
    outer loop
      vertex 4.000000000e+00 9.111057681e-01 2.087083523e+00
      vertex 4.000000000e+00 8.759124153e-01 1.990619399e+00
      vertex 4.000000000e+00 8.762164678e-01 1.987218705e+00
    endloop
  endfacet
  facet normal 1.000000000e+00 0.000000000e+00 0.000000000e+00
    outer loop
      vertex 4.000000000e+00 9.111057681e-01 2.087083523e+00
      vertex 4.000000000e+00 8.762164678e-01 1.987218705e+00
      vertex 4.000000000e+00 8.766137007e-01 1.983827632e+00
    endloop
  endfacet
  facet normal 1.000000000e+00 0.000000000e+00 0.000000000e+00
    outer loop
      vertex 4.000000000e+00 9.111057681e-01 2.087083523e+00
      vertex 4.000000000e+00 8.766137007e-01 1.983827632e+00
      vertex 4.000000000e+00 8.771038148e-01 1.980448733e+00
    endloop
  endfacet
  facet normal 1.000000000e+00 0.000000000e+00 0.000000000e+00
    outer loop
      vertex 4.000000000e+00 9.111057681e-01 2.087083523e+00
      vertex 4.000000000e+00 8.771038148e-01 1.980448733e+00
      vertex 4.000000000e+00 8.776864414e-01 1.977084552e+00
    endloop
  endfacet
  facet normal 1.000000000e+00 0.000000000e+00 0.000000000e+00
    outer loop
      vertex 4.000000000e+00 9.111057681e-01 2.087083523e+00
      vertex 4.000000000e+00 8.776864414e-01 1.977084552e+00
      vertex 4.000000000e+00 8.783611418e-01 1.973737621e+00
    endloop
  endfacet
  facet normal 1.000000000e+00 0.000000000e+00 0.000000000e+00
    outer loop
      vertex 4.000000000e+00 9.111057681e-01 2.087083523e+00
      vertex 4.000000000e+00 8.783611418e-01 1.973737621e+00
      vertex 4.000000000e+00 8.791274081e-01 1.970410460e+00
    endloop
  endfacet
  facet normal 1.000000000e+00 0.000000000e+00 0.000000000e+00
    outer loop
      vertex 4.000000000e+00 9.111057681e-01 2.087083523e+00
      vertex 4.000000000e+00 8.791274081e-01 1.970410460e+00
      vertex 4.000000000e+00 8.799846636e-01 1.967105572e+00
    endloop
  endfacet
  facet normal 1.000000000e+00 0.000000000e+00 0.000000000e+00
    outer loop
      vertex 4.000000000e+00 9.111057681e-01 2.087083523e+00
      vertex 4.000000000e+00 8.799846636e-01 1.967105572e+00
      vertex 4.000000000e+00 8.809322628e-01 1.963825447e+00
    endloop
  endfacet
  facet normal 1.000000000e+00 0.000000000e+00 0.000000000e+00
    outer loop
      vertex 4.000000000e+00 9.111057681e-01 2.087083523e+00
      vertex 4.000000000e+00 8.809322628e-01 1.963825447e+00
      vertex 4.000000000e+00 8.819694924e-01 1.960572552e+00
    endloop
  endfacet
  facet normal 1.000000000e+00 0.000000000e+00 0.000000000e+00
    outer loop
      vertex 4.000000000e+00 9.111057681e-01 2.087083523e+00
      vertex 4.000000000e+00 8.819694924e-01 1.960572552e+00
      vertex 4.000000000e+00 8.830955718e-01 1.957349338e+00
    endloop
  endfacet
  facet normal 1.000000000e+00 0.000000000e+00 0.000000000e+00
    outer loop
      vertex 4.000000000e+00 9.111057681e-01 2.087083523e+00
      vertex 4.000000000e+00 8.830955718e-01 1.957349338e+00
      vertex 4.000000000e+00 8.843096531e-01 1.954158229e+00
    endloop
  endfacet
  facet normal 1.000000000e+00 0.000000000e+00 0.000000000e+00
    outer loop
      vertex 4.000000000e+00 9.111057681e-01 2.087083523e+00
      vertex 4.000000000e+00 8.869981004e-01 1.947881912e+00
      vertex 4.000000000e+00 8.884704427e-01 1.944801429e+00
    endloop
  endfacet
  facet normal 1.000000000e+00 0.000000000e+00 0.000000000e+00
    outer loop
      vertex 4.000000000e+00 9.111057681e-01 2.087083523e+00
      vertex 4.000000000e+00 8.884704427e-01 1.944801429e+00
      vertex 4.000000000e+00 8.900267409e-01 1.941762498e+00
    endloop
  endfacet
  facet normal 1.000000000e+00 0.000000000e+00 0.000000000e+00
    outer loop
      vertex 4.000000000e+00 9.111057681e-01 2.087083523e+00
      vertex 4.000000000e+00 8.900267409e-01 1.941762498e+00
      vertex 4.000000000e+00 8.916658235e-01 1.938767406e+00
    endloop
  endfacet
  facet normal 1.000000000e+00 0.000000000e+00 0.000000000e+00
    outer loop
      vertex 4.000000000e+00 9.111057681e-01 2.087083523e+00
      vertex 4.000000000e+00 8.916658235e-01 1.938767406e+00
      vertex 4.000000000e+00 8.933864567e-01 1.935818408e+00
    endloop
  endfacet
  facet normal 1.000000000e+00 0.000000000e+00 0.000000000e+00
    outer loop
      vertex 4.000000000e+00 9.111057681e-01 2.087083523e+00
      vertex 4.000000000e+00 8.933864567e-01 1.935818408e+00
      vertex 4.000000000e+00 8.951873453e-01 1.932917724e+00
    endloop
  endfacet
  facet normal 1.000000000e+00 0.000000000e+00 0.000000000e+00
    outer loop
      vertex 4.000000000e+00 9.111057681e-01 2.087083523e+00
      vertex 4.000000000e+00 8.951873453e-01 1.932917724e+00
      vertex 4.000000000e+00 8.970671335e-01 1.930067537e+00
    endloop
  endfacet
  facet normal 1.000000000e+00 0.000000000e+00 0.000000000e+00
    outer loop
      vertex 4.000000000e+00 9.111057681e-01 2.087083523e+00
      vertex 4.000000000e+00 8.970671335e-01 1.930067537e+00
      vertex 4.000000000e+00 8.990244064e-01 1.927269994e+00
    endloop
  endfacet
  facet normal 1.000000000e+00 0.000000000e+00 0.000000000e+00
    outer loop
      vertex 4.000000000e+00 9.111057681e-01 2.087083523e+00
      vertex 4.000000000e+00 8.990244064e-01 1.927269994e+00
      vertex 4.000000000e+00 9.010576905e-01 1.924527199e+00
    endloop
  endfacet
  facet normal 1.000000000e+00 0.000000000e+00 0.000000000e+00
    outer loop
      vertex 4.000000000e+00 9.111057681e-01 2.087083523e+00
      vertex 4.000000000e+00 9.010576905e-01 1.924527199e+00
      vertex 4.000000000e+00 9.031654553e-01 1.921841217e+00
    endloop
  endfacet
  facet normal 1.000000000e+00 0.000000000e+00 0.000000000e+00
    outer loop
      vertex 4.000000000e+00 9.111057681e-01 2.087083523e+00
      vertex 4.000000000e+00 9.031654553e-01 1.921841217e+00
      vertex 4.000000000e+00 9.053461141e-01 1.919214072e+00
    endloop
  endfacet
  facet normal 1.000000000e+00 0.000000000e+00 0.000000000e+00
    outer loop
      vertex 4.000000000e+00 9.111057681e-01 2.087083523e+00
      vertex 4.000000000e+00 9.172835144e-01 1.907028459e+00
      vertex 4.000000000e+00 9.198652333e-01 1.904794204e+00
    endloop
  endfacet
  facet normal 1.000000000e+00 0.000000000e+00 0.000000000e+00
    outer loop
      vertex 4.000000000e+00 9.111057681e-01 2.087083523e+00
      vertex 4.000000000e+00 9.198652333e-01 1.904794204e+00
      vertex 4.000000000e+00 9.225072751e-01 1.902631617e+00
    endloop
  endfacet
  facet normal 1.000000000e+00 0.000000000e+00 0.000000000e+00
    outer loop
      vertex 4.000000000e+00 9.111057681e-01 2.087083523e+00
      vertex 4.000000000e+00 9.225072751e-01 1.902631617e+00
      vertex 4.000000000e+00 9.252076510e-01 1.900542326e+00
    endloop
  endfacet
  facet normal 1.000000000e+00 0.000000000e+00 0.000000000e+00
    outer loop
      vertex 4.000000000e+00 9.111057681e-01 2.087083523e+00
      vertex 4.000000000e+00 9.307752318e-01 1.896589866e+00
      vertex 4.000000000e+00 9.336382455e-01 1.894729672e+00
    endloop
  endfacet
  facet normal 1.000000000e+00 0.000000000e+00 0.000000000e+00
    outer loop
      vertex 4.000000000e+00 9.111057681e-01 2.087083523e+00
      vertex 4.000000000e+00 9.336382455e-01 1.894729672e+00
      vertex 4.000000000e+00 9.365512142e-01 1.892948723e+00
    endloop
  endfacet
  facet normal 1.000000000e+00 0.000000000e+00 0.000000000e+00
    outer loop
      vertex 4.000000000e+00 9.111057681e-01 2.087083523e+00
      vertex 4.000000000e+00 9.365512142e-01 1.892948723e+00
      vertex 4.000000000e+00 9.395119452e-01 1.891248358e+00
    endloop
  endfacet
  facet normal 1.000000000e+00 0.000000000e+00 0.000000000e+00
    outer loop
      vertex 4.000000000e+00 9.111057681e-01 2.087083523e+00
      vertex 4.000000000e+00 9.395119452e-01 1.891248358e+00
      vertex 4.000000000e+00 9.425182097e-01 1.889629858e+00
    endloop
  endfacet
  facet normal 1.000000000e+00 0.000000000e+00 0.000000000e+00
    outer loop
      vertex 4.000000000e+00 9.111057681e-01 2.087083523e+00
      vertex 4.000000000e+00 9.425182097e-01 1.889629858e+00
      vertex 4.000000000e+00 9.455677447e-01 1.888094442e+00
    endloop
  endfacet
  facet normal 1.000000000e+00 0.000000000e+00 0.000000000e+00
    outer loop
      vertex 4.000000000e+00 9.111057681e-01 2.087083523e+00
      vertex 4.000000000e+00 9.455677447e-01 1.888094442e+00
      vertex 4.000000000e+00 9.486582546e-01 1.886643264e+00
    endloop
  endfacet
  facet normal 1.000000000e+00 0.000000000e+00 0.000000000e+00
    outer loop
      vertex 4.000000000e+00 9.111057681e-01 2.087083523e+00
      vertex 4.000000000e+00 9.486582546e-01 1.886643264e+00
      vertex 4.000000000e+00 9.517874130e-01 1.885277418e+00
    endloop
  endfacet
  facet normal 1.000000000e+00 0.000000000e+00 0.000000000e+00
    outer loop
      vertex 4.000000000e+00 9.111057681e-01 2.087083523e+00
      vertex 4.000000000e+00 9.517874130e-01 1.885277418e+00
      vertex 4.000000000e+00 9.549528643e-01 1.883997931e+00
    endloop
  endfacet
  facet normal 1.000000000e+00 0.000000000e+00 0.000000000e+00
    outer loop
      vertex 4.000000000e+00 9.111057681e-01 2.087083523e+00
      vertex 4.000000000e+00 9.549528643e-01 1.883997931e+00
      vertex 4.000000000e+00 9.581522256e-01 1.882805767e+00
    endloop
  endfacet
  facet normal 1.000000000e+00 0.000000000e+00 0.000000000e+00
    outer loop
      vertex 4.000000000e+00 9.111057681e-01 2.087083523e+00
      vertex 4.000000000e+00 9.581522256e-01 1.882805767e+00
      vertex 4.000000000e+00 9.613830887e-01 1.881701824e+00
    endloop
  endfacet
  facet normal 1.000000000e+00 0.000000000e+00 0.000000000e+00
    outer loop
      vertex 4.000000000e+00 9.111057681e-01 2.087083523e+00
      vertex 4.000000000e+00 9.613830887e-01 1.881701824e+00
      vertex 4.000000000e+00 9.646430213e-01 1.880686931e+00
    endloop
  endfacet
  facet normal 1.000000000e+00 0.000000000e+00 0.000000000e+00
    outer loop
      vertex 4.000000000e+00 9.111057681e-01 2.087083523e+00
      vertex 4.000000000e+00 9.646430213e-01 1.880686931e+00
      vertex 4.000000000e+00 9.679295696e-01 1.879761854e+00
    endloop
  endfacet
  facet normal 1.000000000e+00 0.000000000e+00 0.000000000e+00
    outer loop
      vertex 4.000000000e+00 9.111057681e-01 2.087083523e+00
      vertex 4.000000000e+00 9.679295696e-01 1.879761854e+00
      vertex 4.000000000e+00 9.712402595e-01 1.878927288e+00
    endloop
  endfacet
  facet normal 1.000000000e+00 0.000000000e+00 0.000000000e+00
    outer loop
      vertex 4.000000000e+00 9.111057681e-01 2.087083523e+00
      vertex 4.000000000e+00 9.712402595e-01 1.878927288e+00
      vertex 4.000000000e+00 9.745725988e-01 1.878183861e+00
    endloop
  endfacet
  facet normal 1.000000000e+00 0.000000000e+00 0.000000000e+00
    outer loop
      vertex 4.000000000e+00 9.111057681e-01 2.087083523e+00
      vertex 4.000000000e+00 9.745725988e-01 1.878183861e+00
      vertex 4.000000000e+00 9.779240791e-01 1.877532135e+00
    endloop
  endfacet
  facet normal 1.000000000e+00 0.000000000e+00 0.000000000e+00
    outer loop
      vertex 4.000000000e+00 9.111057681e-01 2.087083523e+00
      vertex 4.000000000e+00 9.779240791e-01 1.877532135e+00
      vertex 4.000000000e+00 9.812921774e-01 1.876972598e+00
    endloop
  endfacet
  facet normal 1.000000000e+00 0.000000000e+00 0.000000000e+00
    outer loop
      vertex 4.000000000e+00 9.111057681e-01 2.087083523e+00
      vertex 4.000000000e+00 9.812921774e-01 1.876972598e+00
      vertex 4.000000000e+00 9.846743584e-01 1.876505672e+00
    endloop
  endfacet
  facet normal 1.000000000e+00 0.000000000e+00 0.000000000e+00
    outer loop
      vertex 4.000000000e+00 9.111057681e-01 2.087083523e+00
      vertex 4.000000000e+00 9.846743584e-01 1.876505672e+00
      vertex 4.000000000e+00 9.880680760e-01 1.876131709e+00
    endloop
  endfacet
  facet normal 1.000000000e+00 0.000000000e+00 0.000000000e+00
    outer loop
      vertex 4.000000000e+00 9.111057681e-01 2.087083523e+00
      vertex 4.000000000e+00 9.880680760e-01 1.876131709e+00
      vertex 4.000000000e+00 9.914707757e-01 1.875850990e+00
    endloop
  endfacet
  facet normal 1.000000000e+00 0.000000000e+00 0.000000000e+00
    outer loop
      vertex 4.000000000e+00 9.111057681e-01 2.087083523e+00
      vertex 4.000000000e+00 9.914707757e-01 1.875850990e+00
      vertex 4.000000000e+00 9.948798958e-01 1.875663727e+00
    endloop
  endfacet
  facet normal 1.000000000e+00 0.000000000e+00 0.000000000e+00
    outer loop
      vertex 4.000000000e+00 9.111057681e-01 2.087083523e+00
      vertex 4.000000000e+00 9.948798958e-01 1.875663727e+00
      vertex 4.000000000e+00 9.982928703e-01 1.875570060e+00
    endloop
  endfacet
  facet normal 1.000000000e+00 0.000000000e+00 0.000000000e+00
    outer loop
      vertex 4.000000000e+00 9.111057681e-01 2.087083523e+00
      vertex 4.000000000e+00 9.982928703e-01 1.875570060e+00
      vertex 4.000000000e+00 1.001707130e+00 1.875570060e+00
    endloop
  endfacet
  facet normal 1.000000000e+00 0.000000000e+00 0.000000000e+00
    outer loop
      vertex 4.000000000e+00 9.111057681e-01 2.087083523e+00
      vertex 4.000000000e+00 1.001707130e+00 1.875570060e+00
      vertex 4.000000000e+00 1.005120104e+00 1.875663727e+00
    endloop
  endfacet
  facet normal 1.000000000e+00 0.000000000e+00 0.000000000e+00
    outer loop
      vertex 4.000000000e+00 9.111057681e-01 2.087083523e+00
      vertex 4.000000000e+00 1.005120104e+00 1.875663727e+00
      vertex 4.000000000e+00 1.008529224e+00 1.875850990e+00
    endloop
  endfacet
  facet normal 1.000000000e+00 0.000000000e+00 0.000000000e+00
    outer loop
      vertex 4.000000000e+00 9.111057681e-01 2.087083523e+00
      vertex 4.000000000e+00 1.008529224e+00 1.875850990e+00
      vertex 4.000000000e+00 1.011931924e+00 1.876131709e+00
    endloop
  endfacet
  facet normal 1.000000000e+00 0.000000000e+00 0.000000000e+00
    outer loop
      vertex 4.000000000e+00 9.111057681e-01 2.087083523e+00
      vertex 4.000000000e+00 1.011931924e+00 1.876131709e+00
      vertex 4.000000000e+00 1.015325642e+00 1.876505672e+00
    endloop
  endfacet
  facet normal 1.000000000e+00 0.000000000e+00 0.000000000e+00
    outer loop
      vertex 4.000000000e+00 9.111057681e-01 2.087083523e+00
      vertex 4.000000000e+00 1.015325642e+00 1.876505672e+00
      vertex 4.000000000e+00 1.018707823e+00 1.876972598e+00
    endloop
  endfacet
  facet normal 1.000000000e+00 0.000000000e+00 0.000000000e+00
    outer loop
      vertex 4.000000000e+00 9.111057681e-01 2.087083523e+00
      vertex 4.000000000e+00 1.018707823e+00 1.876972598e+00
      vertex 4.000000000e+00 1.022075921e+00 1.877532135e+00
    endloop
  endfacet
  facet normal 1.000000000e+00 0.000000000e+00 0.000000000e+00
    outer loop
      vertex 4.000000000e+00 9.111057681e-01 2.087083523e+00
      vertex 4.000000000e+00 1.022075921e+00 1.877532135e+00
      vertex 4.000000000e+00 1.025427401e+00 1.878183861e+00
    endloop
  endfacet
  facet normal 1.000000000e+00 0.000000000e+00 0.000000000e+00
    outer loop
      vertex 4.000000000e+00 9.111057681e-01 2.087083523e+00
      vertex 4.000000000e+00 1.025427401e+00 1.878183861e+00
      vertex 4.000000000e+00 1.028759741e+00 1.878927288e+00
    endloop
  endfacet
  facet normal 1.000000000e+00 0.000000000e+00 0.000000000e+00
    outer loop
      vertex 4.000000000e+00 9.111057681e-01 2.087083523e+00
      vertex 4.000000000e+00 1.028759741e+00 1.878927288e+00
      vertex 4.000000000e+00 1.032070430e+00 1.879761854e+00
    endloop
  endfacet
  facet normal 1.000000000e+00 0.000000000e+00 0.000000000e+00
    outer loop
      vertex 4.000000000e+00 9.111057681e-01 2.087083523e+00
      vertex 4.000000000e+00 1.032070430e+00 1.879761854e+00
      vertex 4.000000000e+00 1.035356979e+00 1.880686931e+00
    endloop
  endfacet
  facet normal 1.000000000e+00 0.000000000e+00 0.000000000e+00
    outer loop
      vertex 4.000000000e+00 9.111057681e-01 2.087083523e+00
      vertex 4.000000000e+00 1.035356979e+00 1.880686931e+00
      vertex 4.000000000e+00 1.038616911e+00 1.881701824e+00
    endloop
  endfacet
  facet normal 1.000000000e+00 0.000000000e+00 0.000000000e+00
    outer loop
      vertex 4.000000000e+00 9.111057681e-01 2.087083523e+00
      vertex 4.000000000e+00 1.038616911e+00 1.881701824e+00
      vertex 4.000000000e+00 1.041847774e+00 1.882805767e+00
    endloop
  endfacet
  facet normal 1.000000000e+00 0.000000000e+00 0.000000000e+00
    outer loop
      vertex 4.000000000e+00 9.111057681e-01 2.087083523e+00
      vertex 4.000000000e+00 1.041847774e+00 1.882805767e+00
      vertex 4.000000000e+00 1.045047136e+00 1.883997931e+00
    endloop
  endfacet
  facet normal 1.000000000e+00 0.000000000e+00 0.000000000e+00
    outer loop
      vertex 4.000000000e+00 9.111057681e-01 2.087083523e+00
      vertex 4.000000000e+00 1.045047136e+00 1.883997931e+00
      vertex 4.000000000e+00 1.048212587e+00 1.885277418e+00
    endloop
  endfacet
  facet normal 1.000000000e+00 0.000000000e+00 0.000000000e+00
    outer loop
      vertex 4.000000000e+00 9.111057681e-01 2.087083523e+00
      vertex 4.000000000e+00 1.048212587e+00 1.885277418e+00
      vertex 4.000000000e+00 1.051341745e+00 1.886643264e+00
    endloop
  endfacet
  facet normal 1.000000000e+00 0.000000000e+00 0.000000000e+00
    outer loop
      vertex 4.000000000e+00 9.111057681e-01 2.087083523e+00
      vertex 4.000000000e+00 1.051341745e+00 1.886643264e+00
      vertex 4.000000000e+00 1.054432255e+00 1.888094442e+00
    endloop
  endfacet
  facet normal 1.000000000e+00 0.000000000e+00 0.000000000e+00
    outer loop
      vertex 4.000000000e+00 9.111057681e-01 2.087083523e+00
      vertex 4.000000000e+00 1.054432255e+00 1.888094442e+00
      vertex 4.000000000e+00 1.057481790e+00 1.889629858e+00
    endloop
  endfacet
  facet normal 1.000000000e+00 0.000000000e+00 0.000000000e+00
    outer loop
      vertex 4.000000000e+00 9.111057681e-01 2.087083523e+00
      vertex 4.000000000e+00 1.057481790e+00 1.889629858e+00
      vertex 4.000000000e+00 1.060488055e+00 1.891248358e+00
    endloop
  endfacet
  facet normal 1.000000000e+00 0.000000000e+00 0.000000000e+00
    outer loop
      vertex 4.000000000e+00 9.111057681e-01 2.087083523e+00
      vertex 4.000000000e+00 1.060488055e+00 1.891248358e+00
      vertex 4.000000000e+00 1.063448786e+00 1.892948723e+00
    endloop
  endfacet
  facet normal 1.000000000e+00 0.000000000e+00 0.000000000e+00
    outer loop
      vertex 4.000000000e+00 9.111057681e-01 2.087083523e+00
      vertex 4.000000000e+00 1.063448786e+00 1.892948723e+00
      vertex 4.000000000e+00 1.066361755e+00 1.894729672e+00
    endloop
  endfacet
  facet normal 1.000000000e+00 0.000000000e+00 0.000000000e+00
    outer loop
      vertex 4.000000000e+00 9.111057681e-01 2.087083523e+00
      vertex 4.000000000e+00 1.066361755e+00 1.894729672e+00
      vertex 4.000000000e+00 1.069224768e+00 1.896589866e+00
    endloop
  endfacet
  facet normal 1.000000000e+00 0.000000000e+00 0.000000000e+00
    outer loop
      vertex 4.000000000e+00 9.111057681e-01 2.087083523e+00
      vertex 4.000000000e+00 1.069224768e+00 1.896589866e+00
      vertex 4.000000000e+00 1.072035672e+00 1.898527904e+00
    endloop
  endfacet
  facet normal 1.000000000e+00 0.000000000e+00 0.000000000e+00
    outer loop
      vertex 4.000000000e+00 9.111057681e-01 2.087083523e+00
      vertex 4.000000000e+00 1.072035672e+00 1.898527904e+00
      vertex 4.000000000e+00 1.074792349e+00 1.900542326e+00
    endloop
  endfacet
  facet normal 1.000000000e+00 0.000000000e+00 0.000000000e+00
    outer loop
      vertex 4.000000000e+00 9.111057681e-01 2.087083523e+00
      vertex 4.000000000e+00 1.074792349e+00 1.900542326e+00
      vertex 4.000000000e+00 1.077492725e+00 1.902631617e+00
    endloop
  endfacet
  facet normal 1.000000000e+00 0.000000000e+00 0.000000000e+00
    outer loop
      vertex 4.000000000e+00 9.111057681e-01 2.087083523e+00
      vertex 4.000000000e+00 1.077492725e+00 1.902631617e+00
      vertex 4.000000000e+00 1.080134767e+00 1.904794204e+00
    endloop
  endfacet
  facet normal 1.000000000e+00 0.000000000e+00 0.000000000e+00
    outer loop
      vertex 4.000000000e+00 9.111057681e-01 2.087083523e+00
      vertex 4.000000000e+00 1.080134767e+00 1.904794204e+00
      vertex 4.000000000e+00 1.082716486e+00 1.907028459e+00
    endloop
  endfacet
  facet normal 1.000000000e+00 0.000000000e+00 0.000000000e+00
    outer loop
      vertex 4.000000000e+00 9.111057681e-01 2.087083523e+00
      vertex 4.000000000e+00 1.082716486e+00 1.907028459e+00
      vertex 4.000000000e+00 1.085235938e+00 1.909332700e+00
    endloop
  endfacet
  facet normal 1.000000000e+00 0.000000000e+00 0.000000000e+00
    outer loop
      vertex 4.000000000e+00 9.111057681e-01 2.087083523e+00
      vertex 4.000000000e+00 1.085235938e+00 1.909332700e+00
      vertex 4.000000000e+00 1.087691228e+00 1.911705193e+00
    endloop
  endfacet
  facet normal 1.000000000e+00 0.000000000e+00 0.000000000e+00
    outer loop
      vertex 4.000000000e+00 9.111057681e-01 2.087083523e+00
      vertex 4.000000000e+00 1.087691228e+00 1.911705193e+00
      vertex 4.000000000e+00 1.090080506e+00 1.914144151e+00
    endloop
  endfacet
  facet normal 1.000000000e+00 0.000000000e+00 0.000000000e+00
    outer loop
      vertex 4.000000000e+00 9.111057681e-01 2.087083523e+00
      vertex 4.000000000e+00 1.090080506e+00 1.914144151e+00
      vertex 4.000000000e+00 1.092401975e+00 1.916647739e+00
    endloop
  endfacet
  facet normal 1.000000000e+00 0.000000000e+00 0.000000000e+00
    outer loop
      vertex 4.000000000e+00 9.111057681e-01 2.087083523e+00
      vertex 4.000000000e+00 1.092401975e+00 1.916647739e+00
      vertex 4.000000000e+00 1.094653886e+00 1.919214072e+00
    endloop
  endfacet
  facet normal 1.000000000e+00 0.000000000e+00 0.000000000e+00
    outer loop
      vertex 4.000000000e+00 9.111057681e-01 2.087083523e+00
      vertex 4.000000000e+00 1.094653886e+00 1.919214072e+00
      vertex 4.000000000e+00 1.096834545e+00 1.921841217e+00
    endloop
  endfacet
  facet normal 1.000000000e+00 0.000000000e+00 0.000000000e+00
    outer loop
      vertex 4.000000000e+00 9.111057681e-01 2.087083523e+00
      vertex 4.000000000e+00 1.096834545e+00 1.921841217e+00
      vertex 4.000000000e+00 1.098942310e+00 1.924527199e+00
    endloop
  endfacet
  facet normal 1.000000000e+00 0.000000000e+00 0.000000000e+00
    outer loop
      vertex 4.000000000e+00 9.111057681e-01 2.087083523e+00
      vertex 4.000000000e+00 1.098942310e+00 1.924527199e+00
      vertex 4.000000000e+00 1.100975594e+00 1.927269994e+00
    endloop
  endfacet
  facet normal 1.000000000e+00 0.000000000e+00 0.000000000e+00
    outer loop
      vertex 4.000000000e+00 9.111057681e-01 2.087083523e+00
      vertex 4.000000000e+00 1.100975594e+00 1.927269994e+00
      vertex 4.000000000e+00 1.102932867e+00 1.930067537e+00
    endloop
  endfacet
  facet normal 1.000000000e+00 0.000000000e+00 0.000000000e+00
    outer loop
      vertex 4.000000000e+00 9.111057681e-01 2.087083523e+00
      vertex 4.000000000e+00 1.102932867e+00 1.930067537e+00
      vertex 4.000000000e+00 1.104812655e+00 1.932917724e+00
    endloop
  endfacet
  facet normal 1.000000000e+00 0.000000000e+00 0.000000000e+00
    outer loop
      vertex 4.000000000e+00 9.111057681e-01 2.087083523e+00
      vertex 4.000000000e+00 1.104812655e+00 1.932917724e+00
      vertex 4.000000000e+00 1.106613543e+00 1.935818408e+00
    endloop
  endfacet
  facet normal 1.000000000e+00 0.000000000e+00 0.000000000e+00
    outer loop
      vertex 4.000000000e+00 9.111057681e-01 2.087083523e+00
      vertex 4.000000000e+00 1.106613543e+00 1.935818408e+00
      vertex 4.000000000e+00 1.108334176e+00 1.938767406e+00
    endloop
  endfacet
  facet normal 1.000000000e+00 0.000000000e+00 0.000000000e+00
    outer loop
      vertex 4.000000000e+00 9.111057681e-01 2.087083523e+00
      vertex 4.000000000e+00 1.108334176e+00 1.938767406e+00
      vertex 4.000000000e+00 1.109973259e+00 1.941762498e+00
    endloop
  endfacet
  facet normal 1.000000000e+00 0.000000000e+00 0.000000000e+00
    outer loop
      vertex 4.000000000e+00 9.111057681e-01 2.087083523e+00
      vertex 4.000000000e+00 1.109973259e+00 1.941762498e+00
      vertex 4.000000000e+00 1.111529557e+00 1.944801429e+00
    endloop
  endfacet
  facet normal 1.000000000e+00 0.000000000e+00 0.000000000e+00
    outer loop
      vertex 4.000000000e+00 9.111057681e-01 2.087083523e+00
      vertex 4.000000000e+00 1.111529557e+00 1.944801429e+00
      vertex 4.000000000e+00 1.113001900e+00 1.947881912e+00
    endloop
  endfacet
  facet normal 1.000000000e+00 0.000000000e+00 0.000000000e+00
    outer loop
      vertex 4.000000000e+00 9.111057681e-01 2.087083523e+00
      vertex 4.000000000e+00 1.113001900e+00 1.947881912e+00
      vertex 4.000000000e+00 1.114389178e+00 1.951001628e+00
    endloop
  endfacet
  facet normal 1.000000000e+00 0.000000000e+00 0.000000000e+00
    outer loop
      vertex 4.000000000e+00 9.111057681e-01 2.087083523e+00
      vertex 4.000000000e+00 1.114389178e+00 1.951001628e+00
      vertex 4.000000000e+00 1.115690347e+00 1.954158229e+00
    endloop
  endfacet
  facet normal 1.000000000e+00 0.000000000e+00 0.000000000e+00
    outer loop
      vertex 4.000000000e+00 9.111057681e-01 2.087083523e+00
      vertex 4.000000000e+00 1.115690347e+00 1.954158229e+00
      vertex 4.000000000e+00 1.116904428e+00 1.957349338e+00
    endloop
  endfacet
  facet normal 1.000000000e+00 0.000000000e+00 0.000000000e+00
    outer loop
      vertex 4.000000000e+00 9.111057681e-01 2.087083523e+00
      vertex 4.000000000e+00 1.116904428e+00 1.957349338e+00
      vertex 4.000000000e+00 1.118030508e+00 1.960572552e+00
    endloop
  endfacet
  facet normal 1.000000000e+00 0.000000000e+00 0.000000000e+00
    outer loop
      vertex 4.000000000e+00 9.111057681e-01 2.087083523e+00
      vertex 4.000000000e+00 1.118030508e+00 1.960572552e+00
      vertex 4.000000000e+00 1.119067737e+00 1.963825447e+00
    endloop
  endfacet
  facet normal 1.000000000e+00 0.000000000e+00 0.000000000e+00
    outer loop
      vertex 4.000000000e+00 9.111057681e-01 2.087083523e+00
      vertex 4.000000000e+00 1.119067737e+00 1.963825447e+00
      vertex 4.000000000e+00 1.120015336e+00 1.967105572e+00
    endloop
  endfacet
  facet normal 1.000000000e+00 0.000000000e+00 0.000000000e+00
    outer loop
      vertex 4.000000000e+00 9.111057681e-01 2.087083523e+00
      vertex 4.000000000e+00 1.120015336e+00 1.967105572e+00
      vertex 4.000000000e+00 1.120872592e+00 1.970410460e+00
    endloop
  endfacet
  facet normal 1.000000000e+00 0.000000000e+00 0.000000000e+00
    outer loop
      vertex 4.000000000e+00 9.111057681e-01 2.087083523e+00
      vertex 4.000000000e+00 1.120872592e+00 1.970410460e+00
      vertex 4.000000000e+00 1.121638858e+00 1.973737621e+00
    endloop
  endfacet
  facet normal 1.000000000e+00 0.000000000e+00 0.000000000e+00
    outer loop
      vertex 4.000000000e+00 9.111057681e-01 2.087083523e+00
      vertex 4.000000000e+00 1.121638858e+00 1.973737621e+00
      vertex 4.000000000e+00 1.122313559e+00 1.977084552e+00
    endloop
  endfacet
  facet normal 1.000000000e+00 0.000000000e+00 0.000000000e+00
    outer loop
      vertex 4.000000000e+00 9.111057681e-01 2.087083523e+00
      vertex 4.000000000e+00 1.122313559e+00 1.977084552e+00
      vertex 4.000000000e+00 1.122896185e+00 1.980448733e+00
    endloop
  endfacet
  facet normal 1.000000000e+00 0.000000000e+00 0.000000000e+00
    outer loop
      vertex 4.000000000e+00 9.111057681e-01 2.087083523e+00
      vertex 4.000000000e+00 1.122896185e+00 1.980448733e+00
      vertex 4.000000000e+00 1.123386299e+00 1.983827632e+00
    endloop
  endfacet
  facet normal 1.000000000e+00 0.000000000e+00 0.000000000e+00
    outer loop
      vertex 4.000000000e+00 9.111057681e-01 2.087083523e+00
      vertex 4.000000000e+00 1.123386299e+00 1.983827632e+00
      vertex 4.000000000e+00 1.123783532e+00 1.987218705e+00
    endloop
  endfacet
  facet normal 1.000000000e+00 0.000000000e+00 0.000000000e+00
    outer loop
      vertex 4.000000000e+00 9.111057681e-01 2.087083523e+00
      vertex 4.000000000e+00 1.123783532e+00 1.987218705e+00
      vertex 4.000000000e+00 1.124087585e+00 1.990619399e+00
    endloop
  endfacet
  facet normal 1.000000000e+00 0.000000000e+00 0.000000000e+00
    outer loop
      vertex 4.000000000e+00 9.111057681e-01 2.087083523e+00
      vertex 4.000000000e+00 1.124087585e+00 1.990619399e+00
      vertex 4.000000000e+00 1.124298228e+00 1.994027154e+00
    endloop
  endfacet
  facet normal 1.000000000e+00 0.000000000e+00 0.000000000e+00
    outer loop
      vertex 4.000000000e+00 9.111057681e-01 2.087083523e+00
      vertex 4.000000000e+00 1.124298228e+00 1.994027154e+00
      vertex 4.000000000e+00 1.124415303e+00 1.997439406e+00
    endloop
  endfacet
  facet normal 1.000000000e+00 0.000000000e+00 0.000000000e+00
    outer loop
      vertex 4.000000000e+00 9.111057681e-01 2.087083523e+00
      vertex 4.000000000e+00 1.124415303e+00 1.997439406e+00
      vertex 4.000000000e+00 1.124438723e+00 2.000853585e+00
    endloop
  endfacet
  facet normal 1.000000000e+00 0.000000000e+00 0.000000000e+00
    outer loop
      vertex 4.000000000e+00 9.111057681e-01 2.087083523e+00
      vertex 4.000000000e+00 1.124438723e+00 2.000853585e+00
      vertex 4.000000000e+00 1.124368469e+00 2.004267122e+00
    endloop
  endfacet
  facet normal 1.000000000e+00 0.000000000e+00 0.000000000e+00
    outer loop
      vertex 4.000000000e+00 9.111057681e-01 2.087083523e+00
      vertex 4.000000000e+00 1.124368469e+00 2.004267122e+00
      vertex 4.000000000e+00 1.124204594e+00 2.007677446e+00
    endloop
  endfacet
  facet normal 1.000000000e+00 0.000000000e+00 0.000000000e+00
    outer loop
      vertex 4.000000000e+00 9.111057681e-01 2.087083523e+00
      vertex 4.000000000e+00 1.124204594e+00 2.007677446e+00
      vertex 4.000000000e+00 1.123947222e+00 2.011081991e+00
    endloop
  endfacet
  facet normal 1.000000000e+00 0.000000000e+00 0.000000000e+00
    outer loop
      vertex 4.000000000e+00 9.111057681e-01 2.087083523e+00
      vertex 4.000000000e+00 1.123947222e+00 2.011081991e+00
      vertex 4.000000000e+00 1.123596546e+00 2.014478194e+00
    endloop
  endfacet
  facet normal 1.000000000e+00 0.000000000e+00 0.000000000e+00
    outer loop
      vertex 4.000000000e+00 9.111057681e-01 2.087083523e+00
      vertex 4.000000000e+00 1.123596546e+00 2.014478194e+00
      vertex 4.000000000e+00 1.123152831e+00 2.017863498e+00
    endloop
  endfacet
  facet normal 1.000000000e+00 0.000000000e+00 0.000000000e+00
    outer loop
      vertex 4.000000000e+00 9.111057681e-01 2.087083523e+00
      vertex 4.000000000e+00 1.123152831e+00 2.017863498e+00
      vertex 4.000000000e+00 1.122616410e+00 2.021235355e+00
    endloop
  endfacet
  facet normal 1.000000000e+00 0.000000000e+00 0.000000000e+00
    outer loop
      vertex 4.000000000e+00 9.111057681e-01 2.087083523e+00
      vertex 4.000000000e+00 1.122616410e+00 2.021235355e+00
      vertex 4.000000000e+00 1.121987687e+00 2.024591227e+00
    endloop
  endfacet
  facet normal 1.000000000e+00 0.000000000e+00 0.000000000e+00
    outer loop
      vertex 4.000000000e+00 9.111057681e-01 2.087083523e+00
      vertex 4.000000000e+00 1.121987687e+00 2.024591227e+00
      vertex 4.000000000e+00 1.121267136e+00 2.027928588e+00
    endloop
  endfacet
  facet normal 1.000000000e+00 0.000000000e+00 0.000000000e+00
    outer loop
      vertex 4.000000000e+00 9.111057681e-01 2.087083523e+00
      vertex 4.000000000e+00 1.121267136e+00 2.027928588e+00
      vertex 4.000000000e+00 1.120455299e+00 2.031244924e+00
    endloop
  endfacet
  facet normal 1.000000000e+00 0.000000000e+00 0.000000000e+00
    outer loop
      vertex 4.000000000e+00 9.111057681e-01 2.087083523e+00
      vertex 4.000000000e+00 1.120455299e+00 2.031244924e+00
      vertex 4.000000000e+00 1.119552787e+00 2.034537741e+00
    endloop
  endfacet
  facet normal 1.000000000e+00 0.000000000e+00 0.000000000e+00
    outer loop
      vertex 4.000000000e+00 9.111057681e-01 2.087083523e+00
      vertex 4.000000000e+00 1.119552787e+00 2.034537741e+00
      vertex 4.000000000e+00 1.118560279e+00 2.037804558e+00
    endloop
  endfacet
  facet normal 1.000000000e+00 0.000000000e+00 0.000000000e+00
    outer loop
      vertex 4.000000000e+00 9.111057681e-01 2.087083523e+00
      vertex 4.000000000e+00 1.118560279e+00 2.037804558e+00
      vertex 4.000000000e+00 1.117478523e+00 2.041042917e+00
    endloop
  endfacet
  facet normal 1.000000000e+00 0.000000000e+00 0.000000000e+00
    outer loop
      vertex 4.000000000e+00 9.111057681e-01 2.087083523e+00
      vertex 4.000000000e+00 1.117478523e+00 2.041042917e+00
      vertex 4.000000000e+00 1.116308332e+00 2.044250381e+00
    endloop
  endfacet
  facet normal 1.000000000e+00 0.000000000e+00 0.000000000e+00
    outer loop
      vertex 4.000000000e+00 9.111057681e-01 2.087083523e+00
      vertex 4.000000000e+00 1.116308332e+00 2.044250381e+00
      vertex 4.000000000e+00 1.115050589e+00 2.047424534e+00
    endloop
  endfacet
  facet normal 1.000000000e+00 0.000000000e+00 0.000000000e+00
    outer loop
      vertex 4.000000000e+00 9.111057681e-01 2.087083523e+00
      vertex 4.000000000e+00 1.115050589e+00 2.047424534e+00
      vertex 4.000000000e+00 1.113706238e+00 2.050562988e+00
    endloop
  endfacet
  facet normal 1.000000000e+00 0.000000000e+00 0.000000000e+00
    outer loop
      vertex 4.000000000e+00 9.111057681e-01 2.087083523e+00
      vertex 4.000000000e+00 1.113706238e+00 2.050562988e+00
      vertex 4.000000000e+00 1.112276294e+00 2.053663379e+00
    endloop
  endfacet
  facet normal 1.000000000e+00 0.000000000e+00 0.000000000e+00
    outer loop
      vertex 4.000000000e+00 9.111057681e-01 2.087083523e+00
      vertex 4.000000000e+00 1.112276294e+00 2.053663379e+00
      vertex 4.000000000e+00 1.110761831e+00 2.056723374e+00
    endloop
  endfacet
  facet normal 1.000000000e+00 0.000000000e+00 0.000000000e+00
    outer loop
      vertex 4.000000000e+00 9.111057681e-01 2.087083523e+00
      vertex 4.000000000e+00 1.110761831e+00 2.056723374e+00
      vertex 4.000000000e+00 1.109163990e+00 2.059740670e+00
    endloop
  endfacet
  facet normal 1.000000000e+00 0.000000000e+00 0.000000000e+00
    outer loop
      vertex 4.000000000e+00 9.111057681e-01 2.087083523e+00
      vertex 4.000000000e+00 1.109163990e+00 2.059740670e+00
      vertex 4.000000000e+00 1.107483974e+00 2.062712994e+00
    endloop
  endfacet
  facet normal 1.000000000e+00 0.000000000e+00 0.000000000e+00
    outer loop
      vertex 4.000000000e+00 9.111057681e-01 2.087083523e+00
      vertex 4.000000000e+00 1.107483974e+00 2.062712994e+00
      vertex 4.000000000e+00 1.105723048e+00 2.065638111e+00
    endloop
  endfacet
  facet normal 1.000000000e+00 0.000000000e+00 0.000000000e+00
    outer loop
      vertex 4.000000000e+00 9.111057681e-01 2.087083523e+00
      vertex 4.000000000e+00 1.105723048e+00 2.065638111e+00
      vertex 4.000000000e+00 1.103882536e+00 2.068513817e+00
    endloop
  endfacet
  facet normal 1.000000000e+00 0.000000000e+00 0.000000000e+00
    outer loop
      vertex 4.000000000e+00 9.111057681e-01 2.087083523e+00
      vertex 4.000000000e+00 1.103882536e+00 2.068513817e+00
      vertex 4.000000000e+00 1.101963825e+00 2.071337948e+00
    endloop
  endfacet
  facet normal 1.000000000e+00 0.000000000e+00 0.000000000e+00
    outer loop
      vertex 4.000000000e+00 9.111057681e-01 2.087083523e+00
      vertex 4.000000000e+00 1.101963825e+00 2.071337948e+00
      vertex 4.000000000e+00 1.099968359e+00 2.074108378e+00
    endloop
  endfacet
  facet normal 1.000000000e+00 0.000000000e+00 0.000000000e+00
    outer loop
      vertex 4.000000000e+00 9.111057681e-01 2.087083523e+00
      vertex 4.000000000e+00 1.088894232e+00 2.087083523e+00
      vertex 4.000000000e+00 1.086471720e+00 2.089489474e+00
    endloop
  endfacet
  facet normal 1.000000000e+00 0.000000000e+00 0.000000000e+00
    outer loop
      vertex 4.000000000e+00 9.111057681e-01 2.087083523e+00
      vertex 4.000000000e+00 1.086471720e+00 2.089489474e+00
      vertex 4.000000000e+00 1.083984115e+00 2.091828061e+00
    endloop
  endfacet
  facet normal 1.000000000e+00 0.000000000e+00 0.000000000e+00
    outer loop
      vertex 4.000000000e+00 9.111057681e-01 2.087083523e+00
      vertex 4.000000000e+00 1.078821163e+00 2.096296151e+00
      vertex 4.000000000e+00 1.076149703e+00 2.098422290e+00
    endloop
  endfacet
  facet normal 1.000000000e+00 0.000000000e+00 0.000000000e+00
    outer loop
      vertex 4.000000000e+00 9.111057681e-01 2.087083523e+00
      vertex 4.000000000e+00 1.027096121e+00 2.121455855e+00
      vertex 4.000000000e+00 1.023753896e+00 2.122153497e+00
    endloop
  endfacet
  facet normal 1.000000000e+00 0.000000000e+00 0.000000000e+00
    outer loop
      vertex 4.000000000e+00 9.111057681e-01 2.087083523e+00
      vertex 4.000000000e+00 1.023753896e+00 2.122153497e+00
      vertex 4.000000000e+00 1.020393791e+00 2.122759186e+00
    endloop
  endfacet
  facet normal 1.000000000e+00 0.000000000e+00 0.000000000e+00
    outer loop
      vertex 4.000000000e+00 9.111057681e-01 2.087083523e+00
      vertex 4.000000000e+00 1.006825307e+00 2.124254334e+00
      vertex 4.000000000e+00 1.003413938e+00 2.124394813e+00
    endloop
  endfacet
  facet normal 1.000000000e+00 0.000000000e+00 0.000000000e+00
    outer loop
      vertex 4.000000000e+00 9.111057681e-01 2.087083523e+00
      vertex 4.000000000e+00 1.003413938e+00 2.124394813e+00
      vertex 4.000000000e+00 1.000000000e+00 2.124441650e+00
    endloop
  endfacet
  facet normal 1.000000000e+00 0.000000000e+00 0.000000000e+00
    outer loop
      vertex 4.000000000e+00 9.111057681e-01 2.087083523e+00
      vertex 4.000000000e+00 1.083984115e+00 2.091828061e+00
      vertex 4.000000000e+00 1.078821163e+00 2.096296151e+00
    endloop
  endfacet
  facet normal 1.000000000e+00 0.000000000e+00 0.000000000e+00
    outer loop
      vertex 4.000000000e+00 9.111057681e-01 2.087083523e+00
      vertex 4.000000000e+00 9.533657503e-01 2.115373182e+00
      vertex 4.000000000e+00 9.440377112e-01 2.111148309e+00
    endloop
  endfacet
  facet normal 1.000000000e+00 0.000000000e+00 0.000000000e+00
    outer loop
      vertex 4.000000000e+00 9.111057681e-01 2.087083523e+00
      vertex 4.000000000e+00 9.053461141e-01 1.919214072e+00
      vertex 4.000000000e+00 9.099194939e-01 1.914144151e+00
    endloop
  endfacet
  facet normal 1.000000000e+00 0.000000000e+00 0.000000000e+00
    outer loop
      vertex 4.000000000e+00 9.111057681e-01 2.087083523e+00
      vertex 4.000000000e+00 1.076149703e+00 2.098422290e+00
      vertex 4.000000000e+00 1.070636867e+00 2.102450756e+00
    endloop
  endfacet
  facet normal 1.000000000e+00 0.000000000e+00 0.000000000e+00
    outer loop
      vertex 4.000000000e+00 9.111057681e-01 2.087083523e+00
      vertex 4.000000000e+00 8.925160258e-01 2.062712994e+00
      vertex 4.000000000e+00 8.877237063e-01 2.053663379e+00
    endloop
  endfacet
  facet normal 1.000000000e+00 0.000000000e+00 0.000000000e+00
    outer loop
      vertex 4.000000000e+00 9.111057681e-01 2.087083523e+00
      vertex 4.000000000e+00 9.440377112e-01 2.111148309e+00
      vertex 4.000000000e+00 9.322003586e-01 2.104350050e+00
    endloop
  endfacet
  facet normal 1.000000000e+00 -0.000000000e+00 0.000000000e+00
    outer loop
      vertex 4.000000000e+00 9.111057681e-01 2.087083523e+00
      vertex 4.000000000e+00 1.099968359e+00 2.074108378e+00
      vertex 4.000000000e+00 1.088894232e+00 2.087083523e+00
    endloop
  endfacet
  facet normal 1.000000000e+00 0.000000000e+00 0.000000000e+00
    outer loop
      vertex 4.000000000e+00 9.111057681e-01 2.087083523e+00
      vertex 4.000000000e+00 1.055962289e+00 2.111148309e+00
      vertex 4.000000000e+00 1.046634250e+00 2.115373182e+00
    endloop
  endfacet
  facet normal 1.000000000e+00 0.000000000e+00 0.000000000e+00
    outer loop
      vertex 4.000000000e+00 9.111057681e-01 2.087083523e+00
      vertex 4.000000000e+00 9.099194939e-01 1.914144151e+00
      vertex 4.000000000e+00 9.172835144e-01 1.907028459e+00
    endloop
  endfacet
  facet normal 1.000000000e+00 0.000000000e+00 0.000000000e+00
    outer loop
      vertex 4.000000000e+00 9.111057681e-01 2.087083523e+00
      vertex 4.000000000e+00 1.070636867e+00 2.102450756e+00
      vertex 4.000000000e+00 1.055962289e+00 2.111148309e+00
    endloop
  endfacet
  facet normal 1.000000000e+00 0.000000000e+00 0.000000000e+00
    outer loop
      vertex 4.000000000e+00 9.111057681e-01 2.087083523e+00
      vertex 4.000000000e+00 9.042467742e-01 2.079479835e+00
      vertex 4.000000000e+00 9.000316413e-01 2.074108378e+00
    endloop
  endfacet
  facet normal 1.000000000e+00 0.000000000e+00 0.000000000e+00
    outer loop
      vertex 4.000000000e+00 9.111057681e-01 2.087083523e+00
      vertex 4.000000000e+00 9.252076510e-01 1.900542326e+00
      vertex 4.000000000e+00 9.307752318e-01 1.896589866e+00
    endloop
  endfacet
  facet normal 1.000000000e+00 0.000000000e+00 0.000000000e+00
    outer loop
      vertex 4.000000000e+00 9.111057681e-01 2.087083523e+00
      vertex 4.000000000e+00 8.843096531e-01 1.954158229e+00
      vertex 4.000000000e+00 8.869981004e-01 1.947881912e+00
    endloop
  endfacet
  facet normal 1.000000000e+00 0.000000000e+00 0.000000000e+00
    outer loop
      vertex 4.000000000e+00 9.111057681e-01 2.087083523e+00
      vertex 4.000000000e+00 9.000316413e-01 2.074108378e+00
      vertex 4.000000000e+00 8.942769524e-01 2.065638111e+00
    endloop
  endfacet
  facet normal 1.000000000e+00 0.000000000e+00 0.000000000e+00
    outer loop
      vertex 4.000000000e+00 9.111057681e-01 2.087083523e+00
      vertex 4.000000000e+00 1.046634250e+00 2.115373182e+00
      vertex 4.000000000e+00 1.027096121e+00 2.121455855e+00
    endloop
  endfacet
  facet normal 1.000000000e+00 0.000000000e+00 0.000000000e+00
    outer loop
      vertex 4.000000000e+00 9.111057681e-01 2.087083523e+00
      vertex 4.000000000e+00 9.965860618e-01 2.124394813e+00
      vertex 4.000000000e+00 9.796062092e-01 2.122759186e+00
    endloop
  endfacet
  facet normal 1.000000000e+00 0.000000000e+00 0.000000000e+00
    outer loop
      vertex 4.000000000e+00 9.111057681e-01 2.087083523e+00
      vertex 4.000000000e+00 1.020393791e+00 2.122759186e+00
      vertex 4.000000000e+00 1.006825307e+00 2.124254334e+00
    endloop
  endfacet
  facet normal 1.000000000e+00 0.000000000e+00 0.000000000e+00
    outer loop
      vertex 4.000000000e+00 9.111057681e-01 2.087083523e+00
      vertex 4.000000000e+00 9.293631331e-01 2.102450756e+00
      vertex 4.000000000e+00 9.185667109e-01 2.094097523e+00
    endloop
  endfacet
  facet normal 1.000000000e+00 0.000000000e+00 0.000000000e+00
    outer loop
      vertex 4.000000000e+00 9.111057681e-01 2.087083523e+00
      vertex 4.000000000e+00 9.796062092e-01 2.122759186e+00
      vertex 4.000000000e+00 9.630095742e-01 2.118816803e+00
    endloop
  endfacet
  facet normal 1.000000000e+00 0.000000000e+00 0.000000000e+00
    outer loop
      vertex 4.000000000e+00 9.111057681e-01 2.087083523e+00
      vertex 4.000000000e+00 8.836916677e-01 2.044250381e+00
      vertex 4.000000000e+00 8.804472132e-01 2.034537741e+00
    endloop
  endfacet
  facet normal 1.000000000e+00 0.000000000e+00 0.000000000e+00
    outer loop
      vertex 4.000000000e+00 9.111057681e-01 2.087083523e+00
      vertex 4.000000000e+00 9.630095742e-01 2.118816803e+00
      vertex 4.000000000e+00 9.533657503e-01 2.115373182e+00
    endloop
  endfacet
endsolid outlet_53
